<svg xmlns="http://www.w3.org/2000/svg" width="74" height="76.74" viewBox="0 0 74 76.74">
  <g id="Group_17822" data-name="Group 17822" transform="translate(-266 -501.26)">
    <text id="Buy_Leads" data-name="Buy Leads" transform="translate(303 574)" fill="#373737" font-size="16" font-family="SegoeUI-Semibold, Segoe UI" font-weight="600"><tspan x="-36.371" y="0">Buy Leads</tspan></text>
    <g id="Group_17810" data-name="Group 17810" transform="translate(535.576 -47.19)">
      <path id="Path_9982" data-name="Path 9982" d="M-180.224,591.061c.378-1.159.748-2.3,1.121-3.441.172-.526.442-.763.865-.77s.71.242.88.756l1.138,3.455h3.734a.844.844,0,0,1,.868.6.82.82,0,0,1-.355.992c-.907.668-1.813,1.34-2.736,1.984a.415.415,0,0,0-.184.557l.01.019c.345,1.015.663,2.039.992,3.06.172.539.1.885-.24,1.135a.92.92,0,0,1-1.188-.1c-.963-.7-1.927-1.4-2.907-2.116-.973.709-1.935,1.41-2.9,2.11a.922.922,0,0,1-1.187.1.9.9,0,0,1-.252-1.133c.33-1.034.654-2.069,1-3.1a.4.4,0,0,0-.172-.538l-.012-.006c-.911-.642-1.805-1.306-2.707-1.959a.875.875,0,0,1-.4-.88.767.767,0,0,1,.534-.666,1.452,1.452,0,0,1,.462-.057C-182.649,591.06-181.445,591.061-180.224,591.061Z" transform="translate(-49.576 -26.614)" fill="none" stroke="#3156bf" stroke-linecap="round" stroke-linejoin="round" stroke-width="1.5"/>
      <g id="Group_17799" data-name="Group 17799" transform="translate(-255.576 549.19)">
        <path id="Path_10025" data-name="Path 10025" d="M-255.576,549.373a32.187,32.187,0,0,1,5.509-.129,1.56,1.56,0,0,1,1.551,1.193c.87,2.586,1.243,3.852,2.376,7.42,1.393,7.734,1.825,9.787,3.416,16.611a1.972,1.972,0,0,0,2.3,1.7q12.7-.055,25.4,0a1.993,1.993,0,0,0,2.315-1.7c1.176-4.806,2.467-9.584,3.632-14.393.4-1.633-.2-2.277-1.968-2.28-11.017-.02-24.075-.015-35.093,0" transform="translate(255.576 -549.19)" fill="none" stroke="#3156bf" stroke-linecap="round" stroke-linejoin="round" stroke-width="1.5"/>
        <circle id="Ellipse_245" data-name="Ellipse 245" cx="4.897" cy="4.897" r="4.897" transform="translate(12.99 31.522)" stroke-width="1.5" stroke="#3156bf" stroke-linecap="round" stroke-linejoin="round" fill="none"/>
        <circle id="Ellipse_246" data-name="Ellipse 246" cx="4.897" cy="4.897" r="4.897" transform="translate(32.374 31.522)" stroke-width="1.5" stroke="#3156bf" stroke-linecap="round" stroke-linejoin="round" fill="none"/>
      </g>
    </g>
  </g>
</svg>
