<svg xmlns="http://www.w3.org/2000/svg" width="52" height="43.5" viewBox="0 0 52 43.5">
  <g id="Group_17834" data-name="Group 17834" transform="translate(256 -756.5)">
    <text id="Sell_Leads" data-name="Sell Leads" transform="translate(-230 797)" fill="#fff" font-size="12" font-family="SourceSansPro-Regular, Source Sans Pro"><tspan x="-25.044" y="0">Sell Leads</tspan></text>
    <g id="Group_17811" data-name="Group 17811" transform="translate(-569.059 109.814)">
      <path id="Path_9982" data-name="Path 9982" d="M350.219,702.4c.242-.742.479-1.474.718-2.2.11-.337.283-.489.554-.493s.455.155.564.484l.729,2.213h2.392a.541.541,0,0,1,.556.383.525.525,0,0,1-.228.635c-.581.428-1.161.858-1.752,1.27a.266.266,0,0,0-.118.357l.006.012c.221.65.425,1.306.635,1.96.11.346.062.567-.154.727a.589.589,0,0,1-.761-.065c-.617-.448-1.234-.9-1.862-1.355-.623.454-1.239.9-1.857,1.351a.59.59,0,0,1-.76.063.579.579,0,0,1-.161-.726c.212-.662.419-1.325.641-1.984a.255.255,0,0,0-.11-.344l-.007,0c-.583-.411-1.156-.837-1.734-1.255a.561.561,0,0,1-.255-.563.492.492,0,0,1,.342-.426.933.933,0,0,1,.3-.036Z" transform="translate(-12.758 -41.385)" fill="none" stroke="#fff" stroke-linecap="round" stroke-linejoin="round" stroke-width="1"/>
      <path id="Path_10027" data-name="Path 10027" d="M337.78,671.715c-.637.7-1.613.618-2.385,1.04a7.536,7.536,0,0,0-4.306,7.058c.009,2.494.085,4.992-.027,7.481a3.465,3.465,0,0,0,3.375,3.376c2.871-.109,5.753-.109,8.624,0a3.465,3.465,0,0,0,3.375-3.376c-.112-2.489-.062-4.987-.021-7.481a7.719,7.719,0,0,0-5.476-7.541,2.56,2.56,0,0,1-1.046-.557" transform="translate(0 -19.329)" fill="none" stroke="#fff" stroke-linecap="round" stroke-linejoin="round" stroke-width="1"/>
      <path id="Path_10028" data-name="Path 10028" d="M358.055,647.9a1.036,1.036,0,0,0-1.144-.71c-1.526.017-3.052.009-4.577,0-.448,0-.852.054-1.057.53a.9.9,0,0,0,.273,1.047c.949.881,1.2,2.244,2.188,3.095a1.714,1.714,0,0,0,1.855,0,3.751,3.751,0,0,0,.91-1.4,7,7,0,0,1,1.119-1.592,1.122,1.122,0,0,0,.345-.886" transform="translate(-15.873)" fill="none" stroke="#fff" stroke-linecap="round" stroke-linejoin="round" stroke-width="1"/>
      <path id="Path_10029" data-name="Path 10029" d="M381.1,662.579a18.87,18.87,0,0,0-3.872.622,2.844,2.844,0,0,1-1.586.082" transform="translate(-35.129 -12.13)" fill="none" stroke="#fff" stroke-linecap="round" stroke-linejoin="round" stroke-width="1"/>
      <path id="Path_10030" data-name="Path 10030" d="M338.653,663.2c-.636.387-1.27.016-1.84-.124a20.924,20.924,0,0,0-3.53-.492" transform="translate(-1.753 -12.13)" fill="none" stroke="#fff" stroke-linecap="round" stroke-linejoin="round" stroke-width="1"/>
    </g>
  </g>
</svg>
