<svg xmlns="http://www.w3.org/2000/svg" width="52" height="42.495" viewBox="0 0 52 42.495">
  <g id="Group_17843" data-name="Group 17843" transform="translate(-88 -757.505)">
    <g id="Group_17833" data-name="Group 17833" transform="translate(423)">
      <text id="Buy_Leads" data-name="Buy Leads" transform="translate(-309 797)" fill="#fff" font-size="12" font-family="SourceSansPro-Regular, Source Sans Pro"><tspan x="-25.398" y="0">Buy Leads</tspan></text>
      <g id="Group_17810" data-name="Group 17810" transform="translate(-80.938 194.491)">
        <path id="Path_9982" data-name="Path 9982" d="M-182.449,589.039c.2-.6.389-1.2.583-1.789.089-.273.23-.4.45-.4s.369.126.458.393l.592,1.8h1.941a.439.439,0,0,1,.451.311.426.426,0,0,1-.185.516c-.472.347-.942.7-1.422,1.031a.216.216,0,0,0-.1.29l.005.01c.179.528.345,1.06.516,1.591.089.28.05.46-.125.59a.478.478,0,0,1-.618-.053l-1.511-1.1-1.507,1.1a.479.479,0,0,1-.617.051.47.47,0,0,1-.131-.589c.172-.537.34-1.076.521-1.61a.208.208,0,0,0-.089-.28l-.006,0c-.474-.334-.939-.679-1.407-1.019a.455.455,0,0,1-.207-.457.4.4,0,0,1,.278-.346.756.756,0,0,1,.24-.029Z" transform="translate(-44.21 -17.597)" fill="none" stroke="#fff" stroke-linecap="round" stroke-linejoin="round" stroke-width="1"/>
        <g id="Group_17799" data-name="Group 17799" transform="translate(-240.062 563.509)">
          <path id="Path_10025" data-name="Path 10025" d="M-255.576,549.285a16.734,16.734,0,0,1,2.864-.067.811.811,0,0,1,.806.62c.452,1.344.646,2,1.235,3.858.724,4.021.949,5.088,1.776,8.636a1.025,1.025,0,0,0,1.195.885q6.6-.028,13.207,0a1.036,1.036,0,0,0,1.2-.882c.611-2.5,1.283-4.983,1.888-7.484.206-.849-.1-1.184-1.023-1.185-5.728-.01-12.518-.008-18.246,0" transform="translate(255.576 -549.19)" fill="none" stroke="#fff" stroke-linecap="round" stroke-linejoin="round" stroke-width="1"/>
          <circle id="Ellipse_245" data-name="Ellipse 245" cx="2.546" cy="2.546" r="2.546" transform="translate(6.754 16.389)" stroke-width="1" stroke="#fff" stroke-linecap="round" stroke-linejoin="round" fill="none"/>
          <circle id="Ellipse_246" data-name="Ellipse 246" cx="2.546" cy="2.546" r="2.546" transform="translate(16.832 16.389)" stroke-width="1" stroke="#fff" stroke-linecap="round" stroke-linejoin="round" fill="none"/>
        </g>
      </g>
    </g>
  </g>
</svg>
