<svg xmlns="http://www.w3.org/2000/svg" width="92" height="77.751" viewBox="0 0 92 77.751">
  <g id="Group_17820" data-name="Group 17820" transform="translate(-34 -500.249)">
    <text id="_Request_List" data-name=" Request List" transform="translate(80 574)" fill="#373737" font-size="16" font-family="SegoeUI-Semibold, Segoe UI" font-weight="600"><tspan x="-45.836" y="0" xml:space="preserve"> Request List</tspan></text>
    <g id="Group_17808" data-name="Group 17808" transform="translate(-68.008 62.724)">
      <path id="Path_1364" data-name="Path 1364" d="M159.3,475.4c0,.693-.02,2.03-.02,2.836.029.905.02,2.282-.99,2.282l-29.288.017a1.289,1.289,0,0,1-.995-1c.01-.165.027-.33.027-.495V439.856c0-.2-.02-.39-.031-.578a1.242,1.242,0,0,1,.974-1c1.267.012,2.543.033,3.815.033h19.832c.358.058.558.342.79.57,1.719,1.686,3.421,3.388,5.152,5.06a2.187,2.187,0,0,1,.725,1.764c-.04,1.159-.011,2.321-.011,3.548" transform="translate(0 0)" fill="none" stroke="#3156bf" stroke-miterlimit="10" stroke-width="1.5"/>
      <g id="Group_10" data-name="Group 10" transform="translate(142.908 449.729)">
        <path id="Path_1365" data-name="Path 1365" d="M156.209,475.063H144.587c-1.223,0-1.159-.028-1.267-1.2a2.726,2.726,0,0,1,1.211-2.608,19.45,19.45,0,0,1,7.191-3.721,1.665,1.665,0,0,1,1.145.027,8.32,8.32,0,0,0,6.7.019,1.685,1.685,0,0,1,1.143-.066,18.726,18.726,0,0,1,7.8,4.261,3.658,3.658,0,0,1,.553,2.94c-.233.446-.665.345-1.047.346Q162.11,475.066,156.209,475.063Z" transform="translate(-143.301 -450.477)" fill="none" stroke="#3156bf" stroke-miterlimit="10" stroke-width="1.5"/>
        <path id="Path_1366" data-name="Path 1366" d="M162.25,456.293c-.051.371-.09.762-.16,1.148a1.241,1.241,0,0,0,.195,1.159.911.911,0,0,1-.315,1.461,1,1,0,0,0-.591.894,6.427,6.427,0,0,1-2.129,3.7,4.123,4.123,0,0,1-5.691,0,6.377,6.377,0,0,1-2.1-3.623c-.085-.406-.119-.762-.626-.984a.875.875,0,0,1-.332-1.388c.408-.493.261-.917.195-1.408a6.048,6.048,0,0,1,2.423-6.077,5.2,5.2,0,0,1,5.818-.473A6.132,6.132,0,0,1,162.25,456.293Z" transform="translate(-143.48 -450.03)" fill="none" stroke="#3156bf" stroke-miterlimit="10" stroke-width="1.5"/>
      </g>
      <path id="Path_1367" data-name="Path 1367" d="M133.872,454.352q3.009,0,6.018,0c1.974,0,3.949.006,5.923,0" transform="translate(-0.15 -0.412)" fill="none" stroke="#3156bf" stroke-linecap="round" stroke-miterlimit="10" stroke-width="1.5"/>
      <path id="Path_1367-2" data-name="Path 1367" d="M133.872,459.407q3.009,0,6.018,0c1.974,0,3.949.006,5.923,0" transform="translate(-0.15 -0.542)" fill="none" stroke="#3156bf" stroke-linecap="round" stroke-miterlimit="10" stroke-width="1.5"/>
      <path id="Path_1367-3" data-name="Path 1367" d="M133.872,464.45q3.009,0,6.018,0c1.974,0,3.949.006,5.923,0" transform="translate(-0.15 -0.671)" fill="none" stroke="#3156bf" stroke-linecap="round" stroke-miterlimit="10" stroke-width="1.5"/>
    </g>
  </g>
</svg>
