<svg xmlns="http://www.w3.org/2000/svg" width="72" height="76.75" viewBox="0 0 72 76.75">
  <g id="Group_17823" data-name="Group 17823" transform="translate(-44 -634.25)">
    <text id="Sell_Leads" data-name="Sell Leads" transform="translate(80 707)" fill="#373737" font-size="16" font-family="SegoeUI-Semibold, Segoe UI" font-weight="600"><tspan x="-35.59" y="0">Sell Leads</tspan></text>
    <g id="Group_17811" data-name="Group 17811" transform="translate(-265.059 -12.186)">
      <path id="Path_9982" data-name="Path 9982" d="M352.687,704.644c.443-1.359.878-2.7,1.315-4.036.2-.617.518-.9,1.015-.9s.833.283,1.033.887l1.335,4.052h4.379a.991.991,0,0,1,1.018.7.962.962,0,0,1-.417,1.163c-1.064.784-2.126,1.571-3.208,2.326a.487.487,0,0,0-.216.654l.012.022c.4,1.19.778,2.391,1.163,3.589.2.633.113,1.038-.281,1.331a1.079,1.079,0,0,1-1.393-.12c-1.13-.82-2.259-1.643-3.409-2.481-1.142.831-2.269,1.654-3.4,2.474a1.081,1.081,0,0,1-1.392.115,1.059,1.059,0,0,1-.295-1.329c.387-1.213.767-2.427,1.175-3.632a.468.468,0,0,0-.2-.63l-.014-.007c-1.068-.753-2.117-1.532-3.175-2.3a1.027,1.027,0,0,1-.466-1.032.9.9,0,0,1,.627-.781,1.707,1.707,0,0,1,.541-.066C349.842,704.642,351.255,704.644,352.687,704.644Z" transform="translate(-9.906 -32.133)" fill="none" stroke="#3156bf" stroke-linecap="round" stroke-linejoin="round" stroke-width="1.5"/>
      <path id="Path_10027" data-name="Path 10027" d="M343.366,671.715c-1.167,1.282-2.954,1.132-4.368,1.9-5.142,2.811-7.905,6.993-7.885,12.924.016,4.567.156,9.14-.049,13.7a6.344,6.344,0,0,0,6.18,6.181c5.258-.2,10.534-.2,15.791,0a6.344,6.344,0,0,0,6.18-6.181c-.2-4.558-.113-9.132-.038-13.7.112-6.818-4.107-11.69-10.026-13.809a4.688,4.688,0,0,1-1.915-1.02" transform="translate(0 -15.008)" fill="none" stroke="#3156bf" stroke-linecap="round" stroke-linejoin="round" stroke-width="1.5"/>
      <path id="Path_10028" data-name="Path 10028" d="M363.749,648.487a1.9,1.9,0,0,0-2.1-1.3c-2.794.031-5.588.017-8.382.007-.82,0-1.56.1-1.935.97a1.638,1.638,0,0,0,.5,1.918c1.739,1.613,2.2,4.11,4.007,5.667a3.139,3.139,0,0,0,3.4,0,6.87,6.87,0,0,0,1.666-2.56,12.808,12.808,0,0,1,2.049-2.915,2.054,2.054,0,0,0,.632-1.622" transform="translate(-12.324 0)" fill="none" stroke="#3156bf" stroke-linecap="round" stroke-linejoin="round" stroke-width="1.5"/>
      <path id="Path_10029" data-name="Path 10029" d="M385.631,662.579a34.545,34.545,0,0,0-7.089,1.139,5.207,5.207,0,0,1-2.9.15" transform="translate(-27.275 -9.418)" fill="none" stroke="#3156bf" stroke-linecap="round" stroke-linejoin="round" stroke-width="1.5"/>
      <path id="Path_10030" data-name="Path 10030" d="M343.115,663.707c-1.165.709-2.325.029-3.369-.227a38.309,38.309,0,0,0-6.463-.9" transform="translate(-1.361 -9.418)" fill="none" stroke="#3156bf" stroke-linecap="round" stroke-linejoin="round" stroke-width="1.5"/>
    </g>
  </g>
</svg>
