<svg xmlns="http://www.w3.org/2000/svg" width="74" height="77.755" viewBox="0 0 74 77.755">
  <g id="Group_17821" data-name="Group 17821" transform="translate(-156 -500.245)">
    <text id="_Users_List" data-name=" Users List" transform="translate(193 574)" fill="#373737" font-size="16" font-family="SegoeUI-Semibold, Segoe UI" font-weight="600"><tspan x="-36.523" y="0" xml:space="preserve"> Users List</tspan></text>
    <g id="Group_17809" data-name="Group 17809" transform="translate(-47.74 71.064)">
      <path id="Path_1367" data-name="Path 1367" d="M244.444,451.076q3.141,0,6.28,0c2.06,0,4.121.006,6.182,0" transform="translate(0.4 0.357)" fill="none" stroke="#3156bf" stroke-linecap="round" stroke-miterlimit="10" stroke-width="1.5"/>
      <path id="Path_1367-2" data-name="Path 1367" d="M250.574,457.41q0-3.139,0-6.279c0-2.061.006-4.121,0-6.182" transform="translate(0.503 0.253)" fill="none" stroke="#3156bf" stroke-linecap="round" stroke-miterlimit="10" stroke-width="1.5"/>
      <path id="Path_1371" data-name="Path 1371" d="M258.586,465.063c.214,2.2.1,4.423.115,6.637,0,.907-.717.593-1.171.594q-7.732.027-15.463.016h-2.312l-.006-.014c-5.878,0-11.754-.029-17.631.026-1.072.01-1.446-.227-1.368-1.343a41.043,41.043,0,0,0,.015-4.474,4.357,4.357,0,0,1,2.431-4.238c2.917-1.672,5.9-3.229,8.687-5.128,3.457-2.359,3.55-2.876,1.377-6.454a19.026,19.026,0,0,1-2.454-13.878c.872-4.506,5.062-7.31,9.8-6.813,4.921.515,8.2,3.893,8.381,8.533" transform="translate(0)" fill="none" stroke="#3156bf" stroke-miterlimit="10" stroke-width="1.5"/>
      <path id="Path_10026" data-name="Path 10026" d="M250.78,461.371a10.13,10.13,0,1,1-.087-20.259h.12a9.887,9.887,0,0,1,3.9.8,10.091,10.091,0,0,1,3.2,2.179,10.192,10.192,0,0,1,2.961,7.178,10.048,10.048,0,0,1-9.993,10.1h-.1Z" transform="translate(0.335 0.189)" fill="none" stroke="#3156bf" stroke-miterlimit="10" stroke-width="1.5"/>
    </g>
  </g>
</svg>
