<svg xmlns="http://www.w3.org/2000/svg" width="22" height="20" viewBox="0 0 22 20">
  <g id="My_Leads_Icon" data-name="My Leads Icon" transform="translate(-31 -222)">
    <rect id="Rectangle_114" data-name="Rectangle 114" width="22" height="20" rx="3" transform="translate(31 222)" fill="#169df7"/>
    <g id="Group_17772" data-name="Group 17772" transform="translate(36.339 226.99)">
      <path id="Path_9982" data-name="Path 9982" d="M304.86,297.26c.271-.833.538-1.654.806-2.474.123-.378.318-.548.622-.553s.511.174.633.543l.818,2.484h2.684a.607.607,0,0,1,.624.429.589.589,0,0,1-.256.713c-.652.48-1.3.963-1.967,1.426a.3.3,0,0,0-.132.4l.007.014c.248.729.477,1.465.713,2.2.123.388.07.636-.172.816a.662.662,0,0,1-.854-.074c-.693-.5-1.385-1.007-2.089-1.521-.7.509-1.391,1.013-2.084,1.516a.663.663,0,0,1-.853.071.65.65,0,0,1-.181-.814c.238-.743.47-1.487.72-2.226a.287.287,0,0,0-.123-.387l-.008,0c-.655-.461-1.3-.939-1.946-1.408a.63.63,0,0,1-.286-.632.552.552,0,0,1,.384-.479,1.046,1.046,0,0,1,.332-.041C303.116,297.259,303.982,297.26,304.86,297.26Z" transform="translate(-301.527 -294.233)" fill="#fff" stroke="#fff" stroke-width="1"/>
      <path id="Path_9982-2" data-name="Path 9982" d="M313.079,297.688h1.588c.22-.675.436-1.34.653-2.005.1-.306.257-.444.5-.449s.414.141.513.441l.663,2.013h2.176a.492.492,0,0,1,.506.348.477.477,0,0,1-.207.578c-.528.389-1.056.781-1.594,1.156a.242.242,0,0,0-.108.325l.006.01c.2.591.386,1.188.578,1.783.1.314.056.516-.14.661a.537.537,0,0,1-.692-.059l-1.693-1.233-1.287.937" transform="translate(-306.744 -294.685)" fill="#fff" stroke="#fff" stroke-width="1"/>
      <path id="Path_9982-3" data-name="Path 9982" d="M313.549,301.766" transform="translate(-306.956 -297.635)" fill="none" stroke="#fff" stroke-width="1"/>
    </g>
  </g>
</svg>
