<svg xmlns="http://www.w3.org/2000/svg" width="22" height="20" viewBox="0 0 22 20">
  <g id="Notifications_Icon_Profile_scrren" data-name="Notifications Icon Profile scrren" transform="translate(-31 -276)">
    <rect id="Rectangle_115" data-name="Rectangle 115" width="22" height="20" rx="3" transform="translate(31 276)" fill="#be0202"/>
    <g id="Group_17753" data-name="Group 17753" transform="translate(36 279)">
      <path id="Path_10003" data-name="Path 10003" d="M607.713,133.524a4.179,4.179,0,0,1,3.113,3.493,19.538,19.538,0,0,1,.044,3.04c-.007.517.089.834.7.91a.821.821,0,0,1,.7.991.844.844,0,0,1-.886.834q-4.742.018-9.484,0a.926.926,0,0,1-.13-1.829c.585-.071.675-.381.678-.873a22.708,22.708,0,0,1,.112-3.323,3.877,3.877,0,0,1,2.653-3.082c.275-.106.4-.213.4-.528a1.016,1.016,0,0,1,1.056-1.128c.626.007,1.014.439,1.038,1.156C607.716,133.278,607.713,133.374,607.713,133.524Z" transform="translate(-601.041 -132.025)" fill="#fff"/>
      <path id="Path_10004" data-name="Path 10004" d="M635.265,228.251h3.2a1.542,1.542,0,0,1-1.552,1.608A1.573,1.573,0,0,1,635.265,228.251Z" transform="translate(-631.255 -216.976)" fill="#fff"/>
    </g>
  </g>
</svg>
