<svg xmlns="http://www.w3.org/2000/svg" width="22" height="20" viewBox="0 0 22 20">
  <g id="Forgot_Password__Icon_Profile_screen" data-name="Forgot Password _Icon Profile screen" transform="translate(-31 -385)">
    <rect id="Rectangle_117" data-name="Rectangle 117" width="22" height="20" rx="3" transform="translate(31 385)" fill="#fa9128"/>
    <path id="Path_9984" data-name="Path 9984" d="M94.787,354.737c0-1.3-.2-1.62-1.429-2.136,0-.79.057-1.619-.012-2.435a3.105,3.105,0,0,0-2.985-2.816,3.2,3.2,0,0,0-3.084,2.729c-.071.541-.03,1.1-.075,1.644s.271.548.638.529c.341-.018.744.118.713-.511a8.125,8.125,0,0,1,.056-1.526,1.727,1.727,0,0,1,1.613-1.463,1.668,1.668,0,0,1,1.739,1.291,21.668,21.668,0,0,1,.025,2.674c-1.5,0-2.994,0-4.493,0-1.118,0-1.659.563-1.665,1.729-.007,1.316,0,2.631,0,3.947,0,1.265.549,1.844,1.75,1.846q2.733.006,5.465,0c1.195,0,1.742-.585,1.745-1.851C94.79,357.172,94.788,355.954,94.787,354.737ZM90.3,359.157a.448.448,0,1,1,.433-.454A.429.429,0,0,1,90.3,359.157Zm.571-2.135a.19.19,0,0,0-.138.225,2.564,2.564,0,0,1,0,.275.427.427,0,1,1-.854.008c0-.1,0-.206,0-.354a.8.8,0,0,1,.16-.65,1.523,1.523,0,0,1,.457-.312.68.68,0,0,0,.441-.719.651.651,0,0,0-.538-.586.637.637,0,0,0-.724.595.5.5,0,0,1-.295.49.437.437,0,0,1-.581-.431A1.564,1.564,0,0,1,90.182,354a1.53,1.53,0,0,1,1.624,1.44A1.576,1.576,0,0,1,90.869,357.022Z" transform="translate(-48.283 40.991)" fill="#fff"/>
  </g>
</svg>
