<svg xmlns="http://www.w3.org/2000/svg" width="22" height="20" viewBox="0 0 22 20">
  <g id="Setting_Icon" transform="translate(-31 -439)">
    <rect id="Rectangle_119" data-name="Rectangle 119" width="22" height="20" rx="3" transform="translate(31 439)" fill="#5a6561"/>
    <path id="Path_9979" data-name="Path 9979" d="M397.706,209.446c-.241.132-.6.3-.922.514-.6.4-.868-.1-1.188-.421s-.805-.578-.43-1.192a2.46,2.46,0,0,0,.469-1.2,1.169,1.169,0,0,0-1.183-1.184c-.748-.058-.867-.515-.866-1.17s.1-1.1.879-1.264c1.208-.259,1.519-1.036.846-2.089-.426-.667-.183-1.035.287-1.505.452-.452.8-.667,1.433-.265,1.127.71,1.829.414,2.131-.878.158-.675.507-.834,1.134-.813s1.124-.011,1.305.816c.279,1.27,1.04,1.574,2.141.87.652-.417.994-.159,1.425.288.415.429.745.747.319,1.42-.743,1.175-.457,1.864.908,2.178.8.184.731.688.753,1.262.023.6-.075.992-.78,1.157-1.324.31-1.614,1.019-.866,2.2.412.65.108.955-.3,1.353s-.724.784-1.416.351c-1.213-.76-1.864-.48-2.214.952-.2.818-.741.676-1.295.714-.587.04-1.022-.1-1.083-.756C399.117,209.935,398.624,209.543,397.706,209.446Zm5.608-4.7a2.955,2.955,0,1,0-2.922,2.965A2.912,2.912,0,0,0,403.314,204.747Z" transform="translate(-358.444 244.17)" fill="#fff"/>
  </g>
</svg>
