<svg xmlns="http://www.w3.org/2000/svg" width="237.748" height="233.365" viewBox="0 0 237.748 233.365"><g transform="translate(1.481 1.5)"><g transform="translate(0 34.923)"><path d="M227.637,477.408c-3.554,0-6.659.092-9.754-.018-14.631-.505-23.687-9.791-23.7-24.375q-.041-47.241.018-94.482c.009-13.979,9.708-23.778,23.724-23.8q76.144-.083,152.288-.009c14.383.018,24.055,9.717,24.073,24.036q.041,46.965,0,93.93c-.009,15.154-9.176,24.55-24.5,24.679q-31.962.261-63.915-.055a15.744,15.744,0,0,0-11.389,4.4c-17.083,15.072-34.341,29.951-51.5,44.94-3.077,2.682-6.154,4.831-10.452,2.765-4.152-1.984-4.941-5.539-4.923-9.7C227.692,505.852,227.637,491.983,227.637,477.408Z" transform="translate(-194.168 -334.692)" fill="none" stroke="#fff" stroke-miterlimit="10" stroke-width="3"/></g><g transform="translate(38.043)"><path d="M198.31,366.691V349.378a18.493,18.493,0,0,1,18.5-18.488H376.536a18.493,18.493,0,0,1,18.5,18.488V449.9a18.5,18.5,0,0,1-18.5,18.5H360.4" transform="translate(-198.31 -330.89)" fill="none" stroke="#fff" stroke-miterlimit="10" stroke-width="3"/></g></g></svg>