<svg xmlns="http://www.w3.org/2000/svg" width="259.054" height="237.736" viewBox="0 0 259.054 237.736">
  <g id="Group_17812" data-name="Group 17812" transform="translate(1.142 1.843)">
    <path id="Path_10014" data-name="Path 10014" d="M444.363,334.592c-.015,43.969-.008,108.785-.023,152.746,0,9.208-.919,10.143-10.05,10.143q-93.367.024-186.735,0c-9.076,0-9.987-.943-9.987-10.205q-.023-65.615-.008-131.236V332.871" transform="translate(-214.835 -263.6)" fill="none" stroke="#fff" stroke-miterlimit="10" stroke-width="4"/>
    <path id="Path_10015" data-name="Path 10015" d="M234.641,409.929q27.053-18.8,54.1-37.612c21.961-15.277,43.977-30.46,65.813-45.908,4.37-3.092,7.689-3.326,12.2-.164q62.214,43.611,124.661,86.886" transform="translate(-234.641 -323.979)" fill="none" stroke="#fff" stroke-miterlimit="10" stroke-width="4"/>
    <path id="Path_10016" data-name="Path 10016" d="M331.368,450.886c0-9.426.109-18.409-.024-27.391-.234-16,.382-32.1-1.2-47.973-2.08-21-20.917-36.483-41.881-36.272-20.98.2-39.076,15.152-41.445,35.8-1.5,13.143-.958,26.534-1.13,39.817-.148,11.756-.031,23.519-.031,35.882" transform="translate(-160.128 -220.299)" fill="none" stroke="#fff" stroke-miterlimit="10" stroke-width="4"/>
  </g>
</svg>
