<svg xmlns="http://www.w3.org/2000/svg" width="244.798" height="173.548" viewBox="0 0 244.798 173.548"><g transform="translate(1.551 1.5)"><path d="M363.654,350.67c5.061-15.53,10.03-30.835,15.019-46.12,2.3-7.044,5.92-10.224,11.594-10.316s9.519,3.241,11.8,10.132c5.051,15.336,10.071,30.58,15.254,46.3h50.036a11.309,11.309,0,0,1,11.635,8.005,10.982,10.982,0,0,1-4.764,13.291c-12.156,8.957-24.292,17.953-36.663,26.582a5.559,5.559,0,0,0-2.464,7.463l.133.256c4.621,13.6,8.884,27.318,13.291,41.008,2.3,7.228,1.3,11.859-3.21,15.213a12.337,12.337,0,0,1-15.919-1.37c-12.912-9.375-25.815-18.781-38.953-28.351-13.045,9.5-25.928,18.894-38.85,28.269a12.355,12.355,0,0,1-15.908,1.319,12.121,12.121,0,0,1-3.374-15.183c4.427-13.853,8.762-27.727,13.424-41.5a5.345,5.345,0,0,0-2.3-7.208l-.154-.072c-12.207-8.6-24.189-17.5-36.274-26.255a11.74,11.74,0,0,1-5.327-11.788,10.288,10.288,0,0,1,7.157-8.925,19.483,19.483,0,0,1,6.185-.757C331.152,350.65,347.3,350.67,363.654,350.67Z" transform="translate(-301.527 -294.233)" fill="none" stroke="#fff" stroke-width="3"/><path d="M313.079,340.968c9.815,0,19.661.01,29.6.01,4.1-12.586,8.128-24.987,12.177-37.379,1.86-5.705,4.8-8.281,9.4-8.363s7.709,2.628,9.559,8.22c4.09,12.422,8.159,24.783,12.361,37.522h40.558a9.171,9.171,0,0,1,9.426,6.492,8.9,8.9,0,0,1-3.865,10.766c-9.846,7.259-19.681,14.559-29.711,21.552a4.506,4.506,0,0,0-2,6.052l.112.195c3.742,11.021,7.2,22.145,10.776,33.238,1.861,5.858,1.053,9.611-2.607,12.33a10,10,0,0,1-12.9-1.1c-10.459-7.606-20.918-15.223-31.572-22.983Q352.313,416.3,340.4,424.988" transform="translate(-194.976 -284.99)" fill="none" stroke="#fff" stroke-width="3"/><path d="M313.549,301.766" transform="translate(-190.641 -224.748)" fill="none" stroke="#fff" stroke-width="3"/></g></svg>