<svg xmlns="http://www.w3.org/2000/svg" width="202.789" height="202.487" viewBox="0 0 202.789 202.487"><g transform="translate(1.478 1.679)"><path d="M348.794,527.134c-6.359-.174-9.417-4.653-8.023-10.754,3.746-16.389,7.619-32.757,11.422-49.14,1.672-7.2,3.35-14.4,4.945-21.619.961-4.353,3.608-6.826,7.968-7.271q38.667-4.012,77.348-7.913c4.6-.473,9.243-.731,13.8-1.462,1.5-.244,2.821-1.685,4.221-2.577-1.476-.843-2.9-2.271-4.443-2.431-12.7-1.351-25.43-2.459-38.148-3.657-16.96-1.6-33.907-3.336-50.88-4.764-6.088-.515-9.048-3.246-10.385-9.34-4.994-22.741-10.455-45.385-15.756-68.056-.85-3.643-1.1-7.731,2.584-9.327,2.78-1.2,7.056-1.4,9.7-.09q90.989,45.134,181.644,90.916c2.521,1.275,5.447,4.9,5.356,7.334-.1,2.73-2.8,6.54-5.391,7.843q-90.7,45.635-181.665,90.742A33.332,33.332,0,0,1,348.794,527.134Z" transform="translate(-340.332 -327.833)" fill="none" stroke="#fff" stroke-miterlimit="10" stroke-width="3"/></g></svg>