<svg xmlns="http://www.w3.org/2000/svg" width="235.981" height="179.106" viewBox="0 0 235.981 179.106"><g transform="translate(1.499 1.475)"><path d="M400.661,504.516q-45.09,0-90.194-.007c-16.177-.02-26.25-9.952-26.257-25.926q-.051-62.144,0-124.287c.007-15.691,10.047-25.88,25.556-25.886q90.9-.051,181.811,0c15.489.006,25.556,10.215,25.562,25.893q.051,62.144,0,124.287c-.013,15.954-10.114,25.9-26.277,25.92Q445.761,504.56,400.661,504.516Z" transform="translate(-284.184 -328.385)" fill="none" stroke="#fff" stroke-miterlimit="10" stroke-width="3"/><path d="M290.233,475.186c0-3.209.3-5.158-.054-6.979-1.389-7.208,1.976-10.681,8.6-12.744,6.123-1.908,11.935-4.835,18.213-7.444-5.05-3.735-9.224-6.817-13.391-9.906-3.716-2.751-4.491-5.28-.809-9.177,15.711-16.594,22.582-36.7,23.021-59.358C326.2,349.638,343.584,333,363.657,332.9c20.58-.108,38.314,16.405,38.691,36.54.432,22.933,7.437,43.182,23.4,59.931,3.1,3.25,2.731,5.671-.56,8.166-4.43,3.365-8.874,6.709-13.8,10.431,3.277,1.457,6.143,3.209,9.258,4.026,11.551,3.021,20.31,8.051,17.822,22.959" transform="translate(-251.531 -302.446)" fill="none" stroke="#fff" stroke-miterlimit="10" stroke-width="3"/></g></svg>