<svg xmlns="http://www.w3.org/2000/svg" width="234.082" height="136.986" viewBox="0 0 234.082 136.986">
  <g id="Forgto_Password_Icon" data-name="Forgto Password Icon" transform="translate(-5146.051 -254.612)">
    <path id="Path_1152" data-name="Path 1152" d="M336.518,456.413c-.173-17.214-.347-34.427.085-51.64a1.726,1.726,0,0,1,1.89,1.815c.1,3.445,1.489,6.837.458,10.326a7.954,7.954,0,0,0-.233,2.91c.5,6.238.077,12.5.542,18.742a31.4,31.4,0,0,1-.337,8.761,8.094,8.094,0,0,0,.425,5.72c.385.909.888,1.789.781,2.179,0-.322-.329-1.242-.535-2.192-.268-15.093,0-30.182-.142-45.255a4.614,4.614,0,0,0-.162-.966,3.932,3.932,0,0,0-2.355-2.765,5.656,5.656,0,0,1,4.69-4.413c1.942-.354,2.151-1.312,2.092-2.872a29.873,29.873,0,0,1,3.531-14.976c1.568-.573,1.554-1.951,1.659-3.267l-.03.046c2.234-1,3.12-3.2,4.506-4.97.638-.815,1.475-1.965,2.628-1.462.984.429.546,1.733.64,2.68.137,1.378-.58,2.78.2,4.393,1.669-.67,1.342-2.239,1.73-3.435.746-2.3-.135-5.074,2.014-6.972a24.453,24.453,0,0,1,4.983-1.5c3.677-.259,7.368-.1,11.046-.372a1.607,1.607,0,0,1,.932.594c5.961,2.181,11.716,4.652,15.871,9.8a28.334,28.334,0,0,1,6.639,18.363c0,1.184-1.032,2.969,1.149,3.548a2.377,2.377,0,0,1,1.92-.182,8.456,8.456,0,0,1,4.515,4.363,6.162,6.162,0,0,1,.336,1.486c.044.339.064.681.078,1.022.038,3.387-.046,6.777.134,10.16a7.359,7.359,0,0,0-.012,1.859c.008.154.008.308.015.463-.011.155-.031.309-.042.464a10.73,10.73,0,0,0-.107,2.366c.032,1.723.076,3.443.038,5.165,0,3.33-.078,6.661.054,9.982a4.061,4.061,0,0,1,.092.924,2.58,2.58,0,0,0-.047,2.014,10,10,0,0,1,.036,2.6,18.2,18.2,0,0,0,.029,5.481c-.539,2.323.369,4.725-.369,7.038-.386.353-.819.157-1.234.106-.581.021-1.257-.067-1.019.872.715-.123,1.541-1.046,2.011.3.114,2.394-1.209,4.025-2.884,5.48a13.139,13.139,0,0,1-6.929,1.511q-25.952.013-51.9,0a13.592,13.592,0,0,1-3.888-.37C339.042,461.451,336.706,459.926,336.518,456.413Z" transform="translate(4883.551 -81.957)" fill="#faaf3a"/>
    <path id="Path_1153" data-name="Path 1153" d="M329.211,467.047c1.679,3.854,4.64,5.3,8.8,5.277,17.742-.1,35.486-.061,53.229.006a18.346,18.346,0,0,0,6.312-1.355c10.814-4.066,22.066-1.685,33.119-2.234a4.52,4.52,0,0,1,2.5.584c.984,1.013,1.32,1.94-.594,1.98-4.425.089-8.852.019-12.186.034,3.905-.182,8.9.372,13.895-.267a13.949,13.949,0,0,1,2.857-.467c4.16-.82,5.5-2.563,5.637-6.763.143-4.281-.612-8.607.559-12.843a.9.9,0,0,1,.913-.442c1.212.938.985,2.317,1.012,3.572.071,3.23,0,6.463.032,9.694.04,3.78.113,3.838,4.018,4.208,1.941,1.2,3.746,2.5,3.488,5.175-.113.209-.505.09-.525.429,6.738-.36,13.477-.328,20.217-.033.436.019.02.2.3-.022.412-.33-.354-.3-.375-.6a1.581,1.581,0,0,1,.977-1.964c4.579.807,9.3.919,13.667,2.752.939.395,2.373.581,2.194,2.01-.137,1.091-1.35,1.382-2.26,1.635a105.4,105.4,0,0,1-20.18,3.355c-13.411,1.041-26.846,1.779-40.271,2.639-.326.021-.654.023-.981.02-19.064-.14-38.114,1.153-57.181.636-13.7-.372-27.409-.537-41.078-1.385-13.621-.847-27.272-1.68-40.773-3.882a42.353,42.353,0,0,1-5.949-1.674c-.822-.261-1.7-.69-1.712-1.743-.011-1.124,1.006-1.369,1.788-1.623a45.374,45.374,0,0,1,11.423-2.428,4.491,4.491,0,0,0,1.165-.4c.951-.009,1.088.889,1.585,1.4,1.809,1.853,4.015,1.445,5.036-.9.4-.925.3-2.2,1.67-2.481.2.627.385,1.336,1.225,1.269,6.246-.5,12.489-1.041,18.734-1.542,1.726-.139,3.459-.2,5.19-.271C327.763,468.359,328.963,468.6,329.211,467.047Z" transform="translate(4890.857 -92.591)" fill="#fceabe"/>
    <path id="Path_1154" data-name="Path 1154" d="M417.239,421.407c-.665-3.84-.28-7.7-.233-11.554.7-.844,1.685-1.545,1.424-2.866a8.684,8.684,0,0,0-.139-1.682c-1.473-2.328-3.706-.689-5.547-1.069l-2.077-.614c-.048-1.445.569-2.24,2.094-2.237q23.276.037,46.552.078a3.608,3.608,0,0,1,1.194.481c.679,5.929.215,11.878.251,17.816.018,2.848-2.34,2.6-4.277,2.726-11.546,0-23.092.017-34.637-.016C420.251,422.466,418.527,422.824,417.239,421.407Z" transform="translate(4874.098 -86.338)" fill="#15384e"/>
    <path id="Path_1155" data-name="Path 1155" d="M458.71,351.271a165.348,165.348,0,0,1-5.476,24.257c-2.556,7.812-8.924,11.431-15.58,14.831a2.68,2.68,0,0,1-2.492-.219c-7.74-3.689-13.972-8.609-16.147-17.564q-2.5-10.306-4.417-20.715c-.286-1.549.126-2.285,1.734-2.831,6.269-2.131,12.479-4.436,18.69-6.734a4.65,4.65,0,0,1,3.456.091c6.109,2.259,12.24,4.458,18.374,6.648C458.005,349.446,459.32,349.635,458.71,351.271Z" transform="translate(4873.609 -78.787)" fill="#15384e"/>
    <path id="Path_1156" data-name="Path 1156" d="M484.09,425.25l1.3.647c1.547-.615,3.246-1.344,2.282,1.568-.515,1.555.994,2.261,1.2,3.482a1.7,1.7,0,0,1-.7,1.111,2.207,2.207,0,0,0-1.7,2.6,20.445,20.445,0,0,1-1.385,2.942c-2.875,4.585-3.682,9.805-4.625,14.985a1.485,1.485,0,0,1-2.077,0c-2.166-1.637-4.8-2.536-6.846-4.342-.324-1.235,1.312-1.293,1.428-2.276-.694-.4-1.286.073-1.9.125-2.275.189-3.5-.69-3.5-3.106.015-4.561-.1-9.124.071-13.683.045-1.15-.255-2.7.917-3.275,1.278-.628,1.8,1.285,2.961,1.52,1.737-2.5,3.3-2.861,6.13-1.413-.034.8-.892.559-1.257.971.566-.278,1.2-.407,1.579-.949C479.943,425.419,482.058,425.616,484.09,425.25Z" transform="translate(4866.866 -89.373)" fill="#fcfdfd"/>
    <path id="Path_1157" data-name="Path 1157" d="M487.15,436.982l1.333-2.53a3.9,3.9,0,0,1,1.95-2.522l.691-.731c.725-1.989,2.546-2.83,4.148-3.861.936-.6,2.1-1.7,3.116-.483.888,1.067.152,2.214-.794,3.074a17.755,17.755,0,0,0-.685,14.473c1.277,2.015,1.1,4.276,1.1,6.508-.429,3.118.913,6.247-.05,9.36-.177,1.67-1.241,2.852-2.237,4.073-1.6,1.74-1.743,4.343-3.532,5.975a3.634,3.634,0,0,1-3.155-.293,3.206,3.206,0,0,1-.517-2.181c-.265-5.817-.4-11.635-.108-17.45.879-3.169.475-6.569,1.658-9.7.015-.039-.128-.176-.218-.207a.792.792,0,0,0-.334.039C487.3,440.285,486.677,439,487.15,436.982Z" transform="translate(4864.391 -89.507)" fill="#eb4b58"/>
    <path id="Path_1158" data-name="Path 1158" d="M317.891,374.973c-1.145,1.843-2.037,3.189-2.829,4.592-.335.594-1.039,1.424.077,1.9,1.011.433,1.376,1.04.963,2.018-.384.909-1.276.65-2,.69a21.967,21.967,0,0,1-2.287.005c-3.414-.168-5.605-2.523-5.309-5.68.249-2.648,3.286-5.2,6.085-4.527,1.95.466,2.687-.332,3.78-1.53,4.007-4.393,10.6-2.844,12.3,2.9a4.837,4.837,0,0,0,1.73,2.565,3.493,3.493,0,0,1,1.262,4.042,3.59,3.59,0,0,1-3.644,2.259c-2.176-.088-4.357-.033-6.536-.019-1.34.009-2.61-1.132-1.658-1.819,2.476-1.786.233-2.79-.234-4.052A34.68,34.68,0,0,0,317.891,374.973Z" transform="translate(4887.347 -82.336)" fill="#cbe7f0"/>
    <path id="Path_1159" data-name="Path 1159" d="M362.354,368.44c-.537,3.088-1.108,6.171-1.591,9.267-.184,1.177-.382,2.1-1.918,1.965-1.742-.155-1.3-1.42-1.318-2.422-.039-1.823-.01-3.649-.01-5.454-2.17.69-2.7,2.838-3.668,4.509-.826,1.421-1.719,1.776-3.143,1.232,1.046-5.166,3.341-9.9,5.123-14.811.331-.91,1.237-1.882-.012-2.809a1.02,1.02,0,0,1,.839-.773l1.406.569a8.332,8.332,0,0,1,4.4-.847,9.931,9.931,0,0,0,4.75.815c3.043.533,6.038,1.836,9.192.536,2.53,1.372,3.19,3.494,2.466,6.168-3.853.956-7.781.35-11.67.573C365.439,366.974,363.6,366.725,362.354,368.44Z" transform="translate(4881.723 -80.928)" fill="#15374d"/>
    <path id="Path_1160" data-name="Path 1160" d="M291.955,451.087c-.4-1.676-1.373-3.449-1.1-5.01.843-4.9,2.818-9.512,3.521-14.535.353-2.525,3.882-2.3,6.242-1.761,2.3.519,3.284,2.272,3.269,4.618-.012,1.92-.839,3.849.043,5.762-.354.687-1.046.944-1.649,1.314a2.437,2.437,0,0,0-1.52,1.8,15.692,15.692,0,0,1-1.353,1.743c-1,2.948-.421,5.991-.574,8.986a13.341,13.341,0,0,1-.319,3.845,1.446,1.446,0,0,1-1.625.964A12.531,12.531,0,0,1,291.955,451.087Z" transform="translate(4889.34 -89.905)" fill="#748da6"/>
    <path id="Path_1161" data-name="Path 1161" d="M326.486,409.884c-1.977,2.134-1.6,3.406,1.641,4.11.969.21,1.038,1.961-.607,2.261-2.221.4-2.958,1.347-1.472,3.284.545.711.736,1.294.071,1.993-.7.733-1.271.445-1.969-.074-1.622-1.208-2.847-.952-3.277,1.176-.163.807-.288,1.5-1.317,1.5-.99,0-1.272-.582-1.37-1.45-.263-2.336-1.491-2.4-3.1-1.192-.708.531-1.293.751-1.985.036-.662-.684-.573-1.264.032-1.968,1.625-1.892.918-2.924-1.329-3.249-.834-.12-1.52-.326-1.451-1.352.065-.957.722-1.192,1.559-1.319,2.406-.363,2.658-1.543,1.147-3.289a1.159,1.159,0,0,1-.1-1.722c.624-.719,1.211-.684,1.958-.106,1.726,1.337,3.006,1.293,3.3-1.252.1-.861.492-1.439,1.438-1.441,1.074,0,1.058.818,1.237,1.573.451,1.9,1.438,2.668,3.2,1.255.537-.429,1.024-.828,1.721-.353A1.349,1.349,0,0,1,326.486,409.884Z" transform="translate(4886.855 -86.903)" fill="#748da6"/>
    <path id="Path_1162" data-name="Path 1162" d="M300.411,445.48l1.281-.978c.2-.841.927-1.355,1.292-2.092l2.059-.687c2.607,1.988,3.116,4.53,2.043,7.532-.545,1.522-1.055,2.939-.009,4.63,3.306,5.341,1.491,9.092-4.741,10.085a10.932,10.932,0,0,1-1.947-.031c-1.322-1.558-.764-3.146-.082-4.736,0-.365,1.513-.89-.134-1.092a2.183,2.183,0,0,1-.381-.875c-.1-1.424-.042-2.843-.061-4.263C299.864,450.464,299.376,447.9,300.411,445.48Z" transform="translate(4888.224 -91.468)" fill="#748da6"/>
    <path id="Path_1163" data-name="Path 1163" d="M486.08,390.447l1.19.782c-.261,1.823-1.973.432-2.7,1.219-2,.2-1.906,1.987-2.471,3.275-.58,1.331-1.111,2.866-2.542.6L467.533,378.9c4.082.568,7.156,2.812,10.642,3.871.052,1.437,1.17,2.032,2.161,2.727a15.06,15.06,0,0,0,2.268,1.883C483.831,388.323,485.408,388.875,486.08,390.447Z" transform="translate(4866.866 -83.478)" fill="#ec4c5a"/>
    <path id="Path_1164" data-name="Path 1164" d="M381.057,363.974c-.843-1.951-.516-4.424-2.593-5.825-.71-1.544.324-2.944.371-4.43.041-1.3.336-2.587.339-3.876,0-1.556.309-3.872-1.594-4.012-1.417-.1-1.089,2.237-1.425,3.53a7.817,7.817,0,0,0-.119,1.292c-.5,5.7-1.98,6.672-7.852,5.137a.565.565,0,0,1-.144-.853c3.195.6,4.468-.512,4.075-3.922-.229-1.99.388-4.076.625-6.119.482-1.818-1.234-4.681,2.38-5.013A7.588,7.588,0,0,1,381,345.594a88.291,88.291,0,0,1,2.622,13.657,5.076,5.076,0,0,1-2.049,4.834C381.4,364.044,381.23,364.006,381.057,363.974Z" transform="translate(4879.536 -78.517)" fill="#eb4b58"/>
    <path id="Path_1165" data-name="Path 1165" d="M471.262,426.241c-1.98-.544-4.107-2.16-5.039,1.538-.338,1.341-1.836.184-2.4-.4a3.866,3.866,0,0,0-1.727-1.539c0,5.868.084,11.524-.042,17.175-.049,2.239,1.353,2.075,2.724,2.063.848-.008,1.871-1.232,2.486.115.8,1.762-1.3,1.63-1.9,2.51-.69.909-1.441.408-2.183.1-.367-.259-.6-.782-1.195-.619a2.2,2.2,0,0,0-.375.078c-2.374.544-4.781.217-7.169.228-10.689.05-21.377,0-32.066.033-1.525.005-3.088.174-4.233-1.176l.008-1.183a2.415,2.415,0,0,1,1.178-.312c11.775.237,23.55.045,35.325.1a9.4,9.4,0,0,0,2.57-.393c2.638-.147,3.3-1.7,3.275-4.122-.057-4.618-.179-9.242.1-13.855-.02-1.263,1.353-1.807,1.546-2.968.533-.182.711-1.326,1.54-.662,2.821,2.261,5.918,1.359,9.034.975,1.729-.214,3.579-.283,5.082,1C475.863,426.546,473.526,426.212,471.262,426.241Z" transform="translate(4873.146 -89.055)" fill="#fcfbfb"/>
    <path id="Path_1166" data-name="Path 1166" d="M497.72,429.3c.235-.993.47-1.986.783-3.309-3.029,1.019-4.8,3.347-7.252,4.579-1.26-1.166-3.258-2.021-1.595-4.326.386-.535.214-.659-1.661-.841.1-.914-.182-2.123,1.488-1.756a6.384,6.384,0,0,0,3.167-1.448c.841-1.545,2.914-.974,4.5,1.241,1.171-.161,2.538-1.288,3.284.662-.983,1.115-.583,2.52-.361,3.64.234,1.181.663,2.251-.475,2.99C497.9,431.831,499.427,428.386,497.72,429.3Z" transform="translate(4864.265 -88.874)" fill="#fcfbfb"/>
    <path id="Path_1168" data-name="Path 1168" d="M291.718,454.241l4.674,7.378c1.468.961,2.752,1.985,1.322,3.922a8,8,0,0,1-5.315-1.166c-3.781-2.006-4.465-4.74-2.061-8.322C290.76,455.425,291.256,454.844,291.718,454.241Z" transform="translate(4889.579 -93.06)" fill="#758ea7"/>
    <path id="Path_1169" data-name="Path 1169" d="M303.543,471.3c-.181.488-.324,1-.55,1.461-.722,1.49.252,3.887-2.935,4.013-2.886.115-4.379-.7-4.807-3.495q-.326-1.86-.651-3.723a19.987,19.987,0,0,1,9.026-.048Z" transform="translate(4888.858 -94.938)" fill="#17394f"/>
    <path id="Path_1170" data-name="Path 1170" d="M336.975,409.424c1.888-.667,2.551.388,2.817,2q-.007,21.856-.022,43.714c0,1.369.413,2.849-.635,4.074-2.461-1.844-1.365-4.452-1.081-6.62a31.117,31.117,0,0,0-.083-10.954,3.815,3.815,0,0,1-.12-1.615c1.548-6.62-.872-13.284.4-20.017.574-3.032.5-6.838-1.613-9.859Z" transform="translate(4883.512 -87.335)" fill="#f9ae3e"/>
    <path id="Path_1171" data-name="Path 1171" d="M321.308,442.043c2.533.4,3.949,1.7,3.986,3.713.056,3.009-1.395,5.609-3.212,7.951-.66.851-1.339.44-1.85-.25a14.046,14.046,0,0,1-3.051-7.392A3.982,3.982,0,0,1,321.308,442.043Z" transform="translate(4885.987 -91.506)" fill="#1d3e52"/>
    <path id="Path_1172" data-name="Path 1172" d="M496.122,468.759l2.069-3.1a3.828,3.828,0,0,1,2.615-1.364,2.233,2.233,0,0,1,2.554,1.266,13.349,13.349,0,0,0-2.4,7.208l-.777,1.927c-1.006,1.033-2.253.622-3.435.575-1.63-.813-1.261-2.182-.536-3.2A2.323,2.323,0,0,0,496.122,468.759Z" transform="translate(4863.298 -94.336)" fill="#41b6d3"/>
    <path id="Path_1173" data-name="Path 1173" d="M481.651,386.552c-.568-1.144-4.458-.187-2.039-3.222,2.71.988,5.431,1.948,8.124,2.979.972.372,2.522.755,2.684,1.41.353,1.435-1.595,1.332-2.287,2.2-1.77.513-2.632-1.073-3.912-1.691A29.114,29.114,0,0,1,481.651,386.552Z" transform="translate(4865.431 -84.042)" fill="#ec505d"/>
    <path id="Path_1176" data-name="Path 1176" d="M371.273,332.945c2.2.9,1.532,3.121,2.182,4.734-.141,1.106-.951,1-1.727.962-.8-.214-1.5-.807-2.4-.649a11.742,11.742,0,0,1-1.988-.2c-.628.059-.789.665-1.176,1a1.657,1.657,0,0,1-2.062-.3,1.814,1.814,0,0,1,.716-2.378l-.049.06c.347-.243.516-.764.889-.86,1.239-.318.984-.975.5-1.738l0,.006A5.314,5.314,0,0,1,371.273,332.945Z" transform="translate(4880.044 -77.587)" fill="#1a3d53"/>
    <path id="Path_1178" data-name="Path 1178" d="M467.868,420.979c1.692,1.41-.562,1.338-.764,2.037a1.278,1.278,0,0,1-.834.233,7.785,7.785,0,0,1-3.005-.737.636.636,0,0,1-.186-.526c.025-.189.06-.283.1-.283,3.418.408,4.384-1.157,4.184-4.456-.306-5.06-.153-10.148-.195-15.223,1.248,1.287.609,2.888.636,4.335C467.9,411.231,467.859,416.106,467.868,420.979Z" transform="translate(4867.434 -86.42)" fill="#fee2ea"/>
    <path id="Path_1180" data-name="Path 1180" d="M349.981,380.12c.348.885,1.523,1.417.752,2.77-.737,1.292-1.549.656-2.411.5l-3.55-2.58c.264-1.038,1.2-.881,1.931-1.082C347.873,379.214,348.91,379.811,349.981,380.12Z" transform="translate(4882.478 -83.558)" fill="#2b485a"/>
    <path id="Path_1181" data-name="Path 1181" d="M303.627,468.388l-9.027.049c.731-1.227,1.939-.687,2.941-.723,1.15-.041,1.287-.5.892-1.411.4-1.591-.573-2.718-1.321-3.922a1.411,1.411,0,0,0,1.386-.594c.4-.422.174-1.074.552-1.5a.609.609,0,0,1,.72.167l-.01-.009c.28.254.713.326.871.727-1.061,1.576-.893,3.364-.876,5.124C300.006,468.91,302.854,466.734,303.627,468.388Z" transform="translate(4888.858 -93.822)" fill="#c4dbf2"/>
    <path id="Path_1183" data-name="Path 1183" d="M366.924,357.111c-.017.176-.027.353-.031.531a2.179,2.179,0,0,1-.668,2.148c-1.05.425-1.762-.4-2.615-.709a9.788,9.788,0,0,1-4.48.395C360.935,356.07,364.1,357.146,366.924,357.111Z" transform="translate(4880.652 -80.691)" fill="#c49883"/>
    <path id="Path_1184" data-name="Path 1184" d="M368.066,337.587l1.774.546c1.747.644,2.152,1.967,1.852,3.65a2.384,2.384,0,0,1-.562.823c-2.331.271-3.238-1.324-4.028-3.074C366.647,338.5,367.1,337.915,368.066,337.587Z" transform="translate(4879.661 -78.225)" fill="#c3927d"/>
    <path id="Path_1186" data-name="Path 1186" d="M501.126,463.614a3.706,3.706,0,0,1-2.557.8c.78-3.233.5-6.557.828-9.828l.374-.056c.49,1.949-1.124,4.4,1.392,5.865C502.021,461.479,501.675,462.548,501.126,463.614Z" transform="translate(4862.92 -93.097)" fill="#f9ea9c"/>
    <path id="Path_1187" data-name="Path 1187" d="M501.772,423.809c-.917-1.1-2.181-.483-3.284-.662,1.282-.753,1.69-2.466,3.2-2.95.617-.2.579-1.79,1.644-.848a1.677,1.677,0,0,1,.17,2.127A23.57,23.57,0,0,1,501.772,423.809Z" transform="translate(4862.93 -88.585)" fill="#faf7f7"/>
    <path id="Path_1188" data-name="Path 1188" d="M502.988,455.582c1.179-2.719,2.82-2.172,4.6-.65a3.07,3.07,0,0,1-.279,1.181,9.766,9.766,0,0,1-.89,2.315,1.673,1.673,0,0,1-.8.295,1.827,1.827,0,0,1-.819-.256A10.475,10.475,0,0,1,502.988,455.582Z" transform="translate(4862.358 -92.987)" fill="#fbf8f6"/>
    <path id="Path_1190" data-name="Path 1190" d="M502.864,455.861c1.747.127,1.661,1.576,1.971,2.739a1.658,1.658,0,0,1-.676,2.24,1.173,1.173,0,0,1-1.2-.243C501.623,459.043,501.807,457.461,502.864,455.861Z" transform="translate(4862.481 -93.266)" fill="#fce473"/>
    <path id="Path_1191" data-name="Path 1191" d="M506.419,413.508a3.9,3.9,0,0,1,1.666,4.172c-.145.663-.251,1.163-1.177,1.134-1.067-.033-.914-.7-.872-1.306C506.122,416.268,506.268,415.032,506.419,413.508Z" transform="translate(4861.974 -87.88)" fill="#faf7f7"/>
    <path id="Path_1192" data-name="Path 1192" d="M503.046,461.231l1.272-.048c1.082-.693,1.842-.237,2.467.695,1.122,2.3-.746,1.765-1.85,1.957-1.829-.012-2.577-.858-2.062-2.676Z" transform="translate(4862.393 -93.9)" fill="#fce472"/>
    <path id="Path_1193" data-name="Path 1193" d="M371.742,342.713q.008-.262.019-.524c1.375-.94-.271-2.4.586-3.427.74.13,1.507.415,2.1-.34l1.158,1.275c-2.375.923-1.5,3.387-2.382,5.014C373.093,343.776,373.063,342.765,371.742,342.713Z" transform="translate(4879.048 -78.331)" fill="#bf8e80"/>
    <path id="Path_1194" data-name="Path 1194" d="M487.049,394.245c.705-.838,2.173.011,2.7-1.219,1.563.5,3.106,1.033,3.624,3.143C491.078,395.919,489.422,393.741,487.049,394.245Z" transform="translate(4864.385 -85.275)" fill="#fbf6f6"/>
    <path id="Path_1195" data-name="Path 1195" d="M502.676,461.2a3.673,3.673,0,0,0,2.062,2.676q-.335.643-.669,1.285a3.131,3.131,0,0,0-2.611-.7c-.769-1.081.254-2.143.038-3.219Z" transform="translate(4862.59 -93.945)" fill="#e8f0dc"/>
    <path id="Path_1198" data-name="Path 1198" d="M356.949,358.709l-.839.773c-1.219-1.006-2.621-1.858-3.094-3.5-.037-.127.458-.59.567-.546C355.151,356.053,356.008,357.428,356.949,358.709Z" transform="translate(4881.43 -80.495)" fill="#203f50"/>
    <path id="Path_1199" data-name="Path 1199" d="M511.027,456.533l.7-1.439a5.827,5.827,0,0,1,1.374,2.761c.231.514.954,1.037.31,1.591-.811.7-1.464-.387-2.24-.411C510.108,458.26,509.917,457.433,511.027,456.533Z" transform="translate(4861.431 -93.168)" fill="#f9e675"/>
    <path id="Path_1200" data-name="Path 1200" d="M510.729,456.743c-.741.88.125,1.668.142,2.5-.353.638,1.134,2.078-.87,2-.325-.423-.584-.889-.868-1.336-.334-.408-.772-.717-1.1-1.136a1.56,1.56,0,0,1-.086-.8,1.762,1.762,0,0,1,1-1.229Z" transform="translate(4861.729 -93.378)" fill="#fefbf7"/>
    <path id="Path_1201" data-name="Path 1201" d="M513.311,457.738c-1.266-.517-1.346-1.625-1.374-2.76.135-.282.284-.812.405-.806C513.536,454.232,514.152,456.558,513.311,457.738Z" transform="translate(4861.22 -93.051)" fill="#fbe474"/>
    <path id="Path_1204" data-name="Path 1204" d="M507.018,461.643l-2.468-.695q.305-.974.607-1.949l.739.038c.5.417,1.169.541,1.644.992.456.429,1.177.7.964,1.543Z" transform="translate(4862.159 -93.665)" fill="#fcf7e3"/>
    <path id="Path_1205" data-name="Path 1205" d="M484.969,388.426l3.854,2.127-.617,1.092-3.916-2.583C484.167,388.479,484.265,388.129,484.969,388.426Z" transform="translate(4864.741 -84.677)" fill="#fbf6f6"/>
    <path id="Path_1206" data-name="Path 1206" d="M499.744,453.577a.711.711,0,0,0-.375.054q-.508-3.3-1.017-6.593C500.676,448.822,499.528,451.346,499.744,453.577Z" transform="translate(4862.948 -92.144)" fill="#fbf8f6"/>
    <path id="Path_1208" data-name="Path 1208" d="M371.6,332.891a14.038,14.038,0,0,0-5.124.64C367.972,331.631,369.747,331.958,371.6,332.891Z" transform="translate(4879.718 -77.533)" fill="#1f3d50"/>
    <path id="Path_1209" data-name="Path 1209" d="M366.276,333.726l1.586,1.177-2.971,1.42A5.555,5.555,0,0,1,366.276,333.726Z" transform="translate(4879.919 -77.734)" fill="#1f3d50"/>
    <path id="Path_1210" data-name="Path 1210" d="M481.306,398.776c1.236,1.443,1.858.291,2.542-.6-.005,1.043.158,2.315-1.3,2.41C481.5,400.655,481.307,399.675,481.306,398.776Z" transform="translate(4865.115 -85.93)" fill="#f9f5f3"/>
    <path id="Path_1211" data-name="Path 1211" d="M346.4,379.7l-1.931,1.082-2.056-.98C343.913,378.534,345.169,380.161,346.4,379.7Z" transform="translate(4882.778 -83.531)" fill="#455e69"/>
    <path id="Path_1213" data-name="Path 1213" d="M508.843,456.539c-.122.511-.017,1.129-.656,1.4-1.648-.181-.986-1.211-.765-2.078l.689-.741C509.175,455.168,509.1,455.806,508.843,456.539Z" transform="translate(4861.834 -93.171)" fill="#f3e344"/>
    <path id="Path_1214" data-name="Path 1214" d="M508.871,461.626l-1.439-1.246c.449-.9,1.071-1.273,2.017-.67.887.436.8,1.126.489,1.875Z" transform="translate(4861.792 -93.718)" fill="#f9e363"/>
    <path id="Path_1220" data-name="Path 1220" d="M364.651,336.633q-.357,1.189-.716,2.378c-.661-.353-1.43-.863-1.3-1.582C362.818,336.376,364.042,337.113,364.651,336.633Z" transform="translate(4880.208 -78.104)" fill="#1f3d50"/>
    <path id="Path_1222" data-name="Path 1222" d="M286.316,339.579a2.709,2.709,0,0,1,2.608-2.04A3.987,3.987,0,0,1,286.316,339.579Z" transform="translate(4889.911 -78.219)" fill="#fbea9c"/>
    <path id="Path_1231" data-name="Path 1231" d="M367.986,337.571a2.523,2.523,0,0,0-.964,1.946,1.041,1.041,0,0,1-.558-.1C366.1,338.086,366.2,337.135,367.986,337.571Z" transform="translate(4879.74 -78.21)" fill="#1f3d50"/>
    <path id="Path_1348" data-name="Path 1348" d="M253.717,411.459a1.843,1.843,0,0,1-1.974-1.953A1.843,1.843,0,0,1,253.717,411.459Z" transform="translate(4894.308 -87.371)" fill="#f9dc65"/>
    <path id="Path_1545" data-name="Path 1545" d="M417.73,449.781q19.939,0,39.878.01c1.24,0,2.666-.466,3.591.9-.018,5.339-.1,10.678-.023,16.016.027,1.925-.455,2.479-2.522,3.121-2.214.687-4.124,2.3-6.691,1.7-.739-.391-.334-1.667-1.4-1.806q-14.161-.055-28.321-.1c-.726,0-1.632-.285-2.09.511-1.477,2.568-3.382,1.631-5.309.739.918-1.677,2.666-2.977,2.366-5.207q-.264-.186-.156-.336t.2-.141q.213-3.606.425-7.212c1.539-2.055,1.672-4.1-.044-6.131Z" transform="translate(4873.566 -92.484)" fill="#15384e"/>
    <path id="Path_1546" data-name="Path 1546" d="M460.738,425.909a2.26,2.26,0,0,1,.613.059c.071,5.836.164,11.671.2,17.508.022,3.279-2.7,1.477-4.092,2.14-5.4.539-10.809.228-16.212.211-7.462-.023-14.93.335-22.387-.209l-.745-.134a.844.844,0,0,1,.05-.516c-.646-3.1-.131-6.235-.275-9.351a1.579,1.579,0,0,1,.308-1.231c2.674-2.6,2.187-5.079-.195-7.548-.229-.237.037-.6.227-.864l.044-.047c1.009-.9,2.255-.665,3.427-.667q16.468-.028,32.935,0A28.144,28.144,0,0,1,460.738,425.909Z" transform="translate(4873.187 -89.371)" fill="#15374d"/>
    <path id="Path_1547" data-name="Path 1547" d="M374.346,401.129c-4.364,0-8.735-.156-13.089.061-2.563.128-3.07-.817-3.058-3.172.047-9.97,7.3-17.3,17.1-17.064,9.4.23,16.293,8.158,15.771,17.985-.092,1.727-.664,2.244-2.324,2.217C383.948,401.076,379.146,401.128,374.346,401.129Z" transform="translate(4880.77 -83.739)" fill="#fdfdfd"/>
    <path id="Path_1548" data-name="Path 1548" d="M370.792,442.658c0-1.855-.114-3.718.026-5.562a8.818,8.818,0,0,0-2.676-7.573c-3.63-3.654-2.975-9.746.852-13.2a9.852,9.852,0,0,1,13.613.333,9.3,9.3,0,0,1,.206,13.232,7.094,7.094,0,0,0-2.169,5.774c.112,5.234-.045,10.475.079,15.709.048,2.042-.669,2.548-2.632,2.571-7.3.09-7.3.162-7.3-7.027Z" transform="translate(4879.811 -87.911)" fill="#fdfdfd"/>
    <path id="Path_1549" data-name="Path 1549" d="M339.486,459.537q0-22.037.024-44.075c0-1.246-.495-2.636.632-3.713l0,0c.6,1.13.3,2.349.3,3.522.024,13.584.006,27.168.032,40.752,0,1.17-.319,2.392.32,3.512v3.447C340.145,461.269,339.816,460.4,339.486,459.537Z" transform="translate(4883.161 -87.656)" fill="#fab136"/>
    <path id="Path_1550" data-name="Path 1550" d="M340.892,459.539c-1.127-1.078-.628-2.467-.632-3.713q-.052-22.036-.021-44.073c1.126,1.079.627,2.468.629,3.714Q340.924,437.5,340.892,459.539Z" transform="translate(4883.065 -87.657)" fill="#feac3b"/>
    <path id="Path_1551" data-name="Path 1551" d="M460.784,425.862l-42.461.019a3.106,3.106,0,0,1-.127-.459c.413-.721,1.122-.53,1.741-.531q18.022-.014,36.045-.007a2.217,2.217,0,0,1,1.536.364C458.554,425.738,459.829,424.945,460.784,425.862Z" transform="translate(4873.141 -89.325)" fill="#244960"/>
    <path id="Path_1552" data-name="Path 1552" d="M457.519,425.179l-39.322.174c0-.343,0-.686,0-1.029l39.277.216C457.488,424.753,457.5,424.966,457.519,425.179Z" transform="translate(4873.14 -89.255)" fill="#fcfdfd"/>
    <path id="Path_1553" data-name="Path 1553" d="M413.048,404.51c3.314-1.574,5.724-1.225,6.538.947-1.136.672-.054,3.636-2.768,2.679A13.452,13.452,0,0,0,413.048,404.51Z" transform="translate(4873.795 -86.612)" fill="#3cafc9"/>
    <path id="Path_1554" data-name="Path 1554" d="M418.215,426.083c2.539,1.434,3.005,3.714,2.6,6.355-.049.32.072.835-.1.946-4.627,3.082-1.664,7.814-2.57,11.692a40.115,40.115,0,0,1-.14-11.185c1.941-2.026,1.639-4.037-.04-6.038C417.815,427.23,417.547,426.591,418.215,426.083Z" transform="translate(4873.205 -89.479)" fill="#244960"/>
    <path id="Path_1555" data-name="Path 1555" d="M417.966,428.106c2.677-.3,2.223,1.594,2.268,3.186s.154,3.18-2.228,2.852A14.077,14.077,0,0,1,417.966,428.106Z" transform="translate(4873.209 -89.732)" fill="#4fb4c3"/>
    <path id="Path_1556" data-name="Path 1556" d="M417.995,452.146c2.167-.275,2.426,1.024,2.293,2.719-.122,1.573.6,3.653-2.248,3.411A12.962,12.962,0,0,1,417.995,452.146Z" transform="translate(4873.21 -92.789)" fill="#50b5c3"/>
    <path id="Path_1557" data-name="Path 1557" d="M354.508,384.63c1.188-.656,2.268-1.593,3.822-1.076,1,.333,2.177.331,1.916,1.929-.24,1.467-1.325,1.081-2.222,1.093a15.271,15.271,0,0,1-1.588-.14C355.773,385.856,353.649,386.836,354.508,384.63Z" transform="translate(4881.265 -84.052)" fill="#23404c"/>
    <path id="Path_1558" data-name="Path 1558" d="M367.036,435.868v20.118l-.327,0V435.969Z" transform="translate(4879.688 -90.723)" fill="#fbaf34"/>
    <path id="Path_1559" data-name="Path 1559" d="M364.051,369.518c.533-4.029,3.147-1.264,4.846-1.483A16.058,16.058,0,0,1,364.051,369.518Z" transform="translate(4880.026 -82.005)" fill="#cbcecb"/>
    <path id="Path_1560" data-name="Path 1560" d="M354.17,384.809c-.148,1.446,1.422,1.059,1.928,1.806-1.5.059-3.026.272-4.446-.662C352.264,384.946,353.231,384.908,354.17,384.809Z" transform="translate(4881.604 -84.23)" fill="#485554"/>
    <path id="Path_1561" data-name="Path 1561" d="M417.368,408.416c1.823.038,1.234-2.417,2.768-2.679q0,.983.005,1.965c-.555,1-.814,2.39-2.5,1.94Z" transform="translate(4873.246 -86.892)" fill="#3bb3de"/>
    <path id="Path_1562" data-name="Path 1562" d="M417.683,409.928l2.5-1.94c.519,1.982-.271,2.859-2.283,2.7Q417.791,410.311,417.683,409.928Z" transform="translate(4873.206 -87.178)" fill="#3cafc9"/>
    <path id="Path_1563" data-name="Path 1563" d="M417.279,467.318a.324.324,0,0,1-.045.477c-1.029-.106-.824,1.675-2.016,1.319-.393-1.286-.353-2.357,1.307-2.618Z" transform="translate(4873.546 -94.618)" fill="#fbad43"/>
    <path id="Path_1564" data-name="Path 1564" d="M416.456,466.429a3.616,3.616,0,0,0-1.307,2.618,1.749,1.749,0,0,1-.229-2.556C415.347,465.85,415.915,465.741,416.456,466.429Z" transform="translate(4873.614 -94.55)" fill="#f8ad30"/>
    <path id="Path_1565" data-name="Path 1565" d="M469.212,450.757l2.617.512a24.364,24.364,0,0,1,8.308,4.893c3.324,1.731,3.825,5.392,5.6,8.183a34.809,34.809,0,0,1,1.233,6.688q.031.952.062,1.9a2.17,2.17,0,0,1-2.436.529c-2.193-2.107-2.216-5.28-3.581-7.368-.4-.716-.818.044-.5-.259.059-.057.122,0,.224.135,1.293,1.779,1.673,3.944,2.482,5.927a1.189,1.189,0,0,1-.717,1.594c-1.816.061-3.682.689-5.38-.492l-3.469-4.591a3.691,3.691,0,0,1-1.828-3.232,57.557,57.557,0,0,0-2.644-12.592C468.995,452,468.693,451.356,469.212,450.757Z" transform="translate(4866.689 -92.617)" fill="#3cb5d3"/>
    <path id="Path_1566" data-name="Path 1566" d="M469.143,450.707c3.064,5.486,2.577,11.865,4.442,17.651-4.3,1.311-5.092.782-5.11-3.363q-.033-7.148-.093-14.3C468.64,450.335,468.894,450.172,469.143,450.707Z" transform="translate(4866.759 -92.567)" fill="#f4f7f7"/>
    <path id="Path_1567" data-name="Path 1567" d="M484.686,476.1l2.823,0,2.99.024a2.106,2.106,0,0,1,2.749.034l4.017-.023c1.14.436,2.549-.3,4.1,1.108h-28.7c1.615-1.644,3.455-.577,4.939-1.08l5.852-.036A.886.886,0,0,1,484.686,476.1Z" transform="translate(4866.214 -95.78)" fill="#214559"/>
    <path id="Path_1568" data-name="Path 1568" d="M453.581,472.624c1.793-.425,1.147,1.038,1.4,1.806H438.565l0-.615c4.421,0,8.842.04,13.261-.045C452.458,473.758,454.14,474.7,453.581,472.624Z" transform="translate(4870.55 -95.388)" fill="#f8e9c4"/>
    <path id="Path_1569" data-name="Path 1569" d="M441.065,410.06c-5.328,0-10.661-.128-15.982.052-2.484.085-2.605-1.191-2.506-3,.093-1.674-.47-3.49,2.43-3.455,10.546.129,21.094.1,31.641.052,2.386-.01,3.425.635,3.4,3.341-.022,2.907-1.432,3.084-3.656,3.044C451.288,410,446.175,410.063,441.065,410.06Z" transform="translate(4872.587 -86.627)" fill="#3cb3d1"/>
    <path id="Path_1570" data-name="Path 1570" d="M418.047,353.456c-.293-.958.91-1.251,1.913-1.612,5.212-1.875,10.444-3.693,15.646-5.594a3.7,3.7,0,0,1,2.8-.06c5.3,1.963,10.624,3.846,15.955,5.711,1.275.447,1.953.962,1.644,2.553-1.3,6.725-2.479,13.467-4.566,20.017-2.157,6.774-7.626,10.022-13.445,12.95a2.257,2.257,0,0,1-2.158-.181c-6.612-3.161-11.941-7.327-13.829-15.006C420.526,366.209,419.228,360.166,418.047,353.456Z" transform="translate(4873.165 -79.288)" fill="#fdfdfd"/>
    <path id="Path_1571" data-name="Path 1571" d="M486.682,462.912a56.822,56.822,0,0,0-4.912-8.3c.316-5.724,1.261-11.264,4.715-16.068.549,1.266.378,3.222,2.687,2.8.6,3.411-.793,6.628-.964,9.966.038,3.117-.5,6.207-.383,9.331C487.856,461.514,488.1,462.683,486.682,462.912Z" transform="translate(4865.056 -91.063)" fill="#eb4b58"/>
    <path id="Path_1572" data-name="Path 1572" d="M484.731,428.467c-1.643.8-2.628-.674-3.9-.306C482.15,427.2,483.358,427.432,484.731,428.467Z" transform="translate(4865.175 -89.666)" fill="#fcfbfb"/>
    <path id="Path_1573" data-name="Path 1573" d="M490.6,432.742a5.363,5.363,0,0,1-1.95,2.522C487.821,433.281,488.525,432.481,490.6,432.742Z" transform="translate(4864.225 -90.32)" fill="#fcfbfb"/>
    <path id="Path_1574" data-name="Path 1574" d="M478.832,426.775l-3.139,2.087C476.195,426.953,477.286,426.7,478.832,426.775Z" transform="translate(4865.829 -89.566)" fill="#fcfbfb"/>
    <path id="Path_1575" data-name="Path 1575" d="M488.291,430.674c-.234.285-.372.621-.593.69a.568.568,0,0,1-.776-.624.844.844,0,0,1,.592-.568C487.727,430.148,487.976,430.456,488.291,430.674Z" transform="translate(4864.401 -89.999)" fill="#fcfbfb"/>
    <path id="Path_1576" data-name="Path 1576" d="M487.4,464.726l1.18-11.75a.4.4,0,0,1,.661,0c.269,5.829-.612,11.693.544,17.5.046.232-.3.543-.461.818Q488.361,468.009,487.4,464.726Z" transform="translate(4864.34 -92.877)" fill="#d44152"/>
    <path id="Path_1577" data-name="Path 1577" d="M495.847,475.351l-2.749-.034a12.123,12.123,0,0,1,2.707-5.92c.445.738.985.645,1.568.179.5-.4.925-.431,1.209.252.2.479-.033.679-.4.991A5.828,5.828,0,0,0,495.847,475.351Z" transform="translate(4863.616 -94.974)" fill="#44b4d0"/>
    <path id="Path_1578" data-name="Path 1578" d="M489.411,451.474h-.661l1.309-9.82c.458.077,1.284-1.333,1.178-.233C490.914,444.8,490.059,448.127,489.411,451.474Z" transform="translate(4864.168 -91.376)" fill="#de4150"/>
    <path id="Path_1579" data-name="Path 1579" d="M367.322,357.994c-.06-.718-.175-1.455.607-1.906,6.567.068,6.553.067,7.207-6.317.1-.957.416-1.889.6-2.839.17-.891-.188-2.166,1.277-2.175a2.456,2.456,0,0,1,2.55,2.071,19.91,19.91,0,0,1-1.177,11.94c-1.754,1.887-3.782,1.414-5.863.718-1.1-.367-2.229-.635-3.346-.947C368.615,358.161,367.782,358.711,367.322,357.994Z" transform="translate(4879.616 -79.137)" fill="#d34052"/>
    <path id="Path_1580" data-name="Path 1580" d="M366.938,359.854c.656.052,1.359-.049,1.855.547-1.638.229-3.319.653-4.532-1.015Z" transform="translate(4879.999 -80.997)" fill="#798391"/>
    <path id="Path_1581" data-name="Path 1581" d="M299.676,458.675q-.306.653-.611,1.308c.059-4,.148-7.993.152-11.99,0-.947.016-1.726,1.128-1.962q-.042,4.043-.083,8.09C299.506,455.567,300.471,457.234,299.676,458.675Z" transform="translate(4888.291 -92.016)" fill="#a6c0d9"/>
    <path id="Path_1582" data-name="Path 1582" d="M300.259,431.267v4.79C299.247,434.37,299.247,434.37,300.259,431.267Z" transform="translate(4888.235 -90.138)" fill="#7d96af"/>
    <path id="Path_1583" data-name="Path 1583" d="M297.147,445.617a2.277,2.277,0,0,1-1.779-1.984A2.277,2.277,0,0,1,297.147,445.617Z" transform="translate(4888.761 -91.711)" fill="#8ca5bd"/>
    <path id="Path_1584" data-name="Path 1584" d="M303.262,442.51a2.228,2.228,0,0,1-1.292,2.09C301.253,443.2,302.633,443.085,303.262,442.51Z" transform="translate(4887.946 -91.568)" fill="#98b1c9"/>
    <path id="Path_1585" data-name="Path 1585" d="M323.672,415.911c-.241,2.032-1.206,3.213-3.178,3.154a3.016,3.016,0,0,1-3.243-3.3,3.048,3.048,0,0,1,3.2-3.079C322.487,412.679,323.512,414.04,323.672,415.911Z" transform="translate(4885.978 -87.775)" fill="#f8fafb"/>
    <path id="Path_1586" data-name="Path 1586" d="M301.383,460.945l-.871-.727,2.365-1.742C303,459.866,302.045,460.313,301.383,460.945Z" transform="translate(4888.106 -93.598)" fill="#b2cae2"/>
    <path id="Path_1587" data-name="Path 1587" d="M299.756,459.853c.21-1.516-.569-3.16.586-4.554q.038,2.262.076,4.524Z" transform="translate(4888.21 -93.194)" fill="#b2cae2"/>
    <path id="Path_1588" data-name="Path 1588" d="M306.143,455.552a3.822,3.822,0,0,1-.906.752c-.347.143-.655-.13-.4-.5a4.478,4.478,0,0,1,.944-.8Z" transform="translate(4887.569 -93.158)" fill="#88a2bc"/>
    <path id="Path_1589" data-name="Path 1589" d="M484.691,388.261l-.68.636c-.938-.326-1.758-.775-1.949-1.877A3.556,3.556,0,0,1,484.691,388.261Z" transform="translate(4865.019 -84.512)" fill="#f3d4d2"/>
    <path id="Path_1590" data-name="Path 1590" d="M419.014,448.589l38.6,0c-.687.75-1.6.569-2.454.57q-16.846.011-33.69,0C420.616,449.155,419.7,449.336,419.014,448.589Z" transform="translate(4873.037 -92.341)" fill="#fcfdfd"/>
    <path id="Path_1591" data-name="Path 1591" d="M323.872,446.843a2.346,2.346,0,1,1-4.686-.234,2.135,2.135,0,0,1,2.271-2.252A2.24,2.24,0,0,1,323.872,446.843Z" transform="translate(4885.731 -91.803)" fill="#f0f3f4"/>
    <path id="Path_1592" data-name="Path 1592" d="M372.159,338.663c-.239,1.135,2.138,2.717-.587,3.427.284-1.555-.559-2.736-1.308-3.95C371.242,337.057,371.67,337.97,372.159,338.663Z" transform="translate(4879.236 -78.232)" fill="#304453"/>
    <path id="Path_1593" data-name="Path 1593" d="M509.279,459.613l-2.016.67-1.17-1.29.594-.031a1.1,1.1,0,0,1,1.442-.072Z" transform="translate(4861.963 -93.621)" fill="#f9e578"/>
    <path id="Path_1594" data-name="Path 1594" d="M508.215,458.549l-1.442.072c.173-.892-.23-1.916.608-2.656.112.745-.019,1.579.763,2.078A1.484,1.484,0,0,0,508.215,458.549Z" transform="translate(4861.876 -93.279)" fill="#fbe67d"/>
    <path id="Path_1632" data-name="Path 1632" d="M422.728,455.505c-.607-2.513.193-3.43,2.943-3.389,10.442.154,20.887.12,31.33.015,2.255-.023,3.007.618,3.013,2.922.006,2.321-.507,3.263-3.058,3.232-10.551-.131-21.1-.052-31.656-.061-1.387,0-3.076.316-2.58-2.063.21-.225.739,0,.743-.324S422.938,455.727,422.728,455.505Z" transform="translate(4872.589 -92.789)" fill="#3cb4d5"/>
    <path id="Path_1633" data-name="Path 1633" d="M422.755,455.9c.467-.071.7-1.088,1.146-.553a1.817,1.817,0,0,1,0,1.767c-.44.523-.682-.486-1.15-.559Z" transform="translate(4872.562 -93.18)" fill="#38b8d2"/>
    <path id="Path_1634" data-name="Path 1634" d="M459.307,428.073c.919.894.472,2.052.6,3.1.271,2.19-.5,3.04-2.885,3.012-11.452-.133-22.907-.084-34.361-.1-.942-6.2-.942-6.247,5.038-6.194C438.237,427.982,448.774,427.628,459.307,428.073Z" transform="translate(4872.63 -89.703)" fill="#3cb4d4"/>
    <path id="Path_1635" data-name="Path 1635" d="M459.265,428.03q-16.147.029-32.293.055c-4.421.006-4.424,0-4.405,4.328,0,.543.037,1.086.055,1.629-1.3-1.647-.491-3.537-.568-5.314-.041-.937.751-1.226,1.591-1.224q17.552.068,35.1.158C458.922,427.664,459.094,427.9,459.265,428.03Z" transform="translate(4872.673 -89.66)" fill="#244960"/>
    <path id="Path_1636" data-name="Path 1636" d="M485.88,475.024l-1.236.026q-1.3-3.943-2.6-7.886A26.3,26.3,0,0,1,485.88,475.024Z" transform="translate(4865.021 -94.703)" fill="#76c8e7"/>
    <path id="Path_1637" data-name="Path 1637" d="M476.743,457.652c1.985,1.071,2.275,2.614,2.743,4.044A6.545,6.545,0,0,1,476.743,457.652Z" transform="translate(4865.696 -93.494)" fill="#56c0dd"/>
    <ellipse id="Ellipse_8" data-name="Ellipse 8" cx="13.757" cy="0.221" rx="13.757" ry="0.221" transform="translate(5294.675 321.604)" fill="#40b5cf"/>
    <path id="Path_1638" data-name="Path 1638" d="M456.831,406.643a.9.9,0,0,1-.982.985c-.653-.005-.906-.448-.879-1.055a.737.737,0,0,1,.779-.792C456.351,405.763,456.767,405.987,456.831,406.643Z" transform="translate(4868.464 -86.897)" fill="#cf5b6d"/>
    <path id="Path_1639" data-name="Path 1639" d="M458.121,406.738c-.082-.571.288-.9.915-.923.448-.015.843.146.883.713.045.658-.244,1.043-.9,1.049A.793.793,0,0,1,458.121,406.738Z" transform="translate(4868.065 -86.902)" fill="#fadf5d"/>
    <path id="Path_1640" data-name="Path 1640" d="M462.1,407.657c-.439-.091-.833-.238-.888-.775a.863.863,0,0,1,.911-1.06.77.77,0,0,1,.883.743A.91.91,0,0,1,462.1,407.657Z" transform="translate(4867.671 -86.902)" fill="#1d4d6b"/>
    <path id="Path_1641" data-name="Path 1641" d="M429.46,360.731c-.815-4.815,2.116-8.937,7.25-10.194,4.447-1.088,9.133,1.665,10.752,6.317a9.378,9.378,0,0,1-5.372,11.544c-4.485,1.936-9.311.122-11.8-4.433a4.123,4.123,0,0,1,1.692.459c-.194-1.088-1.519-2.223.139-3.235,4.041,3.592,6.378.448,8.84-2.23.658-.715,1.4-1.351,2.415-2.552a24.659,24.659,0,0,0-3.426,3.13c-3.744,3.654-4.441,3.642-8.025-.215.179-1.171,1.268-.918,1.973-1.284.726-.376.047-.81-.159-.924-.752-.415-.153.326-.341.5-.9.837-2.095,1.383-2.366,2.843C430.921,361.069,430.108,361.286,429.46,360.731Z" transform="translate(4871.726 -79.842)" fill="#fde05d"/>
    <path id="Path_1642" data-name="Path 1642" d="M432.159,362.214c-.762,1.076.134,2.216-.107,3.4-.717.067-.8-1.548-1.746-.679a4.23,4.23,0,0,1-.832-3.234c1.868,0,1.24-2.242,2.848-2.982,2.156-.991,1.911-1.523,3.638,1.006-1.253.552-2.809-.693-3.855.642A1.562,1.562,0,0,1,432.159,362.214Z" transform="translate(4871.711 -80.807)" fill="#fce15a"/>
    <path id="Path_1643" data-name="Path 1643" d="M438.393,379.052c-.772.492.155,2.041-1.463,1.8-1.2-.175-2.182-.738-2.354-1.867s1.309-1.191,1.859-1.924C437.039,377.748,438.114,378.015,438.393,379.052Z" transform="translate(4871.06 -83.246)" fill="#fabf63"/>
    <path id="Path_1644" data-name="Path 1644" d="M442.456,377.252a3.561,3.561,0,0,1,2.088,1.669c-.723.4.2,1.928-1.55,1.847-1.222-.057-1.481-.367-1.795-1.363C440.73,377.911,442.368,378.178,442.456,377.252Z" transform="translate(4870.226 -83.269)" fill="#f8b549"/>
    <path id="Path_1645" data-name="Path 1645" d="M431.8,379.078c-.451.841-.3,1.71-1.8,1.765-1.685.062-1.424-1.02-1.527-1.688a1.532,1.532,0,0,1,1.787-1.651A1.722,1.722,0,0,1,431.8,379.078Z" transform="translate(4871.836 -83.301)" fill="#fabb56"/>
    <path id="Path_1646" data-name="Path 1646" d="M449.26,380.555c-1.027.177-1.191-.423-1.234-1.132-.05-.829.267-1.731,1.025-1.752.5-.014,1.02.9,1.532,1.4C450.075,379.542,450.282,380.686,449.26,380.555Z" transform="translate(4869.348 -83.323)" fill="#f2b029"/>
    <path id="Path_1647" data-name="Path 1647" d="M425.246,454.214h20.544l-.016.464H425.16Z" transform="translate(4872.255 -93.056)" fill="#38b8d2"/>
    <path id="Path_1648" data-name="Path 1648" d="M426.619,456.916h19.463l0,.326H426.719Z" transform="translate(4872.069 -93.4)" fill="#3db3cc"/>
    <path id="Path_1649" data-name="Path 1649" d="M463.335,454.874a.92.92,0,0,1-1.04.923c-.556,0-1.08-.147-1.142-.816-.073-.792.349-1.175,1.129-1.119A1.169,1.169,0,0,1,463.335,454.874Z" transform="translate(4867.679 -93.011)" fill="#246d85"/>
    <path id="Path_1650" data-name="Path 1650" d="M458.809,453.971c.758-.037,1.115.314,1.147.909.036.652-.389.928-1,.883-.43-.031-.827-.158-.864-.706C458.05,454.444,458.307,454.066,458.809,453.971Z" transform="translate(4868.068 -93.025)" fill="#dad771"/>
    <path id="Path_1651" data-name="Path 1651" d="M453.014,454.454c.092.876,1.233,1.748-.045,2.6-.144.1-.57.068-.6,0C452,456.068,452.9,455.36,453.014,454.454Z" transform="translate(4868.806 -93.087)" fill="#42b2ca"/>
    <path id="Path_1652" data-name="Path 1652" d="M456.633,454.593c.16.763-.077,1.03-.568,1.12-.456.083-.872.012-1.006-.481-.161-.6.066-1.1.723-1.1C456.117,454.137,456.45,454.488,456.633,454.593Z" transform="translate(4868.459 -93.046)" fill="#fe4756"/>
    <path id="Path_1653" data-name="Path 1653" d="M446.825,433.4h-20.1c6.7-.211,13.412-1.479,20.1,0Z" transform="translate(4872.056 -90.319)" fill="#39b9cf"/>
    <path id="Path_1654" data-name="Path 1654" d="M462.69,431.763c-1.3.756-2.57,2.606-3.943.091a4.826,4.826,0,0,1,1.188-2.037l.971.04C461.448,430.542,462.091,431.133,462.69,431.763Z" transform="translate(4867.984 -89.954)" fill="#3db6c9"/>
    <path id="Path_1655" data-name="Path 1655" d="M456.014,429.874a.86.86,0,0,1,.8,1.024c-.069.651-.539.846-1.131.82-.539-.024-.731-.4-.729-.847C454.956,430.282,455.211,429.854,456.014,429.874Z" transform="translate(4868.466 -89.961)" fill="#cd5d6f"/>
    <path id="Path_1656" data-name="Path 1656" d="M459.838,429.817c.24,1.05.235,1.958-1.188,2.037C457.278,430.143,458.217,429.781,459.838,429.817Z" transform="translate(4868.081 -89.954)" fill="#e1d96e"/>
    <path id="Path_1657" data-name="Path 1657" d="M462.993,431.761c-1.407.124-2.131-.391-1.785-1.907C462.77,429.586,463.329,430.253,462.993,431.761Z" transform="translate(4867.682 -89.951)" fill="#1b506c"/>
    <path id="Path_1658" data-name="Path 1658" d="M449.751,433.425l3.14-.526c-.9,1.061-1.867,1.7-3.138.525Z" transform="translate(4869.128 -90.346)" fill="#32bacf"/>
    <path id="Path_1659" data-name="Path 1659" d="M432.511,361.936a1.667,1.667,0,0,1-.054-1.851c.109,0,.265-.052.319,0,3.5,3.488,5.738,1.027,8.193-1.527,1.076-1.121,2.708-3.784,3.774-2.531,1.465,1.721-1.8,2.459-2.642,3.907a8.7,8.7,0,0,1-1.632,1.573C436.532,365.317,436.533,365.318,432.511,361.936Z" transform="translate(4871.36 -80.529)" fill="#fcfaf2"/>
  </g>
</svg>
