<svg xmlns="http://www.w3.org/2000/svg" width="44" height="45" viewBox="0 0 44 45">
  <g id="Group_228" data-name="Group 228" transform="translate(-28 -160)">
    <g id="Rectangle_1521" data-name="Rectangle 1521" transform="translate(28 160)" fill="none" stroke="#a5a5a5" stroke-width="0.25">
      <rect width="44" height="45" rx="7" stroke="none"/>
      <rect x="0.125" y="0.125" width="43.75" height="44.75" rx="6.875" fill="none"/>
    </g>
    <g id="Group_107" data-name="Group 107" transform="translate(-287.978 39.563)">
      <g id="Group_59" data-name="Group 59" transform="translate(321.585 141.642)">
        <path id="Path_628" data-name="Path 628" d="M321.585,176.681l14.649,8.479,14.515-8.373L336.1,168.308Z" transform="translate(-321.585 -168.308)" fill="#e8e8e8"/>
      </g>
      <g id="Group_63" data-name="Group 63" transform="translate(327.544 126.437)">
        <g id="Group_60" data-name="Group 60" transform="translate(0)">
          <path id="Path_629" data-name="Path 629" d="M357,130.155l-.8-.46-.1-.057-.666-.382-4.878-2.818-12.558,7.249,4.879,2.818.568.325.1.061.9.517,5.385,3.113,12.533-7.25.011,0Z" transform="translate(-337.994 -126.437)" fill="#ffdda8"/>
        </g>
        <g id="Group_61" data-name="Group 61" transform="translate(0.439 0.252)">
          <path id="Path_630" data-name="Path 630" d="M351.322,127.13l-12.118,7,11.4,6.505,12.1-6.926Z" transform="translate(-339.204 -127.13)" fill="#f9c98a"/>
        </g>
        <path id="Path_631" data-name="Path 631" d="M349.832,153.232l-.014,16.124-5.41-3.087-1.571-.9-4.844-2.766V146.4Z" transform="translate(-337.994 -139.151)" fill="#bc7c46"/>
        <g id="Group_62" data-name="Group 62" transform="translate(11.822 6.834)">
          <path id="Path_632" data-name="Path 632" d="M370.562,152.5l-.014,16.125,12.563-7.186V145.255Z" transform="translate(-370.548 -145.255)" fill="#dda866"/>
        </g>
      </g>
      <g id="Group_102" data-name="Group 102" transform="translate(343.43 135.767)">
        <g id="Group_74" data-name="Group 74" transform="translate(0 2.076)">
          <g id="Group_70" data-name="Group 70" transform="translate(0.468 1.083)">
            <g id="Group_66" data-name="Group 66" transform="translate(0 0.755)">
              <g id="Group_64" data-name="Group 64" transform="translate(0.468 0.125)">
                <path id="Path_633" data-name="Path 633" d="M384.45,165.524l-.131.075v-2.27l.13-.076Z" transform="translate(-384.318 -163.253)" fill="#4f2e16"/>
              </g>
              <g id="Group_65" data-name="Group 65">
                <path id="Path_634" data-name="Path 634" d="M384.1,163.263l-.1.157-.437-.29-.439.8-.1-.048.534-.97Z" transform="translate(-383.029 -162.908)" fill="#4f2e16"/>
              </g>
            </g>
            <g id="Group_69" data-name="Group 69" transform="translate(1.305)">
              <g id="Group_67" data-name="Group 67" transform="translate(0.47 0.128)">
                <path id="Path_635" data-name="Path 635" d="M388.046,163.451l-.129.076v-2.273l.129-.074Z" transform="translate(-387.917 -161.18)" fill="#4f2e16"/>
              </g>
              <g id="Group_68" data-name="Group 68">
                <path id="Path_636" data-name="Path 636" d="M387.691,161.184l-.1.159-.437-.292-.438.8-.1-.047.534-.973Z" transform="translate(-386.623 -160.829)" fill="#4f2e16"/>
              </g>
            </g>
          </g>
          <g id="Group_71" data-name="Group 71" transform="translate(0.37 3.108)">
            <path id="Path_637" data-name="Path 637" d="M385.262,166.565l-2.435,1.406c-.036.02-.066,0-.066-.038a.145.145,0,0,1,.066-.113l2.435-1.407c.037-.02.065,0,.065.038A.145.145,0,0,1,385.262,166.565Z" transform="translate(-382.761 -166.405)" fill="#4f2e16"/>
          </g>
          <g id="Group_73" data-name="Group 73">
            <g id="Group_72" data-name="Group 72">
              <path id="Path_638" data-name="Path 638" d="M384.594,161.729l-2.4,1.383c-.252.145-.456.027-.456-.264v-2.766a1.009,1.009,0,0,1,.456-.791l2.4-1.384c.251-.146.456-.027.456.264v2.766A1.015,1.015,0,0,1,384.594,161.729Zm-2.4-2.287a.721.721,0,0,0-.326.564v2.767c0,.208.147.292.326.188l2.4-1.382a.724.724,0,0,0,.325-.565v-2.766c0-.208-.146-.292-.326-.188Z" transform="translate(-381.741 -157.846)" fill="#4f2e16"/>
            </g>
          </g>
        </g>
        <g id="Group_82" data-name="Group 82" transform="translate(3.507 0)">
          <g id="Group_75" data-name="Group 75" transform="translate(1.589 2.062)">
            <path id="Path_639" data-name="Path 639" d="M395.837,159.947c-.036.021-.065,0-.065-.037v-1.981a.148.148,0,0,1,.065-.113c.036-.021.066,0,.066.038v1.98A.143.143,0,0,1,395.837,159.947Z" transform="translate(-395.772 -157.807)" fill="#4f2e16"/>
          </g>
          <g id="Group_77" data-name="Group 77">
            <g id="Group_76" data-name="Group 76">
              <path id="Path_640" data-name="Path 640" d="M394.249,156.014l-2.4,1.382c-.251.146-.456.028-.456-.263v-2.766a1.013,1.013,0,0,1,.456-.791l2.4-1.384c.252-.146.457-.027.457.264v2.766A1.012,1.012,0,0,1,394.249,156.014Zm-2.4-2.288a.728.728,0,0,0-.326.565v2.766c0,.207.147.292.326.188l2.4-1.383a.723.723,0,0,0,.326-.565v-2.765c0-.208-.147-.293-.326-.188Z" transform="translate(-391.397 -152.13)" fill="#4f2e16"/>
            </g>
          </g>
          <path id="Path_641" data-name="Path 641" d="M395.207,157.617c-.094-.366-.5-.447-.989-.166a2.156,2.156,0,0,0-.988,1.308Z" transform="translate(-392.564 -155.411)" fill="#4f2e16"/>
          <g id="Group_81" data-name="Group 81" transform="translate(1.244 0.948)">
            <g id="Group_78" data-name="Group 78" transform="translate(0 0.398)">
              <path id="Path_642" data-name="Path 642" d="M394.887,156.478c-.035.021-.065,0-.065-.037v-.483a.145.145,0,0,1,.065-.113c.036-.02.066,0,.066.037v.483A.144.144,0,0,1,394.887,156.478Z" transform="translate(-394.822 -155.836)" fill="#4f2e16"/>
            </g>
            <g id="Group_79" data-name="Group 79" transform="translate(0.345 0.198)">
              <path id="Path_643" data-name="Path 643" d="M395.837,155.929c-.036.02-.065,0-.065-.038v-.483a.147.147,0,0,1,.065-.114c.036-.021.065,0,.065.038v.482A.143.143,0,0,1,395.837,155.929Z" transform="translate(-395.772 -155.285)" fill="#4f2e16"/>
            </g>
            <g id="Group_80" data-name="Group 80" transform="translate(0.689)">
              <path id="Path_644" data-name="Path 644" d="M396.784,155.383c-.034.021-.065,0-.065-.038v-.482a.145.145,0,0,1,.065-.113c.037-.021.067,0,.067.037v.483A.142.142,0,0,1,396.784,155.383Z" transform="translate(-396.719 -154.74)" fill="#4f2e16"/>
            </g>
          </g>
        </g>
        <g id="Group_88" data-name="Group 88" transform="translate(3.496 4.423)">
          <g id="Group_84" data-name="Group 84">
            <g id="Group_83" data-name="Group 83">
              <path id="Path_645" data-name="Path 645" d="M394.221,168.193l-2.4,1.384c-.252.145-.456.026-.456-.264v-2.766a1.012,1.012,0,0,1,.456-.791l2.415-1.383c.252-.144.458-.027.458.264l-.021,2.767A1.011,1.011,0,0,1,394.221,168.193Zm-2.4-2.288a.72.72,0,0,0-.325.565v2.766c0,.208.147.292.326.188l2.4-1.383a.72.72,0,0,0,.325-.564l.021-2.766c0-.209-.146-.293-.327-.189Z" transform="translate(-391.369 -164.31)" fill="#4f2e16"/>
            </g>
          </g>
          <g id="Group_87" data-name="Group 87" transform="translate(1.023 1.143)">
            <g id="Group_85" data-name="Group 85" transform="translate(0.566 0.537)">
              <path id="Path_646" data-name="Path 646" d="M395.808,171.076c-.037.021-.065,0-.065-.036v-1.981a.141.141,0,0,1,.065-.113c.036-.021.065,0,.065.038v1.98A.141.141,0,0,1,395.808,171.076Z" transform="translate(-395.743 -168.938)" fill="#4f2e16"/>
            </g>
            <g id="Group_86" data-name="Group 86" transform="translate(0.268 2.346)">
              <path id="Path_647" data-name="Path 647" d="M395.582,174.077l-.593.344c-.036.021-.066,0-.066-.038a.147.147,0,0,1,.066-.113l.593-.342c.038-.021.066,0,.066.038A.139.139,0,0,1,395.582,174.077Z" transform="translate(-394.923 -173.917)" fill="#4f2e16"/>
            </g>
            <path id="Path_648" data-name="Path 648" d="M395.448,167.458v.924a.871.871,0,0,1-.391.679l-.479.277c-.218.124-.392.023-.392-.228v-.923l.238-.137v.991c0,.04.029.058.065.037a.147.147,0,0,0,.065-.113v-.99Z" transform="translate(-394.185 -167.458)" fill="#4f2e16"/>
          </g>
        </g>
        <g id="Group_101" data-name="Group 101" transform="translate(0.005 6.479)">
          <path id="Path_649" data-name="Path 649" d="M384.541,176.779l.472.272-.471.817Z" transform="translate(-383.529 -174.307)" fill="#4f2e16"/>
          <path id="Path_650" data-name="Path 650" d="M385.951,174.546l-.46.8-.459-.266Z" transform="translate(-383.842 -172.885)" fill="#4f2e16"/>
          <path id="Path_651" data-name="Path 651" d="M385.412,177.79l.5.292-1.007.581Z" transform="translate(-383.763 -174.951)" fill="#4f2e16"/>
          <path id="Path_652" data-name="Path 652" d="M387.243,174.656v1.136l-.493-.283Z" transform="translate(-384.936 -172.955)" fill="#4f2e16"/>
          <g id="Group_89" data-name="Group 89" transform="translate(0.713 2.06)">
            <path id="Path_653" data-name="Path 653" d="M385.507,176.822l-1.788-1.032.084-.144,1.787,1.032Z" transform="translate(-383.72 -175.646)" fill="#4f2e16"/>
          </g>
          <g id="Group_90" data-name="Group 90" transform="translate(0.713 1.077)">
            <path id="Path_654" data-name="Path 654" d="M383.8,176.082l-.084-.049,1.788-3.1.083.048Z" transform="translate(-383.72 -172.938)" fill="#4f2e16"/>
          </g>
          <g id="Group_91" data-name="Group 91" transform="translate(2.485 1.377)">
            <path id="Path_655" data-name="Path 655" d="M388.714,175.259l-.117.068v-1.494l.117-.068Z" transform="translate(-388.597 -173.764)" fill="#4f2e16"/>
          </g>
          <g id="Group_92" data-name="Group 92" transform="translate(0.695 2.41)">
            <path id="Path_656" data-name="Path 656" d="M383.789,178.1l-.119.068v-1.495l.119-.067Z" transform="translate(-383.67 -176.607)" fill="#4f2e16"/>
          </g>
          <g id="Group_95" data-name="Group 95" transform="translate(2.634 1.633)">
            <g id="Group_93" data-name="Group 93" transform="translate(0.315 0.072)">
              <path id="Path_657" data-name="Path 657" d="M390.165,174.77l-.29.167v-.1l.29-.167Z" transform="translate(-389.875 -174.668)" fill="#4f2e16"/>
            </g>
            <g id="Group_94" data-name="Group 94">
              <path id="Path_658" data-name="Path 658" d="M389.387,174.469l-.379.473.379.033Z" transform="translate(-389.008 -174.469)" fill="#4f2e16"/>
            </g>
          </g>
          <g id="Group_98" data-name="Group 98" transform="translate(0.08 3.196)">
            <g id="Group_96" data-name="Group 96" transform="translate(0 0.165)">
              <path id="Path_659" data-name="Path 659" d="M382.267,179.329l-.29.167v-.1l.29-.168Z" transform="translate(-381.977 -179.227)" fill="#4f2e16"/>
            </g>
            <g id="Group_97" data-name="Group 97" transform="translate(0.227)">
              <path id="Path_660" data-name="Path 660" d="M382.6,179.279l.379-.472-.379-.034Z" transform="translate(-382.602 -178.773)" fill="#4f2e16"/>
            </g>
          </g>
          <g id="Group_100" data-name="Group 100">
            <g id="Group_99" data-name="Group 99">
              <path id="Path_661" data-name="Path 661" d="M384.641,173.835l-2.475,1.429c-.226.131-.411.024-.41-.237v-2.859a.911.911,0,0,1,.411-.711l2.477-1.429c.225-.131.409-.024.409.236v2.86A.907.907,0,0,1,384.641,173.835Zm-2.475-2.243a.653.653,0,0,0-.294.508l0,2.859c0,.187.131.263.293.169l2.477-1.429a.651.651,0,0,0,.293-.508v-2.859c0-.187-.131-.263-.294-.169Z" transform="translate(-381.755 -169.972)" fill="#4f2e16"/>
            </g>
          </g>
        </g>
      </g>
      <g id="Group_103" data-name="Group 103" transform="translate(330.725 138.751)">
        <path id="Path_662" data-name="Path 662" d="M346.754,160.709a1.126,1.126,0,0,0,.51.882l2.835,1.637c.281.162.51.031.51-.294h0a1.128,1.128,0,0,0-.51-.883l-2.835-1.637c-.281-.162-.509-.031-.51.294Z" transform="translate(-346.754 -160.346)" fill="#4f2e16"/>
        <path id="Path_663" data-name="Path 663" d="M346.754,160.761a1.128,1.128,0,0,0,.509.882l2.835,1.637c.2.117.376.082.457-.066a.358.358,0,0,1-.351-.04l-2.836-1.637a1.125,1.125,0,0,1-.509-.882.457.457,0,0,1,.052-.229A.353.353,0,0,0,346.754,160.761Z" transform="translate(-346.754 -160.397)" fill="#dda866"/>
      </g>
      <g id="Group_104" data-name="Group 104" transform="translate(332.991 129.637)">
        <path id="Path_664" data-name="Path 664" d="M365.75,135.306l-12.656,7.2-.1-.061,12.655-7.192Z" transform="translate(-352.993 -135.249)" fill="#bc7c46"/>
      </g>
      <g id="Group_105" data-name="Group 105" transform="translate(327.673 133.974)">
        <path id="Path_665" data-name="Path 665" d="M349.861,153.734v.112l-6.093-3.461-.1-.057-5.318-3.021v-.115l5.318,3.021.1.057Z" transform="translate(-338.349 -147.191)" fill="#a8632f"/>
      </g>
      <g id="Group_106" data-name="Group 106" transform="translate(332.991 136.829)">
        <path id="Path_666" data-name="Path 666" d="M353.095,155.115v.277l-.1-.057v-.281Z" transform="translate(-352.993 -155.054)" fill="#a8632f"/>
      </g>
    </g>
  </g>
</svg>
