<svg id="Layer_1" data-name="Layer 1" xmlns="http://www.w3.org/2000/svg" viewBox="0 0 581.81 248.17"><defs><style>.cls-1,.cls-3,.cls-4{fill:#fff;}.cls-2{fill:#197139;}.cls-3,.cls-4,.cls-5{stroke:#fff;}.cls-3,.cls-4{stroke-miterlimit:10;}.cls-3{stroke-width:0.5px;}.cls-5{fill:none;stroke-width:0.8px;}</style></defs><title>Artboard 1 copy</title><path class="cls-1" d="M241.58,103.66h34V119H262v14.5h12.74V148H262v16.81h15v15.31H241.58Z"/><path class="cls-1" d="M324.19,103.66,317,137.47l10.81,42.65h-18.9a246.65,246.65,0,0,1-6.21-27.87q-.77,7.27-2.15,15.4l-1.92,12.47H278.78l7.41-42.65-7.41-33.81H298.5q.54,3.15,2.13,10.52,1.29,5.63,2.09,10.35l4.36-20.87Z"/><path class="cls-1" d="M351.11,103.66v76.46h-20.4V103.66Z"/><path class="cls-1" d="M422.26,103.66v76.46H404.43l0-51.62-7.1,51.62H384.65l-7.49-50.44,0,50.44H359.31V103.66h26.4q1.17,6.89,2.42,16.25l2.9,19.45,4.69-35.7Z"/><path class="cls-1" d="M430.45,103.66h20.36q9.65,0,14.61,1.46a14.47,14.47,0,0,1,8,5.92q3.06,4.47,3.06,14.37,0,6.71-2.16,9.35t-8.51,4.06q7.08,1.56,9.6,5.17T478,155.07v7.09q0,7.76-1.82,11.48a9.73,9.73,0,0,1-5.79,5.11q-4,1.37-16.28,1.37H430.45Zm20.41,13.08v17c.87,0,1.55-.05,2-.05,2,0,3.28-.48,3.83-1.44s.83-3.7.83-8.24a13.06,13.06,0,0,0-.68-5,3.25,3.25,0,0,0-1.77-1.82A16.22,16.22,0,0,0,450.86,116.74Zm0,28.9V167c2.87-.09,4.71-.53,5.5-1.32s1.19-2.72,1.19-5.81v-7.13c0-3.27-.36-5.26-1.07-6S453.9,145.74,450.86,145.64Z"/><path class="cls-1" d="M530.83,103.66v76.46H512.94l-10.61-34.76v34.76H485.27V103.66h17.06l11.44,34.42V103.66Z"/><path class="cls-1" d="M559.42,103.66v76.46H539V103.66Z"/><path class="cls-1" d="M241,191a22.67,22.67,0,0,1,4.12-.35c2.25,0,3.7.38,4.79,1.24a3.51,3.51,0,0,1,1.45,3,4.06,4.06,0,0,1-2.95,3.74v0a4.41,4.41,0,0,1,3.6,4.26,4.53,4.53,0,0,1-1.48,3.41c-1.21,1.08-3.18,1.59-6,1.59a27.51,27.51,0,0,1-3.5-.2Zm2.26,7h2c2.39,0,3.78-1.21,3.78-2.85,0-2-1.55-2.78-3.83-2.78a10.39,10.39,0,0,0-2,.15Zm0,8.15a11.85,11.85,0,0,0,1.89.1c2.33,0,4.48-.83,4.48-3.3s-2-3.28-4.51-3.28h-1.86Z"/><path class="cls-1" d="M266.05,204.44c0,1.26,0,2.37.1,3.33h-2l-.13-2H264a4.71,4.71,0,0,1-4.14,2.28c-2,0-4.32-1.06-4.32-5.36v-7.14h2.28v6.77c0,2.32.72,3.88,2.79,3.88a3.3,3.3,0,0,0,3-2,3.11,3.11,0,0,0,.2-1.13v-7.5h2.28Z"/><path class="cls-1" d="M270.09,205.5a6.12,6.12,0,0,0,3,.88c1.66,0,2.43-.81,2.43-1.82s-.64-1.64-2.33-2.24c-2.25-.79-3.31-2-3.31-3.46,0-2,1.63-3.59,4.32-3.59a6.42,6.42,0,0,1,3.08.76l-.57,1.62a4.89,4.89,0,0,0-2.56-.71c-1.35,0-2.1.76-2.1,1.67s.75,1.46,2.38,2.07c2.18.8,3.29,1.86,3.29,3.68,0,2.15-1.71,3.66-4.68,3.66a7.36,7.36,0,0,1-3.53-.83Z"/><path class="cls-1" d="M283.77,192.12a1.41,1.41,0,0,1-2.82,0,1.37,1.37,0,0,1,1.42-1.39A1.34,1.34,0,0,1,283.77,192.12Zm-2.54,15.65V195.55h2.28v12.22Z"/><path class="cls-1" d="M287.86,198.86c0-1.26,0-2.3-.1-3.31h2l.13,2h0a4.63,4.63,0,0,1,4.14-2.3c1.74,0,4.43,1,4.43,5.2v7.3h-2.28v-7c0-2-.75-3.61-2.9-3.61a3.21,3.21,0,0,0-3.05,2.27,2.93,2.93,0,0,0-.16,1v7.35h-2.28Z"/><path class="cls-1" d="M304.07,202.06a4,4,0,0,0,4.3,4.24,8.31,8.31,0,0,0,3.47-.63l.39,1.59a10.22,10.22,0,0,1-4.17.76c-3.86,0-6.16-2.47-6.16-6.16s2.23-6.59,5.88-6.59c4.09,0,5.18,3.51,5.18,5.76a9.17,9.17,0,0,1-.08,1Zm6.68-1.59c0-1.41-.59-3.61-3.15-3.61-2.31,0-3.32,2.07-3.5,3.61Z"/><path class="cls-1" d="M316,205.5a6,6,0,0,0,3,.88c1.66,0,2.44-.81,2.44-1.82s-.65-1.64-2.33-2.24c-2.26-.79-3.32-2-3.32-3.46,0-2,1.63-3.59,4.33-3.59a6.42,6.42,0,0,1,3.08.76l-.57,1.62a4.9,4.9,0,0,0-2.57-.71c-1.34,0-2.09.76-2.09,1.67s.75,1.46,2.38,2.07c2.17.8,3.29,1.86,3.29,3.68,0,2.15-1.71,3.66-4.69,3.66a7.35,7.35,0,0,1-3.52-.83Z"/><path class="cls-1" d="M326.86,205.5a6.12,6.12,0,0,0,3,.88c1.66,0,2.43-.81,2.43-1.82s-.64-1.64-2.33-2.24c-2.25-.79-3.31-2-3.31-3.46,0-2,1.63-3.59,4.32-3.59a6.42,6.42,0,0,1,3.08.76l-.57,1.62a4.86,4.86,0,0,0-2.56-.71c-1.35,0-2.1.76-2.1,1.67s.75,1.46,2.39,2.07c2.17.8,3.28,1.86,3.28,3.68,0,2.15-1.7,3.66-4.68,3.66a7.32,7.32,0,0,1-3.52-.83Z"/><path class="cls-1" d="M344.14,191a22.58,22.58,0,0,1,4.12-.35c2.25,0,3.7.38,4.79,1.24a3.53,3.53,0,0,1,1.45,3,4.07,4.07,0,0,1-2.95,3.74v0a4.41,4.41,0,0,1,3.59,4.26,4.52,4.52,0,0,1-1.47,3.41c-1.22,1.08-3.19,1.59-6,1.59a27.25,27.25,0,0,1-3.5-.2Zm2.25,7h2.05c2.38,0,3.78-1.21,3.78-2.85,0-2-1.56-2.78-3.83-2.78a10.43,10.43,0,0,0-2,.15Zm0,8.15a11.85,11.85,0,0,0,1.89.1c2.33,0,4.48-.83,4.48-3.3s-2-3.28-4.5-3.28h-1.87Z"/><path class="cls-1" d="M360,202.06a4,4,0,0,0,4.3,4.24,8.31,8.31,0,0,0,3.47-.63l.39,1.59A10.26,10.26,0,0,1,364,208c-3.86,0-6.16-2.47-6.16-6.16s2.22-6.59,5.87-6.59c4.1,0,5.18,3.51,5.18,5.76a9.73,9.73,0,0,1-.07,1Zm6.68-1.59c0-1.41-.59-3.61-3.16-3.61-2.3,0-3.31,2.07-3.49,3.61Z"/><path class="cls-1" d="M373.15,195.55l2.74,7.22c.29.81.6,1.77.8,2.5h.06c.23-.73.49-1.67.8-2.55l2.48-7.17h2.41L379,204.26c-1.63,4.19-2.74,6.33-4.29,7.65a6.21,6.21,0,0,1-2.8,1.43l-.57-1.86a6,6,0,0,0,2-1.09,6.73,6.73,0,0,0,1.92-2.47,1.63,1.63,0,0,0,.18-.53,1.94,1.94,0,0,0-.15-.58l-4.64-11.26Z"/><path class="cls-1" d="M396.17,201.56c0,4.52-3.21,6.49-6.24,6.49-3.39,0-6-2.43-6-6.29,0-4.09,2.75-6.49,6.22-6.49S396.17,197.82,396.17,201.56Zm-9.94.12c0,2.68,1.58,4.7,3.8,4.7s3.81-2,3.81-4.75c0-2.06-1.06-4.69-3.76-4.69S386.23,199.36,386.23,201.68Z"/><path class="cls-1" d="M399.62,198.86c0-1.26,0-2.3-.11-3.31h2l.13,2h0a4.63,4.63,0,0,1,4.15-2.3c1.73,0,4.42,1,4.42,5.2v7.3H408v-7c0-2-.76-3.61-2.91-3.61a3.22,3.22,0,0,0-3.05,2.27,3.18,3.18,0,0,0-.16,1v7.35h-2.27Z"/><path class="cls-1" d="M425.38,189.85v14.76c0,1.09,0,2.32.11,3.16h-2.05l-.1-2.12h0a4.67,4.67,0,0,1-4.28,2.4c-3,0-5.36-2.5-5.36-6.21,0-4.07,2.57-6.57,5.62-6.57a4.22,4.22,0,0,1,3.78,1.87h.05v-7.29Zm-2.28,10.67a3.73,3.73,0,0,0-.1-.93,3.34,3.34,0,0,0-3.29-2.57c-2.35,0-3.75,2-3.75,4.72,0,2.47,1.24,4.51,3.7,4.51A3.4,3.4,0,0,0,423,203.6a3.63,3.63,0,0,0,.1-1Z"/><path class="cls-1" d="M435.87,191a22.67,22.67,0,0,1,4.12-.35c2.25,0,3.7.38,4.79,1.24a3.51,3.51,0,0,1,1.45,3,4.06,4.06,0,0,1-3,3.74v0a4.41,4.41,0,0,1,3.6,4.26,4.53,4.53,0,0,1-1.48,3.41c-1.21,1.08-3.18,1.59-6,1.59a27.51,27.51,0,0,1-3.5-.2Zm2.26,7h2c2.39,0,3.78-1.21,3.78-2.85,0-2-1.55-2.78-3.83-2.78a10.39,10.39,0,0,0-2,.15Zm0,8.15a11.85,11.85,0,0,0,1.89.1c2.33,0,4.48-.83,4.48-3.3s-2.05-3.28-4.51-3.28h-1.86Z"/><path class="cls-1" d="M461.85,201.56c0,4.52-3.21,6.49-6.24,6.49-3.39,0-6-2.43-6-6.29,0-4.09,2.75-6.49,6.21-6.49S461.85,197.82,461.85,201.56Zm-10,.12c0,2.68,1.58,4.7,3.81,4.7s3.81-2,3.81-4.75c0-2.06-1.06-4.69-3.76-4.69S451.9,199.36,451.9,201.68Z"/><path class="cls-1" d="M475.78,204.44c0,1.26,0,2.37.11,3.33h-2l-.13-2h-.05a4.74,4.74,0,0,1-4.15,2.28c-2,0-4.32-1.06-4.32-5.36v-7.14h2.28v6.77c0,2.32.72,3.88,2.79,3.88a3.3,3.3,0,0,0,3-2,3.11,3.11,0,0,0,.2-1.13v-7.5h2.28Z"/><path class="cls-1" d="M480.14,198.86c0-1.26,0-2.3-.11-3.31h2l.13,2h.05a4.64,4.64,0,0,1,4.15-2.3c1.73,0,4.42,1,4.42,5.2v7.3h-2.27v-7c0-2-.76-3.61-2.9-3.61a3.22,3.22,0,0,0-3.06,2.27,3.18,3.18,0,0,0-.16,1v7.35h-2.27Z"/><path class="cls-1" d="M505.9,189.85v14.76c0,1.09,0,2.32.11,3.16H504l-.1-2.12h-.05a4.67,4.67,0,0,1-4.28,2.4c-3,0-5.36-2.5-5.36-6.21,0-4.07,2.57-6.57,5.62-6.57a4.22,4.22,0,0,1,3.78,1.87h.06v-7.29Zm-2.27,10.67a3.75,3.75,0,0,0-.11-.93,3.33,3.33,0,0,0-3.29-2.57c-2.35,0-3.75,2-3.75,4.72,0,2.47,1.24,4.51,3.7,4.51a3.4,3.4,0,0,0,3.34-2.65,3.62,3.62,0,0,0,.11-1Z"/><path class="cls-1" d="M517.2,207.77l-.18-1.54h-.08a4.72,4.72,0,0,1-3.84,1.82,3.54,3.54,0,0,1-3.83-3.51c0-3,2.7-4.57,7.54-4.55v-.25a2.55,2.55,0,0,0-2.85-2.83,6.39,6.39,0,0,0-3.26.91l-.52-1.46a7.92,7.92,0,0,1,4.12-1.09c3.83,0,4.76,2.55,4.76,5v4.57a16.39,16.39,0,0,0,.21,2.93Zm-.34-6.24c-2.49-.05-5.31.38-5.31,2.75a2,2,0,0,0,2.15,2.12,3.12,3.12,0,0,0,3-2,2.22,2.22,0,0,0,.13-.71Z"/><path class="cls-1" d="M523.31,199.36c0-1.44,0-2.67-.1-3.81h2l.08,2.4h.1a3.75,3.75,0,0,1,3.47-2.68,2.57,2.57,0,0,1,.65.08v2.1a3,3,0,0,0-.78-.08,3.16,3.16,0,0,0-3.05,2.85,5.35,5.35,0,0,0-.11,1v6.51h-2.25Z"/><path class="cls-1" d="M535,192.12a1.41,1.41,0,0,1-2.82,0,1.37,1.37,0,0,1,1.42-1.39A1.34,1.34,0,0,1,535,192.12Zm-2.54,15.65V195.55h2.28v12.22Z"/><path class="cls-1" d="M540.35,202.06a4,4,0,0,0,4.3,4.24,8.31,8.31,0,0,0,3.47-.63l.39,1.59a10.3,10.3,0,0,1-4.17.76c-3.86,0-6.16-2.47-6.16-6.16s2.22-6.59,5.87-6.59c4.1,0,5.18,3.51,5.18,5.76a7.26,7.26,0,0,1-.08,1Zm6.68-1.59c0-1.41-.59-3.61-3.16-3.61-2.3,0-3.31,2.07-3.49,3.61Z"/><path class="cls-1" d="M552.32,205.5a6,6,0,0,0,3,.88c1.66,0,2.44-.81,2.44-1.82s-.65-1.64-2.34-2.24c-2.25-.79-3.31-2-3.31-3.46,0-2,1.63-3.59,4.32-3.59a6.46,6.46,0,0,1,3.09.76l-.57,1.62a4.93,4.93,0,0,0-2.57-.71c-1.34,0-2.09.76-2.09,1.67s.75,1.46,2.38,2.07c2.17.8,3.29,1.86,3.29,3.68,0,2.15-1.71,3.66-4.69,3.66a7.35,7.35,0,0,1-3.52-.83Z"/><path class="cls-1" d="M124.7,53.51a11.65,11.65,0,1,1-11.65-11.65A11.65,11.65,0,0,1,124.7,53.51Z"/><path class="cls-2" d="M96.94,209l.31.18a55.9,55.9,0,0,0,21.44,1.65l-.2-.18A56.06,56.06,0,0,1,96.94,209Z"/><path class="cls-2" d="M172.08,173.54l-.4,1.14C172,173.85,172.31,173,172.08,173.54Z"/><path class="cls-2" d="M95.53,208.69l1.17.37-.31-.18c-.7-.21-1.39-.45-2.07-.69Z"/><path class="cls-2" d="M66.4,183.09a11.31,11.31,0,0,0,2.27,4c-.06-.15.35-.15.29-.31-1.25-1.29-1.56-2.56-2.54-4.19C66.58,182.87,66.23,182.78,66.4,183.09Z"/><path class="cls-2" d="M62.16,175l.39,1c0,.06.05.12.07.19l-.14-.38C62.37,175.57,62.26,175.3,62.16,175Z"/><path class="cls-2" d="M60,152.29l.13-.46a31.61,31.61,0,0,1-.32-5.58c-.06.36-.11.73-.15,1.1A30.16,30.16,0,0,0,60,152.29Z"/><path class="cls-2" d="M61.76,135.88l-.13.36c-.24.69-.45,1.37-.65,2.06l.14-.38C61.31,137.24,61.52,136.56,61.76,135.88Z"/><path class="cls-2" d="M140.6,101.8l-1.11-.48a40.94,40.94,0,0,1,4,2l1.1.58A37.33,37.33,0,0,0,140.6,101.8Z"/><path class="cls-2" d="M61,138.43l-.14.38c-.23.88-.43,1.77-.6,2.66q.13-.61.3-1.2C60.67,139.65,60.81,139,61,138.43Z"/><path class="cls-2" d="M61.76,135.88l.28-.81C61.94,135.34,61.85,135.61,61.76,135.88Z"/><path class="cls-3" d="M68.19,168.48a37.27,37.27,0,0,0,15.7,9.07v-.62a37,37,0,0,1-15.61-9Z"/><path class="cls-3" d="M60.07,152.81a28.67,28.67,0,0,0,7.77,15.31l.09-.56a28.41,28.41,0,0,1-7.72-15.21C60.16,152.5,60.11,152.66,60.07,152.81Z"/><path class="cls-3" d="M157.46,141.21A49,49,0,0,1,147,158.06l.39.5a49.08,49.08,0,0,0,10.57-16.95Z"/><path class="cls-3" d="M84.42,177.09c0,.2,0,.41,0,.62a54.49,54.49,0,0,0,20.89,1.6c0-.21-.09-.42-.13-.63A54.26,54.26,0,0,1,84.42,177.09Z"/><path class="cls-3" d="M105.83,178.61c0,.21.1.42.14.63a66.35,66.35,0,0,0,9.68-1.89,69.77,69.77,0,0,0,12.84-4.87c-.09-.19-.18-.39-.28-.59a69.75,69.75,0,0,1-12.77,4.85A66.43,66.43,0,0,1,105.83,178.61Z"/><path class="cls-3" d="M157.63,140.7l.47.39a33.64,33.64,0,0,0,1.56-15.82c-.12-.79-.26-1.56-.44-2.32l-.47-.28c.17.75.32,1.52.44,2.3A33.4,33.4,0,0,1,157.63,140.7Z"/><path class="cls-3" d="M128.8,171.6c.09.2.19.39.29.58A65.69,65.69,0,0,0,146.94,159l-.4-.5A65.45,65.45,0,0,1,128.8,171.6Z"/><path class="cls-3" d="M158.63,122.18l.47.28a28.94,28.94,0,0,0-8.85-14.52l-.15-.1-.34-.16A28.67,28.67,0,0,1,158.63,122.18Z"/><path class="cls-2" d="M149.43,107.37l-.12-.08.07.06Z"/><path class="cls-2" d="M137.88,128.39l.61.29a23.6,23.6,0,0,0,1.1-11.1c-.08-.55-.19-1.09-.31-1.62l-.63-.1c.13.52.23,1.06.31,1.6A23.27,23.27,0,0,1,137.88,128.39Z"/><path class="cls-2" d="M120.36,99.46l.35-.15a39.69,39.69,0,0,0-15-.4l-.13.15A39,39,0,0,1,120.36,99.46Z"/><path class="cls-2" d="M105.15,99.13l.12-.15a46.34,46.34,0,0,0-4.71,1,48.89,48.89,0,0,0-10.87,4.39l.1.07a48.82,48.82,0,0,1,10.71-4.33C102.07,99.72,103.62,99.38,105.15,99.13Z"/><path class="cls-3" d="M132.67,105.15A27.48,27.48,0,0,0,121.1,99.4l-.36.15a27.07,27.07,0,0,1,11.41,5.66Z"/><path class="cls-3" d="M69.69,136.53l.41-.4a22.6,22.6,0,0,1,.59-9.31c-.13.08-.27.17-.39.26A23.11,23.11,0,0,0,69.69,136.53Z"/><path class="cls-3" d="M89.4,104.69a.41.41,0,0,1-.11-.07,44.88,44.88,0,0,0-12,9.68l.28-.08A44.44,44.44,0,0,1,89.4,104.69Z"/><path class="cls-3" d="M138.57,115.52l.63.09a20.3,20.3,0,0,0-6.26-10.23l-.54.06A19.9,19.9,0,0,1,138.57,115.52Z"/><path class="cls-3" d="M77.05,114.62a32.82,32.82,0,0,0-6.66,12.1l.39-.26a32.39,32.39,0,0,1,6.57-11.92Z"/><path class="cls-3" d="M75.45,147.88a26.12,26.12,0,0,0,11,6.36l.15-.66a25.77,25.77,0,0,1-10.85-6.27Z"/><path class="cls-3" d="M101.87,154.74c0,.23,0,.46.07.68a48.57,48.57,0,0,0,6.79-1.31,49.51,49.51,0,0,0,9-3.42c-.1-.21-.2-.41-.31-.61a48.06,48.06,0,0,1-8.87,3.36A44.43,44.43,0,0,1,101.87,154.74Z"/><path class="cls-3" d="M87,153.69l-.15.66a38.42,38.42,0,0,0,14.66,1.13l-.07-.68A37.89,37.89,0,0,1,87,153.69Z"/><path class="cls-3" d="M117.83,149.87l.32.61a46.31,46.31,0,0,0,12.52-9.24l-.5-.47A45.48,45.48,0,0,1,117.83,149.87Z"/><path class="cls-3" d="M69.75,136.9a20.11,20.11,0,0,0,5.45,10.73l.32-.56a19.84,19.84,0,0,1-5.37-10.58Z"/><path class="cls-3" d="M137.76,128.74a34.07,34.07,0,0,1-7.3,11.72l.5.47a34.65,34.65,0,0,0,7.41-11.9Z"/><path class="cls-2" d="M95.91,111.86l-.24-.32A17.72,17.72,0,0,0,91,115.3l.47.14A16.89,16.89,0,0,1,95.91,111.86Z"/><path class="cls-2" d="M88.05,124l.61-.28a8.65,8.65,0,0,1,.22-3.5l-.6.1A8.85,8.85,0,0,0,88.05,124Z"/><path class="cls-4" d="M137.86,190.83l.21.46a73.41,73.41,0,0,0,20-14.76c-.07-.15-.15-.3-.22-.46A73.62,73.62,0,0,1,137.86,190.83Z"/><path class="cls-4" d="M170.15,156.59a55.22,55.22,0,0,1-11.84,19c.08.15.15.3.22.46a55.2,55.2,0,0,0,11.84-19Z"/><path class="cls-4" d="M112,198.73c.06.15.13.31.19.47A74.54,74.54,0,0,0,123,197.08a78.72,78.72,0,0,0,14.39-5.45l-.21-.47a78.65,78.65,0,0,1-14.38,5.46A76,76,0,0,1,112,198.73Z"/><path class="cls-4" d="M170.17,155.84c.08.15.5.74.57.89a37.87,37.87,0,0,0,1.9-17.32c-.1-.35-.47-1-.58-1.31,0,.06-.23-.07-.22,0A37.67,37.67,0,0,1,170.17,155.84Z"/><path class="cls-4" d="M87.87,197c.06.16.09.3.15.46a61.32,61.32,0,0,0,23.44,1.81l-.2-.47A61.07,61.07,0,0,1,87.87,197Z"/><path class="cls-4" d="M69.86,187.14A41.8,41.8,0,0,0,87.45,197.3l-.18-.47a41.68,41.68,0,0,1-17.59-10.15Z"/><path class="cls-2" d="M88.07,124.1a7.8,7.8,0,0,0,2.12,4.17l.51-.49a7.52,7.52,0,0,1-2-4Z"/><path class="cls-2" d="M107.54,109.89l.35-.42a15.44,15.44,0,0,0-5.82-.15c0,.14,0,.28-.07.42A14.78,14.78,0,0,1,107.54,109.89Z"/><path class="cls-2" d="M90.91,115.43a12.81,12.81,0,0,0-2.59,4.7l.6-.09a11.92,11.92,0,0,1,2.47-4.48Z"/><path class="cls-2" d="M101.83,109.77l.06-.43c-.61.1-1.22.24-1.84.4a19.93,19.93,0,0,0-4.23,1.71l.24.33a18.38,18.38,0,0,1,4-1.63C100.67,110,101.26,109.87,101.83,109.77Z"/><path class="cls-3" d="M90.28,128.37a10.13,10.13,0,0,0,4.29,2.47l.3-.61a9.6,9.6,0,0,1-4.08-2.36Z"/><path class="cls-3" d="M114.08,120.9a12.92,12.92,0,0,1-2.74,4.4l.54.36a13.25,13.25,0,0,0,2.88-4.62Z"/><path class="cls-3" d="M112.55,111.74a10.81,10.81,0,0,0-4.51-2.23l-.35.42a10,10,0,0,1,4.28,2.13Z"/><path class="cls-3" d="M114.13,120.76l.68.14a9.15,9.15,0,0,0,.43-4.32q0-.31-.12-.63l-.7.1c0,.2.08.4.11.61A8.72,8.72,0,0,1,114.13,120.76Z"/><path class="cls-3" d="M114.39,115.93l.7-.12a7.88,7.88,0,0,0-2.44-4l-.58.3A7.52,7.52,0,0,1,114.39,115.93Z"/><path class="cls-3" d="M106.6,128.83l.3.55a18.21,18.21,0,0,0,4.87-3.59l-.54-.38A17,17,0,0,1,106.6,128.83Z"/><path class="cls-3" d="M100.6,130.67h0c0,.21,0,.42,0,.63a18.05,18.05,0,0,0,2.64-.51,18.7,18.7,0,0,0,3.51-1.33l-.3-.55a18.2,18.2,0,0,1-3.33,1.27A17.91,17.91,0,0,1,100.6,130.67Z"/><path class="cls-3" d="M95,130.27c-.1.2-.2.41-.29.61a14.76,14.76,0,0,0,5.7.44c0-.21,0-.42,0-.64A14.14,14.14,0,0,1,95,130.27Z"/><path class="cls-5" d="M173.13,170a58.45,58.45,0,0,0-.88-32.94s-1-2.87-1.15-3.22a58.39,58.39,0,0,0-17.88-24.29c-.5-.38-.51-.41-.62-.48a57.73,57.73,0,0,0-8-5.22l-1.1-.58a58.29,58.29,0,0,0-13.42-5l.7.15-.36-.08-.32-.08-.72-.14a58.39,58.39,0,0,0-40.78,5.93h0l-.49.27h0a58.56,58.56,0,0,0-14.83,12,7.6,7.6,0,0,0-.69.7l-.39.46a9.08,9.08,0,0,1,.68-.71,58,58,0,0,0-11.38,20c-.16.35-.3.71-.43,1.07l-.14.38c-.1.31-.2.63-.29.95l-.21.77c.11-.41.23-.81.36-1.21l.14-.38c.1-.29.21-.58.33-.86-.28.89-.54,1.79-.77,2.7q-.16.58-.3,1.2A58.28,58.28,0,0,0,58.64,155q0,2.94.29,5.82a24,24,0,0,0,.26,2.65l.16,1a23,23,0,0,1-.3-2.6,57.82,57.82,0,0,0,3.43,13.94l.14.38a58.24,58.24,0,0,0,97,18.35l-.17.19.41-.44.21-.25a58.13,58.13,0,0,0,11.64-19.4l.4-1.14C172.37,172.65,173.07,170.43,173.13,170Zm-3.95,9.44c-.19.41-.38.81-.58,1.21a57.83,57.83,0,0,1-7.31,11.24,10,10,0,0,0,.52-2.32l0-.28c.25-3.16-.64-7.26-2.84-12.22-.15-.35-.3-.69-.47-1-.07-.16-.14-.31-.22-.46a92.49,92.49,0,0,0-11-17l-.39-.5a161.19,161.19,0,0,0-16-17.13l-.5-.47a159.39,159.39,0,0,0-18.58-14.8l-.54-.36a113.92,113.92,0,0,0-10.17-6.1,116.74,116.74,0,0,1,10.06,6.21l.54.38a162.38,162.38,0,0,1,18.4,15l.5.47a163.65,163.65,0,0,1,15.87,17.26l.4.5a95.51,95.51,0,0,1,10.91,17.07c.07.16.15.31.22.46l.47,1c2.19,5,3.1,9.05,2.87,12.18l0,.28a9.44,9.44,0,0,1-.53,2.38q-1.51,1.78-3.17,3.44a58,58,0,0,1-14,10.31,11,11,0,0,0-.62-2.6c0-.07,0-.14-.08-.22-.79-2.37-2.26-6-4.46-11l-.46-1.05-.21-.46c-2.45-5.48-5.46-11.86-8.77-18.65-.1-.19-.2-.38-.29-.58-3.34-6.81-7-14-10.65-21.12l-.32-.61c-3.68-7.1-7.41-14.09-10.93-20.49l-.3-.55c-1.89-3.41-3.71-6.65-5.43-9.63,1.67,3,3.44,6.27,5.27,9.71l.3.55c3.43,6.44,7.07,13.48,10.68,20.62.11.2.21.4.31.61,3.62,7.14,7.19,14.37,10.48,21.2.1.2.19.4.28.59,3.28,6.81,9.38,19.8,9.53,20.14,2.2,5,3.54,8.67,4.37,11a1.72,1.72,0,0,0,.07.21,12.15,12.15,0,0,1,.69,2.58,57.33,57.33,0,0,1-20.81,6.06,7.14,7.14,0,0,1-3-1.7l-.19-.18c-2.12-2-6.83-11.07-7-11.42-.06-.16-.13-.32-.19-.47a126,126,0,0,1-6-19.49c0-.21-.09-.42-.14-.63a213.11,213.11,0,0,1-3.89-23.19c0-.22,0-.45-.07-.68a203.54,203.54,0,0,1-1.28-23.44c0-.21,0-.42,0-.63h0c0-4,.23-7.85.57-11.47-.4,3.62-.64,7.48-.74,11.48,0,.22,0,.43,0,.64a196.25,196.25,0,0,0,1,23.48l.07.68a206.64,206.64,0,0,0,3.7,23.2c0,.21.09.42.13.63a123,123,0,0,0,5.94,19.5l.2.47c.15.35,4.87,9.45,7,11.41l.2.18a7.1,7.1,0,0,0,3,1.69c-1.6.13-3.21.2-4.84.2a57.71,57.71,0,0,1-19-3.2l-.61-.34-.31-.18c-3.35-2.06-6.25-5.55-8.45-10.51l-.44-1.05-.18-.47a57.26,57.26,0,0,1-3.44-19.3c0-.21,0-.42,0-.62a100.39,100.39,0,0,1,2.41-22.74l.15-.66a112.76,112.76,0,0,1,7.74-22.81c.09-.2.19-.41.29-.61h0a93.28,93.28,0,0,1,6.16-11.07,95,95,0,0,0-6.3,11l-.3.61a112,112,0,0,0-8,22.74l-.15.66a98.73,98.73,0,0,0-2.57,22.69v.62a56.68,56.68,0,0,0,3.38,19.28l.18.47c.15.36.29.71.45,1,2.19,5,5.1,8.46,8.49,10.53l.31.18.45.25-1.62-.62-1.21-.5a57.87,57.87,0,0,1-22.46-17,25.86,25.86,0,0,1-1.56-3c-.15-.34-.3-.69-.44-1l-.18-.46a36.44,36.44,0,0,1-1.49-18.2l.09-.57a62.8,62.8,0,0,1,7.17-20l.31-.57a85.63,85.63,0,0,1,14.52-18.94l.51-.5a89.12,89.12,0,0,1,10.38-8.67,89.42,89.42,0,0,0-10.47,8.58l-.51.49a85.47,85.47,0,0,0-14.67,18.8l-.32.56a62.76,62.76,0,0,0-7.27,19.93l-.09.56a36.07,36.07,0,0,0,1.45,18.16l.18.46c.14.35.29.7.44,1a27.24,27.24,0,0,0,1.35,2.64,57.59,57.59,0,0,1-4.86-7.34l-.51-.93a57.43,57.43,0,0,1-6.71-25,28.48,28.48,0,0,1,.89-4.39c0-.15.09-.31.14-.46a38.63,38.63,0,0,1,9.54-15.45l.4-.41A63.69,63.69,0,0,1,88.07,124.1l.61-.29a84,84,0,0,1,12.49-4.61c-23.78,6.45-39.89,21.47-42,37.05,0-.41,0-.81,0-1.21a57.41,57.41,0,0,1,.51-7.69c0-.37.09-.74.15-1.1a57.16,57.16,0,0,1,3.09-11.71,25.39,25.39,0,0,1,7.41-7.46c.12-.09.26-.18.39-.26a46.5,46.5,0,0,1,17.59-6.55l.6-.1a75.43,75.43,0,0,1,12.29-1,75.34,75.34,0,0,0-12.25.84l-.6.09a46.09,46.09,0,0,0-17.54,6.33l-.39.26a25.23,25.23,0,0,0-7.25,7.15,57.62,57.62,0,0,1,11.65-18.35,10.87,10.87,0,0,1,2.26-.9l.3-.08c3.44-.88,8-.62,13.56.89l.48.13a71.6,71.6,0,0,1,9.78,3.64,72.91,72.91,0,0,0-9.68-3.76L91,115.3c-5.48-1.58-10-1.9-13.41-1.08l-.28.08a10.84,10.84,0,0,0-2.18.83l.89-.91a58.11,58.11,0,0,1,13-9.75l.29.15a.41.41,0,0,0,.11.07c1.32.85,3.43,3.14,6.27,6.85l.24.32q2.32,3.06,5.26,7.34-2.85-4.32-5.11-7.42l-.24-.33c-2.75-3.76-4.78-6.09-6-7l-.1-.07a1.58,1.58,0,0,0-.27-.16,57.43,57.43,0,0,1,16.48-5.89,6.24,6.24,0,0,0-.63.63l-.12.15c-1.45,1.83-2.58,5.26-3.26,10.21l-.06.43a89.89,89.89,0,0,0-.66,9.43,86.81,86.81,0,0,1,.83-9.46c0-.14,0-.28.07-.42.78-5,2-8.42,3.53-10.26l.13-.15a4.73,4.73,0,0,1,.69-.66A58.43,58.43,0,0,1,125.94,98a17.12,17.12,0,0,0-5.23,1.29l-.35.15c-4.13,1.77-8.38,5.13-12.47,10l-.35.42a71.52,71.52,0,0,0-6.37,9.31,70.54,70.54,0,0,1,6.52-9.27l.35-.42c4.18-4.87,8.5-8.21,12.7-10l.36-.15a17.88,17.88,0,0,1,5.45-1.28,57.41,57.41,0,0,1,22.76,9.17l.12.08-.05,0a32.24,32.24,0,0,0-16.71-2.2l-.52.06a56.71,56.71,0,0,0-19.6,6.53l-.58.32a79.22,79.22,0,0,0-10.8,7.14,80.84,80.84,0,0,1,10.9-7.06l.58-.3a57.15,57.15,0,0,1,19.75-6.4l.54-.06a32.86,32.86,0,0,1,16.82,2.3l.34.16.15.1a57.14,57.14,0,0,1,7.43,6.28A57.86,57.86,0,0,1,170.24,133a33.49,33.49,0,0,0-11.14-10.57l-.47-.28a55.06,55.06,0,0,0-19.43-6.57l-.63-.09a78.94,78.94,0,0,0-23.48.29l-.7.12a87.66,87.66,0,0,0-13.22,3.27,89.27,89.27,0,0,1,13.25-3.15l.7-.1a79.36,79.36,0,0,1,23.53-.09l.63.1a55.58,55.58,0,0,1,19.47,6.71l.47.28a33.57,33.57,0,0,1,11.41,11c.53,1.34,1,2.71,1.43,4.11.11.35.21.69.31,1.05a58,58,0,0,1,.94,28A24.62,24.62,0,0,0,171,157.5c-.15-.35-.31-.69-.47-1l-.23-.45a49.51,49.51,0,0,0-12.24-14.93l-.47-.39a87.14,87.14,0,0,0-19.14-12l-.61-.29a104.14,104.14,0,0,0-23.07-7.49l-.68-.14a93.53,93.53,0,0,0-13-1.56,91.67,91.67,0,0,1,12.91,1.7l.68.14a105.26,105.26,0,0,1,23,7.7l.61.29a88.83,88.83,0,0,1,19.09,12.18l.46.4a50.05,50.05,0,0,1,12.23,15l.22.45.48,1a24.62,24.62,0,0,1,2.27,10A57.71,57.71,0,0,1,169.18,179.45Z"/><path class="cls-4" d="M143,203.34c0,.08,0,.15.08.22A67.33,67.33,0,0,0,161.38,190l0-.28A67.56,67.56,0,0,1,143,203.34Z"/><path class="cls-4" d="M161.81,189.58a56,56,0,0,0,6.79-8.92c.2-.4.39-.8.58-1.21a55,55,0,0,1-7.34,9.85Z"/><path class="cls-4" d="M119,210.59l.19.18a68.4,68.4,0,0,0,9.93-1.93,74.51,74.51,0,0,0,13.35-5.07l-.05-.17A77.57,77.57,0,0,1,129,208.65,62.7,62.7,0,0,1,119,210.59Z"/><path class="cls-4" d="M97,209.07c0,.07.33.16.48.23a59.43,59.43,0,0,0,9.15,1.61,60.41,60.41,0,0,0,12.4-.13c0-.07-.06-.09-.06-.16a64,64,0,0,1-12.4.09A65.87,65.87,0,0,1,97,209.07Z"/><path class="cls-1" d="M129.28,106.54c-39.47-40-86.89-57.22-105.91-38.46s-2.43,66.41,37,106.42c38.75,39.27,85.16,56.58,104.84,39.45.36-.32.72-.65,1.06-1C185.33,194.19,168.75,146.55,129.28,106.54Zm32.81,105c-.32.3-.65.58-1,.86C143,227,100.47,212.34,65,178.87,28.88,144.78,13.77,104.1,31.26,88s60.95-1.47,97.08,32.62S179.58,195.42,162.09,211.49Z"/><path class="cls-1" d="M194.75,61.31c-21.1-16.38-66.16,6.31-100.63,50.7s-45.31,93.65-24.22,110c.39.3.78.58,1.18.86,21.57,14.69,65.61-8,99.45-51.56C205,127,215.85,77.7,194.75,61.31ZM166.48,176.24c-31.27,37.42-71.77,57-91.47,44.59-.37-.23-.73-.48-1.08-.73C54.66,206.2,64.86,164,96.71,125.91S170,68.15,189.27,82.05,198.33,138.12,166.48,176.24Z"/></svg>