<svg xmlns="http://www.w3.org/2000/svg" xmlns:xlink="http://www.w3.org/1999/xlink" width="375" height="441" viewBox="0 0 375 441">
  <defs>
    <clipPath id="clip-path">
      <rect id="Rectangle_1463" data-name="Rectangle 1463" width="375" height="441" transform="translate(11.686 305.65)" fill="none" stroke="#707070" stroke-width="1"/>
    </clipPath>
    <clipPath id="clip-path-2">
      <path id="Intersection_8" data-name="Intersection 8" d="M279.47,567l-16.84-27.353-12.991,2.812c1.844,4.218,6.816,15.53,10.826,24.541h-4.491l-10.426-23.646-19.326,4.218L223.5,567h-4.331l6.816-48.634-11.788,1.15-21.652,47.42H183.48l11.388-24.988-25.982-4.857-14.194,28.951L157.5,567h-7.859l7.057-14.379-28.228-8.628A236.259,236.259,0,0,1,114.435,567h-9.944c12.83-17.638,22.614-37.579,29.27-53.812l-60.786-3.706L85,567H76.343l-3.849-18.342-34.883,4.73-.321,3.707,7.3,9.905H39.615l-2.887-3.9-.321,3.9H32.157l1.2-13.037-25.5,3.45.882,9.523H.161L0,565.162v-109.2L7.619,435.22,0,434.7v-6.8l10.024.668,9.944-27.1L0,393.8V381.3l5.293,2.025,18.444-51.767-17.4-7.8L0,339.275V328.307l2.326-5.694L0,322.3v-3.423l3.689.475,12.43-30.42L0,283.7V280l17.4,5.673L39.7,231.222,0,234.236v-6.882l59.824-4.5L17,183.674c-2.926.221-11.117.878-17,1.3v-3.333l15.638-1.225-1.6-19.108L0,162.733V151.29l12.43-1.231L9.543,135.551c-3.5.438-6.774.851-9.543,1.194v-3.5l8.9-1.08L5.935,117.529,0,118.149V114.72l5.213-.579L1.2,94.074,0,94.167V87.373l33.521-2.566L28.228,54.769C19.3,56.24,9.8,57.363,0,58.207V51.385q2.462-.212,4.892-.449L2.406,23.9,0,23.67v-6.9l1.685.164L.161.064h8.58l4.651,49.913c4.972-.639,9.783-1.279,14.435-2.109l4.33-47.8h4.251L32.157,47.037c12.671-2.429,23.737-5.688,32.238-10.1.562-.319,1.2-.7,1.844-1.023L39.7.064h4.972L55.975,15.338,77.386,5.176,76.344.064H85l3.85,18.469A144.466,144.466,0,0,0,104.491.064h9.944q-1.8,2.683-3.85,5.368l32.157,8.884L149.72.064h7.859L180.033,7.54,183.48.064h9.062l-.722,1.661L218.043,8.18,219.166.064H223.5L222.133,9.2l20.529,5.113c2.807-.639,9.864-2.237,17.8-3.963L255.894,0h4.491c1.684,3.77,3.128,7.158,4.17,9.458,6.576-1.47,13.232-2.94,18.2-4.026L279.47.064h15.878L296.791,2.3,306.5.064h30.553C322.293,3.45,308.66,6.646,300.561,8.5l13.632,22.177,31.836-4.281L341.94.064h8.58l4.01,25.243L387.088,20.9,391.9.064H400V27.2l-2.166,9.162,2.166.508v3.5l-2.647-.623L400,44.308V60.5l-5.454-9.376L382.6,103.021a28.884,28.884,0,0,1,9.3,7.733l8.1-3.884V110.9l-6.1,2.926a21.287,21.287,0,0,1,2.566,9.906c0,.511-.081.959-.081,1.47l3.61.539v11.55l-7.78-1.162c-4.49,6.2-12.349,10.737-21.571,12.015L358.7,177.858l41.3,6.6v3.487l-19.006-3.059c-.481,2.429-1.444,7.094-2.486,12.143L400,199.3v3.434l-22.134-2.375c-.962,4.793-1.925,9.522-2.566,12.589l24.7,3.718v6.91l-26.3-3.917-9.783,35.661L400,228.445v4.714l-36.729,27.27,14.676,14.315L400,264.311v7.865l-16.6,7.873L395.749,292,400,290v4l-1.6.756,1.6,1.564v5.34l-20.29-19.813L336.888,302.1,400,311.138v11.54l-16.6-2.367-8.02,38.026L400,363.006v3.5l-25.341-4.841-4.732,22.56c10.586,1.592,20.839,3.183,30.073,4.593v6.91l-20.049-3.067-6.416,35.6,19.647,3.2L400,408.813v14.752l-2.567,8.523L400,432.5v6.961l-27.587-4.433-3.769,20.9L400,460.857v3.406l-32-5.013-4.571,25.564L400,489.806v6.922l-37.771-5.141L357.738,516.7l42.262,4.6v6.812L381.635,526.1l-4.651,24.477,19.647-4.538,3.369-14.4v35.3h-8.261l3.128-13.42c-10.264,2.428-27.425,6.39-44.827,10.417l.481,3h-8.58l-.16-1.086c-1.6.384-3.128.7-4.732,1.086H306.5l35.124-8.053,3.128-17.638-56.616,14L295.349,567Zm71.05-10.225,21.893-5.049,4.891-25.947-20.85-2.3ZM5.293,530.061l2.245,23.966,64.234-8.755-4.331-20.579Zm273.455,9.969,7.458,12.079,21.412-5.368-4.01-12.4Zm-148.6.767,28.147,8.564,6.416-13.038-29.591-5.56C133.6,534.087,131.916,537.41,130.153,540.8Zm177.545-7.35,4.01,12.335,33.681-8.309,2.325-13.165Zm-77.386-15.529L226.7,543.929l34-7.414-12.589-20.451Zm-56.856,13.1,24.378,4.537,7.7-17-15.4-5.049Zm90.3-15.4,11.226,18.214,74.1-16.872,2.245-12.4-75.059-8.628Zm-125.662,8.755,30.875,5.752,17.963-18.853-17.321-23.518-17.642-.384A320.13,320.13,0,0,1,138.091,524.372ZM2.967,504.625l1.684,18.6,61.427-5.3L62.47,500.6ZM215.878,516l30.313-3.131-10.1-16.361a38.286,38.286,0,0,1-9.863,1.278c-.722,0-1.363,0-2.005-.064Zm-23.015-5.3,14.194,4.665,8.741-19.109a32.041,32.041,0,0,1-6.656-2.62ZM248.2,490.438l13.152,21.346,19.887-31.188-24.378-3.323A23.51,23.51,0,0,1,248.2,490.438ZM72.253,505.967l62.871,3.835c3.769-9.523,6.5-17.447,8.1-22.624L68,485.452ZM189.816,508.4l16.038-16.808a26.3,26.3,0,0,1-3.769-3.068l-27.425-.639ZM2.727,501.3l59.1-4.026-2.486-11.951L1.123,483.982Zm317.8-3.706,31.355,3.579,1.925-10.737-30.153-4.026Zm-42.261-4.858,38.011,4.346,3.207-11.312-33.921-4.538ZM209.3,472.926c0,7.478,7.619,13.485,16.921,13.485,9.382,0,16.92-6.071,16.92-13.485,0-7.477-7.618-13.484-16.92-13.484S209.383,465.513,209.3,472.926Zm97.674,4.282,48.035,6.519,2.406-13.229L310.024,463.4Zm-132.4-.64,21.011.447a13.986,13.986,0,0,1-.4-4.09,21.535,21.535,0,0,1,.4-3.963l-17.8-6.838Zm-36.086-15.529-2.325,14.635,34,.766,3.528-15.849-26.944-10.353Zm115.236.384a20.562,20.562,0,0,1,3.448,9.01l41.379,5.625,9.543-43.139ZM68.164,474.141l63.753,1.47,2.166-13.8L73.617,451.389Zm-65.436-1.47L59.5,473.948l2.085-8.692-54.45-4.538Zm308.018-12.654,47.314,7.158,1.764-10.034-44.346-18.278ZM37.21,459.761l25.181,2.11,9.7-40.391-20.93-8.053ZM8.421,457.4l24.539,2.045,14.274-47.484L27.747,404.48Zm104.009-2.812,22.934,3.963,7.458-9.842-21.011-8.053Zm134.883.129a29.514,29.514,0,0,1,4.17,3.77l57.658-30.165.722-3.324-47.474-7.669Zm-86.848-11.759,40.5,15.529a30.192,30.192,0,0,1,10.185-7.222l-6.657-21.154ZM74.419,448l33.681,5.816,9.863-14.7L80.032,424.547Zm241.859-12.653,44.186,18.213,3.529-19.876-45.71-7.349Zm-106.415-34.7,15.076,47.485h1.284a36.914,36.914,0,0,1,8.5.959l16.761-41.861-7.619-15.018Zm-77.706,31.38,23.015,8.883,29.35-8.563-5.532-15.85Zm42.421-40.71,13.874,39.751,15-4.345L190.7,386.393ZM91.9,416.559l35.124,13.484,16.439-5.433-13.954-19.492Zm227.826,3.068,45.469,7.349,6.415-35.6L327.506,384.6ZM133.521,403.841l13.873,19.428,30.393-10.1-7.216-20.643Zm131.515,6.965,46.351,7.478,7.779-34.958-40.577-6.2ZM61.508,404.864l19.808,7.6,41.379-12.589L74.659,373.612Zm169.928-46.27,22.133,43.585,25.26-62.822ZM13.152,386.329l40.657,15.594L67.121,370.16,24.459,354.567Zm92.461-28.759-5.052,26.075,26.944,14.763,16.359-4.985,12.911-52.469c-11.468-3.2-24.779-6.9-36.408-10.162Zm87.41-10.29L208.9,397.386l33.44-8.309L218.2,341.593ZM148.6,391.953l40.1-12.207L178.268,346.9c-4.331-1.215-10.426-2.94-17.4-4.858Zm184.6-13.421c10.585,1.6,21.652,3.323,32.478,4.985l13.472-63.846-6.9-1.023ZM76.1,370.289l20.609,11.248,4.41-22.943L81.716,356.74Zm205.132.319c9.542,1.47,27.346,4.154,47.634,7.286l2.967-4.538-40.1-28.951Zm33.6-14.124,18.925,13.74,34-52.149-21.652-3.131Zm-289.253-5.24,42.9,15.658,4.892-11.7L29.431,340.571ZM221.892,339.8l7.939,15.657L279.791,335.2l-44.827-9.139ZM83.24,353.545l19.086,1.789,14.034-25.627c-8.9-2.493-16.44-4.6-20.77-5.816Zm209.943-12.718,18.444,13.357L341.62,314.3l-35.766-5.113Zm-240.336.191L76.1,348.751l11.307-26.97-23.1-5.688Zm139.053,2.94,26.223-5.944,12.27-12.909-47.474-9.65Zm-56.375-12.526L176.9,343l-9.783-30.868-23.577-5.624ZM31.836,333.988,49,339.676l23.095-50.1L49.559,284.2Zm65.036-13.357,34.643,9.65,7.938-24.8-32.959-7.8ZM268,325.744l15,3.068,7.618-18.853-15.8-4.218Zm-223.656-94.9L7.7,320.44l17.241,7.733,35.124-98.484ZM241.3,320.375l22.615,4.6,6.9-20.258-19.166-5.113Zm-26.865-41.988-15.717,7.221,9.944,27.992,24.3,4.921,21.492-42.883ZM65.918,312.835c4.812,1.214,16.6,4.154,22.935,5.688L98.4,295.77l-22.213-5.24ZM176.664,295.77l3.85,12.207,23.255,4.729-8.9-25.307Zm76.5.639L291.9,306.7l12.43-30.868-35.285-11.12Zm-125.982-.894L164.8,304.4l-9.382-29.526Zm183.079,2.811,13.793,1.981,26.624-12.59c1.284-4.857,4.09-14.954,7.138-26.138l-30.473-5.752Zm-225.5-52.789L73.858,282.861l48.516,11.5,31.916-23.2-8.58-27.033ZM167.6,267.076l8.019,25.243,34.964-16.041c-4.17-4.474-16.359-17.383-20.128-21.409Zm188.131,18.149,18.524-8.755-12.751-12.4Zm-303.848-7.54L69.768,281.9,76.744,258l-16.359-4.154Zm142.1-24.8,20.77,22.048,41.38-2.811.8-1.6-42.342-28.7Zm76.664,8.628,35.045,11.056,8.019-20-33.681-9.778Zm-28.468-5.433L258.62,267.2l13.714-27.481-10.345-6.008Zm-78.668-1.789,2.966,9.267,21.331-11.44-7.457-7.477Zm165.115-1.662,30.072,5.624c4.331-15.593,8.9-32.274,10.746-39.176l-25.822-3.834ZM69.206,228.986l-7.7,21.537,16.2,4.154,7.859-26.9Zm135.444,1.725,34.242,23.136L258.54,231.67l-27.747-15.977ZM183.8,242.6c2.406,2.428,5.773,5.815,7.538,7.605l19.808-10.673-10.1-6.839Zm97.754-2.94L315,249.309l5.132-12.845c-6.736-2.685-18.444-7.541-30.473-13.038ZM147.714,204l13.633,43.139,37.77-21.666-10.425-27.737ZM90.057,227.452l-4.331,14.7,58.861-1.406-5.373-17Zm144.426-13.868L274.017,236.4l8.179-16.424c-10.023-4.729-19.646-9.778-26.222-14.315a37.15,37.15,0,0,1-3.207-2.556Zm24.94-14.7a23.093,23.093,0,0,0,2.085,1.6c14.835,10.162,47.073,23.71,61.266,29.462l9.463-23.518-38.492-31ZM62.951,177.219l6.657,44.928,19.887-1.534-7.538-45.63Zm135.846,23.9,7.619,20.2,19.246-10.993L217.722,193.9ZM93.745,220.294l43.384-3.26-2.085-6.646L90.057,197.862ZM18.284,160.923l1.684,20.323,40.5,37.067L51.4,157.664Zm327.987,47.74,24.779,3.706,5.773-28.12-19.487-3.131ZM207.859,163.99l21.411,44.225,18.364-10.545c-11.147-13.484-20.208-35.852-25.1-49.529ZM86.207,174.472l3.207,19.62,44.347,12.335-11.468-36.237Zm44.346-24.542,16.039,50.808,40.818-6.327L169.126,146.16ZM300.24,170.956,335.2,199.14,350.28,161.5l-22.694-9.267ZM191.419,181.693l6.1,16.105L216.2,190.64l-11.388-23.454Zm49.4-10.864c3.929,8.372,8.5,16.616,13.473,22.687l13.392-9.2-11.868-18.087Zm19.006-5.944,11.226,17.128,16.52-11.376-14.515-9.842Zm-82.117-19.492L189.9,177.667l31.2-33.744c-.321-.959-.642-1.854-.882-2.685ZM59.9,156.832l2.566,17,58.781-6.9-4.972-15.594Zm224.217-21.857-8.26,23.263,15,10.162L338.251,136a22.366,22.366,0,0,1-3.127-6.008Zm-55.332,5.433c2.085,6.263,5.854,16.616,10.585,27.161l32.4-9.969,7.859-22.177Zm102.245,9.458,20.53,8.373,4.41-10.865a34.073,34.073,0,0,1-12.51-6.007ZM13.793,135.039l2.887,14.572L49,146.479l-4.491-15.21C38.171,132.035,25.261,133.633,13.793,135.039Zm43.625,10.609,58.139-5.688-2.245-6.774-60.224-2.237Zm71.771-7.03,35.605-3.451L143.3,107.686Zm219.166-14.954c0,7.477,7.618,13.484,16.92,13.484S382.2,131.14,382.2,123.664s-7.619-13.485-16.921-13.485C355.894,110.179,348.356,116.25,348.356,123.664ZM146.111,104.875l23.336,29.846,13.713-1.342.081-33.1ZM122.374,133.7,144.026,86.4,103.288,74.965Zm65.2-33.935-.081,33.232,45.469-4.41-4.812-33.871ZM10.185,117.081l2.887,14.571,30.473-3.706-4.09-14ZM70.329,88.833,79.15,128.52l33.12,1.215L98.316,86.724ZM41.459,91.007,52.125,127.5l22.615.831L66,89.153Zm193.664,23.007,2,14.124,25.582-2.493-2.726-14.06Zm29.35-23.774,6.736,34.575L300.24,122,293.424,86.66Zm33.2-4.09,6.9,35.406,30.313-2.94a24.244,24.244,0,0,1,9.463-13.229L330.072,82.123ZM5.454,93.754l4.009,19.939,28.95-3.068L32.879,91.645Zm226.863.511,2.326,16.361,24.7-2.365-3.288-16.936ZM316.2,33.871l40.657,65.954a2.283,2.283,0,0,0,.641-.128L346.591,29.781Zm38.813-5.24,10.906,70.3c1.043.064,2.005.128,3.048.192l17.242-74.646ZM147.795,97.844l36.488-4.538,15.236-43.458-26.143-7.861Zm41.139-5.113,22.213-2.748L221.491,56.5l-17.963-5.433Zm26.7-3.259L249,85.318,245.55,63.845l-20.128-6.071Zm-180.592-20,2.646,15.019,58.38-4.474L89.736,60.777Zm220.288,1.215L257.5,84.231l68.564-8.5-8.82-14.38ZM124.539,77.33l20.93,5.879,8.9-19.492L131.916,56.3ZM102,70.939l18.525,5.24,7.457-21.217L93.023,43.33ZM247.313,20.387,254.771,67.3l28.068-4.218c-3.288-7.605-15.477-36.62-19.568-46.206ZM69.046,42.691c-9.7,4.984-22.293,8.692-36.648,11.439l2.085,12.015,54.21-8.628-7.3-22.5A93.615,93.615,0,0,1,69.046,42.691Zm198.4-26.714L287.089,62.5l28.228-4.282L286.687,11.7Zm-134.322,37,22.694,7.541,14.355-31.443-26.143-7.222Zm71.772-5.113,40.1,12.143L241.7,39.3l-27.346-7.925ZM88.373,29.462,91.58,39.3l37.53,12.4L140.016,20.77l-34.082-9.394A141.066,141.066,0,0,1,88.373,29.462Zm86.447,9.2,26.143,7.924,10.264-18.022,5.132-13.677L188.853,8.116Zm41.058-10.481,25.26,7.285-2.406-15.018-18.284-4.538ZM58.139,18.278,69.768,33.935a102.355,102.355,0,0,0,11.868-8.692L78.188,8.755ZM146.752,15.4l26.384,7.285,5.453-11.951L153.168,2.3Z" transform="translate(0 -0.494)" fill="rgba(112,112,112,0.07)"/>
    </clipPath>
  </defs>
  <g id="Mask_Group_3" data-name="Mask Group 3" transform="translate(-11.686 -305.65)" opacity="0.43" clip-path="url(#clip-path)">
    <g id="Mask_Group_2" data-name="Mask Group 2" transform="translate(-0.314 241.144)" clip-path="url(#clip-path-2)">
      <rect id="Rectangle_1461" data-name="Rectangle 1461" width="399" height="436" transform="translate(0 65.506)" fill="rgba(112,112,112,0.07)"/>
    </g>
  </g>
</svg>
