<svg xmlns="http://www.w3.org/2000/svg" width="251.385" height="237.588" viewBox="0 0 251.385 237.588">
  <g id="Group_497" data-name="Group 497" transform="translate(-0.784 -1.427)" opacity="0.42">
    <path id="Path_2042" data-name="Path 2042" d="M13.022,9.3A3.937,3.937,0,1,0,9.085,5.364,3.933,3.933,0,0,0,13.022,9.3Z" transform="translate(80.754 0)" fill="#fff"/>
    <path id="Path_2043" data-name="Path 2043" d="M14.462,9.3a3.937,3.937,0,1,0-3.937-3.937A3.933,3.933,0,0,0,14.462,9.3Z" transform="translate(94.763 0)" fill="#fff"/>
    <path id="Path_2044" data-name="Path 2044" d="M15.9,9.3a3.937,3.937,0,1,0-3.937-3.937A3.933,3.933,0,0,0,15.9,9.3Z" transform="translate(108.772 0)" fill="#fff"/>
    <path id="Path_2045" data-name="Path 2045" d="M13.85,1.958a.085.085,0,0,0,.086-.086.086.086,0,1,0-.172,0A.085.085,0,0,0,13.85,1.958Z" transform="translate(126.273 3.492)" fill="#fff"/>
    <path id="Path_2046" data-name="Path 2046" d="M18.743,9.22a3.894,3.894,0,1,0-3.894-3.894A3.887,3.887,0,0,0,18.743,9.22Z" transform="translate(136.828 0.039)" fill="#fff"/>
    <path id="Path_2047" data-name="Path 2047" d="M18.782,6.294a2.36,2.36,0,1,0-2.349-2.36A2.367,2.367,0,0,0,18.782,6.294Z" transform="translate(152.237 1.43)" fill="#fff"/>
    <path id="Path_2048" data-name="Path 2048" d="M18.637,2.94a.6.6,0,0,0,0-1.2.6.6,0,0,0,0,1.2Z" transform="translate(167.832 3.025)" fill="#fff"/>
    <path id="Path_2049" data-name="Path 2049" d="M8.663,10.67A3.9,3.9,0,1,0,4.769,6.765,3.9,3.9,0,0,0,8.663,10.67Z" transform="translate(38.767 14.048)" fill="#fff"/>
    <path id="Path_2050" data-name="Path 2050" d="M7.428,5.034a.944.944,0,1,0-.944-.944A.945.945,0,0,0,7.428,5.034Z" transform="translate(55.451 16.723)" fill="#fff"/>
    <path id="Path_2051" data-name="Path 2051" d="M9.987,7.407A2.189,2.189,0,1,0,7.809,5.219,2.184,2.184,0,0,0,9.987,7.407Z" transform="translate(68.341 15.594)" fill="#fff"/>
    <path id="Path_2052" data-name="Path 2052" d="M13.022,10.752A3.943,3.943,0,1,0,9.085,6.8,3.942,3.942,0,0,0,13.022,10.752Z" transform="translate(80.754 14.009)" fill="#fff"/>
    <path id="Path_2053" data-name="Path 2053" d="M11.32,4.134a.472.472,0,0,0,0-.944.472.472,0,1,0,0,.944Z" transform="translate(97.905 17.151)" fill="#fff"/>
    <path id="Path_2054" data-name="Path 2054" d="M13.149,4.942a.9.9,0,0,0,.9-.89.9.9,0,0,0-1.8,0A.9.9,0,0,0,13.149,4.942Z" transform="translate(111.525 16.762)" fill="#fff"/>
    <path id="Path_2055" data-name="Path 2055" d="M13.889,3.479a.129.129,0,1,0-.129-.129A.138.138,0,0,0,13.889,3.479Z" transform="translate(126.234 17.462)" fill="#fff"/>
    <path id="Path_2056" data-name="Path 2056" d="M16.263,5.443A1.159,1.159,0,1,0,15.1,4.285,1.154,1.154,0,0,0,16.263,5.443Z" transform="translate(139.309 16.528)" fill="#fff"/>
    <path id="Path_2057" data-name="Path 2057" d="M19.561,9.351a3.208,3.208,0,1,0-3.208-3.208A3.21,3.21,0,0,0,19.561,9.351Z" transform="translate(151.459 14.67)" fill="#fff"/>
    <path id="Path_2058" data-name="Path 2058" d="M18.715,4.543a.687.687,0,1,0-.687-.687A.684.684,0,0,0,18.715,4.543Z" transform="translate(167.754 16.956)" fill="#fff"/>
    <path id="Path_2059" data-name="Path 2059" d="M19.727,3.643a.215.215,0,1,0,0-.429.215.215,0,1,0,0,.429Z" transform="translate(182.191 17.384)" fill="#fff"/>
    <path id="Path_2060" data-name="Path 2060" d="M2.8,5.809a.591.591,0,0,0,.6-.59.6.6,0,0,0-1.2,0A.591.591,0,0,0,2.8,5.809Z" transform="translate(13.736 31.043)" fill="#fff"/>
    <path id="Path_2061" data-name="Path 2061" d="M7.262,9.174a2.36,2.36,0,1,0-2.349-2.36A2.367,2.367,0,0,0,7.262,9.174Z" transform="translate(40.168 29.447)" fill="#fff"/>
    <path id="Path_2062" data-name="Path 2062" d="M9.4,10.638A3.127,3.127,0,1,0,6.281,7.5,3.127,3.127,0,0,0,9.4,10.638Z" transform="translate(53.476 28.757)" fill="#fff"/>
    <path id="Path_2063" data-name="Path 2063" d="M10.181,9.246A2.4,2.4,0,1,0,7.789,6.853,2.39,2.39,0,0,0,10.181,9.246Z" transform="translate(68.146 29.409)" fill="#fff"/>
    <path id="Path_2064" data-name="Path 2064" d="M14.229,14.718A5.268,5.268,0,1,0,8.961,9.451,5.27,5.27,0,0,0,14.229,14.718Z" transform="translate(79.548 26.811)" fill="#fff"/>
    <path id="Path_2065" data-name="Path 2065" d="M16.291,16.027a5.954,5.954,0,1,0-5.954-5.954A5.954,5.954,0,0,0,16.291,16.027Z" transform="translate(92.934 26.188)" fill="#fff"/>
    <circle id="Ellipse_343" data-name="Ellipse 343" cx="4.026" cy="4.026" r="4.026" transform="translate(120.648 32.234)" fill="#fff"/>
    <path id="Path_2066" data-name="Path 2066" d="M17.42,12.345A4.023,4.023,0,1,0,13.4,8.322,4.018,4.018,0,0,0,17.42,12.345Z" transform="translate(122.702 27.94)" fill="#fff"/>
    <path id="Path_2067" data-name="Path 2067" d="M16.263,6.883A1.159,1.159,0,1,0,15.1,5.725,1.161,1.161,0,0,0,16.263,6.883Z" transform="translate(139.309 30.537)" fill="#fff"/>
    <circle id="Ellipse_344" data-name="Ellipse 344" cx="1.027" cy="1.027" r="1.027" transform="translate(169.997 35.233)" fill="#fff"/>
    <path id="Path_2068" data-name="Path 2068" d="M22.839,14.636A5.225,5.225,0,1,0,17.6,9.412,5.224,5.224,0,0,0,22.839,14.636Z" transform="translate(163.629 26.85)" fill="#fff"/>
    <path id="Path_2069" data-name="Path 2069" d="M20.155,5.983a.687.687,0,1,0-.687-.687A.691.691,0,0,0,20.155,5.983Z" transform="translate(181.763 30.965)" fill="#fff"/>
    <path id="Path_2070" data-name="Path 2070" d="M2.447,6.523a.215.215,0,1,0-.215-.215A.215.215,0,0,0,2.447,6.523Z" transform="translate(14.087 45.402)" fill="#fff"/>
    <path id="Path_2071" data-name="Path 2071" d="M4.82,8.476A1.239,1.239,0,1,0,3.576,7.242,1.236,1.236,0,0,0,4.82,8.476Z" transform="translate(27.161 44.468)" fill="#fff"/>
    <path id="Path_2072" data-name="Path 2072" d="M7.885,11.913A3.041,3.041,0,1,0,4.849,8.877,3.036,3.036,0,0,0,7.885,11.913Z" transform="translate(39.545 42.834)" fill="#fff"/>
    <path id="Path_2073" data-name="Path 2073" d="M10.8,15.013a4.667,4.667,0,1,0-4.667-4.667A4.663,4.663,0,0,0,10.8,15.013Z" transform="translate(52.075 41.365)" fill="#fff"/>
    <path id="Path_2074" data-name="Path 2074" d="M11.7,13.877A4.071,4.071,0,1,0,7.633,9.811,4.063,4.063,0,0,0,11.7,13.877Z" transform="translate(66.629 41.9)" fill="#fff"/>
    <path id="Path_2075" data-name="Path 2075" d="M12.439,12.4A3.3,3.3,0,1,0,9.145,9.1,3.3,3.3,0,0,0,12.439,12.4Z" transform="translate(81.338 42.61)" fill="#fff"/>
    <path id="Path_2076" data-name="Path 2076" d="M15.63,16.087A5.23,5.23,0,1,0,10.4,10.852,5.233,5.233,0,0,0,15.63,16.087Z" transform="translate(93.596 40.859)" fill="#fff"/>
    <path id="Path_2077" data-name="Path 2077" d="M16.992,15.913a5.139,5.139,0,1,0-5.139-5.139A5.133,5.133,0,0,0,16.992,15.913Z" transform="translate(107.682 40.937)" fill="#fff"/>
    <path id="Path_2078" data-name="Path 2078" d="M17.5,13.959A4.114,4.114,0,1,0,13.389,9.85,4.109,4.109,0,0,0,17.5,13.959Z" transform="translate(122.625 41.861)" fill="#fff"/>
    <path id="Path_2079" data-name="Path 2079" d="M19.794,15.749A5.053,5.053,0,1,0,14.741,10.7,5.057,5.057,0,0,0,19.794,15.749Z" transform="translate(135.777 41.014)" fill="#fff"/>
    <path id="Path_2080" data-name="Path 2080" d="M19.882,12.895A3.556,3.556,0,1,0,16.32,9.344,3.548,3.548,0,0,0,19.882,12.895Z" transform="translate(151.138 42.367)" fill="#fff"/>
    <path id="Path_2081" data-name="Path 2081" d="M19.989,10.123a2.1,2.1,0,1,0-2.092-2.1A2.106,2.106,0,0,0,19.989,10.123Z" transform="translate(166.48 43.69)" fill="#fff"/>
    <path id="Path_2082" data-name="Path 2082" d="M19.843,6.769a.348.348,0,0,0,.354-.343.349.349,0,0,0-.7,0A.346.346,0,0,0,19.843,6.769Z" transform="translate(182.074 45.285)" fill="#fff"/>
    <path id="Path_2083" data-name="Path 2083" d="M21.595,7.423a.687.687,0,1,0-.687-.687A.684.684,0,0,0,21.595,7.423Z" transform="translate(195.771 44.974)" fill="#fff"/>
    <path id="Path_2084" data-name="Path 2084" d="M2.875,8.863a.687.687,0,1,0-.687-.687A.691.691,0,0,0,2.875,8.863Z" transform="translate(13.658 58.982)" fill="#fff"/>
    <path id="Path_2085" data-name="Path 2085" d="M5.054,10.407a1.5,1.5,0,1,0-1.5-1.491A1.5,1.5,0,0,0,5.054,10.407Z" transform="translate(26.928 58.243)" fill="#fff"/>
    <path id="Path_2086" data-name="Path 2086" d="M7.3,12.126A2.4,2.4,0,1,0,4.909,9.733,2.388,2.388,0,0,0,7.3,12.126Z" transform="translate(40.129 57.426)" fill="#fff"/>
    <path id="Path_2087" data-name="Path 2087" d="M7.739,10A1.282,1.282,0,1,0,6.452,8.712,1.291,1.291,0,0,0,7.739,10Z" transform="translate(55.14 58.447)" fill="#fff"/>
    <path id="Path_2088" data-name="Path 2088" d="M10.541,12.852a2.779,2.779,0,1,0-2.789-2.779A2.779,2.779,0,0,0,10.541,12.852Z" transform="translate(67.786 57.085)" fill="#fff"/>
    <path id="Path_2089" data-name="Path 2089" d="M14,17.107a5.01,5.01,0,1,0-5.01-5.01A5,5,0,0,0,14,17.107Z" transform="translate(79.781 55.062)" fill="#fff"/>
    <path id="Path_2090" data-name="Path 2090" d="M15.591,17.434a5.182,5.182,0,1,0-5.182-5.182A5.178,5.178,0,0,0,15.591,17.434Z" transform="translate(93.634 54.906)" fill="#fff"/>
    <path id="Path_2091" data-name="Path 2091" d="M17.07,17.516a5.225,5.225,0,1,0-5.225-5.225A5.224,5.224,0,0,0,17.07,17.516Z" transform="translate(107.604 54.867)" fill="#fff"/>
    <path id="Path_2092" data-name="Path 2092" d="M18,16.453a4.667,4.667,0,1,0-4.667-4.667A4.656,4.656,0,0,0,18,16.453Z" transform="translate(122.119 55.373)" fill="#fff"/>
    <path id="Path_2093" data-name="Path 2093" d="M19.025,15.553a4.195,4.195,0,1,0-4.205-4.195A4.187,4.187,0,0,0,19.025,15.553Z" transform="translate(136.546 55.801)" fill="#fff"/>
    <path id="Path_2094" data-name="Path 2094" d="M18.131,10.663A1.631,1.631,0,1,0,16.5,9.033,1.63,1.63,0,0,0,18.131,10.663Z" transform="translate(152.889 58.126)" fill="#fff"/>
    <circle id="Ellipse_345" data-name="Ellipse 345" cx="3.897" cy="3.897" r="3.897" transform="translate(182.569 63.258)" fill="#fff"/>
    <path id="Path_2095" data-name="Path 2095" d="M20.534,9.681a1.116,1.116,0,1,0-1.1-1.116A1.115,1.115,0,0,0,20.534,9.681Z" transform="translate(181.383 58.593)" fill="#fff"/>
    <path id="Path_2096" data-name="Path 2096" d="M25.71,17.516a5.225,5.225,0,1,0-5.225-5.225A5.224,5.224,0,0,0,25.71,17.516Z" transform="translate(191.656 54.867)" fill="#fff"/>
    <path id="Path_2097" data-name="Path 2097" d="M22.957,8.7a.6.6,0,1,0-.6-.6A.6.6,0,0,0,22.957,8.7Z" transform="translate(209.858 59.06)" fill="#fff"/>
    <path id="Path_2098" data-name="Path 2098" d="M4,12.676a1.931,1.931,0,1,0-1.931-1.931A1.93,1.93,0,0,0,4,12.676Z" transform="translate(12.53 71.863)" fill="#fff"/>
    <path id="Path_2099" data-name="Path 2099" d="M5.21,12.174a1.668,1.668,0,1,0-1.674-1.663A1.667,1.667,0,0,0,5.21,12.174Z" transform="translate(26.772 72.096)" fill="#fff"/>
    <path id="Path_2100" data-name="Path 2100" d="M8.663,16.42a3.894,3.894,0,1,0-3.894-3.894A3.894,3.894,0,0,0,8.663,16.42Z" transform="translate(38.767 70.082)" fill="#fff"/>
    <path id="Path_2101" data-name="Path 2101" d="M8.129,12.256a1.711,1.711,0,1,0-1.717-1.706A1.712,1.712,0,0,0,8.129,12.256Z" transform="translate(54.751 72.057)" fill="#fff"/>
    <path id="Path_2102" data-name="Path 2102" d="M10.152,13.494a2.36,2.36,0,1,0-2.36-2.36A2.358,2.358,0,0,0,10.152,13.494Z" transform="translate(68.176 71.474)" fill="#fff"/>
    <path id="Path_2103" data-name="Path 2103" d="M12.322,15.038a3.17,3.17,0,1,0-3.165-3.165A3.173,3.173,0,0,0,12.322,15.038Z" transform="translate(81.455 70.734)" fill="#fff"/>
    <circle id="Ellipse_346" data-name="Ellipse 346" cx="4.411" cy="4.411" r="4.411" transform="translate(104.816 78.199)" fill="#fff"/>
    <path id="Path_2104" data-name="Path 2104" d="M16.1,16.92a4.157,4.157,0,1,0-4.152-4.152A4.148,4.148,0,0,0,16.1,16.92Z" transform="translate(108.577 69.839)" fill="#fff"/>
    <path id="Path_2105" data-name="Path 2105" d="M16.875,15.52A3.422,3.422,0,1,0,13.453,12.1,3.427,3.427,0,0,0,16.875,15.52Z" transform="translate(123.247 70.51)" fill="#fff"/>
    <path id="Path_2106" data-name="Path 2106" d="M18.315,15.52A3.422,3.422,0,1,0,14.893,12.1,3.411,3.411,0,0,0,18.315,15.52Z" transform="translate(137.256 70.51)" fill="#fff"/>
    <circle id="Ellipse_347" data-name="Ellipse 347" cx="2.012" cy="2.012" r="2.012" transform="translate(169.012 80.598)" fill="#fff"/>
    <path id="Path_2107" data-name="Path 2107" d="M20.884,14.865a3.079,3.079,0,1,0-3.079-3.079A3.081,3.081,0,0,0,20.884,14.865Z" transform="translate(165.585 70.822)" fill="#fff"/>
    <path id="Path_2108" data-name="Path 2108" d="M21.7,13.567a2.4,2.4,0,1,0,0-4.8,2.4,2.4,0,0,0,0,4.8Z" transform="translate(180.216 71.444)" fill="#fff"/>
    <path id="Path_2109" data-name="Path 2109" d="M23.725,14.783a3.036,3.036,0,1,0-3.036-3.036A3.042,3.042,0,0,0,23.725,14.783Z" transform="translate(193.641 70.861)" fill="#fff"/>
    <circle id="Ellipse_348" data-name="Ellipse 348" cx="2.357" cy="2.357" r="2.357" transform="translate(230.459 80.252)" fill="#fff"/>
    <path id="Path_2110" data-name="Path 2110" d="M6.484,19.333a4.667,4.667,0,1,0-4.667-4.667A4.656,4.656,0,0,0,6.484,19.333Z" transform="translate(10.049 83.391)" fill="#fff"/>
    <path id="Path_2111" data-name="Path 2111" d="M7.885,19.251a4.624,4.624,0,1,0-4.624-4.624A4.624,4.624,0,0,0,7.885,19.251Z" transform="translate(24.097 83.43)" fill="#fff"/>
    <path id="Path_2112" data-name="Path 2112" d="M7.924,16.325a3.09,3.09,0,1,0-3.079-3.09A3.081,3.081,0,0,0,7.924,16.325Z" transform="translate(39.506 84.821)" fill="#fff"/>
    <path id="Path_2113" data-name="Path 2113" d="M8.284,14.014A1.877,1.877,0,1,0,6.4,12.136,1.882,1.882,0,0,0,8.284,14.014Z" transform="translate(54.595 85.92)" fill="#fff"/>
    <path id="Path_2114" data-name="Path 2114" d="M10.074,14.75A2.264,2.264,0,1,0,7.8,12.487,2.266,2.266,0,0,0,10.074,14.75Z" transform="translate(68.253 85.57)" fill="#fff"/>
    <circle id="Ellipse_349" data-name="Ellipse 349" cx="2.399" cy="2.399" r="2.399" transform="translate(91.379 95.653)" fill="#fff"/>
    <path id="Path_2115" data-name="Path 2115" d="M14.034,17.062a3.476,3.476,0,1,0-3.465-3.476A3.473,3.473,0,0,0,14.034,17.062Z" transform="translate(95.191 84.47)" fill="#fff"/>
    <path id="Path_2116" data-name="Path 2116" d="M15.552,17.226A3.562,3.562,0,1,0,12,13.664,3.567,3.567,0,0,0,15.552,17.226Z" transform="translate(109.122 84.393)" fill="#fff"/>
    <path id="Path_2117" data-name="Path 2117" d="M18.043,19.414a4.71,4.71,0,1,0-4.71-4.71A4.7,4.7,0,0,0,18.043,19.414Z" transform="translate(122.08 83.352)" fill="#fff"/>
    <path id="Path_2118" data-name="Path 2118" d="M19.094,18.6a4.281,4.281,0,1,0-4.281-4.281A4.279,4.279,0,0,0,19.094,18.6Z" transform="translate(136.478 83.741)" fill="#fff"/>
    <path id="Path_2119" data-name="Path 2119" d="M20.144,17.788a3.857,3.857,0,1,0-3.851-3.851A3.851,3.851,0,0,0,20.144,17.788Z" transform="translate(150.876 84.12)" fill="#fff"/>
    <path id="Path_2120" data-name="Path 2120" d="M21.312,17.226a3.562,3.562,0,1,0-3.551-3.562A3.567,3.567,0,0,0,21.312,17.226Z" transform="translate(165.157 84.393)" fill="#fff"/>
    <path id="Path_2121" data-name="Path 2121" d="M20.194,11.825a.73.73,0,1,0-.729-.73A.73.73,0,0,0,20.194,11.825Z" transform="translate(181.724 86.961)" fill="#fff"/>
    <path id="Path_2122" data-name="Path 2122" d="M22.023,12.643a1.159,1.159,0,1,0,0-2.317,1.159,1.159,0,1,0,0,2.317Z" transform="translate(195.343 86.572)" fill="#fff"/>
    <path id="Path_2123" data-name="Path 2123" d="M24.552,14.914a2.35,2.35,0,1,0-2.36-2.349A2.351,2.351,0,0,0,24.552,14.914Z" transform="translate(208.263 85.492)" fill="#fff"/>
    <path id="Path_2124" data-name="Path 2124" d="M27.393,17.869a3.9,3.9,0,1,0-3.905-3.894A3.9,3.9,0,0,0,27.393,17.869Z" transform="translate(220.87 84.081)" fill="#fff"/>
    <path id="Path_2125" data-name="Path 2125" d="M6.99,21.836a5.225,5.225,0,1,0-5.225-5.225A5.217,5.217,0,0,0,6.99,21.836Z" transform="translate(9.543 96.893)" fill="#fff"/>
    <path id="Path_2126" data-name="Path 2126" d="M5.589,15.863A2.092,2.092,0,1,0,3.5,13.771,2.1,2.1,0,0,0,5.589,15.863Z" transform="translate(26.393 99.734)" fill="#fff"/>
    <path id="Path_2127" data-name="Path 2127" d="M7.457,16.763A2.564,2.564,0,1,0,4.893,14.2,2.566,2.566,0,0,0,7.457,16.763Z" transform="translate(39.973 99.306)" fill="#fff"/>
    <path id="Path_2128" data-name="Path 2128" d="M11.426,22.082a5.353,5.353,0,1,0-5.353-5.353A5.355,5.355,0,0,0,11.426,22.082Z" transform="translate(51.453 96.777)" fill="#fff"/>
    <path id="Path_2129" data-name="Path 2129" d="M11.621,19.463a3.98,3.98,0,1,0-3.98-3.98A3.979,3.979,0,0,0,11.621,19.463Z" transform="translate(66.707 98.022)" fill="#fff"/>
    <path id="Path_2130" data-name="Path 2130" d="M13.334,20.036a4.281,4.281,0,1,0-4.281-4.281A4.272,4.272,0,0,0,13.334,20.036Z" transform="translate(80.443 97.75)" fill="#fff"/>
    <path id="Path_2131" data-name="Path 2131" d="M14.851,20.2a4.366,4.366,0,1,0-4.366-4.366A4.363,4.363,0,0,0,14.851,20.2Z" transform="translate(94.374 97.672)" fill="#fff"/>
    <circle id="Ellipse_350" data-name="Ellipse 350" cx="3.041" cy="3.041" r="3.041" transform="translate(121.633 110.464)" fill="#fff"/>
    <path id="Path_2132" data-name="Path 2132" d="M17,18.645a3.551,3.551,0,1,0-3.562-3.551A3.548,3.548,0,0,0,17,18.645Z" transform="translate(123.121 98.411)" fill="#fff"/>
    <path id="Path_2133" data-name="Path 2133" d="M18.977,19.811a4.163,4.163,0,1,0-4.152-4.163A4.167,4.167,0,0,0,18.977,19.811Z" transform="translate(136.594 97.857)" fill="#fff"/>
    <path id="Path_2134" data-name="Path 2134" d="M20.144,19.218a3.851,3.851,0,1,0-3.851-3.851A3.857,3.857,0,0,0,20.144,19.218Z" transform="translate(150.876 98.139)" fill="#fff"/>
    <path id="Path_2135" data-name="Path 2135" d="M21.935,19.965A4.243,4.243,0,1,0,17.7,15.717,4.242,4.242,0,0,0,21.935,19.965Z" transform="translate(164.534 97.788)" fill="#fff"/>
    <path id="Path_2136" data-name="Path 2136" d="M23.881,21.018a4.8,4.8,0,1,0-4.8-4.8A4.794,4.794,0,0,0,23.881,21.018Z" transform="translate(178.037 97.283)" fill="#fff"/>
    <path id="Path_2137" data-name="Path 2137" d="M21.361,12.692a.429.429,0,1,0-.429-.429A.43.43,0,0,0,21.361,12.692Z" transform="translate(196.005 101.242)" fill="#fff"/>
    <circle id="Ellipse_351" data-name="Ellipse 351" cx="1.152" cy="1.152" r="1.152" transform="translate(231.664 112.353)" fill="#fff"/>
    <path id="Path_2138" data-name="Path 2138" d="M1.084,13.887a.3.3,0,0,0,.3-.3.293.293,0,0,0-.3-.3.293.293,0,0,0-.3.3A.3.3,0,0,0,1.084,13.887Z" transform="translate(0 115.367)" fill="#fff"/>
    <path id="Path_2139" data-name="Path 2139" d="M4.82,15.687a1.244,1.244,0,1,0-1.244-1.244A1.245,1.245,0,0,0,4.82,15.687Z" transform="translate(27.161 114.511)" fill="#fff"/>
    <path id="Path_2140" data-name="Path 2140" d="M9.481,22.468a4.8,4.8,0,1,0-4.8-4.8A4.8,4.8,0,0,0,9.481,22.468Z" transform="translate(37.95 111.282)" fill="#fff"/>
    <path id="Path_2141" data-name="Path 2141" d="M10.8,22.213a4.667,4.667,0,1,0-4.667-4.667A4.656,4.656,0,0,0,10.8,22.213Z" transform="translate(52.075 111.408)" fill="#fff"/>
    <path id="Path_2142" data-name="Path 2142" d="M11.115,19.849a3.428,3.428,0,1,0-3.422-3.422A3.434,3.434,0,0,0,11.115,19.849Z" transform="translate(67.213 112.527)" fill="#fff"/>
    <path id="Path_2143" data-name="Path 2143" d="M13.217,21.231a4.152,4.152,0,1,0-4.152-4.152A4.155,4.155,0,0,0,13.217,21.231Z" transform="translate(80.56 111.875)" fill="#fff"/>
    <path id="Path_2144" data-name="Path 2144" d="M14.122,20.106a3.562,3.562,0,1,0-3.562-3.562A3.567,3.567,0,0,0,14.122,20.106Z" transform="translate(95.103 112.41)" fill="#fff"/>
    <path id="Path_2145" data-name="Path 2145" d="M15.095,19.124a3.047,3.047,0,1,0-3.047-3.047A3.045,3.045,0,0,0,15.095,19.124Z" transform="translate(109.579 112.877)" fill="#fff"/>
    <path id="Path_2146" data-name="Path 2146" d="M17.391,20.913a3.986,3.986,0,1,0-3.991-3.98A3.981,3.981,0,0,0,17.391,20.913Z" transform="translate(122.732 112.021)" fill="#fff"/>
    <path id="Path_2147" data-name="Path 2147" d="M18.471,20.167a3.594,3.594,0,1,0-3.594-3.594A3.6,3.6,0,0,0,18.471,20.167Z" transform="translate(137.1 112.381)" fill="#fff"/>
    <path id="Path_2148" data-name="Path 2148" d="M20.689,21.8a4.452,4.452,0,1,0-4.452-4.441A4.439,4.439,0,0,0,20.689,21.8Z" transform="translate(150.331 111.593)" fill="#fff"/>
    <path id="Path_2149" data-name="Path 2149" d="M22.752,23.113a5.139,5.139,0,1,0-5.139-5.139A5.146,5.146,0,0,0,22.752,23.113Z" transform="translate(163.717 110.98)" fill="#fff"/>
    <path id="Path_2150" data-name="Path 2150" d="M24.27,23.276a5.225,5.225,0,1,0-5.225-5.225A5.233,5.233,0,0,0,24.27,23.276Z" transform="translate(177.648 110.902)" fill="#fff"/>
    <path id="Path_2151" data-name="Path 2151" d="M21.672,14.787a.772.772,0,1,0-.772-.772A.776.776,0,0,0,21.672,14.787Z" transform="translate(195.694 114.939)" fill="#fff"/>
    <path id="Path_2152" data-name="Path 2152" d="M22.558,13.641a.176.176,0,0,0,.172-.172.169.169,0,0,0-.172-.172.161.161,0,0,0-.161.172A.167.167,0,0,0,22.558,13.641Z" transform="translate(210.257 115.484)" fill="#fff"/>
    <path id="Path_2153" data-name="Path 2153" d="M2.8,15.9a.607.607,0,0,0,.6-.6.6.6,0,0,0-1.2,0A.607.607,0,0,0,2.8,15.9Z" transform="translate(13.736 129.104)" fill="#fff"/>
    <path id="Path_2154" data-name="Path 2154" d="M8.78,25.452a5.611,5.611,0,1,0-5.611-5.6A5.6,5.6,0,0,0,8.78,25.452Z" transform="translate(23.202 124.551)" fill="#fff"/>
    <path id="Path_2155" data-name="Path 2155" d="M9.481,23.9a4.8,4.8,0,1,0-4.8-4.8A4.794,4.794,0,0,0,9.481,23.9Z" transform="translate(37.95 125.3)" fill="#fff"/>
    <path id="Path_2156" data-name="Path 2156" d="M10.492,23a4.323,4.323,0,1,0-4.323-4.323A4.318,4.318,0,0,0,10.492,23Z" transform="translate(52.387 125.728)" fill="#fff"/>
    <path id="Path_2157" data-name="Path 2157" d="M12.049,23.243A4.452,4.452,0,1,0,7.6,18.791,4.455,4.455,0,0,0,12.049,23.243Z" transform="translate(66.279 125.611)" fill="#fff"/>
    <path id="Path_2158" data-name="Path 2158" d="M13.956,24.225a4.967,4.967,0,1,0-4.967-4.967A4.963,4.963,0,0,0,13.956,24.225Z" transform="translate(79.82 125.144)" fill="#fff"/>
    <path id="Path_2159" data-name="Path 2159" d="M14.307,21.944a3.771,3.771,0,1,0-3.766-3.766A3.764,3.764,0,0,0,14.307,21.944Z" transform="translate(94.919 126.224)" fill="#fff"/>
    <path id="Path_2160" data-name="Path 2160" d="M15.241,20.88a3.213,3.213,0,1,0-3.208-3.208A3.2,3.2,0,0,0,15.241,20.88Z" transform="translate(109.433 126.73)" fill="#fff"/>
    <path id="Path_2161" data-name="Path 2161" d="M17.187,21.944a3.771,3.771,0,1,0-3.766-3.766A3.764,3.764,0,0,0,17.187,21.944Z" transform="translate(122.936 126.224)" fill="#fff"/>
    <circle id="Ellipse_352" data-name="Ellipse 352" cx="4.369" cy="4.369" r="4.369" transform="translate(151.202 140.033)" fill="#fff"/>
    <path id="Path_2162" data-name="Path 2162" d="M21.2,24.307a5.01,5.01,0,1,0-5.01-5.01A5.009,5.009,0,0,0,21.2,24.307Z" transform="translate(149.825 125.105)" fill="#fff"/>
    <circle id="Ellipse_353" data-name="Ellipse 353" cx="5.395" cy="5.395" r="5.395" transform="translate(181.071 139.006)" fill="#fff"/>
    <path id="Path_2163" data-name="Path 2163" d="M23.8,23.734a4.71,4.71,0,1,0-4.71-4.71A4.725,4.725,0,0,0,23.8,23.734Z" transform="translate(178.115 125.378)" fill="#fff"/>
    <path id="Path_2164" data-name="Path 2164" d="M24.815,22.844a4.243,4.243,0,1,0-4.238-4.238A4.24,4.24,0,0,0,24.815,22.844Z" transform="translate(192.551 125.796)" fill="#fff"/>
    <circle id="Ellipse_354" data-name="Ellipse 354" cx="3.939" cy="3.939" r="3.939" transform="translate(228.876 140.462)" fill="#fff"/>
    <path id="Path_2165" data-name="Path 2165" d="M6.562,25.256a4.753,4.753,0,1,0-4.753-4.763A4.75,4.75,0,0,0,6.562,25.256Z" transform="translate(9.971 139.348)" fill="#fff"/>
    <path id="Path_2166" data-name="Path 2166" d="M4.237,17.34a.6.6,0,1,0-.6-.612A.6.6,0,0,0,4.237,17.34Z" transform="translate(27.745 143.112)" fill="#fff"/>
    <path id="Path_2167" data-name="Path 2167" d="M9.442,25.256a4.753,4.753,0,1,0-4.753-4.763A4.75,4.75,0,0,0,9.442,25.256Z" transform="translate(37.989 139.348)" fill="#fff"/>
    <path id="Path_2168" data-name="Path 2168" d="M10.337,24.111a4.152,4.152,0,1,0-4.152-4.163A4.15,4.15,0,0,0,10.337,24.111Z" transform="translate(52.542 139.892)" fill="#fff"/>
    <path id="Path_2169" data-name="Path 2169" d="M12.905,26.493a5.4,5.4,0,1,0-5.4-5.407A5.4,5.4,0,0,0,12.905,26.493Z" transform="translate(65.423 138.754)" fill="#fff"/>
    <path id="Path_2170" data-name="Path 2170" d="M13.45,24.611a4.415,4.415,0,1,0-4.409-4.42A4.411,4.411,0,0,0,13.45,24.611Z" transform="translate(80.326 139.649)" fill="#fff"/>
    <path id="Path_2171" data-name="Path 2171" d="M14,22.729A3.428,3.428,0,1,0,10.573,19.3,3.427,3.427,0,0,0,14,22.729Z" transform="translate(95.23 140.544)" fill="#fff"/>
    <path id="Path_2172" data-name="Path 2172" d="M15.669,23.211a3.68,3.68,0,1,0-3.68-3.691A3.674,3.674,0,0,0,15.669,23.211Z" transform="translate(109.005 140.32)" fill="#fff"/>
    <path id="Path_2173" data-name="Path 2173" d="M15.786,20.438a2.226,2.226,0,1,0-2.221-2.231A2.214,2.214,0,0,0,15.786,20.438Z" transform="translate(124.337 141.634)" fill="#fff"/>
    <path id="Path_2174" data-name="Path 2174" d="M16.924,19.774a1.877,1.877,0,1,0-1.888-1.888A1.877,1.877,0,0,0,16.924,19.774Z" transform="translate(138.647 141.955)" fill="#fff"/>
    <path id="Path_2175" data-name="Path 2175" d="M21.2,25.747a5.01,5.01,0,1,0-5.01-5.021A5.011,5.011,0,0,0,21.2,25.747Z" transform="translate(149.825 139.114)" fill="#fff"/>
    <path id="Path_2176" data-name="Path 2176" d="M21.088,22.474a3.294,3.294,0,1,0-3.3-3.3A3.3,3.3,0,0,0,21.088,22.474Z" transform="translate(165.38 140.671)" fill="#fff"/>
    <path id="Path_2177" data-name="Path 2177" d="M24.309,26.238a5.268,5.268,0,1,0-5.268-5.278A5.265,5.265,0,0,0,24.309,26.238Z" transform="translate(177.609 138.881)" fill="#fff"/>
    <path id="Path_2178" data-name="Path 2178" d="M21.478,17.258a.558.558,0,1,0-.558-.569A.557.557,0,0,0,21.478,17.258Z" transform="translate(195.888 143.151)" fill="#fff"/>
    <path id="Path_2179" data-name="Path 2179" d="M24.008,16.521a.179.179,0,0,0,.172-.182.172.172,0,0,0-.343,0A.179.179,0,0,0,24.008,16.521Z" transform="translate(224.256 143.502)" fill="#fff"/>
    <path id="Path_2180" data-name="Path 2180" d="M3.575,20.416a1.459,1.459,0,1,0-1.459-1.459A1.461,1.461,0,0,0,3.575,20.416Z" transform="translate(12.958 156.343)" fill="#fff"/>
    <path id="Path_2181" data-name="Path 2181" d="M4.82,20.007a1.252,1.252,0,0,0,1.244-1.244,1.244,1.244,0,1,0-2.489,0A1.252,1.252,0,0,0,4.82,20.007Z" transform="translate(27.161 156.537)" fill="#fff"/>
    <path id="Path_2182" data-name="Path 2182" d="M6.64,20.814a1.668,1.668,0,1,0-1.663-1.663A1.667,1.667,0,0,0,6.64,20.814Z" transform="translate(40.791 156.148)" fill="#fff"/>
    <path id="Path_2183" data-name="Path 2183" d="M11.037,27.024A4.924,4.924,0,1,0,6.113,22.1,4.917,4.917,0,0,0,11.037,27.024Z" transform="translate(51.842 153.201)" fill="#fff"/>
    <path id="Path_2184" data-name="Path 2184" d="M12.594,27.258a5.048,5.048,0,1,0-5.053-5.042A5.039,5.039,0,0,0,12.594,27.258Z" transform="translate(65.734 153.084)" fill="#fff"/>
    <circle id="Ellipse_355" data-name="Ellipse 355" cx="4.369" cy="4.369" r="4.369" transform="translate(89.409 170.929)" fill="#fff"/>
    <path id="Path_2185" data-name="Path 2185" d="M15.124,26.542a4.672,4.672,0,1,0-4.667-4.667A4.67,4.67,0,0,0,15.124,26.542Z" transform="translate(94.101 153.424)" fill="#fff"/>
    <path id="Path_2186" data-name="Path 2186" d="M15.435,24.16a3.422,3.422,0,1,0-3.422-3.422A3.425,3.425,0,0,0,15.435,24.16Z" transform="translate(109.239 154.563)" fill="#fff"/>
    <path id="Path_2187" data-name="Path 2187" d="M15.474,21.234A1.888,1.888,0,1,0,13.6,19.346,1.889,1.889,0,0,0,15.474,21.234Z" transform="translate(124.648 155.954)" fill="#fff"/>
    <path id="Path_2188" data-name="Path 2188" d="M18.51,24.578a3.642,3.642,0,1,0-3.637-3.637A3.649,3.649,0,0,0,18.51,24.578Z" transform="translate(137.061 154.358)" fill="#fff"/>
    <path id="Path_2189" data-name="Path 2189" d="M20.417,25.571a4.163,4.163,0,1,0-4.152-4.163A4.157,4.157,0,0,0,20.417,25.571Z" transform="translate(150.603 153.891)" fill="#fff"/>
    <path id="Path_2190" data-name="Path 2190" d="M21.779,25.387a4.066,4.066,0,1,0-4.066-4.066A4.066,4.066,0,0,0,21.779,25.387Z" transform="translate(164.69 153.979)" fill="#fff"/>
    <path id="Path_2191" data-name="Path 2191" d="M20.067,18.78a.6.6,0,0,0,0-1.2.6.6,0,0,0,0,1.2Z" transform="translate(181.85 157.121)" fill="#fff"/>
    <circle id="Ellipse_356" data-name="Ellipse 356" cx="3.939" cy="3.939" r="3.939" transform="translate(213.423 171.358)" fill="#fff"/>
    <path id="Path_2192" data-name="Path 2192" d="M5.638,20.138a.558.558,0,1,0,0-1.116.558.558,0,1,0,0,1.116Z" transform="translate(41.793 171.169)" fill="#fff"/>
    <path id="Path_2193" data-name="Path 2193" d="M11.349,29.118a5.268,5.268,0,1,0-5.268-5.268A5.27,5.27,0,0,0,11.349,29.118Z" transform="translate(51.531 166.898)" fill="#fff"/>
    <path id="Path_2194" data-name="Path 2194" d="M12.322,28.136a4.753,4.753,0,1,0-4.753-4.753A4.755,4.755,0,0,0,12.322,28.136Z" transform="translate(66.006 167.365)" fill="#fff"/>
    <path id="Path_2195" data-name="Path 2195" d="M13.178,26.919A4.114,4.114,0,1,0,9.069,22.81,4.109,4.109,0,0,0,13.178,26.919Z" transform="translate(80.599 167.939)" fill="#fff"/>
    <path id="Path_2196" data-name="Path 2196" d="M11.9,21.2a1.116,1.116,0,1,0-1.116-1.116A1.122,1.122,0,0,0,11.9,21.2Z" transform="translate(97.321 170.663)" fill="#fff"/>
    <path id="Path_2197" data-name="Path 2197" d="M15.134,24.955a3.084,3.084,0,1,0-3.09-3.079A3.088,3.088,0,0,0,15.134,24.955Z" transform="translate(109.54 168.873)" fill="#fff"/>
    <path id="Path_2198" data-name="Path 2198" d="M15.329,22.336a1.711,1.711,0,1,0-1.717-1.706A1.712,1.712,0,0,0,15.329,22.336Z" transform="translate(124.794 170.118)" fill="#fff"/>
    <path id="Path_2199" data-name="Path 2199" d="M18.432,25.855A3.556,3.556,0,1,0,14.881,22.3,3.542,3.542,0,0,0,18.432,25.855Z" transform="translate(137.139 168.445)" fill="#fff"/>
    <path id="Path_2200" data-name="Path 2200" d="M17.576,21.038a1.03,1.03,0,1,0-1.019-1.03A1.03,1.03,0,0,0,17.576,21.038Z" transform="translate(153.444 170.741)" fill="#fff"/>
    <path id="Path_2201" data-name="Path 2201" d="M20.923,25.037A3.127,3.127,0,1,0,17.8,21.915,3.134,3.134,0,0,0,20.923,25.037Z" transform="translate(165.546 168.834)" fill="#fff"/>
    <path id="Path_2202" data-name="Path 2202" d="M22.373,25.037a3.127,3.127,0,1,0-3.133-3.122A3.125,3.125,0,0,0,22.373,25.037Z" transform="translate(179.545 168.834)" fill="#fff"/>
    <path id="Path_2203" data-name="Path 2203" d="M21.128,19.4a.172.172,0,1,0,0-.343.172.172,0,1,0,0,.343Z" transform="translate(196.238 171.519)" fill="#fff"/>
    <path id="Path_2204" data-name="Path 2204" d="M6.26,22.887a1.244,1.244,0,1,0-1.244-1.244A1.245,1.245,0,0,0,6.26,22.887Z" transform="translate(41.17 184.555)" fill="#fff"/>
    <path id="Path_2205" data-name="Path 2205" d="M7.389,22.232a.9.9,0,1,0-.9-.9A.907.907,0,0,0,7.389,22.232Z" transform="translate(55.49 184.866)" fill="#fff"/>
    <path id="Path_2206" data-name="Path 2206" d="M10.736,26.231a3,3,0,1,0-3-2.993A3,3,0,0,0,10.736,26.231Z" transform="translate(67.592 182.959)" fill="#fff"/>
    <circle id="Ellipse_357" data-name="Ellipse 357" cx="5.312" cy="5.312" r="5.312" transform="translate(88.466 200.882)" fill="#fff"/>
    <circle id="Ellipse_358" data-name="Ellipse 358" cx="2.098" cy="2.098" r="2.098" transform="translate(107.128 204.096)" fill="#fff"/>
    <circle id="Ellipse_359" data-name="Ellipse 359" cx="1.027" cy="1.027" r="1.027" transform="translate(123.647 205.167)" fill="#fff"/>
    <path id="Path_2207" data-name="Path 2207" d="M17.965,29.331a4.624,4.624,0,1,0-4.624-4.624A4.617,4.617,0,0,0,17.965,29.331Z" transform="translate(122.158 181.49)" fill="#fff"/>
    <path id="Path_2208" data-name="Path 2208" d="M17.391,25.086a2.4,2.4,0,0,0,0-4.8,2.4,2.4,0,1,0,0,4.8Z" transform="translate(138.18 183.504)" fill="#fff"/>
    <path id="Path_2209" data-name="Path 2209" d="M18.782,25a2.355,2.355,0,1,0-2.349-2.349A2.358,2.358,0,0,0,18.782,25Z" transform="translate(152.237 183.543)" fill="#fff"/>
    <path id="Path_2210" data-name="Path 2210" d="M20.232,25a2.355,2.355,0,1,0-2.36-2.349A2.349,2.349,0,0,0,20.232,25Z" transform="translate(166.236 183.543)" fill="#fff"/>
    <circle id="Ellipse_360" data-name="Ellipse 360" cx="3.898" cy="3.898" r="3.898" transform="translate(198.022 202.296)" fill="#fff"/>
    <circle id="Ellipse_361" data-name="Ellipse 361" cx="0.042" cy="0.042" r="0.042" transform="translate(217.321 206.152)" fill="#fff"/>
    <path id="Path_2211" data-name="Path 2211" d="M6.728,22.281a.172.172,0,1,0-.172-.172A.169.169,0,0,0,6.728,22.281Z" transform="translate(56.151 199.536)" fill="#fff"/>
    <path id="Path_2212" data-name="Path 2212" d="M8.712,23.416a.767.767,0,1,0-.772-.762A.767.767,0,0,0,8.712,23.416Z" transform="translate(69.615 198.991)" fill="#fff"/>
    <path id="Path_2213" data-name="Path 2213" d="M11.359,25.953a2.1,2.1,0,1,0-2.1-2.092A2.095,2.095,0,0,0,11.359,25.953Z" transform="translate(82.418 197.785)" fill="#fff"/>
    <path id="Path_2214" data-name="Path 2214" d="M15.63,31.906A5.219,5.219,0,1,0,10.4,26.692,5.215,5.215,0,0,0,15.63,31.906Z" transform="translate(93.596 194.954)" fill="#fff"/>
    <path id="Path_2215" data-name="Path 2215" d="M17.07,31.906a5.219,5.219,0,1,0-5.225-5.214A5.215,5.215,0,0,0,17.07,31.906Z" transform="translate(107.604 194.954)" fill="#fff"/>
    <path id="Path_2216" data-name="Path 2216" d="M15.251,25.053a1.625,1.625,0,1,0-1.631-1.62A1.628,1.628,0,0,0,15.251,25.053Z" transform="translate(124.872 198.213)" fill="#fff"/>
    <path id="Path_2217" data-name="Path 2217" d="M16.574,24.808a1.5,1.5,0,1,0-1.5-1.5A1.506,1.506,0,0,0,16.574,24.808Z" transform="translate(138.997 198.34)" fill="#fff"/>
    <path id="Path_2218" data-name="Path 2218" d="M18,24.808a1.5,1.5,0,1,0,0-2.993,1.5,1.5,0,0,0,0,2.993Z" transform="translate(153.016 198.34)" fill="#fff"/>
    <path id="Path_2219" data-name="Path 2219" d="M20.884,27.835a3.084,3.084,0,1,0-3.079-3.079A3.088,3.088,0,0,0,20.884,27.835Z" transform="translate(165.585 196.89)" fill="#fff"/>
    <path id="Path_2220" data-name="Path 2220" d="M9.724,23.967a.307.307,0,0,0,.3-.3.3.3,0,0,0-.6,0A.307.307,0,0,0,9.724,23.967Z" transform="translate(84.052 213.428)" fill="#fff"/>
    <path id="Path_2221" data-name="Path 2221" d="M16.963,27.065a1.926,1.926,0,1,0-1.931-1.92A1.928,1.928,0,0,0,16.963,27.065Z" transform="translate(138.608 211.95)" fill="#fff"/>
    <path id="Path_2222" data-name="Path 2222" d="M16.847,23.8a.215.215,0,1,0-.215-.215A.215.215,0,0,0,16.847,23.8Z" transform="translate(154.173 213.506)" fill="#fff"/>
    <path id="Path_2223" data-name="Path 2223" d="M18.637,24.529a.582.582,0,0,0,.59-.59.591.591,0,0,0-.59-.6.6.6,0,0,0-.6.6A.591.591,0,0,0,18.637,24.529Z" transform="translate(167.832 213.156)" fill="#fff"/>
  </g>
</svg>
