<svg xmlns="http://www.w3.org/2000/svg" width="22" height="20" viewBox="0 0 22 20">
  <g id="Credits_Icon" data-name="Credits Icon" transform="translate(-31 -547)">
    <rect id="Rectangle_120" data-name="Rectangle 120" width="22" height="20" rx="3" transform="translate(31 547)" fill="#16b37e"/>
    <g id="Group_17754" data-name="Group 17754" transform="translate(35.222 552.417)">
      <path id="Path_10005" data-name="Path 10005" d="M43,122.219a.555.555,0,0,1,.543-.26q5.884.008,11.769,0c.457,0,.557.1.557.573,0,.311,0,.622,0,.932a.6.6,0,0,1-.028.1H43Z" transform="translate(-43 -121.959)" fill="#fff"/>
      <path id="Path_10006" data-name="Path 10006" d="M43,172.327v5.689a.327.327,0,0,0,.206.3,1.141,1.141,0,0,0,.406.107q5.836.017,11.672.008c.487,0,.586-.1.586-.577q0-2.765,0-5.53h0a.327.327,0,0,0-.327-.327H43.327A.327.327,0,0,0,43,172.327Zm2.868,4.48H44.95a.327.327,0,0,1-.327-.327v-.921a.326.326,0,0,1,.327-.327h.918a.327.327,0,0,1,.327.327v.921A.327.327,0,0,1,45.868,176.806Zm3.23,0h-.929a.327.327,0,0,1-.327-.327v-.914a.327.327,0,0,1,.327-.327H49.1a.327.327,0,0,1,.327.327v.914A.327.327,0,0,1,49.1,176.808Z" transform="translate(-43 -168.78)" fill="#fff"/>
    </g>
  </g>
</svg>
