<svg xmlns="http://www.w3.org/2000/svg" width="22" height="20" viewBox="0 0 22 20">
  <g id="Post_a_Banner_icon" data-name="Post a Banner icon" transform="translate(-31 -330)">
    <rect id="Rectangle_116" data-name="Rectangle 116" width="22" height="20" rx="3" transform="translate(31 330)" fill="#6fad38"/>
    <path id="Path_148" data-name="Path 148" d="M11.495,0a.784.784,0,0,1,.513.205.732.732,0,0,1,.308.616v7.7a.784.784,0,0,1-.205.513,1.1,1.1,0,0,1-.616.205H.821a1.1,1.1,0,0,1-.616-.205A1.1,1.1,0,0,1,0,8.416V.821A.784.784,0,0,1,.205.308.732.732,0,0,1,.821,0ZM3.489,1.847a1.165,1.165,0,0,0-.821-.308,1.165,1.165,0,0,0-.821.308,1.165,1.165,0,0,0-.308.821,1.165,1.165,0,0,0,.308.821,1.165,1.165,0,0,0,.821.308,1.165,1.165,0,0,0,.821-.308A1.165,1.165,0,0,0,3.8,2.668,1.165,1.165,0,0,0,3.489,1.847ZM10.776,7.7,7.7,3.079,4.926,6.671,3.079,5.337,1.539,7.7Z" transform="translate(35.464 335.598)" fill="#fff"/>
  </g>
</svg>
