<svg xmlns="http://www.w3.org/2000/svg" width="22" height="20" viewBox="0 0 22 20">
  <g id="Subscribe_a_Plan_Icon" data-name="Subscribe a Plan Icon" transform="translate(-31 -493)">
    <rect id="Rectangle_120" data-name="Rectangle 120" width="22" height="20" rx="3" transform="translate(31 493)" fill="#2665d2"/>
    <g id="Group_27" data-name="Group 27" transform="translate(36.266 497.373)">
      <path id="Subtraction_6" data-name="Subtraction 6" d="M5.852,0A1.075,1.075,0,0,0,5.42.091a1.306,1.306,0,0,0-.4.275L4.5.887C3.279,2.1,2.019,3.35.794,4.6a2.7,2.7,0,0,0-.583.885A2.95,2.95,0,0,0,0,6.529C0,6.869,0,7.215,0,7.55c0,.15,0,.306,0,.459H.011c0,.165,0,.332,0,.494,0,.373,0,.758,0,1.137a.806.806,0,0,0,.193.549.706.706,0,0,0,.529.211c.254,0,.512.005.762.009.361.005.734.01,1.1.01.639,0,1.16-.016,1.639-.051a2.565,2.565,0,0,0,.925-.246,2.831,2.831,0,0,0,.784-.564c1.377-1.387,2.777-2.812,4.093-4.152a1.212,1.212,0,0,0,.384-.855,1.227,1.227,0,0,0-.4-.854C8.93,2.6,7.807,1.479,6.689.37a1.327,1.327,0,0,0-.4-.278A1.083,1.083,0,0,0,5.852,0ZM2.53,8.918h0A1.038,1.038,0,0,1,1.477,7.874a1.05,1.05,0,0,1,.313-.746,1.034,1.034,0,0,1,.734-.311h0A1.075,1.075,0,0,1,3.585,7.87a1.03,1.03,0,0,1-.305.735,1.051,1.051,0,0,1-.749.313Z" transform="translate(12.441 10.628) rotate(180)" fill="#fff" stroke="rgba(0,0,0,0)" stroke-width="1"/>
      <path id="Path_1055" data-name="Path 1055" d="M287.763,478.238a2.416,2.416,0,0,1-.253-.195q-1.754-1.749-3.5-3.5a.941.941,0,0,1,0-1.516q2.519-2.521,5.04-5.041c.07-.07.143-.138.28-.269a3.645,3.645,0,0,0-.964.172,3.33,3.33,0,0,0-1.32.813q-1.973,1.978-3.955,3.947a1.436,1.436,0,0,0,.005,2.322c.9.892,1.8,1.791,2.707,2.675A2.142,2.142,0,0,0,287.763,478.238Z" transform="translate(-282.499 -467.715)" fill="#fff"/>
    </g>
  </g>
</svg>
