<svg xmlns="http://www.w3.org/2000/svg" width="358.294" height="338.63" viewBox="0 0 358.294 338.63">
  <g id="Group_497" data-name="Group 497" transform="translate(-0.784 -1.427)" opacity="0.32">
    <path id="Path_2042" data-name="Path 2042" d="M14.7,12.65A5.612,5.612,0,1,0,9.085,7.039,5.606,5.606,0,0,0,14.7,12.65Z" transform="translate(118.628 0)" fill="#fff"/>
    <path id="Path_2043" data-name="Path 2043" d="M16.137,12.65a5.612,5.612,0,1,0-5.612-5.612A5.606,5.606,0,0,0,16.137,12.65Z" transform="translate(139.206 0)" fill="#fff"/>
    <path id="Path_2044" data-name="Path 2044" d="M17.577,12.65a5.612,5.612,0,1,0-5.612-5.612A5.606,5.606,0,0,0,17.577,12.65Z" transform="translate(159.785 0)" fill="#fff"/>
    <path id="Path_2045" data-name="Path 2045" d="M13.886,2.031a.121.121,0,0,0,.122-.122.122.122,0,1,0-.245,0A.121.121,0,0,0,13.886,2.031Z" transform="translate(185.494 5.13)" fill="#fff"/>
    <path id="Path_2046" data-name="Path 2046" d="M20.4,12.532a5.551,5.551,0,1,0-5.551-5.551A5.54,5.54,0,0,0,20.4,12.532Z" transform="translate(201 0.057)" fill="#fff"/>
    <path id="Path_2047" data-name="Path 2047" d="M19.782,8.3a3.364,3.364,0,1,0-3.349-3.364A3.374,3.374,0,0,0,19.782,8.3Z" transform="translate(223.636 2.101)" fill="#fff"/>
    <path id="Path_2048" data-name="Path 2048" d="M18.892,3.451a.842.842,0,0,0,.841-.856.842.842,0,0,0-.841-.856.856.856,0,0,0,0,1.713Z" transform="translate(246.545 4.444)" fill="#fff"/>
    <path id="Path_2049" data-name="Path 2049" d="M10.32,13.987A5.558,5.558,0,1,0,4.769,8.422,5.553,5.553,0,0,0,10.32,13.987Z" transform="translate(56.949 20.636)" fill="#fff"/>
    <path id="Path_2050" data-name="Path 2050" d="M7.83,5.837A1.346,1.346,0,1,0,6.484,4.492,1.348,1.348,0,0,0,7.83,5.837Z" transform="translate(81.457 24.566)" fill="#fff"/>
    <path id="Path_2051" data-name="Path 2051" d="M10.913,9.269a3.119,3.119,0,1,0-3.1-3.119A3.113,3.113,0,0,0,10.913,9.269Z" transform="translate(100.393 22.908)" fill="#fff"/>
    <path id="Path_2052" data-name="Path 2052" d="M14.7,14.106A5.619,5.619,0,1,0,9.085,8.479,5.619,5.619,0,0,0,14.7,14.106Z" transform="translate(118.628 20.579)" fill="#fff"/>
    <path id="Path_2053" data-name="Path 2053" d="M11.521,4.536a.673.673,0,0,0,0-1.346.673.673,0,1,0,0,1.346Z" transform="translate(143.822 25.195)" fill="#fff"/>
    <path id="Path_2054" data-name="Path 2054" d="M13.532,5.7a1.279,1.279,0,0,0,1.284-1.269,1.284,1.284,0,0,0-2.569,0A1.279,1.279,0,0,0,13.532,5.7Z" transform="translate(163.83 24.623)" fill="#fff"/>
    <path id="Path_2055" data-name="Path 2055" d="M13.944,3.589a.183.183,0,1,0-.184-.183A.2.2,0,0,0,13.944,3.589Z" transform="translate(185.437 25.652)" fill="#fff"/>
    <path id="Path_2056" data-name="Path 2056" d="M16.755,6.429A1.651,1.651,0,1,0,15.1,4.777,1.645,1.645,0,0,0,16.755,6.429Z" transform="translate(204.644 24.28)" fill="#fff"/>
    <path id="Path_2057" data-name="Path 2057" d="M20.925,12.079a4.572,4.572,0,1,0-4.572-4.572A4.575,4.575,0,0,0,20.925,12.079Z" transform="translate(222.493 21.55)" fill="#fff"/>
    <path id="Path_2058" data-name="Path 2058" d="M19.007,5.127a.979.979,0,1,0-.979-.979A.976.976,0,0,0,19.007,5.127Z" transform="translate(246.43 24.909)" fill="#fff"/>
    <path id="Path_2059" data-name="Path 2059" d="M19.818,3.826a.306.306,0,1,0,0-.612.306.306,0,1,0,0,.612Z" transform="translate(267.638 25.538)" fill="#fff"/>
    <path id="Path_2060" data-name="Path 2060" d="M3.052,6.315a.842.842,0,0,0,.856-.841.856.856,0,0,0-1.713,0A.842.842,0,0,0,3.052,6.315Z" transform="translate(20.179 45.602)" fill="#fff"/>
    <path id="Path_2061" data-name="Path 2061" d="M8.262,11.182A3.364,3.364,0,1,0,4.913,7.818,3.374,3.374,0,0,0,8.262,11.182Z" transform="translate(59.007 43.258)" fill="#fff"/>
    <path id="Path_2062" data-name="Path 2062" d="M10.731,13.3a4.457,4.457,0,1,0-4.45-4.465A4.457,4.457,0,0,0,10.731,13.3Z" transform="translate(78.556 42.244)" fill="#fff"/>
    <path id="Path_2063" data-name="Path 2063" d="M11.2,11.285a3.417,3.417,0,1,0-3.41-3.41A3.407,3.407,0,0,0,11.2,11.285Z" transform="translate(100.107 43.201)" fill="#fff"/>
    <path id="Path_2064" data-name="Path 2064" d="M16.469,19.2a7.508,7.508,0,1,0-7.508-7.508A7.511,7.511,0,0,0,16.469,19.2Z" transform="translate(116.856 39.385)" fill="#fff"/>
    <path id="Path_2065" data-name="Path 2065" d="M18.823,21.092a8.486,8.486,0,1,0-8.486-8.486A8.487,8.487,0,0,0,18.823,21.092Z" transform="translate(136.52 38.471)" fill="#fff"/>
    <circle id="Ellipse_343" data-name="Ellipse 343" cx="5.738" cy="5.738" r="5.738" transform="translate(171.624 45.336)" fill="#fff"/>
    <path id="Path_2066" data-name="Path 2066" d="M19.131,15.767A5.734,5.734,0,1,0,13.4,10.033,5.726,5.726,0,0,0,19.131,15.767Z" transform="translate(180.25 41.043)" fill="#fff"/>
    <path id="Path_2067" data-name="Path 2067" d="M16.755,7.869A1.651,1.651,0,1,0,15.1,6.217,1.654,1.654,0,0,0,16.755,7.869Z" transform="translate(204.644 44.859)" fill="#fff"/>
    <circle id="Ellipse_344" data-name="Ellipse 344" cx="1.463" cy="1.463" r="1.463" transform="translate(241.959 49.61)" fill="#fff"/>
    <path id="Path_2068" data-name="Path 2068" d="M25.066,19.08A7.447,7.447,0,1,0,17.6,11.634,7.446,7.446,0,0,0,25.066,19.08Z" transform="translate(240.371 39.443)" fill="#fff"/>
    <path id="Path_2069" data-name="Path 2069" d="M20.447,6.567a.979.979,0,1,0-.979-.979A.985.985,0,0,0,20.447,6.567Z" transform="translate(267.009 45.488)" fill="#fff"/>
    <path id="Path_2070" data-name="Path 2070" d="M2.538,6.706A.306.306,0,1,0,2.232,6.4.307.307,0,0,0,2.538,6.706Z" transform="translate(20.693 66.695)" fill="#fff"/>
    <path id="Path_2071" data-name="Path 2071" d="M5.35,9.53A1.766,1.766,0,1,0,3.576,7.772,1.762,1.762,0,0,0,5.35,9.53Z" transform="translate(39.9 65.323)" fill="#fff"/>
    <path id="Path_2072" data-name="Path 2072" d="M9.176,14.5a4.335,4.335,0,1,0-4.327-4.327A4.327,4.327,0,0,0,9.176,14.5Z" transform="translate(58.092 62.922)" fill="#fff"/>
    <path id="Path_2073" data-name="Path 2073" d="M12.788,18.982A6.651,6.651,0,1,0,6.137,12.33,6.646,6.646,0,0,0,12.788,18.982Z" transform="translate(76.499 60.764)" fill="#fff"/>
    <path id="Path_2074" data-name="Path 2074" d="M13.428,17.34a5.8,5.8,0,1,0-5.8-5.8A5.792,5.792,0,0,0,13.428,17.34Z" transform="translate(97.878 61.55)" fill="#fff"/>
    <path id="Path_2075" data-name="Path 2075" d="M13.839,15.211A4.7,4.7,0,1,0,9.145,10.5,4.7,4.7,0,0,0,13.839,15.211Z" transform="translate(119.485 62.594)" fill="#fff"/>
    <path id="Path_2076" data-name="Path 2076" d="M17.852,20.536A7.454,7.454,0,1,0,10.4,13.074,7.459,7.459,0,0,0,17.852,20.536Z" transform="translate(137.492 60.021)" fill="#fff"/>
    <path id="Path_2077" data-name="Path 2077" d="M19.177,20.284a7.324,7.324,0,1,0-7.324-7.324A7.315,7.315,0,0,0,19.177,20.284Z" transform="translate(158.185 60.136)" fill="#fff"/>
    <path id="Path_2078" data-name="Path 2078" d="M19.245,17.458A5.864,5.864,0,1,0,13.389,11.6,5.857,5.857,0,0,0,19.245,17.458Z" transform="translate(180.135 61.493)" fill="#fff"/>
    <path id="Path_2079" data-name="Path 2079" d="M21.943,20.047a7.2,7.2,0,1,0-7.2-7.2A7.208,7.208,0,0,0,21.943,20.047Z" transform="translate(199.456 60.25)" fill="#fff"/>
    <path id="Path_2080" data-name="Path 2080" d="M21.4,15.92a5.069,5.069,0,1,0-5.077-5.061A5.057,5.057,0,0,0,21.4,15.92Z" transform="translate(222.022 62.236)" fill="#fff"/>
    <path id="Path_2081" data-name="Path 2081" d="M20.879,11.912a3,3,0,1,0-2.982-3A3,3,0,0,0,20.879,11.912Z" transform="translate(244.558 64.18)" fill="#fff"/>
    <path id="Path_2082" data-name="Path 2082" d="M19.989,7.061a.5.5,0,0,0,.5-.489.5.5,0,0,0-.994,0A.493.493,0,0,0,19.989,7.061Z" transform="translate(267.466 66.524)" fill="#fff"/>
    <path id="Path_2083" data-name="Path 2083" d="M21.887,8.007a.979.979,0,1,0-.979-.979A.976.976,0,0,0,21.887,8.007Z" transform="translate(287.588 66.066)" fill="#fff"/>
    <path id="Path_2084" data-name="Path 2084" d="M3.167,9.447a.979.979,0,1,0-.979-.979A.985.985,0,0,0,3.167,9.447Z" transform="translate(20.064 86.645)" fill="#fff"/>
    <path id="Path_2085" data-name="Path 2085" d="M5.693,11.68A2.133,2.133,0,1,0,3.552,9.555,2.134,2.134,0,0,0,5.693,11.68Z" transform="translate(39.557 85.559)" fill="#fff"/>
    <path id="Path_2086" data-name="Path 2086" d="M8.319,14.165a3.417,3.417,0,1,0-3.41-3.41A3.4,3.4,0,0,0,8.319,14.165Z" transform="translate(58.949 84.358)" fill="#fff"/>
    <path id="Path_2087" data-name="Path 2087" d="M8.287,11.09A1.827,1.827,0,1,0,6.452,9.255,1.84,1.84,0,0,0,8.287,11.09Z" transform="translate(81 85.859)" fill="#fff"/>
    <path id="Path_2088" data-name="Path 2088" d="M11.728,15.216a3.96,3.96,0,1,0-3.976-3.96A3.961,3.961,0,0,0,11.728,15.216Z" transform="translate(99.578 83.858)" fill="#fff"/>
    <path id="Path_2089" data-name="Path 2089" d="M16.126,21.369a7.141,7.141,0,1,0-7.141-7.141A7.129,7.129,0,0,0,16.126,21.369Z" transform="translate(117.199 80.886)" fill="#fff"/>
    <path id="Path_2090" data-name="Path 2090" d="M17.794,21.842a7.385,7.385,0,1,0-7.385-7.385A7.381,7.381,0,0,0,17.794,21.842Z" transform="translate(137.549 80.657)" fill="#fff"/>
    <path id="Path_2091" data-name="Path 2091" d="M19.292,21.96a7.447,7.447,0,1,0-7.447-7.447A7.446,7.446,0,0,0,19.292,21.96Z" transform="translate(158.07 80.6)" fill="#fff"/>
    <path id="Path_2092" data-name="Path 2092" d="M19.989,20.422a6.651,6.651,0,1,0-6.652-6.651A6.637,6.637,0,0,0,19.989,20.422Z" transform="translate(179.392 81.343)" fill="#fff"/>
    <path id="Path_2093" data-name="Path 2093" d="M20.814,19.12a5.979,5.979,0,1,0-5.994-5.979A5.968,5.968,0,0,0,20.814,19.12Z" transform="translate(200.585 81.972)" fill="#fff"/>
    <path id="Path_2094" data-name="Path 2094" d="M18.824,12.05A2.324,2.324,0,1,0,16.5,9.726,2.323,2.323,0,0,0,18.824,12.05Z" transform="translate(224.594 85.387)" fill="#fff"/>
    <circle id="Ellipse_345" data-name="Ellipse 345" cx="5.555" cy="5.555" r="5.555" transform="translate(259.879 89.554)" fill="#fff"/>
    <path id="Path_2095" data-name="Path 2095" d="M21,10.63a1.59,1.59,0,1,0-1.575-1.59A1.589,1.589,0,0,0,21,10.63Z" transform="translate(266.452 86.073)" fill="#fff"/>
    <path id="Path_2096" data-name="Path 2096" d="M27.932,21.96a7.447,7.447,0,1,0-7.447-7.447A7.446,7.446,0,0,0,27.932,21.96Z" transform="translate(281.543 80.6)" fill="#fff"/>
    <path id="Path_2097" data-name="Path 2097" d="M23.212,9.211a.856.856,0,1,0-.856-.856A.855.855,0,0,0,23.212,9.211Z" transform="translate(308.281 86.759)" fill="#fff"/>
    <path id="Path_2098" data-name="Path 2098" d="M4.824,14.319a2.752,2.752,0,1,0-2.752-2.752A2.751,2.751,0,0,0,4.824,14.319Z" transform="translate(18.407 105.566)" fill="#fff"/>
    <path id="Path_2099" data-name="Path 2099" d="M5.921,13.593a2.378,2.378,0,1,0-2.385-2.37A2.375,2.375,0,0,0,5.921,13.593Z" transform="translate(39.328 105.909)" fill="#fff"/>
    <path id="Path_2100" data-name="Path 2100" d="M10.32,19.732a5.551,5.551,0,1,0-5.551-5.551A5.55,5.55,0,0,0,10.32,19.732Z" transform="translate(56.949 102.951)" fill="#fff"/>
    <path id="Path_2101" data-name="Path 2101" d="M8.859,13.712a2.439,2.439,0,1,0-2.447-2.431A2.441,2.441,0,0,0,8.859,13.712Z" transform="translate(80.429 105.852)" fill="#fff"/>
    <path id="Path_2102" data-name="Path 2102" d="M11.156,15.5a3.364,3.364,0,1,0-3.364-3.364A3.361,3.361,0,0,0,11.156,15.5Z" transform="translate(100.15 104.994)" fill="#fff"/>
    <path id="Path_2103" data-name="Path 2103" d="M13.668,17.735a4.518,4.518,0,1,0-4.511-4.511A4.522,4.522,0,0,0,13.668,17.735Z" transform="translate(119.657 103.908)" fill="#fff"/>
    <circle id="Ellipse_346" data-name="Ellipse 346" cx="6.286" cy="6.286" r="6.286" transform="translate(149.058 110.848)" fill="#fff"/>
    <path id="Path_2104" data-name="Path 2104" d="M17.863,20.456a5.925,5.925,0,1,0-5.918-5.918A5.912,5.912,0,0,0,17.863,20.456Z" transform="translate(159.499 102.594)" fill="#fff"/>
    <path id="Path_2105" data-name="Path 2105" d="M18.331,18.431a4.878,4.878,0,1,0-4.878-4.878A4.885,4.885,0,0,0,18.331,18.431Z" transform="translate(181.05 103.58)" fill="#fff"/>
    <path id="Path_2106" data-name="Path 2106" d="M19.771,18.431a4.878,4.878,0,1,0-4.878-4.878A4.862,4.862,0,0,0,19.771,18.431Z" transform="translate(201.629 103.58)" fill="#fff"/>
    <circle id="Ellipse_347" data-name="Ellipse 347" cx="2.867" cy="2.867" r="2.867" transform="translate(240.556 114.267)" fill="#fff"/>
    <path id="Path_2107" data-name="Path 2107" d="M22.193,17.484A4.388,4.388,0,1,0,17.805,13.1,4.392,4.392,0,0,0,22.193,17.484Z" transform="translate(243.243 104.037)" fill="#fff"/>
    <path id="Path_2108" data-name="Path 2108" d="M22.719,15.606a3.418,3.418,0,1,0,0-6.835,3.418,3.418,0,0,0,0,6.835Z" transform="translate(264.737 104.951)" fill="#fff"/>
    <path id="Path_2109" data-name="Path 2109" d="M25.016,17.366a4.327,4.327,0,1,0-4.327-4.327A4.336,4.336,0,0,0,25.016,17.366Z" transform="translate(284.458 104.094)" fill="#fff"/>
    <circle id="Ellipse_348" data-name="Ellipse 348" cx="3.36" cy="3.36" r="3.36" transform="translate(328.135 113.775)" fill="#fff"/>
    <path id="Path_2110" data-name="Path 2110" d="M8.468,23.3a6.651,6.651,0,1,0-6.651-6.651A6.637,6.637,0,0,0,8.468,23.3Z" transform="translate(14.762 122.501)" fill="#fff"/>
    <path id="Path_2111" data-name="Path 2111" d="M9.851,23.184a6.59,6.59,0,1,0-6.59-6.59A6.591,6.591,0,0,0,9.851,23.184Z" transform="translate(35.398 122.558)" fill="#fff"/>
    <path id="Path_2112" data-name="Path 2112" d="M9.233,18.954a4.4,4.4,0,1,0-4.388-4.4A4.392,4.392,0,0,0,9.233,18.954Z" transform="translate(58.035 124.601)" fill="#fff"/>
    <path id="Path_2113" data-name="Path 2113" d="M9.087,15.611A2.676,2.676,0,1,0,6.4,12.935,2.682,2.682,0,0,0,9.087,15.611Z" transform="translate(80.2 126.216)" fill="#fff"/>
    <path id="Path_2114" data-name="Path 2114" d="M11.042,16.676A3.226,3.226,0,1,0,7.8,13.449,3.23,3.23,0,0,0,11.042,16.676Z" transform="translate(100.264 125.702)" fill="#fff"/>
    <circle id="Ellipse_349" data-name="Ellipse 349" cx="3.419" cy="3.419" r="3.419" transform="translate(129.908 135.726)" fill="#fff"/>
    <path id="Path_2115" data-name="Path 2115" d="M15.508,20.018a4.954,4.954,0,1,0-4.939-4.954A4.95,4.95,0,0,0,15.508,20.018Z" transform="translate(139.835 124.087)" fill="#fff"/>
    <path id="Path_2116" data-name="Path 2116" d="M17.062,20.255A5.077,5.077,0,1,0,12,15.179,5.084,5.084,0,0,0,17.062,20.255Z" transform="translate(160.3 123.973)" fill="#fff"/>
    <path id="Path_2117" data-name="Path 2117" d="M20.046,23.42a6.713,6.713,0,1,0-6.713-6.713A6.7,6.7,0,0,0,20.046,23.42Z" transform="translate(179.335 122.443)" fill="#fff"/>
    <path id="Path_2118" data-name="Path 2118" d="M20.914,22.237a6.1,6.1,0,1,0-6.1-6.1A6.1,6.1,0,0,0,20.914,22.237Z" transform="translate(200.485 123.015)" fill="#fff"/>
    <path id="Path_2119" data-name="Path 2119" d="M21.782,21.068a5.5,5.5,0,1,0-5.489-5.489A5.488,5.488,0,0,0,21.782,21.068Z" transform="translate(221.636 123.572)" fill="#fff"/>
    <path id="Path_2120" data-name="Path 2120" d="M22.822,20.255a5.077,5.077,0,1,0-5.061-5.077A5.084,5.084,0,0,0,22.822,20.255Z" transform="translate(242.615 123.973)" fill="#fff"/>
    <path id="Path_2121" data-name="Path 2121" d="M20.5,12.446a1.04,1.04,0,1,0-1.04-1.04A1.041,1.041,0,0,0,20.5,12.446Z" transform="translate(266.952 127.745)" fill="#fff"/>
    <path id="Path_2122" data-name="Path 2122" d="M22.515,13.629a1.651,1.651,0,1,0,0-3.3,1.651,1.651,0,1,0,0,3.3Z" transform="translate(286.959 127.174)" fill="#fff"/>
    <path id="Path_2123" data-name="Path 2123" d="M25.556,16.912a3.349,3.349,0,1,0-3.364-3.349A3.351,3.351,0,0,0,25.556,16.912Z" transform="translate(305.937 125.587)" fill="#fff"/>
    <path id="Path_2124" data-name="Path 2124" d="M29.054,21.186a5.558,5.558,0,1,0-5.566-5.551A5.553,5.553,0,0,0,29.054,21.186Z" transform="translate(324.458 123.515)" fill="#fff"/>
    <path id="Path_2125" data-name="Path 2125" d="M9.212,26.28a7.447,7.447,0,1,0-7.447-7.447A7.436,7.436,0,0,0,9.212,26.28Z" transform="translate(14.019 142.336)" fill="#fff"/>
    <path id="Path_2126" data-name="Path 2126" d="M6.479,17.642A2.982,2.982,0,1,0,3.5,14.661,2.989,2.989,0,0,0,6.479,17.642Z" transform="translate(38.771 146.509)" fill="#fff"/>
    <path id="Path_2127" data-name="Path 2127" d="M8.547,18.944a3.654,3.654,0,1,0-3.654-3.654A3.658,3.658,0,0,0,8.547,18.944Z" transform="translate(58.721 145.88)" fill="#fff"/>
    <path id="Path_2128" data-name="Path 2128" d="M13.7,26.635a7.63,7.63,0,1,0-7.63-7.63A7.632,7.632,0,0,0,13.7,26.635Z" transform="translate(75.584 142.165)" fill="#fff"/>
    <path id="Path_2129" data-name="Path 2129" d="M13.314,22.849a5.673,5.673,0,1,0-5.673-5.673A5.671,5.671,0,0,0,13.314,22.849Z" transform="translate(97.992 143.994)" fill="#fff"/>
    <path id="Path_2130" data-name="Path 2130" d="M15.154,23.677a6.1,6.1,0,1,0-6.1-6.1A6.089,6.089,0,0,0,15.154,23.677Z" transform="translate(118.17 143.594)" fill="#fff"/>
    <path id="Path_2131" data-name="Path 2131" d="M16.708,23.914a6.223,6.223,0,1,0-6.223-6.223A6.219,6.219,0,0,0,16.708,23.914Z" transform="translate(138.635 143.479)" fill="#fff"/>
    <circle id="Ellipse_350" data-name="Ellipse 350" cx="4.334" cy="4.334" r="4.334" transform="translate(173.028 156.836)" fill="#fff"/>
    <path id="Path_2132" data-name="Path 2132" d="M18.517,21.666A5.061,5.061,0,1,0,13.44,16.6,5.057,5.057,0,0,0,18.517,21.666Z" transform="translate(180.864 144.566)" fill="#fff"/>
    <path id="Path_2133" data-name="Path 2133" d="M20.743,23.352a5.933,5.933,0,1,0-5.918-5.933A5.938,5.938,0,0,0,20.743,23.352Z" transform="translate(200.657 143.751)" fill="#fff"/>
    <path id="Path_2134" data-name="Path 2134" d="M21.782,22.494A5.489,5.489,0,1,0,16.293,17,5.5,5.5,0,0,0,21.782,22.494Z" transform="translate(221.636 144.165)" fill="#fff"/>
    <path id="Path_2135" data-name="Path 2135" d="M23.737,23.574a6.048,6.048,0,1,0-6.04-6.055A6.046,6.046,0,0,0,23.737,23.574Z" transform="translate(241.7 143.651)" fill="#fff"/>
    <path id="Path_2136" data-name="Path 2136" d="M25.92,25.1a6.835,6.835,0,1,0-6.835-6.835A6.832,6.832,0,0,0,25.92,25.1Z" transform="translate(261.536 142.908)" fill="#fff"/>
    <path id="Path_2137" data-name="Path 2137" d="M21.544,13.057a.612.612,0,1,0-.612-.612A.613.613,0,0,0,21.544,13.057Z" transform="translate(287.931 148.724)" fill="#fff"/>
    <circle id="Ellipse_351" data-name="Ellipse 351" cx="1.642" cy="1.642" r="1.642" transform="translate(329.852 159.528)" fill="#fff"/>
    <path id="Path_2138" data-name="Path 2138" d="M1.212,14.142a.427.427,0,0,0,.428-.428.418.418,0,0,0-.428-.428.418.418,0,0,0-.428.428A.427.427,0,0,0,1.212,14.142Z" transform="translate(0 169.474)" fill="#fff"/>
    <path id="Path_2139" data-name="Path 2139" d="M5.35,16.745a1.774,1.774,0,1,0-1.774-1.774A1.775,1.775,0,0,0,5.35,16.745Z" transform="translate(39.9 168.217)" fill="#fff"/>
    <path id="Path_2140" data-name="Path 2140" d="M11.52,26.551a6.843,6.843,0,1,0-6.835-6.835A6.842,6.842,0,0,0,11.52,26.551Z" transform="translate(55.748 163.472)" fill="#fff"/>
    <path id="Path_2141" data-name="Path 2141" d="M12.788,26.182A6.651,6.651,0,1,0,6.137,19.53,6.637,6.637,0,0,0,12.788,26.182Z" transform="translate(76.499 163.658)" fill="#fff"/>
    <path id="Path_2142" data-name="Path 2142" d="M12.571,22.765a4.885,4.885,0,1,0-4.878-4.878A4.894,4.894,0,0,0,12.571,22.765Z" transform="translate(98.735 165.301)" fill="#fff"/>
    <path id="Path_2143" data-name="Path 2143" d="M14.983,24.762a5.918,5.918,0,1,0-5.918-5.918A5.922,5.922,0,0,0,14.983,24.762Z" transform="translate(118.342 164.344)" fill="#fff"/>
    <path id="Path_2144" data-name="Path 2144" d="M15.637,23.135a5.077,5.077,0,1,0-5.077-5.077A5.084,5.084,0,0,0,15.637,23.135Z" transform="translate(139.707 165.13)" fill="#fff"/>
    <path id="Path_2145" data-name="Path 2145" d="M16.391,21.715a4.343,4.343,0,1,0-4.343-4.343A4.34,4.34,0,0,0,16.391,21.715Z" transform="translate(160.971 165.816)" fill="#fff"/>
    <path id="Path_2146" data-name="Path 2146" d="M19.088,24.3A5.681,5.681,0,1,0,13.4,18.63,5.674,5.674,0,0,0,19.088,24.3Z" transform="translate(180.292 164.558)" fill="#fff"/>
    <path id="Path_2147" data-name="Path 2147" d="M20,23.224A5.122,5.122,0,1,0,14.877,18.1,5.136,5.136,0,0,0,20,23.224Z" transform="translate(201.4 165.087)" fill="#fff"/>
    <path id="Path_2148" data-name="Path 2148" d="M22.583,25.589a6.346,6.346,0,1,0-6.346-6.33A6.327,6.327,0,0,0,22.583,25.589Z" transform="translate(220.835 163.93)" fill="#fff"/>
    <path id="Path_2149" data-name="Path 2149" d="M24.937,27.484a7.324,7.324,0,1,0-7.324-7.324A7.335,7.335,0,0,0,24.937,27.484Z" transform="translate(240.5 163.029)" fill="#fff"/>
    <path id="Path_2150" data-name="Path 2150" d="M26.492,27.72a7.447,7.447,0,1,0-7.447-7.447A7.459,7.459,0,0,0,26.492,27.72Z" transform="translate(260.964 162.915)" fill="#fff"/>
    <path id="Path_2151" data-name="Path 2151" d="M22,15.444a1.1,1.1,0,1,0-1.1-1.1A1.106,1.106,0,0,0,22,15.444Z" transform="translate(287.473 168.846)" fill="#fff"/>
    <path id="Path_2152" data-name="Path 2152" d="M22.626,13.787a.251.251,0,0,0,.245-.245.242.242,0,0,0-.245-.245.229.229,0,0,0-.229.245A.238.238,0,0,0,22.626,13.787Z" transform="translate(308.867 169.646)" fill="#fff"/>
    <path id="Path_2153" data-name="Path 2153" d="M3.052,16.411a.865.865,0,0,0,.856-.856.856.856,0,0,0-1.713,0A.865.865,0,0,0,3.052,16.411Z" transform="translate(20.179 189.653)" fill="#fff"/>
    <path id="Path_2154" data-name="Path 2154" d="M11.166,30.224a8,8,0,1,0-8-7.982A7.981,7.981,0,0,0,11.166,30.224Z" transform="translate(34.084 182.965)" fill="#fff"/>
    <path id="Path_2155" data-name="Path 2155" d="M11.52,27.977a6.835,6.835,0,1,0-6.835-6.835A6.832,6.832,0,0,0,11.52,27.977Z" transform="translate(55.748 184.065)" fill="#fff"/>
    <path id="Path_2156" data-name="Path 2156" d="M12.331,26.675a6.162,6.162,0,1,0-6.162-6.162A6.154,6.154,0,0,0,12.331,26.675Z" transform="translate(76.956 184.694)" fill="#fff"/>
    <path id="Path_2157" data-name="Path 2157" d="M13.943,27.03A6.346,6.346,0,1,0,7.6,20.685,6.35,6.35,0,0,0,13.943,27.03Z" transform="translate(97.363 184.523)" fill="#fff"/>
    <path id="Path_2158" data-name="Path 2158" d="M16.069,28.45a7.08,7.08,0,1,0-7.08-7.08A7.074,7.074,0,0,0,16.069,28.45Z" transform="translate(117.256 183.837)" fill="#fff"/>
    <path id="Path_2159" data-name="Path 2159" d="M15.908,25.151a5.375,5.375,0,1,0-5.367-5.367A5.364,5.364,0,0,0,15.908,25.151Z" transform="translate(139.435 185.423)" fill="#fff"/>
    <path id="Path_2160" data-name="Path 2160" d="M16.6,23.613a4.58,4.58,0,1,0-4.572-4.572A4.565,4.565,0,0,0,16.6,23.613Z" transform="translate(160.757 186.166)" fill="#fff"/>
    <path id="Path_2161" data-name="Path 2161" d="M18.788,25.151a5.375,5.375,0,1,0-5.367-5.367A5.364,5.364,0,0,0,18.788,25.151Z" transform="translate(180.593 185.423)" fill="#fff"/>
    <circle id="Ellipse_352" data-name="Ellipse 352" cx="6.226" cy="6.226" r="6.226" transform="translate(215.171 198.979)" fill="#fff"/>
    <path id="Path_2162" data-name="Path 2162" d="M23.326,28.569a7.141,7.141,0,1,0-7.141-7.141A7.139,7.139,0,0,0,23.326,28.569Z" transform="translate(220.092 183.779)" fill="#fff"/>
    <circle id="Ellipse_353" data-name="Ellipse 353" cx="7.69" cy="7.69" r="7.69" transform="translate(257.744 197.516)" fill="#fff"/>
    <path id="Path_2163" data-name="Path 2163" d="M25.806,27.74a6.713,6.713,0,1,0-6.713-6.713A6.735,6.735,0,0,0,25.806,27.74Z" transform="translate(261.65 184.18)" fill="#fff"/>
    <path id="Path_2164" data-name="Path 2164" d="M26.617,26.453a6.048,6.048,0,1,0-6.04-6.04A6.043,6.043,0,0,0,26.617,26.453Z" transform="translate(282.857 184.794)" fill="#fff"/>
    <circle id="Ellipse_354" data-name="Ellipse 354" cx="5.615" cy="5.615" r="5.615" transform="translate(325.88 199.591)" fill="#fff"/>
    <path id="Path_2165" data-name="Path 2165" d="M8.583,29.3A6.774,6.774,0,1,0,1.809,22.51,6.77,6.77,0,0,0,8.583,29.3Z" transform="translate(14.648 204.701)" fill="#fff"/>
    <path id="Path_2166" data-name="Path 2166" d="M4.492,17.851a.856.856,0,1,0-.856-.872A.858.858,0,0,0,4.492,17.851Z" transform="translate(40.757 210.232)" fill="#fff"/>
    <path id="Path_2167" data-name="Path 2167" d="M11.463,29.3A6.774,6.774,0,1,0,4.689,22.51,6.77,6.77,0,0,0,11.463,29.3Z" transform="translate(55.805 204.701)" fill="#fff"/>
    <path id="Path_2168" data-name="Path 2168" d="M12.1,27.642a5.918,5.918,0,1,0-5.918-5.933A5.916,5.916,0,0,0,12.1,27.642Z" transform="translate(77.184 205.501)" fill="#fff"/>
    <path id="Path_2169" data-name="Path 2169" d="M15.2,31.088a7.7,7.7,0,1,0-7.691-7.707A7.691,7.691,0,0,0,15.2,31.088Z" transform="translate(96.105 203.829)" fill="#fff"/>
    <path id="Path_2170" data-name="Path 2170" d="M15.326,28.366a6.292,6.292,0,1,0-6.285-6.3A6.288,6.288,0,0,0,15.326,28.366Z" transform="translate(117.999 205.144)" fill="#fff"/>
    <path id="Path_2171" data-name="Path 2171" d="M15.451,25.645a4.885,4.885,0,1,0-4.878-4.893A4.885,4.885,0,0,0,15.451,25.645Z" transform="translate(139.892 206.459)" fill="#fff"/>
    <path id="Path_2172" data-name="Path 2172" d="M17.234,26.34a5.245,5.245,0,1,0-5.245-5.26A5.237,5.237,0,0,0,17.234,26.34Z" transform="translate(160.128 206.13)" fill="#fff"/>
    <path id="Path_2173" data-name="Path 2173" d="M16.73,22.332a3.173,3.173,0,1,0-3.165-3.18A3.155,3.155,0,0,0,16.73,22.332Z" transform="translate(182.65 208.059)" fill="#fff"/>
    <path id="Path_2174" data-name="Path 2174" d="M17.727,21.371a2.676,2.676,0,1,0-2.691-2.691A2.676,2.676,0,0,0,17.727,21.371Z" transform="translate(203.672 208.531)" fill="#fff"/>
    <path id="Path_2175" data-name="Path 2175" d="M23.326,30.009a7.141,7.141,0,1,0-7.141-7.156A7.142,7.142,0,0,0,23.326,30.009Z" transform="translate(220.092 204.358)" fill="#fff"/>
    <path id="Path_2176" data-name="Path 2176" d="M22.494,25.276a4.694,4.694,0,1,0-4.71-4.71A4.7,4.7,0,0,0,22.494,25.276Z" transform="translate(242.943 206.645)" fill="#fff"/>
    <path id="Path_2177" data-name="Path 2177" d="M26.549,30.719A7.508,7.508,0,1,0,19.041,23.2,7.5,7.5,0,0,0,26.549,30.719Z" transform="translate(260.907 204.015)" fill="#fff"/>
    <path id="Path_2178" data-name="Path 2178" d="M21.715,17.732a.8.8,0,1,0-.8-.81A.793.793,0,0,0,21.715,17.732Z" transform="translate(287.759 210.289)" fill="#fff"/>
    <path id="Path_2179" data-name="Path 2179" d="M24.081,16.667a.255.255,0,0,0,.245-.26.245.245,0,0,0-.489,0A.255.255,0,0,0,24.081,16.667Z" transform="translate(329.431 210.803)" fill="#fff"/>
    <path id="Path_2180" data-name="Path 2180" d="M4.2,21.657a2.08,2.08,0,1,0-2.08-2.08A2.082,2.082,0,0,0,4.2,21.657Z" transform="translate(19.035 229.667)" fill="#fff"/>
    <path id="Path_2181" data-name="Path 2181" d="M5.35,21.065a1.785,1.785,0,0,0,1.774-1.774,1.774,1.774,0,1,0-3.547,0A1.785,1.785,0,0,0,5.35,21.065Z" transform="translate(39.9 229.953)" fill="#fff"/>
    <path id="Path_2182" data-name="Path 2182" d="M7.347,22.233a2.378,2.378,0,1,0-2.37-2.37A2.375,2.375,0,0,0,7.347,22.233Z" transform="translate(59.921 229.381)" fill="#fff"/>
    <path id="Path_2183" data-name="Path 2183" d="M13.131,31.212a7.018,7.018,0,1,0-7.018-7.018A7.009,7.009,0,0,0,13.131,31.212Z" transform="translate(76.156 225.051)" fill="#fff"/>
    <path id="Path_2184" data-name="Path 2184" d="M14.743,31.552a7.194,7.194,0,1,0-7.2-7.187A7.182,7.182,0,0,0,14.743,31.552Z" transform="translate(96.563 224.88)" fill="#fff"/>
    <circle id="Ellipse_355" data-name="Ellipse 355" cx="6.227" cy="6.227" r="6.227" transform="translate(127.1 243.015)" fill="#fff"/>
    <path id="Path_2185" data-name="Path 2185" d="M17.109,30.516a6.659,6.659,0,1,0-6.651-6.651A6.656,6.656,0,0,0,17.109,30.516Z" transform="translate(138.235 225.38)" fill="#fff"/>
    <path id="Path_2186" data-name="Path 2186" d="M16.891,27.07a4.878,4.878,0,1,0-4.878-4.878A4.881,4.881,0,0,0,16.891,27.07Z" transform="translate(160.471 227.052)" fill="#fff"/>
    <path id="Path_2187" data-name="Path 2187" d="M16.273,22.84A2.691,2.691,0,1,0,13.6,20.149,2.692,2.692,0,0,0,16.273,22.84Z" transform="translate(183.108 229.096)" fill="#fff"/>
    <path id="Path_2188" data-name="Path 2188" d="M20.057,27.676a5.191,5.191,0,1,0-5.184-5.184A5.2,5.2,0,0,0,20.057,27.676Z" transform="translate(201.343 226.752)" fill="#fff"/>
    <path id="Path_2189" data-name="Path 2189" d="M22.183,29.112a5.933,5.933,0,1,0-5.918-5.933A5.925,5.925,0,0,0,22.183,29.112Z" transform="translate(221.236 226.066)" fill="#fff"/>
    <path id="Path_2190" data-name="Path 2190" d="M23.508,28.845a5.8,5.8,0,1,0-5.8-5.8A5.795,5.795,0,0,0,23.508,28.845Z" transform="translate(241.929 226.194)" fill="#fff"/>
    <path id="Path_2191" data-name="Path 2191" d="M20.318,19.291a.856.856,0,0,0,0-1.713.856.856,0,0,0,0,1.713Z" transform="translate(267.138 230.81)" fill="#fff"/>
    <circle id="Ellipse_356" data-name="Ellipse 356" cx="5.615" cy="5.615" r="5.615" transform="translate(303.855 243.627)" fill="#fff"/>
    <path id="Path_2192" data-name="Path 2192" d="M5.875,20.612a.8.8,0,1,0,0-1.59.8.8,0,1,0,0,1.59Z" transform="translate(61.393 251.446)" fill="#fff"/>
    <path id="Path_2193" data-name="Path 2193" d="M13.589,33.6a7.508,7.508,0,1,0-7.508-7.508A7.511,7.511,0,0,0,13.589,33.6Z" transform="translate(75.698 245.173)" fill="#fff"/>
    <path id="Path_2194" data-name="Path 2194" d="M14.343,32.179A6.774,6.774,0,1,0,7.569,25.4,6.777,6.777,0,0,0,14.343,32.179Z" transform="translate(96.963 245.859)" fill="#fff"/>
    <path id="Path_2195" data-name="Path 2195" d="M14.925,30.418a5.864,5.864,0,1,0-5.856-5.856A5.857,5.857,0,0,0,14.925,30.418Z" transform="translate(118.399 246.702)" fill="#fff"/>
    <path id="Path_2196" data-name="Path 2196" d="M12.378,22.151a1.59,1.59,0,1,0-1.59-1.59A1.6,1.6,0,0,0,12.378,22.151Z" transform="translate(142.965 250.703)" fill="#fff"/>
    <path id="Path_2197" data-name="Path 2197" d="M16.448,27.578a4.4,4.4,0,1,0-4.4-4.388A4.4,4.4,0,0,0,16.448,27.578Z" transform="translate(160.914 248.074)" fill="#fff"/>
    <path id="Path_2198" data-name="Path 2198" d="M16.059,23.792a2.439,2.439,0,1,0-2.447-2.431A2.441,2.441,0,0,0,16.059,23.792Z" transform="translate(183.322 249.903)" fill="#fff"/>
    <path id="Path_2199" data-name="Path 2199" d="M19.942,28.88a5.069,5.069,0,1,0-5.061-5.061A5.048,5.048,0,0,0,19.942,28.88Z" transform="translate(201.457 247.445)" fill="#fff"/>
    <path id="Path_2200" data-name="Path 2200" d="M18.01,21.914a1.468,1.468,0,1,0-1.453-1.468A1.468,1.468,0,0,0,18.01,21.914Z" transform="translate(225.408 250.818)" fill="#fff"/>
    <path id="Path_2201" data-name="Path 2201" d="M22.251,27.7a4.457,4.457,0,1,0-4.45-4.45A4.467,4.467,0,0,0,22.251,27.7Z" transform="translate(243.186 248.016)" fill="#fff"/>
    <path id="Path_2202" data-name="Path 2202" d="M23.7,27.7a4.457,4.457,0,1,0-4.465-4.45A4.454,4.454,0,0,0,23.7,27.7Z" transform="translate(263.751 248.016)" fill="#fff"/>
    <path id="Path_2203" data-name="Path 2203" d="M21.2,19.547a.245.245,0,1,0,0-.489.245.245,0,1,0,0,.489Z" transform="translate(288.274 251.961)" fill="#fff"/>
    <path id="Path_2204" data-name="Path 2204" d="M6.79,23.945a1.774,1.774,0,1,0-1.774-1.774A1.775,1.775,0,0,0,6.79,23.945Z" transform="translate(60.479 271.11)" fill="#fff"/>
    <path id="Path_2205" data-name="Path 2205" d="M7.772,23a1.284,1.284,0,1,0-1.284-1.284A1.292,1.292,0,0,0,7.772,23Z" transform="translate(81.515 271.568)" fill="#fff"/>
    <path id="Path_2206" data-name="Path 2206" d="M12.013,28.782a4.274,4.274,0,1,0-4.281-4.266A4.271,4.271,0,0,0,12.013,28.782Z" transform="translate(99.292 268.767)" fill="#fff"/>
    <circle id="Ellipse_357" data-name="Ellipse 357" cx="7.571" cy="7.571" r="7.571" transform="translate(125.756 285.707)" fill="#fff"/>
    <circle id="Ellipse_358" data-name="Ellipse 358" cx="2.99" cy="2.99" r="2.99" transform="translate(152.355 290.287)" fill="#fff"/>
    <circle id="Ellipse_359" data-name="Ellipse 359" cx="1.463" cy="1.463" r="1.463" transform="translate(175.899 291.814)" fill="#fff"/>
    <path id="Path_2207" data-name="Path 2207" d="M19.931,33.264a6.59,6.59,0,1,0-6.59-6.59A6.581,6.581,0,0,0,19.931,33.264Z" transform="translate(179.449 266.609)" fill="#fff"/>
    <path id="Path_2208" data-name="Path 2208" d="M18.413,27.125a3.417,3.417,0,0,0,0-6.835,3.417,3.417,0,1,0,0,6.835Z" transform="translate(202.986 269.567)" fill="#fff"/>
    <path id="Path_2209" data-name="Path 2209" d="M19.782,27.007a3.356,3.356,0,1,0-3.349-3.349A3.361,3.361,0,0,0,19.782,27.007Z" transform="translate(223.636 269.624)" fill="#fff"/>
    <path id="Path_2210" data-name="Path 2210" d="M21.236,27.007a3.356,3.356,0,1,0-3.364-3.349A3.348,3.348,0,0,0,21.236,27.007Z" transform="translate(244.201 269.624)" fill="#fff"/>
    <circle id="Ellipse_360" data-name="Ellipse 360" cx="5.555" cy="5.555" r="5.555" transform="translate(281.903 287.722)" fill="#fff"/>
    <circle id="Ellipse_361" data-name="Ellipse 361" cx="0.06" cy="0.06" r="0.06" transform="translate(309.41 293.218)" fill="#fff"/>
    <path id="Path_2211" data-name="Path 2211" d="M6.8,22.427a.245.245,0,1,0-.245-.245A.242.242,0,0,0,6.8,22.427Z" transform="translate(82.486 293.118)" fill="#fff"/>
    <path id="Path_2212" data-name="Path 2212" d="M9.041,24.069a1.093,1.093,0,1,0-1.1-1.086A1.093,1.093,0,0,0,9.041,24.069Z" transform="translate(102.265 292.318)" fill="#fff"/>
    <path id="Path_2213" data-name="Path 2213" d="M12.253,27.737a2.989,2.989,0,1,0-3-2.982A2.986,2.986,0,0,0,12.253,27.737Z" transform="translate(121.071 290.546)" fill="#fff"/>
    <path id="Path_2214" data-name="Path 2214" d="M17.852,36.345A7.439,7.439,0,1,0,10.4,28.914,7.433,7.433,0,0,0,17.852,36.345Z" transform="translate(137.492 286.387)" fill="#fff"/>
    <path id="Path_2215" data-name="Path 2215" d="M19.292,36.345a7.439,7.439,0,1,0-7.447-7.431A7.433,7.433,0,0,0,19.292,36.345Z" transform="translate(158.07 286.387)" fill="#fff"/>
    <path id="Path_2216" data-name="Path 2216" d="M15.944,26.435a2.317,2.317,0,1,0-2.324-2.309A2.32,2.32,0,0,0,15.944,26.435Z" transform="translate(183.436 291.175)" fill="#fff"/>
    <path id="Path_2217" data-name="Path 2217" d="M17.213,26.081a2.133,2.133,0,1,0-2.141-2.141A2.147,2.147,0,0,0,17.213,26.081Z" transform="translate(204.187 291.36)" fill="#fff"/>
    <path id="Path_2218" data-name="Path 2218" d="M18.638,26.081a2.133,2.133,0,1,0,0-4.266,2.133,2.133,0,0,0,0,4.266Z" transform="translate(224.78 291.36)" fill="#fff"/>
    <path id="Path_2219" data-name="Path 2219" d="M22.193,30.458a4.4,4.4,0,1,0-4.388-4.388A4.4,4.4,0,0,0,22.193,30.458Z" transform="translate(243.243 289.231)" fill="#fff"/>
    <path id="Path_2220" data-name="Path 2220" d="M9.852,24.222a.438.438,0,0,0,.428-.428.428.428,0,0,0-.856,0A.438.438,0,0,0,9.852,24.222Z" transform="translate(123.472 313.525)" fill="#fff"/>
    <path id="Path_2221" data-name="Path 2221" d="M17.784,28.7a2.745,2.745,0,1,0-2.752-2.737A2.747,2.747,0,0,0,17.784,28.7Z" transform="translate(203.615 311.353)" fill="#fff"/>
    <path id="Path_2222" data-name="Path 2222" d="M16.938,23.986a.306.306,0,1,0-.306-.306A.307.307,0,0,0,16.938,23.986Z" transform="translate(226.48 313.64)" fill="#fff"/>
    <path id="Path_2223" data-name="Path 2223" d="M18.892,25.035a.829.829,0,0,0,.841-.841.842.842,0,0,0-.841-.856.855.855,0,0,0-.856.856A.842.842,0,0,0,18.892,25.035Z" transform="translate(246.545 313.125)" fill="#fff"/>
  </g>
</svg>
