<svg id="Animal_Products_Icon" data-name="Animal Products_Icon" xmlns="http://www.w3.org/2000/svg" width="57.145" height="54.556" viewBox="0 0 57.145 54.556">
  <path id="Path_9967" data-name="Path 9967" d="M2.384,86.817c.694-3.7-1.427-6.344-1.427-10.355,0-4.165,2.489-6.865,6.363-8.157,6.248-2.083,23.66.868,29.214-2.6A3.75,3.75,0,0,0,37.8,63.824a11.8,11.8,0,0,0,.717-3.159l.446-4.71,8.479.226a3.654,3.654,0,0,1,2.349.948,46.557,46.557,0,0,1,7.1,8.3,1.492,1.492,0,0,1,.165,1.318l-.311.9a1.862,1.862,0,0,1-2.129,1.2c-3.555-.69-6.509-.187-8.777-1.4C43.5,70.767,43.447,82.134,35.7,85.66l-1.7,7.1v8.176l1.66,3.83a.571.571,0,0,1-.524.8H31.923a.571.571,0,0,1-.57-.537L30.292,87.389c-3.806.59-10.266.579-18.675-3.178a27.519,27.519,0,0,1-8.231,7.813l1.234,8.909,1.66,3.83a.571.571,0,0,1-.524.8H2.491a.571.571,0,0,1-.565-.488L.017,92.134A1.536,1.536,0,0,1,.335,90.95,10.16,10.16,0,0,0,2.384,86.817Z" transform="translate(0 -51.004)" fill="#ebc9a0"/>
  <path id="Path_9968" data-name="Path 9968" d="M80.156,11.836c5.377-1.316,8.739,3.132,9.767,4.762a.859.859,0,0,1-.166,1.089,5.665,5.665,0,0,1-4.5,1.435,1.032,1.032,0,0,1-.824-.588c-1.127-2.492-3.743-2.037-4.074-.079-.4,2.4,2.044,2.6,2.921,2.661.839.058.578.916.578.916a3.1,3.1,0,0,1-1.967.617C74.479,22.811,73.793,13.394,80.156,11.836Z" transform="translate(-41.367 -11.596)" fill="#dc8c64"/>
  <path id="Path_9969" data-name="Path 9969" d="M63.838,99.306a.926.926,0,0,0,.009-1.851h-.009a.926.926,0,0,0,0,1.851Z" transform="translate(-14.644 -87.872)" fill="#4b3f4e"/>
  <g id="Group_17727" data-name="Group 17727" transform="translate(1.61 50.766)">
    <path id="Path_9970" data-name="Path 9970" d="M195.931,470.363H192.71a.571.571,0,0,1-.57-.537l-.132-2.186,3.156-1.051,1.29,2.976A.571.571,0,0,1,195.931,470.363Z" transform="translate(-162.398 -466.573)" fill="#6e4848"/>
    <path id="Path_9971" data-name="Path 9971" d="M459.978,469.435a.571.571,0,0,1-.524.8h-3.265a.571.571,0,0,1-.565-.488l-.316-2.14,3.373-1.163Z" transform="translate(-455.308 -466.443)" fill="#6e4848"/>
  </g>
  <path id="Path_9972" data-name="Path 9972" d="M.463,111.445c1.121-1.868,2.975-3.057,3.542-4.131,1.318,1.6,2.288,2.984,2.792,3.741a1.492,1.492,0,0,1,.165,1.318l-.311.9a1.862,1.862,0,0,1-2.129,1.2A34.828,34.828,0,0,0,.079,114,3.588,3.588,0,0,1,.463,111.445Z" transform="translate(50.098 -96.631)" fill="#faebc8"/>
  <g id="Group_17728" data-name="Group 17728" transform="translate(11.617 14.156)">
    <path id="Path_9973" data-name="Path 9973" d="M1.275,143.575a1.5,1.5,0,0,1-.005.953L1.105,145a1.524,1.524,0,0,1-.234-.042c-.577-.185-.945-.644-.823-1.025S.712,143.41,1.275,143.575Z" transform="translate(44.175 -142.942)" fill="#e1af87"/>
    <path id="Path_9974" data-name="Path 9974" d="M101.249,158.926c6.286-5.052,6.125-17.377,5.978-18.8-.159-1.533,1.085-1.909,1.658-1.6.749.4,1.041,1.427,2.5,2.189C109.041,144.033,108.992,155.4,101.249,158.926Z" transform="translate(-77.162 -138.425)" fill="#e1af87"/>
    <path id="Path_9975" data-name="Path 9975" d="M240.594,290.256a9.641,9.641,0,0,0,.7-1.257,1.848,1.848,0,0,1,2.237-1.026c4.644,1.5,10.774,1.6,13.429,1.569a1.9,1.9,0,0,1,1.838,1.33,9.383,9.383,0,0,1,.471,2.562C255.462,294.024,249,294.013,240.594,290.256Z" transform="translate(-240.594 -271.204)" fill="#e1af87"/>
  </g>
  <path id="Path_9976" data-name="Path 9976" d="M99.247,38.8c3.083-.636,5.63,1.2,6.892,4.124a5.919,5.919,0,0,1-2.487.255,1.031,1.031,0,0,1-.824-.588c-1.127-2.492-3.744-2.037-4.074-.079-.4,2.4,2.044,2.6,2.921,2.661.839.058.578.916.578.916C94.735,46.32,95.506,39.571,99.247,38.8Z" transform="translate(-59.764 -35.652)" fill="#c8785a"/>
</svg>
