<svg xmlns="http://www.w3.org/2000/svg" width="206.831" height="227.553" viewBox="0 0 206.831 227.553">
  <g id="_16" data-name="16" transform="translate(-546.192 -541.507)">
    <path id="Path_2554" data-name="Path 2554" d="M677.4,698.059a10.759,10.759,0,0,1-4.19-.842,10.892,10.892,0,0,1-6.311-7.315l-.505-1.988c-.655-2.6-1.273-5.054-2-7.415a10.835,10.835,0,0,1-.375-4.622,10.638,10.638,0,0,1-1.289-1.25c-.324-.369-.324-.369-2.782-3.759l-1.062-1.467a10.667,10.667,0,0,1-1.224-.7l-6.246-4.32a10.8,10.8,0,0,1-4.249-5.9l-1.137-.592c-.657.064-1.321.1-1.975.1a19.792,19.792,0,0,1-5.006-.642,19.811,19.811,0,0,1-5.01.642c-.654,0-1.318-.036-1.975-.1l-1.137.592a10.869,10.869,0,0,1-3.789,5.563c-.22.169-.22.169-3.494,2.436-1.68,1.162-3.2,2.215-3.2,2.215a11.086,11.086,0,0,1-1.233.709l-1.065,1.467c-2.455,3.391-2.455,3.391-2.779,3.762a10.834,10.834,0,0,1-1.289,1.247,10.847,10.847,0,0,1-.376,4.622c-.722,2.361-1.341,4.815-1.995,7.412l-.5,1.985a10.9,10.9,0,0,1-6.315,7.322,10.831,10.831,0,0,1-9.64-.632c-19.556-11.379-21.812-12.542-23.03-13.018-.739-.288-1.742-.679-3.767-1.671-7-3.455-10.919-11.25-10.245-20.355a12.323,12.323,0,0,1,.188-1.435c.046-.233.094-.469.149-.7a9.522,9.522,0,0,0-2.075-8.475,24.856,24.856,0,0,1-2.484-3.354l-.071-.113c-3.7-6.1-4-13.157-.79-18.859a17.343,17.343,0,0,1,5.6-5.984c-3.614-3.692-5.524-7.927-6.3-13.834a15.93,15.93,0,0,1,2.516-11.534c3.108-4.576,8.462-7.2,14.678-7.2a.792.792,0,0,0,.754-1.056c-.262-.754-.5-1.542-.7-2.338-1.509-5.991-.531-11.6,2.75-15.813a16.5,16.5,0,0,1,13.371-6.229,21.7,21.7,0,0,1,5.259.663c1.166-10.634,9.08-16.2,16.641-16.2a18.01,18.01,0,0,1,8.533,2.2,7.732,7.732,0,0,0,3.646.906,7.958,7.958,0,0,0,6.448-3.26,17.97,17.97,0,0,1,9.954-7.063,10.86,10.86,0,0,1,2.776-.359,10.712,10.712,0,0,1,2.771.363,17.95,17.95,0,0,1,9.954,7.06,7.953,7.953,0,0,0,6.448,3.26,7.731,7.731,0,0,0,3.646-.906,18.007,18.007,0,0,1,8.532-2.2c7.546,0,15.44,5.557,16.639,16.2a21.565,21.565,0,0,1,5.262-.667,16.5,16.5,0,0,1,13.371,6.229c3.28,4.21,4.258,9.821,2.749,15.806-.2.8-.437,1.587-.7,2.344a.791.791,0,0,0,.744,1.056c6.227,0,11.583,2.632,14.7,7.228a15.854,15.854,0,0,1,2.507,11.485c-.778,5.923-2.688,10.165-6.3,13.86a17.376,17.376,0,0,1,5.6,5.984c3.206,5.7,2.908,12.758-.8,18.875l-.042.061a24.762,24.762,0,0,1-2.5,3.391,9.518,9.518,0,0,0-2.075,8.471c.055.23.1.466.149.7a12.345,12.345,0,0,1,.188,1.435c.674,9.109-3.235,16.9-10.2,20.339-2.069,1.01-3.073,1.4-3.808,1.69-1.221.476-3.478,1.639-23.034,13.018A10.817,10.817,0,0,1,677.4,698.059Z" transform="translate(10.562 0)" fill="#fc9316"/>
    <path id="Path_2555" data-name="Path 2555" d="M719.983,627.97a14.126,14.126,0,0,0-5.81-5.615,1.892,1.892,0,0,1-.4-3.1c3.412-3.066,5.678-6.606,6.53-13.1a12.733,12.733,0,0,0-1.982-9.294c-2.515-3.7-6.91-5.829-12.059-5.829h0a3.982,3.982,0,0,1-3.763-5.294c.231-.658.438-1.344.619-2.066,1.263-5.013.493-9.656-2.169-13.07a13.382,13.382,0,0,0-10.858-5.006,18.924,18.924,0,0,0-5.816.952,1.911,1.911,0,0,1-2.5-1.707l0-.026c-.482-10.135-7.377-14.75-13.578-14.75a14.882,14.882,0,0,0-7.033,1.826,11.138,11.138,0,0,1-14.178-3.3,14.714,14.714,0,0,0-8.186-5.849,7.623,7.623,0,0,0-3.915,0A14.705,14.705,0,0,0,626.7,548.6a11.141,11.141,0,0,1-14.18,3.3,14.861,14.861,0,0,0-7.03-1.826c-6.2,0-13.1,4.614-13.578,14.685l0,.094a1.908,1.908,0,0,1-2.5,1.7,18.969,18.969,0,0,0-5.823-.952,13.386,13.386,0,0,0-10.858,5.006c-2.661,3.414-3.432,8.057-2.166,13.07.178.725.385,1.412.615,2.066a3.978,3.978,0,0,1-3.762,5.294h0c-5.145,0-9.539,2.124-12.05,5.816a12.747,12.747,0,0,0-1.988,9.323c.852,6.486,3.118,10.022,6.531,13.086a1.9,1.9,0,0,1-.4,3.1,14.144,14.144,0,0,0-5.812,5.612c-2.636,4.689-2.358,10.541.748,15.66l.042.068a21.07,21.07,0,0,0,2.159,2.923,12.681,12.681,0,0,1,2.8,11.3c-.046.2-.088.393-.123.59a8.167,8.167,0,0,0-.14,1.059c-.576,7.789,2.646,14.388,8.462,17.26,1.914.933,2.849,1.3,3.532,1.567,1.39.545,3.265,1.47,23.471,13.231a7.649,7.649,0,0,0,11.259-4.721l.5-1.982c.667-2.633,1.295-5.126,2.04-7.565a7.675,7.675,0,0,0,.162-3.869,1.878,1.878,0,0,1,.774-1.93,7.508,7.508,0,0,0,1.377-1.23c.229-.266.229-.266,2.6-3.54.531-.732.942-1.3,1.266-1.745a1.989,1.989,0,0,1,.787-.625,7.22,7.22,0,0,0,1.049-.583s1.505-1.04,3.164-2.19c3.206-2.215,3.206-2.215,3.361-2.337a7.6,7.6,0,0,0,2.775-4.32,1.934,1.934,0,0,1,.971-1.276l.664-.343c.521-.275.968-.509,1.351-.706a1.839,1.839,0,0,1,1.108-.19,17.413,17.413,0,0,0,1.978.116,16.543,16.543,0,0,0,4.453-.606,2.025,2.025,0,0,1,1.111,0,16.551,16.551,0,0,0,4.453.606h0a16.562,16.562,0,0,0,1.966-.116,1.955,1.955,0,0,1,1.13.194c.376.2.82.427,1.345.7l.661.343a1.889,1.889,0,0,1,.965,1.266,7.639,7.639,0,0,0,3.109,4.569l6.2,4.288a7.363,7.363,0,0,0,1.047.583,1.979,1.979,0,0,1,.79.625c.324.443.731,1.011,1.266,1.745,2.373,3.274,2.373,3.274,2.6,3.54a7.591,7.591,0,0,0,1.373,1.23,1.875,1.875,0,0,1,.778,1.93,7.625,7.625,0,0,0,.159,3.869c.748,2.439,1.373,4.932,2.04,7.565l.5,1.982a7.646,7.646,0,0,0,11.26,4.721c20.2-11.761,22.081-12.687,23.47-13.231.683-.269,1.615-.635,3.562-1.583,5.787-2.856,9.009-9.455,8.432-17.244a8.947,8.947,0,0,0-.136-1.059c-.041-.2-.084-.395-.13-.59a12.7,12.7,0,0,1,2.8-11.3A21.042,21.042,0,0,0,719.2,643.7l.039-.068C722.343,638.508,722.622,632.656,719.983,627.97Z" transform="translate(12.769 2.202)" fill="#ffd8a1"/>
    <path id="Path_2556" data-name="Path 2556" d="M719.983,627.97a14.126,14.126,0,0,0-5.81-5.615,1.892,1.892,0,0,1-.4-3.1c3.412-3.066,5.678-6.606,6.53-13.1a12.733,12.733,0,0,0-1.982-9.294c-2.515-3.7-6.91-5.829-12.059-5.829h0a3.982,3.982,0,0,1-3.763-5.294c.231-.658.438-1.344.619-2.066,1.263-5.013.493-9.656-2.169-13.07a13.382,13.382,0,0,0-10.858-5.006,18.924,18.924,0,0,0-5.816.952,1.911,1.911,0,0,1-2.5-1.707l0-.026c-.482-10.135-7.377-14.75-13.578-14.75a14.882,14.882,0,0,0-7.033,1.826,11.138,11.138,0,0,1-14.178-3.3,14.714,14.714,0,0,0-8.186-5.849,7.623,7.623,0,0,0-3.915,0A14.705,14.705,0,0,0,626.7,548.6a11.141,11.141,0,0,1-14.18,3.3,14.861,14.861,0,0,0-7.03-1.826c-6.2,0-13.1,4.614-13.578,14.685l0,.094a1.908,1.908,0,0,1-2.5,1.7,18.969,18.969,0,0,0-5.823-.952,13.386,13.386,0,0,0-10.858,5.006c-2.661,3.414-3.432,8.057-2.166,13.07.178.725.385,1.412.615,2.066a3.978,3.978,0,0,1-3.762,5.294h0c-5.145,0-9.539,2.124-12.05,5.816a12.747,12.747,0,0,0-1.988,9.323c.852,6.486,3.118,10.022,6.531,13.086a1.9,1.9,0,0,1-.4,3.1,14.144,14.144,0,0,0-5.812,5.612c-2.636,4.689-2.358,10.541.748,15.66l.042.068a21.07,21.07,0,0,0,2.159,2.923,12.681,12.681,0,0,1,2.8,11.3c-.046.2-.088.393-.123.59a8.167,8.167,0,0,0-.14,1.059c-.576,7.789,2.646,14.388,8.462,17.26,1.914.933,2.849,1.3,3.532,1.567,1.39.545,3.265,1.47,23.471,13.231a7.649,7.649,0,0,0,11.259-4.721l.5-1.982c.667-2.633,1.295-5.126,2.04-7.565a7.675,7.675,0,0,0,.162-3.869,1.878,1.878,0,0,1,.774-1.93,7.508,7.508,0,0,0,1.377-1.23c.229-.266.229-.266,2.6-3.54.531-.732.942-1.3,1.266-1.745a1.989,1.989,0,0,1,.787-.625,7.22,7.22,0,0,0,1.049-.583s1.505-1.04,3.164-2.19c3.206-2.215,3.206-2.215,3.361-2.337a7.6,7.6,0,0,0,2.775-4.32,1.934,1.934,0,0,1,.971-1.276l.664-.343c.521-.275.968-.509,1.351-.706a1.839,1.839,0,0,1,1.108-.19,17.413,17.413,0,0,0,1.978.116,16.543,16.543,0,0,0,4.453-.606,2.025,2.025,0,0,1,1.111,0,16.551,16.551,0,0,0,4.453.606h0a16.562,16.562,0,0,0,1.966-.116,1.955,1.955,0,0,1,1.13.194c.376.2.82.427,1.345.7l.661.343a1.889,1.889,0,0,1,.965,1.266,7.639,7.639,0,0,0,3.109,4.569l6.2,4.288a7.363,7.363,0,0,0,1.047.583,1.979,1.979,0,0,1,.79.625c.324.443.731,1.011,1.266,1.745,2.373,3.274,2.373,3.274,2.6,3.54a7.591,7.591,0,0,0,1.373,1.23,1.875,1.875,0,0,1,.778,1.93,7.625,7.625,0,0,0,.159,3.869c.748,2.439,1.373,4.932,2.04,7.565l.5,1.982a7.646,7.646,0,0,0,11.26,4.721c20.2-11.761,22.081-12.687,23.47-13.231.683-.269,1.615-.635,3.562-1.583,5.787-2.856,9.009-9.455,8.432-17.244a8.947,8.947,0,0,0-.136-1.059c-.041-.2-.084-.395-.13-.59a12.7,12.7,0,0,1,2.8-11.3A21.042,21.042,0,0,0,719.2,643.7l.039-.068C722.343,638.508,722.622,632.656,719.983,627.97Z" transform="translate(12.769 2.202)" fill="#ffd8a1"/>
    <g id="Group_352" data-name="Group 352" transform="translate(572.315 552.345)">
      <path id="Path_2557" data-name="Path 2557" d="M560.2,560.546c1.49,5.913,5.42,8.406,11.68,16.774a68.784,68.784,0,0,1,13.581-7.14,72.576,72.576,0,0,0-6.385-10.058C570.7,548.8,557.459,549.637,560.2,560.546Z" transform="translate(-541.776 -528.883)" fill="#fff"/>
      <path id="Path_2558" data-name="Path 2558" d="M567.624,570.592c1.094,1.723-1.03-1.681,21.586,35.171,1.6,2.622,2.924,4.795,3.851,6.311.457.76.816,1.356,1.058,1.765l.269.469c.062.107.087.162.081.166s1.561-.813,3.284-1.713l3.287-1.716a.545.545,0,0,1-.091-.162c-.051-.114-.13-.275-.23-.488l-.842-1.879c-.719-1.626-1.742-3.954-2.982-6.765-10.933-25.006-15.644-36.407-19.757-44.143a68.748,68.748,0,0,0-13.581,7.14C564.82,566.434,566.174,568.351,567.624,570.592Z" transform="translate(-533.448 -516.31)" fill="#f3ecda"/>
      <path id="Path_2559" data-name="Path 2559" d="M557.846,574.567a180.57,180.57,0,0,1,21.327,17.859c5.346,5.148,10.368,10.459,13.957,14.529,1.811,2.03,3.257,3.747,4.251,4.955.492.612.881,1.088,1.144,1.408q.193.253.294.379a.582.582,0,0,1,.091.136s1.448-1,3.047-2.108L605,609.617a.6.6,0,0,1-.1-.135l-.266-.418c-.23-.368-.563-.913-.988-1.609-.852-1.386-2.073-3.372-3.6-5.732-8.585-13.373-20.207-28.8-32.334-39.735A58.948,58.948,0,0,0,557.846,574.567Z" transform="translate(-546.231 -506.507)" fill="#f3ecda"/>
      <path id="Path_2560" data-name="Path 2560" d="M555.492,562.324a5.061,5.061,0,0,0-.722,4.012c.878,6.687,3.238,8.034,10.2,13.027a58.953,58.953,0,0,1,9.864-12.581q-1.21-1.089-2.422-2.115C564.721,558.192,557.671,559.115,555.492,562.324Z" transform="translate(-553.355 -511.303)" fill="#fff"/>
      <path id="Path_2561" data-name="Path 2561" d="M566.142,586.958c10.385,3.618,17.9,11.172,30.329,18.9a3.008,3.008,0,0,1,.418.285s1.029-1.425,2.173-3,2.173-3,2.173-3a2.57,2.57,0,0,1-.353-.291c-.22-.2-.547-.493-.959-.868-.816-.773-1.972-1.884-3.329-3.315-2.74-2.831-6.237-6.92-10.3-11.136-12.046-12.383-21.728-16.143-27.8-15.56a57.259,57.259,0,0,0-2.976,14.582C558.393,585.8,561.646,585.374,566.142,586.958Z" transform="translate(-551.443 -490.984)" fill="#f3ecda"/>
      <path id="Path_2562" data-name="Path 2562" d="M555.7,580.462a11.264,11.264,0,0,0,2.637,3.06,57.277,57.277,0,0,1,2.975-14.582C554.835,569.566,552.462,575.129,555.7,580.462Z" transform="translate(-554.259 -490.944)" fill="#fff"/>
      <path id="Path_2563" data-name="Path 2563" d="M570.738,579.641c-6.836-4.682-13.037-2.976-14.2,3.226-.3,3.772.77,8.244,4.179,9.928,6.5,3.17-1.556-1.85,27.5,15.061.845-3.31,1.638-6.629,2.639-9.9-1.726-1.661-3.6-3.464-5.5-5.3C579.017,586.571,575.161,582.685,570.738,579.641Z" transform="translate(-549.268 -472.981)" fill="#fff"/>
      <path id="Path_2564" data-name="Path 2564" d="M583.834,558.269c-5.463-14.041-16.7-14.151-17.2-3.611-.34,6.068,1.567,8.72,8.242,24.643a72.607,72.607,0,0,1,14.488-2.989A174.565,174.565,0,0,0,583.834,558.269Z" transform="translate(-526.634 -539.62)" fill="#fff"/>
      <path id="Path_2565" data-name="Path 2565" d="M590.483,561.01c-.01-7.049-2.134-14.786-7.3-16.156-5.175,1.37-7.3,9.106-7.309,16.156,0,2.079.421,10.036,1.018,20.158A72.868,72.868,0,0,1,589.4,582.4C590.027,571.7,590.49,563.173,590.483,561.01Z" transform="translate(-505.884 -544.854)" fill="#fff"/>
      <path id="Path_2566" data-name="Path 2566" d="M605.819,554.658c-.5-10.541-11.732-10.43-17.2,3.611a192.9,192.9,0,0,0-6.2,20.614A122.914,122.914,0,0,1,596,583.1C603.951,563.757,606.185,561.18,605.819,554.658Z" transform="translate(-491.236 -539.62)" fill="#fff"/>
      <path id="Path_2567" data-name="Path 2567" d="M602.832,599.065c-.537,2.541-.993,4.715-1.35,6.4.719-11.9,2.015-32.4,2.94-48.168a72.891,72.891,0,0,0-12.506-1.231c.933,15.916,2.276,37.188,3.012,49.4-.353-1.687-.813-3.86-1.347-6.4-1.872-8.844-5.943-27.516-9.935-42.618a72.624,72.624,0,0,0-14.488,2.989c3.728,8.889,8.941,21.913,16.075,41.984.738,2.095,1.373,6.295,2.671,9.345.722,1.707,1.658,3.051,2.931,3.462,1.777.573,4.721.44,6.256-.7.673-.5.046-2.617,1.118-2.782,1.065.165.44,2.28,1.11,2.782,1.539,1.14,4.482,1.273,6.26.7,1.273-.412,2.205-1.756,2.93-3.462,1.3-3.05,1.933-7.25,2.669-9.345,6.181-17.386,10.922-29.488,14.5-38.188a122.675,122.675,0,0,0-13.584-4.214C608.324,573.609,604.6,590.717,602.832,599.065Z" transform="translate(-520.911 -519.755)" fill="#f3ecda"/>
      <path id="Path_2568" data-name="Path 2568" d="M596.248,560.122a78.157,78.157,0,0,0-8.348,13.925,79.727,79.727,0,0,1,12.907,6.962c7.8-11.45,12.625-13.759,14.313-20.462C617.866,549.637,604.628,548.8,596.248,560.122Z" transform="translate(-478.963 -528.883)" fill="#fff"/>
      <path id="Path_2569" data-name="Path 2569" d="M585.266,599.078c-1.237,2.811-2.263,5.139-2.979,6.764-.366.81-.647,1.445-.841,1.879l-.23.489a.706.706,0,0,1-.09.161s1.557.816,3.283,1.716,3.28,1.713,3.283,1.713a.572.572,0,0,1,.081-.166c.062-.106.152-.265.272-.469.243-.408.6-1,1.059-1.765.923-1.516,2.247-3.688,3.847-6.312,22.616-36.851,20.491-33.447,21.586-35.17.489-.755.969-1.47,1.434-2.157a79.8,79.8,0,0,0-12.907-6.962C599.317,566.5,594.518,577.919,585.266,599.078Z" transform="translate(-494.127 -513.637)" fill="#f3ecda"/>
      <path id="Path_2570" data-name="Path 2570" d="M617.921,562.924c-10.948,10.643-21.295,24.519-29.115,36.7-1.531,2.362-2.749,4.345-3.6,5.732l-.988,1.609c-.116.184-.208.321-.266.417s-.1.14-.1.136,1.448,1,3.047,2.108,3.045,2.1,3.048,2.109.022-.053.091-.137l.29-.379c.263-.321.651-.8,1.144-1.408,1-1.207,2.444-2.924,4.251-4.955,3.589-4.07,8.611-9.381,13.958-14.53a185.848,185.848,0,0,1,17.91-15.359A54.789,54.789,0,0,0,617.921,562.924Z" transform="translate(-488.033 -504.41)" fill="#f3ecda"/>
      <path id="Path_2571" data-name="Path 2571" d="M617.653,566.336a5.058,5.058,0,0,0-.722-4.012c-2.176-3.209-9.229-4.132-16.92,2.344-1.89,1.6-3.776,3.335-5.641,5.148a54.806,54.806,0,0,1,9.666,12.047C613.68,574.651,616.646,574.017,617.653,566.336Z" transform="translate(-464.482 -511.303)" fill="#fff"/>
      <path id="Path_2572" data-name="Path 2572" d="M598.512,569.216a89.75,89.75,0,0,1,4.547,15.751,9.5,9.5,0,0,0,5.3-4.469C612.226,574.129,608.08,567.432,598.512,569.216Z" transform="translate(-455.211 -490.981)" fill="#fff"/>
      <path id="Path_2573" data-name="Path 2573" d="M601.562,584.334c-4.061,4.216-7.558,8.306-10.3,11.136-1.357,1.431-2.513,2.542-3.33,3.316-.414.376-.741.667-.961.868a1.814,1.814,0,0,1-.353.285l2.173,3c1.143,1.574,2.176,3,2.176,3a2.487,2.487,0,0,1,.418-.284c12.428-7.73,19.94-15.285,30.326-18.9,3.17-1.114,5.719-1.234,7.959-1.989a89.843,89.843,0,0,0-4.546-15.75C619.168,570.125,611.108,574.519,601.562,584.334Z" transform="translate(-481.826 -490.779)" fill="#f3ecda"/>
      <path id="Path_2574" data-name="Path 2574" d="M609.272,579.641c-4.423,3.044-8.28,6.93-14.614,13.018-1.9,1.837-3.776,3.64-5.5,5.3,1,3.267,1.794,6.587,2.636,9.9,29.057-16.91,21-11.891,27.5-15.061,3.41-1.684,4.485-6.157,4.184-9.928C622.306,576.665,616.108,574.959,609.272,579.641Z" transform="translate(-476.152 -472.981)" fill="#fff"/>
    </g>
    <path id="Path_2575" data-name="Path 2575" d="M702.043,630.61c0,39.2-32.677,70.971-72.993,70.971S556.058,669.8,556.058,630.61s32.681-70.976,72.992-70.976S702.043,591.408,702.043,630.61Z" transform="translate(22.082 40.572)" fill="#edcfab"/>
    <g id="Group_364" data-name="Group 364" transform="translate(546.192 602.256)">
      <g id="Group_357" data-name="Group 357" transform="translate(0 0)">
        <path id="Path_2576" data-name="Path 2576" d="M738.249,598.718a29.569,29.569,0,0,0-10.8-4.161c-4.317-.622-7.248,2.075-11.046,1.324-2.244-.447-4.175-1.8-6.224-2.811-6.376-3.144-11.191-1.48-17.651-.6-6.188.842-12.865-.246-19.051-1.548-9-1.9-16.2-3.309-24.092-3.151-7.895-.158-15.1,1.253-24.093,3.151-6.185,1.3-12.862,2.39-19.05,1.548-6.46-.884-11.276-2.548-17.648.6-2.05,1.01-3.983,2.364-6.227,2.811-3.8.751-6.725-1.946-11.045-1.324a29.549,29.549,0,0,0-10.8,4.161c-4.449,2.73-13.681,1.026-14.287,7.934-.535,6.075,7.875,7.613,11.868,10.029,6.871,4.158,13.387,8.851,20.358,12.866q2.565,1.476,5.172,2.892l-.962.029c.5.078,1,.179,1.5.266,13.552,7.357,27.894,13.5,42.8,16.989q2.342,1.21,4.686,2.4c5.751,2.915,11.67,5.729,17.723,8.083,6.055-2.354,11.971-5.168,17.723-8.083q2.346-1.19,4.689-2.4c14.905-3.491,29.244-9.631,42.8-16.989.5-.087,1-.187,1.5-.266l-.961-.029c1.735-.946,3.465-1.908,5.171-2.892,6.974-4.015,13.49-8.708,20.359-12.866,3.992-2.416,12.4-3.953,11.871-10.029C751.927,599.745,742.7,601.448,738.249,598.718Z" transform="translate(-546.142 -498.722)" fill="#fc9316"/>
        <path id="Path_2577" data-name="Path 2577" d="M647.455,655.271c-4.864-1.936-10-4.3-16.459-7.571q-2.337-1.185-4.673-2.393a2.791,2.791,0,0,0-.641-.237c-13.371-3.131-27.143-8.6-42.1-16.726a2.2,2.2,0,0,0-.279-.13c-.083-.058-.168-.107-.252-.158-1.966-1.072-3.591-1.982-5.12-2.86-3.844-2.211-7.636-4.7-11.307-7.1-2.921-1.913-5.939-3.885-9-5.738a33.475,33.475,0,0,0-3.941-1.9c-4.118-1.777-6.8-3.118-6.593-5.495.185-2.115,1.665-2.74,6.328-3.666a20.133,20.133,0,0,0,6.634-2.134,26.715,26.715,0,0,1,9.738-3.775,6.71,6.71,0,0,1,.92-.065,13.341,13.341,0,0,1,3.643.7,16.77,16.77,0,0,0,4.708.852,9.939,9.939,0,0,0,1.917-.185,18.764,18.764,0,0,0,5.359-2.219c.519-.281,1.036-.569,1.561-.826a14.052,14.052,0,0,1,6.532-1.548,38.538,38.538,0,0,1,6.223.7c1.056.175,2.144.353,3.281.508a37.425,37.425,0,0,0,5.007.324,73.8,73.8,0,0,0,15-1.907c8.61-1.813,15.249-3.1,22.324-3.1.378,0,.758.007,1.136.013h.11c.382-.006.761-.013,1.14-.013,7.072,0,13.714,1.288,22.321,3.1a73.825,73.825,0,0,0,15,1.907,37.417,37.417,0,0,0,5.005-.324c1.137-.155,2.225-.334,3.281-.508a38.58,38.58,0,0,1,6.227-.7,14.039,14.039,0,0,1,6.528,1.548c.525.256,1.043.544,1.56.826a18.833,18.833,0,0,0,5.357,2.219,10.014,10.014,0,0,0,1.92.185,16.792,16.792,0,0,0,4.712-.852,13.337,13.337,0,0,1,3.643-.7,6.656,6.656,0,0,1,.917.065,26.709,26.709,0,0,1,9.737,3.775,20.1,20.1,0,0,0,6.635,2.134c1.869.369,4.8.667,6.056,2.322a4.133,4.133,0,0,1-.453,5.877,9.4,9.4,0,0,1-2.937,1.467c-2.548.867-5.877.767-8.112,2.156-2.61,1.619-5.184,3.3-7.755,4.977-3.669,2.4-7.467,4.887-11.308,7.1-1.525.874-3.154,1.785-5.12,2.856a2.933,2.933,0,0,0-.249.158,2.262,2.262,0,0,0-.283.13c-14.957,8.125-28.729,13.594-42.1,16.726a2.823,2.823,0,0,0-.645.237q-2.336,1.2-4.672,2.393C657.451,650.975,652.321,653.335,647.455,655.271Z" transform="translate(-544.211 -496.793)" fill="#ffd8a1"/>
        <path id="Path_2578" data-name="Path 2578" d="M691.552,618.656c0,17.956-30.112,32.512-67.254,32.512s-67.255-14.556-67.255-32.512,30.109-32.511,67.255-32.511S691.552,600.7,691.552,618.656Z" transform="translate(-521.906 -502.346)" fill="#edcfab"/>
        <g id="Group_353" data-name="Group 353" transform="translate(33.159)">
          <path id="Path_2579" data-name="Path 2579" d="M700.426,632.266a72,72,0,1,1-72-72A72,72,0,0,1,700.426,632.266Z" transform="translate(-556.432 -560.267)" fill="#93d3e9"/>
          <ellipse id="Ellipse_22" data-name="Ellipse 22" cx="71.008" cy="65.167" rx="71.008" ry="65.167" transform="translate(1.977 0.001)" fill="#a3dffa"/>
          <path id="Path_2580" data-name="Path 2580" d="M677.973,612.9c0,27.984-25.594,50.671-57.173,50.671s-57.174-22.687-57.174-50.671,25.6-50.672,57.174-50.672S677.973,584.916,677.973,612.9Z" transform="translate(-540.333 -555.876)" fill="#bfe8f9"/>
          <path id="Path_2581" data-name="Path 2581" d="M648.95,604.876c-3.494,11.385-20.161,5.544-41.565-1.026s-39.435-11.379-35.942-22.764,28.564-20.78,49.966-14.209S652.444,593.49,648.95,604.876Z" transform="translate(-523.809 -550.332)" fill="#fff"/>
        </g>
        <path id="Path_2582" data-name="Path 2582" d="M750.925,597.151c.69,4.731-1.24,8.785-6.2,9.834-1.49.314-3.135-.03-4.569.3-1.405.321-2.9,1.455-4.187,2.121q-4.522,2.351-9.047,4.7a75.752,75.752,0,0,1-10.78,4.91,60.887,60.887,0,0,1-15.13,2.594c-2.111.142-3.879.061-5.728,1.029-2.041,1.065-4.081,2.108-6.192,3.041-19.643,8.695-41.944,9.9-63.235,7.039-14.284-1.919-28.266-5.592-42.029-9.805-6.636-2.03-13.216-4.562-19.932-6.265a23.772,23.772,0,0,1-13.529-8.9c-2.491-3.571-6.208-14.336.505-15.6-1.237.233,1.337,6.11,1.746,6.638a15.871,15.871,0,0,0,5.809,4.141c4.18,1.946,8.73,1.483,13.212,1.674,7.807.324,11.344,6.7,18.39,8.4,7.6,1.674,8.349-2.124,15.841-.783,3.837.68,6.48,3.992,9.961,4.682,4.961.988,10.294-2.716,16.149-1.3,4.564,1.107,9.281,4.245,14.178,4.945,6.272.894,10.592-3.51,16.5-4.945,5.845-1.412,11.187,2.293,16.149,1.3,3.481-.69,6.126-4,9.961-4.682,7.493-1.341,8.244,2.458,15.841.783,7.557-1.816,6.593-5.56,13.944-7.645,3.989-1.13,7.292-.029,11.258-.178a18.407,18.407,0,0,0,6.312-1.784,27.148,27.148,0,0,1,5.654-1.078c1.92-.324,3.406-1.6,5.022-2.648a5.76,5.76,0,0,0,2.674-6.185C749.834,594.791,750.728,595.772,750.925,597.151Z" transform="translate(-544.23 -488.882)" fill="#fff"/>
        <g id="Group_354" data-name="Group 354" transform="translate(0.488 112.606)">
          <path id="Path_2583" data-name="Path 2583" d="M751.461,597.405a21.248,21.248,0,0,1-3.844,7.3c-4.459,5.722-12.186,4.773-16.848,9.828-3.806,4.143-5.036,9.495-10.007,12.658-4.533,2.885-9.579,3.147-14.7,3.8-5.521.7-5.949,1.534-9.067,5.352-3.527,4.326-10.706,7.723-16.185,8.775-4.246.81-8.42-1.266-12.668-.67-4.164.592-7.788,3.37-11.995,4.2a40.419,40.419,0,0,1-12.875.145,24.7,24.7,0,0,1-6.02-1.053c-2.64-1.007-4.566-2.885-7.5-3.3-4.252-.6-8.422,1.48-12.668.67-5.482-1.052-12.658-4.45-16.188-8.775-3.118-3.818-3.546-4.654-9.064-5.352-5.129-.652-10.175-.914-14.708-3.8-4.97-3.164-6.2-8.516-10.006-12.649-4.012-4.354-10.964-3.9-15.32-7.875-1.667-1.529-4.663-7.072-5.453-11.625l.055.009c4.459.949,7.082,4.579,10.955,6.441s8.1,2.15,12.312,2.185c1.036.01,2.143.019,3.361.065,2.636.113,4.488,1.295,7.532,3.381a28.922,28.922,0,0,0,9.792,4.867.357.357,0,0,0,.1.019,21.849,21.849,0,0,0,4.837.567,20.972,20.972,0,0,0,5.968-.939,11.111,11.111,0,0,1,3.19-.567,12.652,12.652,0,0,1,2.069.2,11.307,11.307,0,0,1,3.258,1.667,19.227,19.227,0,0,0,6.589,3.006,15.612,15.612,0,0,0,2.891.268,28.871,28.871,0,0,0,6.694-1,22.021,22.021,0,0,1,4.812-.79,6.563,6.563,0,0,1,1.519.165,35.382,35.382,0,0,1,5.2,1.957A37.222,37.222,0,0,0,647,619.632a17.635,17.635,0,0,0,2.438.178c4.449,0,7.986-1.693,11.1-3.186a26.743,26.743,0,0,1,5.055-2.037,6.687,6.687,0,0,1,1.526-.165,22,22,0,0,1,4.812.79,28.887,28.887,0,0,0,6.693,1,15.572,15.572,0,0,0,2.891-.268,19.228,19.228,0,0,0,6.59-3.006,11.273,11.273,0,0,1,3.261-1.667,12.589,12.589,0,0,1,2.067-.2,11.131,11.131,0,0,1,3.192.567,20.959,20.959,0,0,0,5.968.939,21.894,21.894,0,0,0,4.838-.567.4.4,0,0,0,.1-.019,20.005,20.005,0,0,0,9.546-5.055,9.879,9.879,0,0,1,4.617-2.642l.094-.03c3.222-1,6.454-.036,9.776-.7C738.454,602.2,744.133,597.24,751.461,597.405Z" transform="translate(-546.343 -595.041)" fill="#fc9316"/>
        </g>
        <g id="Group_355" data-name="Group 355" transform="translate(0 105.044)">
          <path id="Path_2584" data-name="Path 2584" d="M751.8,602.634a21.37,21.37,0,0,1-3.843,7.293c-3.693,4.737-9.625,4.9-14.2,7.688a12.186,12.186,0,0,0-2.653,2.144c-2.5,2.72-3.889,5.958-5.948,8.759a15.081,15.081,0,0,1-4.061,3.9c-4.533,2.885-9.576,3.14-14.7,3.8a25.623,25.623,0,0,0-3.086.534c-2.769.7-3.578,1.872-5.981,4.815a18.367,18.367,0,0,1-3.122,2.95,33.469,33.469,0,0,1-13.063,5.825c-3.228.619-6.408-.441-9.62-.709a12.847,12.847,0,0,0-3.047.042,19.608,19.608,0,0,0-5.009,1.587,35.116,35.116,0,0,1-6.981,2.614,40.344,40.344,0,0,1-12.873.145c-.693-.083-1.382-.145-2.059-.223a15.34,15.34,0,0,1-3.964-.829c-2.416-.923-4.236-2.574-6.778-3.157a5.164,5.164,0,0,0-.719-.137c-4.261-.6-8.429,1.478-12.668.667a33.517,33.517,0,0,1-9.429-3.487,26.756,26.756,0,0,1-4.6-3.112,17.37,17.37,0,0,1-2.16-2.177c-3.118-3.814-3.546-4.656-9.068-5.349-.1-.016-.2-.026-.3-.039-5.025-.631-9.964-.928-14.407-3.759-3.844-2.451-5.453-6.211-7.739-9.7a23.121,23.121,0,0,0-2.263-2.953,13.643,13.643,0,0,0-5.463-3.358c-3.4-1.282-7.141-2.033-9.863-4.521-4.981-4.549-8.093-13.124-4.152-19.183-.191.195,3.356,9.144,4.145,10.165,2.407,3.1,6.558,4.638,10.278,5.385a34.248,34.248,0,0,0,5.832.613c.586.026,1.178.032,1.771.039,1.033.007,2.14.02,3.362.061,2.63.116,4.485,1.3,7.526,3.381a31.3,31.3,0,0,0,8.506,4.514c.415.133.849.249,1.289.357a.589.589,0,0,0,.1.019,22.087,22.087,0,0,0,4.678.566h.159a20.9,20.9,0,0,0,5.968-.942,11.15,11.15,0,0,1,3.193-.566,12.556,12.556,0,0,1,2.066.2,10.962,10.962,0,0,1,3.258,1.667,19.247,19.247,0,0,0,6.592,3,15.307,15.307,0,0,0,2.891.275,24.153,24.153,0,0,0,5.172-.657c.525-.113,1.033-.233,1.522-.35a25.807,25.807,0,0,1,4.248-.77c.187-.013.382-.02.567-.02a6.286,6.286,0,0,1,1.519.165,35.339,35.339,0,0,1,5.2,1.959,37.2,37.2,0,0,0,9.511,3.083c.323.045.656.083.98.116.492.04.975.066,1.46.066,4.45,0,7.985-1.7,11.108-3.184a26.864,26.864,0,0,1,5.048-2.04c.172-.035.349-.075.528-.1a7.248,7.248,0,0,1,1-.064,22.225,22.225,0,0,1,4.816.79l.152.039a28.6,28.6,0,0,0,6.541.968,15.317,15.317,0,0,0,2.892-.275,19.168,19.168,0,0,0,6.587-3A10.971,10.971,0,0,1,691.7,616.5a12.693,12.693,0,0,1,2.073-.2,9.218,9.218,0,0,1,2.613.411c.184.046.375.1.573.155a21.628,21.628,0,0,0,5.316.929c.211.007.428.013.651.013a21.943,21.943,0,0,0,4.845-.566.786.786,0,0,0,.1-.019,20.1,20.1,0,0,0,9.55-5.056,9.833,9.833,0,0,1,4.618-2.645l.09-.026a13.573,13.573,0,0,1,4.339-.486,25.841,25.841,0,0,0,5.438-.218c.344-.068.683-.146,1.019-.237C739.271,606.88,744.87,602.473,751.8,602.634Z" transform="translate(-546.192 -592.706)" fill="#fc9316"/>
        </g>
        <g id="Group_356" data-name="Group 356" transform="translate(0 105.044)">
          <path id="Path_2585" data-name="Path 2585" d="M688.706,605.583c-5.738.634-9.562,5.735-14.662,9.559-7.014,4.462-15.3-.635-21.674,3.827-8.29,7.015-20.4,2.552-28.688,2.552-14.028-.638-27.411-2.552-39.526-11.476-8.5-6-20.53-2.591-29.633-6.38a15.4,15.4,0,0,0,4.288,4.226c4.443,2.83,9.381,3.128,14.406,3.759.1.013.2.022.3.039,5.521.693,5.948,1.535,9.067,5.349a17.232,17.232,0,0,0,2.16,2.176,26.673,26.673,0,0,0,4.6,3.112,33.508,33.508,0,0,0,9.43,3.487c4.239.81,8.406-1.269,12.668-.667a4.952,4.952,0,0,1,.719.136c2.542.583,4.362,2.235,6.778,3.157a15.334,15.334,0,0,0,3.964.828c.677.078,1.367.14,2.06.224a40.4,40.4,0,0,0,12.871-.146,35.2,35.2,0,0,0,6.982-2.613,19.585,19.585,0,0,1,5.009-1.587,12.826,12.826,0,0,1,3.048-.042c3.211.269,6.392,1.328,9.62.709a33.475,33.475,0,0,0,13.063-5.826,18.406,18.406,0,0,0,3.122-2.95c2.4-2.943,3.212-4.115,5.981-4.815a25.586,25.586,0,0,1,3.086-.534c5.129-.657,10.171-.913,14.7-3.8.22-.139.428-.282.629-.428C698.392,606.159,693.683,605,688.706,605.583Z" transform="translate(-527.544 -568.177)" fill="#f1820e"/>
          <path id="Path_2586" data-name="Path 2586" d="M725.158,628.518c2.06-2.8,3.451-6.039,5.948-8.759a12.186,12.186,0,0,1,2.653-2.144c4.572-2.788,10.5-2.95,14.2-7.688a21.37,21.37,0,0,0,3.843-7.293c-6.929-.161-12.528,4.246-18.869,5.92-.337.091-.676.168-1.019.237a25.841,25.841,0,0,1-5.437.218,13.573,13.573,0,0,0-4.339.486l-.09.026a9.833,9.833,0,0,0-4.618,2.645,20.1,20.1,0,0,1-9.55,5.056.786.786,0,0,1-.1.019,21.943,21.943,0,0,1-4.845.566c-.223,0-.439-.006-.651-.013a21.628,21.628,0,0,1-5.316-.929c-.2-.059-.389-.109-.573-.155a9.218,9.218,0,0,0-2.613-.411,12.693,12.693,0,0,0-2.073.2,10.971,10.971,0,0,0-3.257,1.667,19.168,19.168,0,0,1-6.587,3,15.317,15.317,0,0,1-2.892.275,28.6,28.6,0,0,1-6.541-.968l-.152-.039a22.225,22.225,0,0,0-4.816-.79,7.248,7.248,0,0,0-1,.064c-.178.026-.356.065-.528.1a26.864,26.864,0,0,0-5.048,2.04c-3.123,1.487-6.658,3.184-11.108,3.184-.486,0-.969-.026-1.46-.066-.324-.032-.658-.071-.98-.116a37.2,37.2,0,0,1-9.511-3.083,35.339,35.339,0,0,0-5.2-1.959,6.286,6.286,0,0,0-1.519-.165c-.184,0-.379.007-.567.02a25.807,25.807,0,0,0-4.248.77c-.489.117-1,.237-1.522.35a24.153,24.153,0,0,1-5.172.657,15.307,15.307,0,0,1-2.891-.275,19.247,19.247,0,0,1-6.592-3,10.962,10.962,0,0,0-3.258-1.667,12.556,12.556,0,0,0-2.066-.2,11.15,11.15,0,0,0-3.193.566,20.9,20.9,0,0,1-5.968.942h-.159a22.087,22.087,0,0,1-4.678-.566.589.589,0,0,1-.1-.019c-.44-.108-.874-.224-1.289-.357a31.3,31.3,0,0,1-8.506-4.514c-3.041-2.086-4.9-3.264-7.526-3.381-1.221-.042-2.329-.054-3.362-.061-.592-.006-1.185-.013-1.771-.039a34.248,34.248,0,0,1-5.832-.613c-3.72-.748-7.871-2.289-10.278-5.385-.79-1.02-4.336-9.97-4.145-10.165-3.94,6.059-.829,14.634,4.152,19.183,2.722,2.488,6.463,3.239,9.863,4.521a13.643,13.643,0,0,1,5.463,3.358,23.121,23.121,0,0,1,2.263,2.953c1.2,1.823,2.212,3.724,3.451,5.472,9.1,3.789,21.13.38,29.634,6.379,12.114,8.925,25.5,10.838,39.525,11.477,8.287,0,20.4,4.463,28.688-2.552,6.372-4.462,14.659.634,21.673-3.827,5.1-3.825,8.925-8.925,14.663-9.559,4.976-.587,9.685.576,14.371,1.881A15.4,15.4,0,0,0,725.158,628.518Z" transform="translate(-546.192 -592.706)" fill="#fc9316"/>
        </g>
      </g>
      <g id="Group_358" data-name="Group 358" transform="translate(15.764 120.594)">
        <path id="Path_2587" data-name="Path 2587" d="M558.825,611.973a23.137,23.137,0,0,0-2.264-2.953,13.645,13.645,0,0,0-5.463-3.358,47.524,47.524,0,0,1,.408-8.154,34.171,34.171,0,0,0,5.832.612A35.633,35.633,0,0,0,558.825,611.973Z" transform="translate(-551.06 -597.508)" fill="#e77c12"/>
      </g>
      <g id="Group_359" data-name="Group 359" transform="translate(43.152 129.202)">
        <path id="Path_2588" data-name="Path 2588" d="M573.566,627.047a17.316,17.316,0,0,1-2.16-2.176c-3.118-3.815-3.546-4.656-9.067-5.349-.1-.016-.2-.026-.3-.04a54.3,54.3,0,0,1-2.468-19.316c.415.133.849.25,1.289.357a.531.531,0,0,0,.1.019,22.092,22.092,0,0,0,4.679.567c.343,8.643,1.791,17.179,6.732,24.323C572.756,625.978,573.151,626.519,573.566,627.047Z" transform="translate(-559.518 -600.166)" fill="#e77c12"/>
      </g>
      <g id="Group_360" data-name="Group 360" transform="translate(78.423 132.006)">
        <path id="Path_2589" data-name="Path 2589" d="M581.691,626.377a60.341,60.341,0,0,0,5.654,8.785,15.346,15.346,0,0,1-3.963-.829c-2.416-.923-4.235-2.574-6.778-3.157-.5-.923-.975-1.859-1.415-2.814a52.917,52.917,0,0,1-4.627-26.21c.524-.113,1.033-.233,1.522-.35a25.911,25.911,0,0,1,4.249-.77C576.562,609.771,577.56,618.408,581.691,626.377Z" transform="translate(-570.41 -601.032)" fill="#e77c12"/>
      </g>
      <g id="Group_361" data-name="Group 361" transform="translate(117.271 131.987)">
        <path id="Path_2590" data-name="Path 2590" d="M592.339,616.735a50.527,50.527,0,0,1-1.875,14.278,12.784,12.784,0,0,0-3.047.042,19.548,19.548,0,0,0-5.01,1.587c5.292-9.239,3.339-20.935,3-31.55a7.03,7.03,0,0,1,1-.065,22.246,22.246,0,0,1,4.816.79l.152.039A73.333,73.333,0,0,1,592.339,616.735Z" transform="translate(-582.407 -601.026)" fill="#e77c12"/>
      </g>
      <g id="Group_362" data-name="Group 362" transform="translate(148.018 129.046)">
        <path id="Path_2591" data-name="Path 2591" d="M601.216,615c.005,1.767-.059,3.487-.217,5.159-2.769.7-3.579,1.871-5.982,4.814a18.611,18.611,0,0,1-3.115,2.95,14.764,14.764,0,0,0,1.784-3.869,39.736,39.736,0,0,0,1.056-9.666,130.977,130.977,0,0,0-.66-14.274c.184.046.376.1.573.156a21.657,21.657,0,0,0,5.316.928A69.14,69.14,0,0,1,601.216,615Z" transform="translate(-591.902 -600.118)" fill="#e77c12"/>
      </g>
      <g id="Group_363" data-name="Group 363" transform="translate(178.966 120.892)">
        <path id="Path_2592" data-name="Path 2592" d="M610.06,606.661a12.193,12.193,0,0,0-2.653,2.144c-2.5,2.72-3.889,5.959-5.948,8.76a19.413,19.413,0,0,0,2.085-8.264,85.656,85.656,0,0,0-.771-11.247,25.742,25.742,0,0,0,5.437-.217c.343-.067.683-.145,1.02-.236A58.986,58.986,0,0,1,610.06,606.661Z" transform="translate(-601.459 -597.6)" fill="#e77c12"/>
      </g>
      <path id="Path_2593" data-name="Path 2593" d="M709.8,595.565c-.638,2.536-2.976,5.942-4.556,7.973-3.691,4.737-9.624,4.9-14.2,7.688a12.2,12.2,0,0,0-2.652,2.144c-2.5,2.72-3.889,5.958-5.948,8.759a15.084,15.084,0,0,1-4.061,3.9c-4.533,2.885-9.575,3.141-14.7,3.8a25.336,25.336,0,0,0-3.086.534c-2.769.7-3.578,1.872-5.981,4.815a18.412,18.412,0,0,1-3.122,2.95,33.477,33.477,0,0,1-13.062,5.825c-3.229.619-6.409-.44-9.621-.709a12.809,12.809,0,0,0-3.047.042,19.566,19.566,0,0,0-5.01,1.587,35.213,35.213,0,0,1-6.982,2.613,40.384,40.384,0,0,1-12.871.145c-.693-.084-1.383-.145-2.06-.223a15.356,15.356,0,0,1-3.964-.829c-2.416-.923-4.235-2.574-6.777-3.157a5.048,5.048,0,0,0-.719-.136c-4.262-.6-8.429,1.477-12.668.667a33.517,33.517,0,0,1-9.429-3.487c15.255-5.492,28.969-13.64,40.322-21.884.493.039.975.065,1.461.065,4.45,0,7.985-1.7,11.107-3.184a26.913,26.913,0,0,1,5.048-2.04c.172-.036.35-.075.528-.1a7.074,7.074,0,0,1,1-.064,22.25,22.25,0,0,1,4.815.79l.153.039a28.617,28.617,0,0,0,6.542.969,15.258,15.258,0,0,0,2.891-.276,19.155,19.155,0,0,0,6.587-3,11.018,11.018,0,0,1,3.258-1.668,12.792,12.792,0,0,1,2.073-.2,9.227,9.227,0,0,1,2.614.412q.276.068.573.155a21.623,21.623,0,0,0,5.317.93c.211.007.427.013.651.013a21.94,21.94,0,0,0,4.844-.567.653.653,0,0,0,.1-.02,20.1,20.1,0,0,0,9.55-5.055,9.823,9.823,0,0,1,4.618-2.646l.091-.025a13.553,13.553,0,0,1,4.339-.486,25.882,25.882,0,0,0,5.437-.217q.515-.1,1.02-.233C696.451,600.516,703.027,595.409,709.8,595.565Z" transform="translate(-503.476 -481.272)" fill="#9e9a96" opacity="0.45"/>
    </g>
  </g>
</svg>
