<svg xmlns="http://www.w3.org/2000/svg" width="53.267" height="35.544" viewBox="0 0 53.267 35.544">
  <g id="Footwear" transform="translate(-537.802 -374.049)">
    <path id="Path_2619" data-name="Path 2619" d="M589.115,409.593h-6.133a12.261,12.261,0,0,1-3.98-.742c-3.478-1.73-5.631-4.614-6.875-6.041-5.682-6.512-7.872-6.445-10.811-8.065-.658-.367-5.349-3.726-5.834-4.8l1.99-2.224c-.013-.013-.021-.02-.023-.02l.227-.254s.011.007.027.02l7.927-8.852a8.3,8.3,0,0,0,.718-.8c.027-.034.051-.064.075-.1.064-.088.126-.17.18-.251.817-1.22.471-1.844,1-2.705a1.2,1.2,0,0,1,1.881-.417s1.14.543,1.014,2.611a5.994,5.994,0,0,0,2.315,5.682c1.573,1.359,5.326-.081,5.326-.081s.071-.024.193-.058c.746-.223,3.444-.956,4.071-.24a10.754,10.754,0,0,1,.678,2.22c.1.414.217.871.339,1.363s.247,1.014.379,1.563c.109.441.22.9.339,1.362s.233.929.356,1.4c.115.451.237.905.359,1.356.129.478.261.956.4,1.421s.265.912.4,1.349c.132.417.265.821.4,1.207.166.471.329.915.5,1.322.176.427.349.814.522,1.149a3.533,3.533,0,0,0,1.037,1.353,21.15,21.15,0,0,0,3.329,1.244h0c.006,0,.014,0,.02.007a.1.1,0,0,1,.027.007c.2.061.315.095.315.095,2.926.841,4.97,1.044,5.939,2.424a.047.047,0,0,1,.011.014,2.608,2.608,0,0,1,.25.444,3.883,3.883,0,0,1,.319,1.139C598.4,405.233,597.55,409.593,589.115,409.593Z" transform="translate(-7.262 0)" fill="#2b437a"/>
    <path id="Path_2620" data-name="Path 2620" d="M555.441,401.005a.013.013,0,0,0,0,.01l-.054.061Z" transform="translate(-7.224 -11.071)" fill="#fff"/>
    <path id="Path_2621" data-name="Path 2621" d="M559.073,396.8l-.23.254c-.014-.013-.021-.02-.024-.02l.227-.254S559.057,396.789,559.073,396.8Z" transform="translate(-8.632 -9.337)" fill="#fff"/>
    <path id="Path_2622" data-name="Path 2622" d="M537.8,391.828l3.125,6.621,23.023,14.059Z" transform="translate(0 -7.302)" fill="#ea362a"/>
    <path id="Path_2623" data-name="Path 2623" d="M554.286,416.624l17.855,8.368-.341-.215L552,412.279Z" transform="translate(-5.83 -15.702)" fill="#ea362a"/>
    <path id="Path_2624" data-name="Path 2624" d="M591.33,388.4s2.968-.886,3.8,1.926,3.02,12.651,4.373,13.276a4.977,4.977,0,0,0,3.176,0" transform="translate(-21.985 -5.842)" fill="none" stroke="#fff" stroke-miterlimit="10" stroke-width="1"/>
    <path id="Path_2625" data-name="Path 2625" d="M599.463,412.286a2.151,2.151,0,0,1-.085.61,2.794,2.794,0,0,1-1.041,1.448c-2.234,1.743-7.35,2.248-11.506,2.248a30.5,30.5,0,0,1-5.773-.424c-1.39-.346-3.953-3.258-6.665-6.336s-5.5-6.252-7.19-6.946c-3.292-1.353-8-5.506-8.36-5.828-.014-.013-.021-.02-.024-.02l.227-.254s.011.007.027.02a64.264,64.264,0,0,0,8.784,5.065c1.763.725,4.061,4.634,6.791,7.74,2.559,2.905,5.2,5.909,6.5,6.231,2.156.542,13.483.973,16.984-1.763a2.549,2.549,0,0,0,.864-1.091,0,0,0,0,0,0,0,1.85,1.85,0,0,0,.122-.542c0-.051.007-.1.007-.153Z" transform="translate(-8.632 -9.337)" fill="#fff"/>
    <path id="Path_2626" data-name="Path 2626" d="M601.051,391.787a.712.712,0,0,1-.5.906,15.767,15.767,0,0,1-4.809.669.711.711,0,0,1-.732-.733h0a.74.74,0,0,1,.755-.672,14.351,14.351,0,0,0,4.38-.61.739.739,0,0,1,.909.44Z" transform="translate(-23.494 -7.092)" fill="#fff"/>
    <path id="Path_2627" data-name="Path 2627" d="M602.179,396.773a.712.712,0,0,1-.5.906,15.77,15.77,0,0,1-4.81.669.712.712,0,0,1-.732-.733h0a.74.74,0,0,1,.755-.672,14.33,14.33,0,0,0,4.38-.61.741.741,0,0,1,.91.44Z" transform="translate(-23.957 -9.139)" fill="#fff"/>
    <path id="Path_2628" data-name="Path 2628" d="M603.531,401.421a.711.711,0,0,1-.5.905,15.748,15.748,0,0,1-4.809.67.712.712,0,0,1-.732-.734h0a.74.74,0,0,1,.755-.672,14.334,14.334,0,0,0,4.38-.61.74.74,0,0,1,.91.44Z" transform="translate(-24.513 -11.048)" fill="#fff"/>
    <path id="Path_2629" data-name="Path 2629" d="M604.72,406.161a.712.712,0,0,1-.5.906,15.77,15.77,0,0,1-4.81.669.711.711,0,0,1-.731-.733h0a.74.74,0,0,1,.754-.672,14.35,14.35,0,0,0,4.38-.61.739.739,0,0,1,.91.44Z" transform="translate(-25.001 -12.995)" fill="#fff"/>
    <path id="Path_2630" data-name="Path 2630" d="M605.918,410.538a.711.711,0,0,1-.5.905,15.748,15.748,0,0,1-4.81.67.711.711,0,0,1-.731-.733h0a.74.74,0,0,1,.755-.672,14.337,14.337,0,0,0,4.38-.611.74.74,0,0,1,.909.44Z" transform="translate(-25.493 -14.793)" fill="#fff"/>
    <path id="Path_2631" data-name="Path 2631" d="M616.5,419.054s3.566.938,4.894.345c1.142-.51,1.731,1.853,1.289,2.727s-4.948-.326-5.273-.933S616.5,419.054,616.5,419.054Z" transform="translate(-32.324 -18.485)" fill="#ea362a"/>
  </g>
</svg>
