<svg xmlns="http://www.w3.org/2000/svg" xmlns:xlink="http://www.w3.org/1999/xlink" width="28.895" height="39.913" viewBox="0 0 28.895 39.913">
  <defs>
    <clipPath id="clip-path">
      <rect id="Rectangle_1697" data-name="Rectangle 1697" width="28.895" height="39.913" fill="none"/>
    </clipPath>
  </defs>
  <g id="Ceramic" transform="translate(-42 -993)">
    <g id="Group_450" data-name="Group 450" transform="translate(42 993)">
      <g id="Group_449" data-name="Group 449" transform="translate(0 0)" clip-path="url(#clip-path)">
        <path id="Path_2967" data-name="Path 2967" d="M986.67,538.817a8.957,8.957,0,0,0-1.661,1.446,5.609,5.609,0,0,0-.867,1.306,5.688,5.688,0,0,0-.032,4.376c-3.766.34-5.123,6.176-8.889,5.992-1.116-.054-4.641-5.892-5.757-5.992a5.692,5.692,0,0,0-.033-4.376,5.634,5.634,0,0,0-.867-1.306,8.939,8.939,0,0,0-1.66-1.446q3.226-.39,6.453-.528a81.854,81.854,0,0,1,13.313.528Zm0,0" transform="translate(-962.338 -538.217)" fill="#7d5942"/>
      </g>
    </g>
    <path id="Path_2968" data-name="Path 2968" d="M980.242,553.649a13.718,13.718,0,0,1,6.445,11.639,21.6,21.6,0,0,1-7.533,15.593,1.712,1.712,0,0,0,.015,2.7,16.445,16.445,0,0,1,2.324,2.25H964.428a16.449,16.449,0,0,1,2.325-2.25,1.712,1.712,0,0,0,.015-2.7,21.6,21.6,0,0,1-7.532-15.593,13.717,13.717,0,0,1,6.445-11.639" transform="translate(-916.514 447.085)" fill="#bb9d6d"/>
    <path id="Path_2969" data-name="Path 2969" d="M970.044,580.88c-2.106-3.5-3.549-10.241-3.549-15.593,0-4.907,1.213-9.212,3.037-11.639h-3.851a13.717,13.717,0,0,0-6.445,11.639,21.6,21.6,0,0,0,7.532,15.593,1.712,1.712,0,0,1-.015,2.7,16.423,16.423,0,0,0-2.325,2.25h4.513a16.154,16.154,0,0,1,1.1-2.25,3.092,3.092,0,0,0,.008-2.7Zm0,0" transform="translate(-916.514 447.085)" fill="#90735a"/>
    <path id="Path_2970" data-name="Path 2970" d="M973.356,546.023l-.545.228q-1.673-.082-3.347-.233c.855-2.543.6-4.946-2.561-7.129q3.226-.39,6.453-.528a7.471,7.471,0,0,1,0,7.662Zm0,0" transform="translate(-920.338 454.711)" fill="#bb9d6d"/>
    <path id="Path_2971" data-name="Path 2971" d="M986.662,541.893a5.605,5.605,0,0,0-.867,1.306,81.2,81.2,0,0,0-14.71,0,5.631,5.631,0,0,0-.868-1.306l.43-.041a82.51,82.51,0,0,1,15.585,0Zm0,0" transform="translate(-921.991 453.154)" fill="#604333"/>
    <path id="Path_2972" data-name="Path 2972" d="M986,576.874H958.549a.691.691,0,1,1,0-1.381H986a.691.691,0,0,1,0,1.381Zm0,0" transform="translate(-915.826 436.189)" fill="#604333"/>
    <path id="Path_2973" data-name="Path 2973" d="M986,587H960.114a.69.69,0,1,1,0-1.381H986A.69.69,0,0,1,986,587Zm0,0" transform="translate(-916.607 431.14)" fill="#604333"/>
  </g>
</svg>
