<svg xmlns="http://www.w3.org/2000/svg" width="44.059" height="29.397" viewBox="0 0 44.059 29.397">
  <g id="Paper_Icon" transform="translate(-406.968 -547.615)">
    <path id="Path_2632" data-name="Path 2632" d="M451.658,575.064c-1.2.576-2.4,1.156-3.6,1.729q-5.6,2.672-11.2,5.342a1.471,1.471,0,0,1-.649.182,48.79,48.79,0,0,1-20.926-4.4,30.864,30.864,0,0,1-3.265-1.768c-.326-.2-.655-.424-.622-.861s.377-.617.729-.777c2.537-1.148,5.076-2.291,7.6-3.457.329-.152.471-.058.675.191a28.368,28.368,0,0,0,8.39,7.168,21.526,21.526,0,0,0,7.379,2.451,1.353,1.353,0,0,0,.79-.158c3.941-1.8,7.885-3.588,11.817-5.4a3.3,3.3,0,0,1,1.685-.361c.386.03.777.005,1.166.005Z" transform="translate(-1.983 -10.476)" fill="#ffd22e"/>
    <path id="Path_2633" data-name="Path 2633" d="M450.22,584.268q-2.515,1.111-5.031,2.221-5.206,2.294-10.412,4.589a1.588,1.588,0,0,1-.657.157q-13.437-.006-26.874,0c-.031,0-.062-.007-.11-.012.082-.176.261-.188.4-.243,3.138-1.269,6.28-2.53,9.417-3.805a1.118,1.118,0,0,1,.84-.023,49.631,49.631,0,0,0,12.924,2.456c1.075.065,2.151.068,3.226.1a3.3,3.3,0,0,0,1.586-.374q5.213-2.512,10.442-4.992a1.253,1.253,0,0,1,.555-.163c1.223.007,2.446,0,3.669,0Z" transform="translate(-0.076 -16.389)" fill="#e0e0df"/>
    <g id="Group_368" data-name="Group 368" transform="translate(406.968 568.42)">
      <path id="Path_2634" data-name="Path 2634" d="M457.306,593.916a3.984,3.984,0,0,1,.038-1.545c.2-.439.865-.5,1.331-.716q6.825-3.1,13.657-6.19c.5-.227.439-.219.518.331.12.837-.238,1.2-.985,1.528-4.676,2.067-9.325,4.194-13.981,6.306-.168.076-.378.1-.481.287Z" transform="translate(-429.506 -585.325)" fill="#465c6c"/>
      <path id="Path_2635" data-name="Path 2635" d="M406.968,598.057q13.438,0,26.877-.012c.348,0,.441.11.441.447,0,1.028.013,1.028-1.028,1.028l-26.29-.005Z" transform="translate(-406.968 -591.027)" fill="#465c6c"/>
    </g>
    <path id="Path_2636" data-name="Path 2636" d="M456.341,560.5a22.971,22.971,0,0,1-14.883-6.717,19.576,19.576,0,0,1-3.185-4.551,2.709,2.709,0,0,0-2.931-1.556q-6.535,1.548-13.059,3.14a1.88,1.88,0,0,0-1.241,2.869,34.772,34.772,0,0,0,8.12,10.127,22.85,22.85,0,0,0,10.458,5.12,3.6,3.6,0,0,0,2.358-.179c4.808-2.244,9.646-4.424,14.477-6.616a3.112,3.112,0,0,0,.752-.5v-.686A1.2,1.2,0,0,0,456.341,560.5Zm-11.962,5.445c-1.007.46-2.025.9-3.018,1.387a1.853,1.853,0,0,1-1.224.136,21.925,21.925,0,0,1-11.172-5.884,34.008,34.008,0,0,1-6.436-8.387c-.371-.668-.32-.785.408-.961l12.442-3a1.159,1.159,0,0,1,1.476.629c3.342,6.466,8.8,10.074,15.749,11.671.254.058.509.109.763.167.029.007.054.035.126.085Z" transform="translate(-6.18)" fill="#004e95"/>
  </g>
</svg>
