<svg xmlns="http://www.w3.org/2000/svg" width="53.577" height="39.062" viewBox="0 0 53.577 39.062">
  <g id="Base_Metal" data-name="Base Metal" transform="translate(-677.056 -546.647)">
    <g id="Group_371" data-name="Group 371" transform="translate(688.486 549.371)">
      <path id="Path_2637" data-name="Path 2637" d="M736.051,576.966c-.007.062-.007.13-.014.206a2.389,2.389,0,0,1-.226.92,2.538,2.538,0,0,1-1.077,1.193l-3.164,1.826a6.945,6.945,0,0,1-2.017.789l-.007.007a7.2,7.2,0,0,1-4.618-.467,6.458,6.458,0,0,1-.617-.316l-2.257-1.316-26.829-15.432a2.63,2.63,0,0,1-1.281-2.75h0l.006-.02a2.623,2.623,0,0,1,.255-.769,2.578,2.578,0,0,1,1.009-1.043l.967-.563,2.2-1.269a6.39,6.39,0,0,1,.714-.357,7.253,7.253,0,0,1,6.546.343l11.672,6.711,8.687,5,6.862,3.965,1.873,1.077A2.622,2.622,0,0,1,735.9,576.1l.1.384A2.319,2.319,0,0,1,736.051,576.966Z" transform="translate(-693.903 -552.695)" fill="#5d99b4"/>
      <path id="Path_2638" data-name="Path 2638" d="M727.528,563.723c-.315.8-.644,1.633-.981,2.484-.178.466-.364.94-.556,1.413-.624,1.626-1.276,3.287-1.9,4.892-.09.227-.179.453-.261.68-.631,1.619-1.235,3.17-1.777,4.584l-26.829-15.432a2.631,2.631,0,0,1-1.281-2.75h0l.006-.02a2.623,2.623,0,0,1,.255-.769l1.263-3.795a2.122,2.122,0,0,1,.24-.72.041.041,0,0,1,.007-.027,2.435,2.435,0,0,1,.947-.975l2.95-1.708a6.767,6.767,0,0,1,6.773-.013Z" transform="translate(-693.903 -550.662)" fill="#5d99b4"/>
      <path id="Path_2639" data-name="Path 2639" d="M695.768,555.83c-.018.031-.04.06-.057.092a.04.04,0,0,0-.007.027,2.123,2.123,0,0,0-.24.721l-1.263,3.795a2.619,2.619,0,0,0-.254.769l-.006.02h0a2.656,2.656,0,0,0,.588,2.173l1.857-6.113Z" transform="translate(-693.903 -552.324)" fill="#507f93"/>
      <path id="Path_2640" data-name="Path 2640" d="M749.031,580.973l-.027-.1-.1-.384-1.428-5.38-.034-.13-7.891-2.352-5.139-1.992c0,.183,0,.366.007.548.048,2.251.054,4.493-.066,6.736l2.742,1.013,5.043,1.084,6.677,2.463a2.933,2.933,0,0,0,.226-.92c.007-.075.007-.144.014-.206A2.327,2.327,0,0,0,749.031,580.973Z" transform="translate(-706.911 -557.085)" fill="#8bb7cb"/>
      <path id="Path_2641" data-name="Path 2641" d="M744.123,590.028l-.007.007a7.2,7.2,0,0,1-4.618-.467l-.282-6.656,3.06-.652Z" transform="translate(-708.473 -560.822)" fill="#8bb7cb"/>
      <path id="Path_2642" data-name="Path 2642" d="M747.591,587.723l3.161-1.833a2.608,2.608,0,0,0,1.081-1.193s-1.847-7.16-2.1-7.16l-2.773,1.587-3.23,1.615,1.847,7.766A7.235,7.235,0,0,0,747.591,587.723Z" transform="translate(-709.923 -559.304)" fill="#a7c8d8"/>
      <path id="Path_2643" data-name="Path 2643" d="M734.014,571.331l-.439.254-2.512,1.462a6.236,6.236,0,0,1-1.208.549,6.8,6.8,0,0,1-5.572-.542l.268.138-3.767-2.168-23.4-13.456a2.14,2.14,0,0,1-.487-.37,2.421,2.421,0,0,1-.714-2.189,2.12,2.12,0,0,1,.24-.72.041.041,0,0,1,.007-.027,2.434,2.434,0,0,1,.947-.975l2.95-1.708a6.767,6.767,0,0,1,6.773-.013l21.147,12.159,5.757,3.326a2.438,2.438,0,0,1,1.146,1.507l.007,0,.034.13A2.462,2.462,0,0,1,734.014,571.331Z" transform="translate(-694.625 -550.662)" fill="#cbe6ef"/>
      <path id="Path_2644" data-name="Path 2644" d="M705.218,558.579l1.027-.895-1.171-.7-1.543.589-.835-.5,6.223-2.291,1.133.672-4,3.613Zm1.71-1.472.944-.826q.086-.075.445-.37t.489-.389c-.227.1-.481.207-.762.321s-.936.369-1.964.76Zm.294,2.661-.817-.485,5.418-3.128.818.485Zm2.535,1.5.4-.349-.043-.026a2.254,2.254,0,0,1-.74.048,1.544,1.544,0,0,1-.632-.2c-.307-.183-.421-.389-.342-.619a1.756,1.756,0,0,1,.825-.753l2.531-1.461.826.49-2.308,1.332a1.8,1.8,0,0,0-.551.423c-.085.118-.061.217.073.3a.9.9,0,0,0,.685.054A4.6,4.6,0,0,0,711.6,560l1.859-1.073.827.49-3.879,2.239Zm4.738,2.81,2.311-1.335q.854-.492.481-.713a.9.9,0,0,0-.691-.054,4.638,4.638,0,0,0-1.094.495l-1.883,1.088-.824-.489,2.311-1.334q.854-.493.475-.717a.9.9,0,0,0-.687-.052,4.652,4.652,0,0,0-1.118.505l-1.863,1.076-.818-.485,3.879-2.24.649.385-.4.346.052.031a2.126,2.126,0,0,1,.769-.051,1.56,1.56,0,0,1,.594.192q.626.372.164.883l.031.018a1.968,1.968,0,0,1,1.511.11q.455.27.328.618a1.773,1.773,0,0,1-.823.751l-2.532,1.461Zm2.307,1.37-.817-.485,3.879-2.24.817.485Zm4.042-3.329a1,1,0,0,1,.482-.14.854.854,0,0,1,.464.119c.133.079.2.168.185.267s-.091.193-.244.282a.988.988,0,0,1-.49.14.847.847,0,0,1-.446-.113c-.136-.081-.2-.17-.2-.269S720.684,562.214,720.843,562.123Zm-1.636,4.756,2.312-1.334a1.8,1.8,0,0,0,.548-.421c.085-.118.06-.217-.073-.3a.9.9,0,0,0-.685-.058,4.569,4.569,0,0,0-1.127.507l-1.863,1.075-.817-.485,3.879-2.24.647.385-.4.346.054.031a2.241,2.241,0,0,1,.736-.054,1.525,1.525,0,0,1,.634.2q.466.278.336.624a1.8,1.8,0,0,1-.826.748l-2.531,1.462Zm3.334,1.978.4-.347-.043-.026a2.267,2.267,0,0,1-.74.048,1.544,1.544,0,0,1-.633-.2c-.307-.183-.421-.389-.342-.619a1.749,1.749,0,0,1,.825-.753l2.531-1.462.827.49-2.309,1.332a1.847,1.847,0,0,0-.551.423c-.084.119-.06.217.073.3a.9.9,0,0,0,.685.056,4.662,4.662,0,0,0,1.128-.509l1.859-1.073.827.49-3.879,2.24Zm4.737,2.812,2.312-1.334q.853-.493.481-.714a.892.892,0,0,0-.691-.054,4.653,4.653,0,0,0-1.094.495l-1.883,1.088-.824-.489,2.311-1.335q.854-.492.475-.716a.9.9,0,0,0-.686-.054,4.677,4.677,0,0,0-1.119.506l-1.863,1.075-.818-.485,3.88-2.239.649.385-.4.345.052.032a2.14,2.14,0,0,1,.769-.052,1.582,1.582,0,0,1,.594.191q.626.371.164.885l.031.017a1.973,1.973,0,0,1,1.511.109c.3.18.412.386.327.619a1.774,1.774,0,0,1-.822.75l-2.532,1.461Z" transform="translate(-696.731 -551.99)" fill="#9ac1d1"/>
      <g id="Group_370" data-name="Group 370" transform="translate(5.965 2.801)">
        <path id="Path_2645" data-name="Path 2645" d="M729.928,572.791a.392.392,0,0,0,.055.364,2.066,2.066,0,0,1,.77-.652l2.531-1.462.429.255.4-.229-.827-.49-2.531,1.462A1.749,1.749,0,0,0,729.928,572.791Z" transform="translate(-711.445 -559.866)" fill="#73aac6"/>
        <path id="Path_2646" data-name="Path 2646" d="M729.892,570.555c.086-.118.061-.217-.073-.3a.754.754,0,0,0-.077-.024,2.562,2.562,0,0,1-.4.276l-2.312,1.334.4.236,1.915-1.106A1.8,1.8,0,0,0,729.892,570.555Z" transform="translate(-710.521 -559.757)" fill="#73aac6"/>
        <path id="Path_2647" data-name="Path 2647" d="M731.044,569l-.308.267a.678.678,0,0,1,.226.07,2.161,2.161,0,0,1,.472-.014,1.516,1.516,0,0,1,.634.2.878.878,0,0,1,.284.252.773.773,0,0,0,.053-.093q.13-.347-.336-.624a1.523,1.523,0,0,0-.634-.2,2.206,2.206,0,0,0-.579.03Z" transform="translate(-711.712 -559.31)" fill="#73aac6"/>
        <path id="Path_2648" data-name="Path 2648" d="M732.624,573.656a.938.938,0,0,1-.608-.033.976.976,0,0,0-.15.145c-.084.118-.06.217.073.3.015.009.036.008.052.016a2.27,2.27,0,0,0,.267-.039l.043.026-.091.08a1.141,1.141,0,0,0,.414-.026,4.635,4.635,0,0,0,1.128-.51l1.859-1.073.43.255.4-.229-.827-.491-1.859,1.073A4.659,4.659,0,0,1,732.624,573.656Z" transform="translate(-712.059 -560.348)" fill="#73aac6"/>
        <path id="Path_2649" data-name="Path 2649" d="M729.247,566.058a.667.667,0,0,1,.08-.062,1.009,1.009,0,0,1,.482-.14.846.846,0,0,1,.464.118c.011.007.014.013.023.02a.352.352,0,0,0,.162-.218c.01-.1-.052-.187-.185-.267a.853.853,0,0,0-.464-.119,1,1,0,0,0-.482.141q-.237.136-.245.285C729.077,565.9,729.138,565.985,729.247,566.058Z" transform="translate(-711.18 -558.199)" fill="#73aac6"/>
        <path id="Path_2650" data-name="Path 2650" d="M740.447,574.575l-.308.266a.687.687,0,0,1,.231.07,1.973,1.973,0,0,1,.5-.01,1.568,1.568,0,0,1,.594.191.82.82,0,0,1,.274.252c.154-.271.073-.511-.274-.716a1.582,1.582,0,0,0-.594-.191,2.051,2.051,0,0,0-.611.027Z" transform="translate(-714.735 -561.104)" fill="#73aac6"/>
        <path id="Path_2651" data-name="Path 2651" d="M741.721,577.322a.682.682,0,0,0-.085-.026,2.538,2.538,0,0,1-.4.275l-2.312,1.334.4.235,1.915-1.105Q742.093,577.543,741.721,577.322Z" transform="translate(-714.346 -562.027)" fill="#73aac6"/>
        <path id="Path_2652" data-name="Path 2652" d="M739.21,575.832a.614.614,0,0,0-.079-.024,2.5,2.5,0,0,1-.4.275l-2.311,1.335.4.235,1.915-1.105Q739.589,576.056,739.21,575.832Z" transform="translate(-713.541 -561.549)" fill="#73aac6"/>
        <path id="Path_2653" data-name="Path 2653" d="M742.456,576.332a.754.754,0,0,1,.357.071,1.716,1.716,0,0,1,1.1.184.833.833,0,0,1,.275.247.681.681,0,0,0,.052-.093c.085-.233-.024-.439-.327-.619a1.879,1.879,0,0,0-1.351-.138A.5.5,0,0,1,742.456,576.332Z" transform="translate(-715.48 -561.586)" fill="#73aac6"/>
        <path id="Path_2654" data-name="Path 2654" d="M732.231,575.683l.123.073.079-.07-.043-.026C732.337,575.671,732.285,575.674,732.231,575.683Z" transform="translate(-712.193 -561.501)" fill="#73aac6"/>
        <path id="Path_2655" data-name="Path 2655" d="M734.316,575.87l3.482-2.01.33.2.319-.276-.649-.385-3.879,2.239Z" transform="translate(-712.735 -560.773)" fill="#73aac6"/>
        <path id="Path_2656" data-name="Path 2656" d="M722.679,568.964l3.482-2.01.42.249.4-.229-.817-.485-3.879,2.24Z" transform="translate(-708.994 -558.552)" fill="#73aac6"/>
        <path id="Path_2657" data-name="Path 2657" d="M724.518,570.056l.4.236,3.482-2.01.329.2.318-.276-.647-.385Z" transform="translate(-709.713 -558.979)" fill="#73aac6"/>
        <path id="Path_2658" data-name="Path 2658" d="M708.558,560.164l5.021-2.9.42.25.4-.229-.818-.485-5.418,3.128Z" transform="translate(-704.453 -555.437)" fill="#73aac6"/>
        <path id="Path_2659" data-name="Path 2659" d="M722.879,566.14a.719.719,0,0,0-.086-.026,2.5,2.5,0,0,1-.4.274l-2.311,1.335.4.235,1.915-1.105Q723.251,566.361,722.879,566.14Z" transform="translate(-708.287 -558.432)" fill="#73aac6"/>
        <path id="Path_2660" data-name="Path 2660" d="M713.781,562.474a.93.93,0,0,1-.608-.031.958.958,0,0,0-.149.145c-.085.118-.061.217.073.3.015.008.035.007.051.015a2.187,2.187,0,0,0,.267-.039l.043.026-.091.08a1.139,1.139,0,0,0,.415-.026,4.631,4.631,0,0,0,1.128-.509l1.859-1.073.429.255.4-.229-.827-.49-1.859,1.073A4.594,4.594,0,0,1,713.781,562.474Z" transform="translate(-706 -556.753)" fill="#73aac6"/>
        <path id="Path_2661" data-name="Path 2661" d="M708.531,558.138l.944-.825c.058-.051.206-.174.445-.37s.4-.327.489-.389q-.34.149-.762.321l-.369.146-.747.653-.372-.221-.476.182Z" transform="translate(-704.299 -555.358)" fill="#73aac6"/>
        <path id="Path_2662" data-name="Path 2662" d="M708.919,555.256l.823.489.31-.281-1.133-.673-6.224,2.291.484.287Z" transform="translate(-702.696 -554.791)" fill="#73aac6"/>
        <path id="Path_2663" data-name="Path 2663" d="M713.387,564.5l.123.073.08-.07-.043-.025C713.494,564.49,713.441,564.493,713.387,564.5Z" transform="translate(-706.133 -557.906)" fill="#73aac6"/>
        <path id="Path_2664" data-name="Path 2664" d="M707.123,559.462l-.71.619.317.188.71-.619Z" transform="translate(-703.891 -556.293)" fill="#73aac6"/>
        <path id="Path_2665" data-name="Path 2665" d="M720.368,564.65a.708.708,0,0,0-.079-.024,2.472,2.472,0,0,1-.4.276l-2.311,1.335.4.236,1.915-1.106Q720.746,564.874,720.368,564.65Z" transform="translate(-707.482 -557.953)" fill="#73aac6"/>
        <path id="Path_2666" data-name="Path 2666" d="M723.613,565.151a.754.754,0,0,1,.357.071,1.716,1.716,0,0,1,1.1.184.837.837,0,0,1,.276.247.826.826,0,0,0,.052-.094q.127-.348-.328-.618a1.876,1.876,0,0,0-1.351-.139A.5.5,0,0,1,723.613,565.151Z" transform="translate(-709.422 -557.991)" fill="#73aac6"/>
        <path id="Path_2667" data-name="Path 2667" d="M721.6,563.394l-.307.266a.694.694,0,0,1,.229.069,1.966,1.966,0,0,1,.5-.01,1.567,1.567,0,0,1,.594.192.818.818,0,0,1,.274.251c.154-.27.073-.51-.274-.716a1.557,1.557,0,0,0-.594-.192,2.063,2.063,0,0,0-.613.026Z" transform="translate(-708.677 -557.508)" fill="#73aac6"/>
        <path id="Path_2668" data-name="Path 2668" d="M715.473,564.689l3.482-2.01.33.2.319-.276-.649-.385-3.879,2.239Z" transform="translate(-706.676 -557.178)" fill="#73aac6"/>
        <path id="Path_2669" data-name="Path 2669" d="M711.91,561.322l2.531-1.462.43.255.4-.229-.826-.491-2.531,1.461a1.755,1.755,0,0,0-.825.753.391.391,0,0,0,.055.364A2.065,2.065,0,0,1,711.91,561.322Z" transform="translate(-705.386 -556.271)" fill="#73aac6"/>
      </g>
    </g>
    <g id="Group_373" data-name="Group 373" transform="translate(677.056 556.311)">
      <path id="Path_2670" data-name="Path 2670" d="M719.2,587.2c-.007.062-.007.131-.014.206a2.378,2.378,0,0,1-.227.919,2.538,2.538,0,0,1-1.077,1.194l-3.164,1.825a6.927,6.927,0,0,1-2.017.789l-.007.007a7.194,7.194,0,0,1-4.618-.466,6.5,6.5,0,0,1-.617-.316l-2.257-1.316-26.829-15.432a2.63,2.63,0,0,1-1.281-2.75h0l.007-.02a2.618,2.618,0,0,1,.254-.769,2.574,2.574,0,0,1,1.009-1.043l.967-.562,2.2-1.269a6.37,6.37,0,0,1,.714-.357,7.251,7.251,0,0,1,6.546.343l11.672,6.711,8.687,5,6.861,3.965,1.874,1.077a2.622,2.622,0,0,1,1.173,1.406l.1.385A2.314,2.314,0,0,1,719.2,587.2Z" transform="translate(-677.056 -562.924)" fill="#586e75"/>
      <path id="Path_2671" data-name="Path 2671" d="M710.682,573.952c-.316.8-.645,1.633-.982,2.484-.178.467-.364.94-.556,1.414-.624,1.626-1.276,3.286-1.9,4.892-.09.227-.178.453-.261.679-.631,1.62-1.235,3.17-1.777,4.584l-26.829-15.432a2.63,2.63,0,0,1-1.281-2.75h0l.007-.02a2.618,2.618,0,0,1,.254-.769l1.263-3.795a2.113,2.113,0,0,1,.24-.72.041.041,0,0,1,.007-.028,2.432,2.432,0,0,1,.947-.974l2.951-1.708a6.764,6.764,0,0,1,6.772-.014Z" transform="translate(-677.056 -560.891)" fill="#586e75"/>
      <path id="Path_2672" data-name="Path 2672" d="M678.921,566.059c-.018.031-.04.06-.057.092a.042.042,0,0,0-.007.028,2.11,2.11,0,0,0-.24.72l-1.263,3.795a2.619,2.619,0,0,0-.254.769l-.007.02h0a2.657,2.657,0,0,0,.588,2.174l1.857-6.114Z" transform="translate(-677.057 -562.553)" fill="#507f93"/>
      <path id="Path_2673" data-name="Path 2673" d="M732.184,591.2l-.027-.1-.1-.385-1.427-5.379-.034-.13-7.891-2.353-5.139-1.991c0,.183,0,.366.007.548.048,2.251.054,4.493-.066,6.736l2.742,1.014,5.043,1.083,6.676,2.463a2.917,2.917,0,0,0,.227-.919c.007-.075.007-.144.014-.206A2.334,2.334,0,0,0,732.184,591.2Z" transform="translate(-690.064 -567.315)" fill="#8bb7cb"/>
      <path id="Path_2674" data-name="Path 2674" d="M727.276,600.257l-.007.007a7.194,7.194,0,0,1-4.618-.466l-.282-6.656,3.061-.652Z" transform="translate(-691.626 -571.051)" fill="#8bb7cb"/>
      <path id="Path_2675" data-name="Path 2675" d="M730.743,597.952l3.161-1.832a2.614,2.614,0,0,0,1.081-1.193s-1.847-7.161-2.1-7.161l-2.774,1.588-3.229,1.615,1.847,7.767A7.234,7.234,0,0,0,730.743,597.952Z" transform="translate(-693.076 -569.533)" fill="#a7c8d8"/>
      <path id="Path_2676" data-name="Path 2676" d="M717.167,581.561l-.44.254-2.511,1.461a6.154,6.154,0,0,1-1.208.549,6.789,6.789,0,0,1-5.572-.542l.268.138-3.767-2.168-23.4-13.456a2.185,2.185,0,0,1-.487-.37,2.425,2.425,0,0,1-.714-2.189,2.112,2.112,0,0,1,.24-.72.041.041,0,0,1,.007-.028,2.433,2.433,0,0,1,.947-.974l2.951-1.708a6.765,6.765,0,0,1,6.772-.014L711.4,573.952l5.757,3.327a2.436,2.436,0,0,1,1.146,1.507l.007,0,.034.13A2.463,2.463,0,0,1,717.167,581.561Z" transform="translate(-677.778 -560.891)" fill="#cbe6ef"/>
      <path id="Path_2677" data-name="Path 2677" d="M688.37,568.808l1.027-.9-1.171-.695-1.543.589-.836-.5,6.224-2.291,1.133.673-4,3.613Zm1.71-1.472.944-.826c.058-.05.206-.174.445-.37s.4-.327.488-.39q-.34.15-.762.321t-1.964.76Zm.294,2.661-.817-.485,5.418-3.128.818.485Zm2.535,1.5.4-.349-.043-.025a2.255,2.255,0,0,1-.74.048,1.553,1.553,0,0,1-.632-.2c-.307-.183-.421-.389-.342-.619a1.752,1.752,0,0,1,.826-.753l2.531-1.461.826.49-2.308,1.332a1.806,1.806,0,0,0-.551.423q-.127.177.073.3a.9.9,0,0,0,.685.055,4.626,4.626,0,0,0,1.128-.509l1.859-1.073.827.49-3.879,2.24Zm4.738,2.81,2.311-1.334q.854-.493.481-.713a.894.894,0,0,0-.691-.054,4.653,4.653,0,0,0-1.094.495l-1.883,1.088-.824-.489,2.311-1.335q.854-.493.476-.716a.893.893,0,0,0-.687-.052,4.613,4.613,0,0,0-1.118.5l-1.863,1.076-.818-.485,3.879-2.239.649.385-.4.345.052.031a2.105,2.105,0,0,1,.769-.051,1.569,1.569,0,0,1,.595.191q.626.371.164.884l.031.018a1.969,1.969,0,0,1,1.51.11q.455.27.328.618a1.77,1.77,0,0,1-.823.751L698.47,574.8Zm2.307,1.37-.817-.485,3.879-2.24.817.485ZM704,572.352a1.011,1.011,0,0,1,.482-.14.843.843,0,0,1,.464.119c.133.079.2.168.185.267s-.091.193-.244.281a.994.994,0,0,1-.49.139.838.838,0,0,1-.446-.113c-.136-.08-.2-.17-.2-.269S703.837,572.444,704,572.352Zm-1.636,4.757,2.311-1.335a1.8,1.8,0,0,0,.548-.421c.085-.118.06-.217-.073-.3a.906.906,0,0,0-.685-.058,4.547,4.547,0,0,0-1.127.507l-1.863,1.076-.818-.486,3.879-2.239.647.385-.4.345.054.032a2.221,2.221,0,0,1,.736-.054,1.506,1.506,0,0,1,.634.2q.466.278.337.624a1.8,1.8,0,0,1-.826.748l-2.531,1.462Zm3.334,1.978.4-.347-.043-.026a2.288,2.288,0,0,1-.74.049,1.544,1.544,0,0,1-.633-.2c-.307-.183-.421-.389-.343-.619a1.759,1.759,0,0,1,.826-.753l2.531-1.462.827.49-2.309,1.333a1.831,1.831,0,0,0-.551.423c-.084.119-.06.217.073.3a.9.9,0,0,0,.685.056,4.632,4.632,0,0,0,1.128-.509l1.858-1.074.827.491-3.879,2.239Zm4.737,2.812,2.312-1.335q.853-.493.481-.714a.894.894,0,0,0-.691-.054,4.646,4.646,0,0,0-1.094.495l-1.883,1.088-.824-.488,2.311-1.335q.854-.493.475-.717a.9.9,0,0,0-.686-.053,4.674,4.674,0,0,0-1.119.506l-1.863,1.075-.818-.485,3.879-2.24.649.385-.4.346.052.031a2.139,2.139,0,0,1,.769-.051,1.571,1.571,0,0,1,.594.191q.626.372.163.885l.031.018a1.97,1.97,0,0,1,1.511.109q.455.271.328.619a1.783,1.783,0,0,1-.823.751l-2.532,1.461Z" transform="translate(-679.883 -562.219)" fill="#9ac1d1"/>
      <g id="Group_372" data-name="Group 372" transform="translate(5.965 2.801)">
        <path id="Path_2678" data-name="Path 2678" d="M713.08,583.02a.394.394,0,0,0,.056.364,2.071,2.071,0,0,1,.77-.652l2.531-1.462.429.255.4-.229-.827-.49-2.531,1.462A1.759,1.759,0,0,0,713.08,583.02Z" transform="translate(-694.598 -570.096)" fill="#73aac6"/>
        <path id="Path_2679" data-name="Path 2679" d="M713.045,580.784c.085-.118.06-.217-.073-.3a.6.6,0,0,0-.077-.024,2.615,2.615,0,0,1-.4.275l-2.312,1.335.4.235,1.915-1.105A1.8,1.8,0,0,0,713.045,580.784Z" transform="translate(-693.674 -569.986)" fill="#73aac6"/>
        <path id="Path_2680" data-name="Path 2680" d="M714.2,579.227l-.308.266a.706.706,0,0,1,.226.07,2.171,2.171,0,0,1,.472-.013,1.507,1.507,0,0,1,.634.2.872.872,0,0,1,.284.252.822.822,0,0,0,.053-.093q.13-.347-.336-.624a1.509,1.509,0,0,0-.634-.2,2.139,2.139,0,0,0-.579.03Z" transform="translate(-694.865 -569.54)" fill="#73aac6"/>
        <path id="Path_2681" data-name="Path 2681" d="M715.776,583.885a.929.929,0,0,1-.608-.033,1,1,0,0,0-.15.145c-.084.119-.06.217.073.3.015.009.036.008.052.016a2.5,2.5,0,0,0,.267-.039l.043.026-.091.079a1.156,1.156,0,0,0,.414-.026,4.678,4.678,0,0,0,1.128-.51l1.858-1.073.43.254.4-.229-.827-.491-1.858,1.074A4.641,4.641,0,0,1,715.776,583.885Z" transform="translate(-695.212 -570.577)" fill="#73aac6"/>
        <path id="Path_2682" data-name="Path 2682" d="M712.4,576.288a.688.688,0,0,1,.08-.062,1,1,0,0,1,.482-.14.841.841,0,0,1,.464.119c.011.006.013.014.023.02a.354.354,0,0,0,.162-.218c.01-.1-.052-.188-.185-.267a.842.842,0,0,0-.464-.119,1.008,1.008,0,0,0-.482.14q-.237.137-.245.285C712.23,576.134,712.291,576.214,712.4,576.288Z" transform="translate(-694.333 -568.429)" fill="#73aac6"/>
        <path id="Path_2683" data-name="Path 2683" d="M723.6,584.8l-.308.267a.688.688,0,0,1,.231.069,1.971,1.971,0,0,1,.5-.01,1.574,1.574,0,0,1,.594.191.82.82,0,0,1,.274.252c.154-.271.073-.511-.274-.717a1.572,1.572,0,0,0-.594-.191,2.071,2.071,0,0,0-.611.026Z" transform="translate(-697.888 -571.333)" fill="#73aac6"/>
        <path id="Path_2684" data-name="Path 2684" d="M724.874,587.552a.672.672,0,0,0-.086-.026,2.533,2.533,0,0,1-.4.275l-2.312,1.335.4.235,1.915-1.106C724.962,587.937,725.122,587.7,724.874,587.552Z" transform="translate(-697.499 -572.257)" fill="#73aac6"/>
        <path id="Path_2685" data-name="Path 2685" d="M722.364,586.061a.694.694,0,0,0-.079-.024,2.5,2.5,0,0,1-.4.276l-2.311,1.335.4.236,1.915-1.106Q722.742,586.285,722.364,586.061Z" transform="translate(-696.694 -571.778)" fill="#73aac6"/>
        <path id="Path_2686" data-name="Path 2686" d="M725.609,586.561a.772.772,0,0,1,.357.071,1.725,1.725,0,0,1,1.1.184.829.829,0,0,1,.275.247.711.711,0,0,0,.052-.093c.084-.233-.024-.438-.328-.619a1.879,1.879,0,0,0-1.351-.138A.5.5,0,0,1,725.609,586.561Z" transform="translate(-698.633 -571.816)" fill="#73aac6"/>
        <path id="Path_2687" data-name="Path 2687" d="M715.384,585.912l.123.073.079-.07-.043-.026C715.49,585.9,715.437,585.9,715.384,585.912Z" transform="translate(-695.346 -571.731)" fill="#73aac6"/>
        <path id="Path_2688" data-name="Path 2688" d="M717.469,586.1l3.482-2.01.33.2.319-.276-.649-.385-3.879,2.24Z" transform="translate(-695.888 -571.002)" fill="#73aac6"/>
        <path id="Path_2689" data-name="Path 2689" d="M705.832,579.194l3.482-2.01.42.25.4-.229-.817-.485-3.879,2.24Z" transform="translate(-692.146 -568.782)" fill="#73aac6"/>
        <path id="Path_2690" data-name="Path 2690" d="M707.671,580.285l.4.236,3.482-2.01.329.2.318-.276-.647-.385Z" transform="translate(-692.865 -569.208)" fill="#73aac6"/>
        <path id="Path_2691" data-name="Path 2691" d="M691.711,570.394l5.021-2.9.421.25.4-.229-.818-.485-5.418,3.128Z" transform="translate(-687.606 -565.667)" fill="#73aac6"/>
        <path id="Path_2692" data-name="Path 2692" d="M706.032,576.37a.714.714,0,0,0-.085-.026,2.578,2.578,0,0,1-.4.274l-2.311,1.335.4.236,1.915-1.106Q706.4,576.59,706.032,576.37Z" transform="translate(-691.44 -568.661)" fill="#73aac6"/>
        <path id="Path_2693" data-name="Path 2693" d="M696.934,572.7a.933.933,0,0,1-.608-.032.96.96,0,0,0-.149.146c-.085.118-.06.217.073.3.015.009.035.008.051.016a2.462,2.462,0,0,0,.267-.039l.043.025-.091.081a1.155,1.155,0,0,0,.415-.027,4.625,4.625,0,0,0,1.128-.508l1.859-1.074.429.255.4-.229-.827-.491-1.859,1.073A4.629,4.629,0,0,1,696.934,572.7Z" transform="translate(-689.154 -566.982)" fill="#73aac6"/>
        <path id="Path_2694" data-name="Path 2694" d="M691.684,568.368l.944-.826c.058-.05.206-.174.445-.37s.4-.327.488-.389q-.34.15-.762.321c-.085.035-.216.086-.369.146l-.747.653-.372-.221-.476.182Z" transform="translate(-687.452 -565.587)" fill="#73aac6"/>
        <path id="Path_2695" data-name="Path 2695" d="M692.072,565.485l.823.488.31-.281-1.133-.673-6.224,2.291.483.287Z" transform="translate(-685.848 -565.02)" fill="#73aac6"/>
        <path id="Path_2696" data-name="Path 2696" d="M696.54,574.731l.123.073.08-.071-.043-.026C696.647,574.719,696.594,574.722,696.54,574.731Z" transform="translate(-689.286 -568.135)" fill="#73aac6"/>
        <path id="Path_2697" data-name="Path 2697" d="M690.276,569.692l-.71.619.317.188.71-.619Z" transform="translate(-687.044 -566.522)" fill="#73aac6"/>
        <path id="Path_2698" data-name="Path 2698" d="M703.521,574.88a.613.613,0,0,0-.079-.024,2.486,2.486,0,0,1-.4.276l-2.311,1.335.4.235,1.915-1.105Q703.9,575.1,703.521,574.88Z" transform="translate(-690.635 -568.183)" fill="#73aac6"/>
        <path id="Path_2699" data-name="Path 2699" d="M706.766,575.38a.763.763,0,0,1,.357.071,1.716,1.716,0,0,1,1.1.185.836.836,0,0,1,.275.246.754.754,0,0,0,.052-.094q.127-.348-.328-.618a1.875,1.875,0,0,0-1.351-.138A.5.5,0,0,1,706.766,575.38Z" transform="translate(-692.574 -568.22)" fill="#73aac6"/>
        <path id="Path_2700" data-name="Path 2700" d="M704.757,573.624l-.307.266a.681.681,0,0,1,.229.069,1.966,1.966,0,0,1,.5-.009,1.57,1.57,0,0,1,.595.191.82.82,0,0,1,.274.252c.154-.27.073-.51-.274-.716a1.569,1.569,0,0,0-.595-.191,2.024,2.024,0,0,0-.611.026Z" transform="translate(-691.83 -567.738)" fill="#73aac6"/>
        <path id="Path_2701" data-name="Path 2701" d="M698.626,574.919l3.482-2.01.33.2.319-.276-.649-.385-3.879,2.239Z" transform="translate(-689.829 -567.407)" fill="#73aac6"/>
        <path id="Path_2702" data-name="Path 2702" d="M695.064,571.551l2.531-1.461.429.254.4-.229-.826-.491-2.531,1.461a1.752,1.752,0,0,0-.826.753.393.393,0,0,0,.055.364A2.063,2.063,0,0,1,695.064,571.551Z" transform="translate(-688.539 -566.501)" fill="#73aac6"/>
      </g>
    </g>
    <g id="Group_375" data-name="Group 375" transform="translate(681.705 546.647)">
      <path id="Path_2703" data-name="Path 2703" d="M726.056,572.951c-.007.062-.007.131-.014.206a2.4,2.4,0,0,1-.227.919,2.542,2.542,0,0,1-1.077,1.194l-3.164,1.825a6.917,6.917,0,0,1-2.017.789l-.007.007a7.2,7.2,0,0,1-4.618-.466,6.621,6.621,0,0,1-.617-.316l-2.257-1.316-26.829-15.432a2.631,2.631,0,0,1-1.281-2.75h0l.007-.02a2.538,2.538,0,0,1,1.263-1.812l.967-.562,2.2-1.269a6.158,6.158,0,0,1,.714-.357,7.251,7.251,0,0,1,6.547.343l11.671,6.711,8.687,5,6.862,3.965,1.873,1.077a2.618,2.618,0,0,1,1.173,1.406l.1.384A2.327,2.327,0,0,1,726.056,572.951Z" transform="translate(-683.909 -548.68)" fill="#586e75"/>
      <path id="Path_2704" data-name="Path 2704" d="M717.534,559.708c-.315.8-.645,1.633-.981,2.484-.178.467-.364.94-.556,1.414-.624,1.626-1.276,3.286-1.9,4.892-.09.226-.179.453-.261.679-.631,1.62-1.235,3.17-1.777,4.584l-26.829-15.432a2.631,2.631,0,0,1-1.281-2.75h0l.007-.02a2.6,2.6,0,0,1,.254-.769l1.263-3.794a2.133,2.133,0,0,1,.24-.721.041.041,0,0,1,.007-.027,2.436,2.436,0,0,1,.947-.974l2.951-1.708a6.764,6.764,0,0,1,6.772-.014Z" transform="translate(-683.909 -546.647)" fill="#586e75"/>
      <path id="Path_2705" data-name="Path 2705" d="M685.773,551.815c-.018.031-.04.06-.057.092a.041.041,0,0,0-.007.027,2.134,2.134,0,0,0-.24.72l-1.263,3.795a2.6,2.6,0,0,0-.254.769l-.007.02h0a2.66,2.66,0,0,0,.588,2.174l1.857-6.114Z" transform="translate(-683.909 -548.309)" fill="#507f93"/>
      <path id="Path_2706" data-name="Path 2706" d="M739.036,576.958l-.027-.1-.1-.384-1.427-5.379-.035-.13-7.891-2.353-5.139-1.991c0,.182,0,.366.007.548.048,2.251.054,4.493-.065,6.736l2.741,1.014L732.147,576l6.677,2.463a2.952,2.952,0,0,0,.227-.919c.007-.075.007-.145.014-.206A2.33,2.33,0,0,0,739.036,576.958Z" transform="translate(-696.917 -553.071)" fill="#8bb7cb"/>
      <path id="Path_2707" data-name="Path 2707" d="M734.128,586.013l-.007.007a7.2,7.2,0,0,1-4.618-.466l-.281-6.656,3.06-.652Z" transform="translate(-698.479 -556.807)" fill="#8bb7cb"/>
      <path id="Path_2708" data-name="Path 2708" d="M737.6,583.708l3.162-1.832a2.614,2.614,0,0,0,1.08-1.193s-1.847-7.161-2.1-7.161l-2.774,1.588-3.23,1.615,1.847,7.767A7.232,7.232,0,0,0,737.6,583.708Z" transform="translate(-699.928 -555.289)" fill="#a7c8d8"/>
      <path id="Path_2709" data-name="Path 2709" d="M724.019,567.317l-.439.254-2.512,1.461a6.14,6.14,0,0,1-1.208.549,6.791,6.791,0,0,1-5.571-.542l.267.138-3.767-2.168-23.4-13.456a2.187,2.187,0,0,1-.487-.37,2.427,2.427,0,0,1-.714-2.189,2.134,2.134,0,0,1,.24-.721.041.041,0,0,1,.007-.027,2.437,2.437,0,0,1,.947-.974l2.951-1.708a6.764,6.764,0,0,1,6.772-.014l21.148,12.159,5.757,3.327a2.435,2.435,0,0,1,1.146,1.507l.007,0,.035.13A2.464,2.464,0,0,1,724.019,567.317Z" transform="translate(-684.63 -546.647)" fill="#cbe6ef"/>
      <path id="Path_2710" data-name="Path 2710" d="M695.223,554.564l1.027-.895-1.17-.695-1.543.589-.835-.5,6.223-2.291,1.134.673-4,3.613Zm1.71-1.472.945-.826c.058-.05.206-.174.445-.37s.4-.327.489-.389q-.339.149-.762.321t-1.964.76Zm.294,2.661-.817-.485,5.417-3.128.818.485Zm2.535,1.5.4-.349-.043-.025a2.256,2.256,0,0,1-.74.048,1.547,1.547,0,0,1-.632-.2c-.308-.183-.422-.389-.343-.619a1.752,1.752,0,0,1,.826-.753l2.531-1.461.826.49-2.308,1.332a1.812,1.812,0,0,0-.551.423q-.127.177.073.3a.9.9,0,0,0,.685.055,4.627,4.627,0,0,0,1.128-.509l1.859-1.073.827.49-3.879,2.24Zm4.738,2.81,2.312-1.334q.854-.493.481-.713a.894.894,0,0,0-.691-.054,4.648,4.648,0,0,0-1.094.495l-1.883,1.088-.824-.489,2.312-1.335q.853-.493.475-.716a.9.9,0,0,0-.687-.053,4.657,4.657,0,0,0-1.118.505l-1.863,1.076-.818-.485,3.879-2.239.649.384-.4.346.052.031a2.14,2.14,0,0,1,.769-.051,1.579,1.579,0,0,1,.594.192q.627.371.164.884l.031.018a1.969,1.969,0,0,1,1.51.11q.455.27.328.618a1.767,1.767,0,0,1-.823.751l-2.531,1.461Zm2.307,1.37-.817-.485,3.879-2.24.816.485Zm4.042-3.329a1.008,1.008,0,0,1,.482-.14.845.845,0,0,1,.465.119c.132.079.195.167.185.267s-.091.193-.244.282a1,1,0,0,1-.49.139.842.842,0,0,1-.446-.113c-.136-.08-.2-.17-.2-.269S710.69,558.2,710.848,558.108Zm-1.636,4.757,2.312-1.335a1.819,1.819,0,0,0,.548-.421c.085-.118.06-.217-.073-.3a.9.9,0,0,0-.685-.058,4.554,4.554,0,0,0-1.127.507l-1.863,1.076-.817-.485,3.879-2.24.647.384-.4.346.053.032a2.221,2.221,0,0,1,.736-.054,1.5,1.5,0,0,1,.634.2q.467.277.337.624a1.8,1.8,0,0,1-.826.748l-2.531,1.462Zm3.334,1.978.4-.347-.043-.026a2.27,2.27,0,0,1-.74.048,1.535,1.535,0,0,1-.633-.2c-.307-.183-.421-.389-.342-.619a1.751,1.751,0,0,1,.826-.753l2.531-1.462.827.49-2.309,1.333a1.818,1.818,0,0,0-.55.423q-.127.178.073.3a.9.9,0,0,0,.685.056,4.649,4.649,0,0,0,1.128-.509l1.859-1.074.826.491-3.878,2.239Zm4.738,2.812,2.311-1.335q.854-.492.481-.714a.9.9,0,0,0-.691-.054,4.653,4.653,0,0,0-1.094.495l-1.883,1.088-.824-.489,2.312-1.335q.854-.493.475-.717a.9.9,0,0,0-.686-.053,4.677,4.677,0,0,0-1.119.506l-1.863,1.075-.818-.485,3.88-2.24.649.385-.4.346.052.031a2.139,2.139,0,0,1,.769-.051,1.567,1.567,0,0,1,.594.191q.627.372.163.885l.031.018a1.969,1.969,0,0,1,1.51.109c.3.18.412.386.328.619a1.776,1.776,0,0,1-.823.751l-2.532,1.461Z" transform="translate(-686.736 -547.975)" fill="#9ac1d1"/>
      <g id="Group_374" data-name="Group 374" transform="translate(5.965 2.801)">
        <path id="Path_2711" data-name="Path 2711" d="M719.933,568.776a.393.393,0,0,0,.055.364,2.064,2.064,0,0,1,.771-.651l2.531-1.463.429.255.4-.229-.827-.49-2.531,1.462A1.752,1.752,0,0,0,719.933,568.776Z" transform="translate(-701.45 -555.852)" fill="#73aac6"/>
        <path id="Path_2712" data-name="Path 2712" d="M719.9,566.54c.085-.118.06-.217-.073-.3a.6.6,0,0,0-.077-.024,2.566,2.566,0,0,1-.4.275l-2.312,1.335.4.235,1.915-1.105A1.816,1.816,0,0,0,719.9,566.54Z" transform="translate(-700.526 -555.742)" fill="#73aac6"/>
        <path id="Path_2713" data-name="Path 2713" d="M721.049,564.983l-.308.266a.717.717,0,0,1,.227.07,2.126,2.126,0,0,1,.471-.013,1.5,1.5,0,0,1,.634.2.87.87,0,0,1,.284.252.74.74,0,0,0,.053-.093q.131-.347-.337-.624a1.5,1.5,0,0,0-.634-.2,2.183,2.183,0,0,0-.579.029Z" transform="translate(-701.717 -555.296)" fill="#73aac6"/>
        <path id="Path_2714" data-name="Path 2714" d="M722.629,569.641a.933.933,0,0,1-.608-.032.976.976,0,0,0-.15.145c-.085.119-.06.217.073.3.015.009.036.008.052.016a2.424,2.424,0,0,0,.267-.039l.043.026-.091.079a1.158,1.158,0,0,0,.415-.026,4.684,4.684,0,0,0,1.128-.51l1.859-1.073.429.254.4-.229-.826-.491-1.859,1.074A4.645,4.645,0,0,1,722.629,569.641Z" transform="translate(-702.065 -556.333)" fill="#73aac6"/>
        <path id="Path_2715" data-name="Path 2715" d="M719.252,562.044a.835.835,0,0,1,.08-.062,1.007,1.007,0,0,1,.482-.14.845.845,0,0,1,.465.119c.01.006.013.014.022.02a.352.352,0,0,0,.162-.218c.01-.1-.052-.188-.185-.267a.845.845,0,0,0-.465-.119,1.008,1.008,0,0,0-.482.14q-.237.137-.244.285C719.082,561.89,719.143,561.97,719.252,562.044Z" transform="translate(-701.185 -554.185)" fill="#73aac6"/>
        <path id="Path_2716" data-name="Path 2716" d="M730.452,570.56l-.308.267a.663.663,0,0,1,.231.069,1.967,1.967,0,0,1,.5-.01,1.566,1.566,0,0,1,.594.191.828.828,0,0,1,.275.252c.154-.271.072-.511-.275-.717a1.568,1.568,0,0,0-.594-.191,2.049,2.049,0,0,0-.611.026Z" transform="translate(-704.741 -557.089)" fill="#73aac6"/>
        <path id="Path_2717" data-name="Path 2717" d="M731.727,573.307a.681.681,0,0,0-.085-.026,2.534,2.534,0,0,1-.4.275l-2.311,1.335.4.235,1.914-1.105Q732.1,573.529,731.727,573.307Z" transform="translate(-704.352 -558.013)" fill="#73aac6"/>
        <path id="Path_2718" data-name="Path 2718" d="M729.216,571.817a.67.67,0,0,0-.079-.024,2.455,2.455,0,0,1-.4.276l-2.312,1.334.4.235,1.915-1.105Q729.594,572.041,729.216,571.817Z" transform="translate(-703.546 -557.534)" fill="#73aac6"/>
        <path id="Path_2719" data-name="Path 2719" d="M732.461,572.317a.775.775,0,0,1,.358.071,1.724,1.724,0,0,1,1.1.184.832.832,0,0,1,.275.247.712.712,0,0,0,.052-.093c.084-.233-.024-.438-.328-.619a1.879,1.879,0,0,0-1.351-.138A.5.5,0,0,1,732.461,572.317Z" transform="translate(-705.486 -557.572)" fill="#73aac6"/>
        <path id="Path_2720" data-name="Path 2720" d="M722.236,571.668l.123.073.079-.07-.043-.026C722.342,571.656,722.29,571.66,722.236,571.668Z" transform="translate(-702.198 -557.486)" fill="#73aac6"/>
        <path id="Path_2721" data-name="Path 2721" d="M724.321,571.855l3.482-2.01.33.2.319-.276-.649-.385-3.879,2.24Z" transform="translate(-702.741 -556.758)" fill="#73aac6"/>
        <path id="Path_2722" data-name="Path 2722" d="M712.684,564.949l3.482-2.01.42.25.4-.229-.817-.485-3.879,2.24Z" transform="translate(-698.999 -554.538)" fill="#73aac6"/>
        <path id="Path_2723" data-name="Path 2723" d="M714.524,566.041l.4.236,3.482-2.01.329.2.318-.276-.647-.385Z" transform="translate(-699.718 -554.964)" fill="#73aac6"/>
        <path id="Path_2724" data-name="Path 2724" d="M698.564,556.15l5.021-2.9.42.25.4-.229-.817-.485-5.418,3.128Z" transform="translate(-694.458 -551.423)" fill="#73aac6"/>
        <path id="Path_2725" data-name="Path 2725" d="M712.883,562.126a.671.671,0,0,0-.086-.026,2.576,2.576,0,0,1-.4.274l-2.311,1.334.4.236,1.915-1.106Q713.256,562.346,712.883,562.126Z" transform="translate(-698.293 -554.417)" fill="#73aac6"/>
        <path id="Path_2726" data-name="Path 2726" d="M703.786,558.459a.935.935,0,0,1-.609-.032.962.962,0,0,0-.149.146c-.085.117-.06.217.073.3.015.009.035.008.051.016a2.424,2.424,0,0,0,.267-.039l.043.025-.092.081a1.144,1.144,0,0,0,.415-.027,4.629,4.629,0,0,0,1.128-.509l1.859-1.073.43.255.4-.229-.827-.49-1.859,1.073A4.634,4.634,0,0,1,703.786,558.459Z" transform="translate(-696.006 -552.738)" fill="#73aac6"/>
        <path id="Path_2727" data-name="Path 2727" d="M698.536,554.124l.944-.826c.058-.05.206-.174.445-.37s.4-.327.489-.389q-.339.15-.762.321c-.085.035-.216.086-.369.146l-.747.653-.372-.221-.475.182Z" transform="translate(-694.305 -551.343)" fill="#73aac6"/>
        <path id="Path_2728" data-name="Path 2728" d="M698.925,551.241l.823.488.31-.281-1.133-.673-6.224,2.291.483.287Z" transform="translate(-692.701 -550.776)" fill="#73aac6"/>
        <path id="Path_2729" data-name="Path 2729" d="M703.393,560.487l.122.073.081-.071-.043-.026C703.5,560.475,703.446,560.478,703.393,560.487Z" transform="translate(-696.139 -553.891)" fill="#73aac6"/>
        <path id="Path_2730" data-name="Path 2730" d="M697.128,555.448l-.71.619.317.188.71-.619Z" transform="translate(-693.896 -552.278)" fill="#73aac6"/>
        <path id="Path_2731" data-name="Path 2731" d="M710.373,560.636a.626.626,0,0,0-.079-.024,2.466,2.466,0,0,1-.4.275l-2.312,1.335.4.235,1.915-1.105Q710.751,560.86,710.373,560.636Z" transform="translate(-697.487 -553.939)" fill="#73aac6"/>
        <path id="Path_2732" data-name="Path 2732" d="M713.618,561.136a.768.768,0,0,1,.358.071,1.71,1.71,0,0,1,1.1.185.823.823,0,0,1,.275.246.684.684,0,0,0,.052-.094q.127-.348-.328-.618a1.876,1.876,0,0,0-1.351-.138A.5.5,0,0,1,713.618,561.136Z" transform="translate(-699.427 -553.976)" fill="#73aac6"/>
        <path id="Path_2733" data-name="Path 2733" d="M711.609,559.38l-.307.265a.691.691,0,0,1,.229.069,1.973,1.973,0,0,1,.5-.009,1.569,1.569,0,0,1,.594.191.82.82,0,0,1,.274.252c.155-.27.073-.51-.274-.716a1.583,1.583,0,0,0-.594-.192,2.06,2.06,0,0,0-.612.027Z" transform="translate(-698.682 -553.494)" fill="#73aac6"/>
        <path id="Path_2734" data-name="Path 2734" d="M705.479,560.675l3.482-2.01.33.2.319-.276-.649-.385-3.879,2.239Z" transform="translate(-696.682 -553.163)" fill="#73aac6"/>
        <path id="Path_2735" data-name="Path 2735" d="M701.916,557.307l2.531-1.461.429.254.4-.229-.826-.49-2.531,1.461a1.751,1.751,0,0,0-.826.753.39.39,0,0,0,.056.363A2.061,2.061,0,0,1,701.916,557.307Z" transform="translate(-695.391 -552.257)" fill="#73aac6"/>
      </g>
    </g>
  </g>
</svg>
