<svg xmlns="http://www.w3.org/2000/svg" width="39.224" height="45.042" viewBox="0 0 39.224 45.042">
  <g id="Electrical" transform="translate(-820.316 -201.553)">
    <path id="Path_2736" data-name="Path 2736" d="M848.942,239.891a10.559,10.559,0,0,1,3.191-4.879,12.819,12.819,0,0,0,4.6-9.853,12.952,12.952,0,1,0-21.3,9.853,10.066,10.066,0,0,1,3.284,4.879Z" transform="translate(-3.853 -3.9)" fill="#f59039"/>
    <path id="Path_2737" data-name="Path 2737" d="M847.158,247.2H848l-3.753-13.982h.281a1.852,1.852,0,0,0,1.314-.563.908.908,0,0,1,1.314,0,1.6,1.6,0,0,0,2.439,0,.852.852,0,0,1,.657-.281,1.015,1.015,0,0,1,.657.281,1.7,1.7,0,0,0,1.314.563h.281L848.846,247.2h.844l3.848-14.638c0-.187,0-.376-.188-.469a.413.413,0,0,0-.469.094.81.81,0,0,1-.563.282,1.247,1.247,0,0,1-.751-.282,1.6,1.6,0,0,0-2.439,0,.907.907,0,0,1-1.314,0,1.514,1.514,0,0,0-1.22-.562h0a1.514,1.514,0,0,0-1.22.563,1.063,1.063,0,0,1-.751.282.668.668,0,0,1-.563-.282.412.412,0,0,0-.469-.094.343.343,0,0,0-.188.469Z" transform="translate(-8.449 -11.023)" fill="#fff"/>
    <g id="Group_377" data-name="Group 377" transform="translate(834.861 235.897)">
      <path id="Path_2738" data-name="Path 2738" d="M846.684,269.547a3.133,3.133,0,0,0,5.818,0Z" transform="translate(-844.526 -260.82)" fill="#253a4c"/>
      <path id="Path_2739" data-name="Path 2739" d="M851.817,264.591h-6.85a1.682,1.682,0,0,1-1.689-1.689V255.77h10.229V262.9A1.682,1.682,0,0,1,851.817,264.591Z" transform="translate(-843.277 -255.77)" fill="#253a4c"/>
    </g>
    <g id="Group_378" data-name="Group 378" transform="translate(833.829 237.399)">
      <path id="Path_2740" data-name="Path 2740" d="M852.815,260.2H842.68a1.041,1.041,0,0,1-1.032-1.032h0a1.041,1.041,0,0,1,1.032-1.032h10.135a1.041,1.041,0,0,1,1.032,1.032h0A1.041,1.041,0,0,1,852.815,260.2Z" transform="translate(-841.648 -258.141)" fill="#314959"/>
      <path id="Path_2741" data-name="Path 2741" d="M852.815,265.389H842.68a1.041,1.041,0,0,1-1.032-1.032h0a1.041,1.041,0,0,1,1.032-1.033h10.135a1.041,1.041,0,0,1,1.032,1.033h0A1.041,1.041,0,0,1,852.815,265.389Z" transform="translate(-841.648 -260.041)" fill="#314959"/>
    </g>
    <g id="Group_379" data-name="Group 379" transform="translate(820.316 201.553)">
      <path id="Path_2742" data-name="Path 2742" d="M850.734,201.553a.941.941,0,0,0-.939.939v3.19a.941.941,0,0,0,.939.939.887.887,0,0,0,.938-.939v-3.19A.941.941,0,0,0,850.734,201.553Z" transform="translate(-831.121 -201.553)" fill="#ffc545"/>
      <path id="Path_2743" data-name="Path 2743" d="M830.5,210.427a.929.929,0,1,0-1.314,1.313l2.252,2.253a.929.929,0,0,0,1.314-1.314Z" transform="translate(-823.466 -204.702)" fill="#ffc545"/>
      <path id="Path_2744" data-name="Path 2744" d="M824.445,231.032h-3.19a.941.941,0,0,0-.939.938h0a.941.941,0,0,0,.939.939h3.19a.941.941,0,0,0,.939-.939h0A1.009,1.009,0,0,0,824.445,231.032Z" transform="translate(-820.316 -212.358)" fill="#ffc545"/>
      <path id="Path_2745" data-name="Path 2745" d="M831.442,248.645,829.19,250.9a.929.929,0,1,0,1.313,1.314l2.253-2.252a.929.929,0,1,0-1.314-1.314Z" transform="translate(-823.466 -218.711)" fill="#ffc545"/>
      <path id="Path_2746" data-name="Path 2746" d="M868.722,248.645a.929.929,0,1,0-1.314,1.314l2.252,2.252a.929.929,0,1,0,1.314-1.314Z" transform="translate(-837.474 -218.711)" fill="#ffc545"/>
      <path id="Path_2747" data-name="Path 2747" d="M878.366,231.032h-3.19a.941.941,0,0,0-.939.938h0a.941.941,0,0,0,.939.939h3.19a.941.941,0,0,0,.939-.939h0A.941.941,0,0,0,878.366,231.032Z" transform="translate(-840.081 -212.358)" fill="#ffc545"/>
      <path id="Path_2748" data-name="Path 2748" d="M869.66,210.427l-2.252,2.252a.929.929,0,0,0,1.314,1.314l2.252-2.253a.929.929,0,1,0-1.314-1.313Z" transform="translate(-837.474 -204.702)" fill="#ffc545"/>
    </g>
  </g>
</svg>
