<svg xmlns="http://www.w3.org/2000/svg" width="53.024" height="28.413" viewBox="0 0 53.024 28.413">
  <g id="Vehicles" transform="translate(-133.373 -551.181)">
    <g id="Group_381" data-name="Group 381" transform="translate(162.517 555.066)">
      <rect id="Rectangle_1608" data-name="Rectangle 1608" width="2.198" height="0.482" transform="translate(0.164 0.566) rotate(-4.253)" fill="#6d8380"/>
      <path id="Path_2749" data-name="Path 2749" d="M185.437,557.806l-2.28.169a.1.1,0,0,0-.09.1l.018.206a.1.1,0,0,0,.1.091l2.278-.17a.1.1,0,0,0,.09-.1l-.016-.208A.1.1,0,0,0,185.437,557.806Z" transform="translate(-183.067 -557.805)" fill="#819a96"/>
    </g>
    <path id="Path_2750" data-name="Path 2750" d="M173.453,573.055s2.5,1.593,2.171,3.718a7.471,7.471,0,0,1-1.173,2.634l-1.662,2.475a4.8,4.8,0,0,1-1.837,1.624,4.464,4.464,0,0,1-1.97.505l-6.95-.375a12.025,12.025,0,0,1-2.96-1.21l-7.734-4.1,1.528-.731,7.9,4.288a7,7,0,0,0,3.128.648l4.162.208s2.57.206,3.514-1.182l2.744-4.191a2.48,2.48,0,0,0-1.357-3.247Z" transform="translate(-7.429 -9.045)" fill="#7c6c57"/>
    <rect id="Rectangle_1609" data-name="Rectangle 1609" width="4.293" height="0.761" transform="matrix(0.62, -0.784, 0.784, 0.62, 164.8, 565.135)" fill="#0f1319"/>
    <rect id="Rectangle_1610" data-name="Rectangle 1610" width="4.293" height="0.76" transform="translate(162.104 564.241) rotate(-51.743)" fill="#0f1319"/>
    <path id="Path_2751" data-name="Path 2751" d="M154.268,567.222l-.475-.275a.6.6,0,0,0-.812.216l-.41.708.24.14-.435.749-.056-.031a.16.16,0,0,0-.217.057l-.043.073a.161.161,0,0,0,.058.218l.055.03-.168.293-.066-.037a.157.157,0,0,0-.218.057l-.042.072a.158.158,0,0,0,.059.218l.065.038-.171.291-.073-.041a.159.159,0,0,0-.218.057l-.042.073a.16.16,0,0,0,.06.217l.073.043-.171.293-.081-.049a.159.159,0,0,0-.218.057l-.042.074a.158.158,0,0,0,.059.216l.082.048-.168.293-.091-.053a.16.16,0,0,0-.219.057l-.043.072a.162.162,0,0,0,.057.218l.093.053-.163.284-.093-.053a.157.157,0,0,0-.217.059l-.043.071a.161.161,0,0,0,.057.218l.093.054-.164.283-.092-.053a.158.158,0,0,0-.216.057l-.044.073a.162.162,0,0,0,.058.217l.093.055-.165.282-.092-.053a.161.161,0,0,0-.219.057l-.041.073a.161.161,0,0,0,.056.218l.094.053-.164.284-.092-.053a.158.158,0,0,0-.218.058l-.042.073a.157.157,0,0,0,.057.216l.093.054-.164.284-.092-.054a.161.161,0,0,0-.218.057l-.042.072a.16.16,0,0,0,.057.219l.091.053-.164.283-.092-.054a.16.16,0,0,0-.216.058l-.043.072a.159.159,0,0,0,.059.219l.092.053-.208.358-.279-.163-.587,1.015a.688.688,0,0,0,.25.94l.4.234a.69.69,0,0,0,.941-.249l.587-1.014-.279-.162.208-.358.091.053a.16.16,0,0,0,.218-.058l.041-.072a.159.159,0,0,0-.058-.218l-.091-.053.165-.283.091.052a.161.161,0,0,0,.219-.057l.04-.073a.158.158,0,0,0-.059-.218l-.091-.052.165-.283.091.053a.161.161,0,0,0,.218-.059l.042-.073a.158.158,0,0,0-.057-.216l-.093-.054.167-.282.09.052a.161.161,0,0,0,.219-.057l.04-.072a.159.159,0,0,0-.057-.219l-.09-.052.164-.284.091.054a.157.157,0,0,0,.216-.059l.042-.072a.159.159,0,0,0-.057-.218l-.091-.053.164-.284.092.053a.16.16,0,0,0,.218-.057l.043-.073a.16.16,0,0,0-.058-.218l-.092-.055.163-.281.094.054a.159.159,0,0,0,.216-.059l.042-.071a.159.159,0,0,0-.057-.218l-.092-.053.169-.293.1.059a.163.163,0,0,0,.219-.057l.041-.073a.158.158,0,0,0-.059-.218l-.1-.059.172-.293.108.065a.161.161,0,0,0,.219-.058l.043-.072a.16.16,0,0,0-.06-.218l-.109-.064.169-.293.119.07a.16.16,0,0,0,.218-.058l.042-.073a.157.157,0,0,0-.056-.216l-.121-.07.17-.292.129.075a.158.158,0,0,0,.217-.059l.041-.073a.157.157,0,0,0-.057-.216l-.13-.075.436-.75.225.13.412-.709A.593.593,0,0,0,154.268,567.222Z" transform="translate(-5.769 -6.486)" fill="#14181f"/>
    <rect id="Rectangle_1611" data-name="Rectangle 1611" width="5.453" height="0.547" transform="matrix(0.608, -0.794, 0.794, 0.608, 148.546, 566.305)" fill="#242a32"/>
    <rect id="Rectangle_1612" data-name="Rectangle 1612" width="2.426" height="4.725" transform="translate(161.829 563.443)" fill="#1a1f25"/>
    <rect id="Rectangle_1613" data-name="Rectangle 1613" width="0.993" height="1.825" transform="translate(159.845 562.087)" fill="#161c23"/>
    <rect id="Rectangle_1614" data-name="Rectangle 1614" width="0.992" height="1.825" transform="translate(158.33 562.087)" fill="#161c23"/>
    <rect id="Rectangle_1615" data-name="Rectangle 1615" width="7.964" height="1.62" transform="translate(154.291 571.589)" fill="#1a1718"/>
    <g id="Group_383" data-name="Group 383" transform="translate(164.643 561.752)">
      <g id="Group_382" data-name="Group 382" transform="translate(0 0)">
        <path id="Path_2752" data-name="Path 2752" d="M192.8,571.964l-1.195-.574a.07.07,0,0,0-.1.033l-.288.6a.071.071,0,0,0,.033.1l1.194.575a.07.07,0,0,0,.1-.034l.291-.6A.075.075,0,0,0,192.8,571.964Z" transform="translate(-188.56 -570.106)" fill="#596572"/>
        <path id="Path_2753" data-name="Path 2753" d="M188.277,569.788l-1.193-.575a.072.072,0,0,0-.1.034l-.289.6a.074.074,0,0,0,.035.1l1.193.574a.072.072,0,0,0,.1-.033l.288-.6A.072.072,0,0,0,188.277,569.788Z" transform="translate(-186.692 -569.206)" fill="#596572"/>
      </g>
      <rect id="Rectangle_1616" data-name="Rectangle 1616" width="1.47" height="0.602" transform="matrix(0.901, 0.434, -0.434, 0.901, 1.607, 0.707)" fill="#1d232a"/>
    </g>
    <g id="Group_385" data-name="Group 385" transform="translate(159.005 564.082)">
      <g id="Group_384" data-name="Group 384">
        <path id="Path_2754" data-name="Path 2754" d="M177.923,579.59l-.009-1.325a.07.07,0,0,0-.07-.072l-.666,0a.07.07,0,0,0-.072.072l.007,1.327a.073.073,0,0,0,.072.072l.667,0A.072.072,0,0,0,177.923,579.59Z" transform="translate(-177.09 -575.251)" fill="#596572"/>
        <path id="Path_2755" data-name="Path 2755" d="M177.895,574.576l-.008-1.325a.072.072,0,0,0-.073-.072l-.665,0a.07.07,0,0,0-.072.072l.008,1.327a.071.071,0,0,0,.072.071l.665,0A.074.074,0,0,0,177.895,574.576Z" transform="translate(-177.078 -573.178)" fill="#596572"/>
      </g>
      <rect id="Rectangle_1617" data-name="Rectangle 1617" width="0.601" height="1.47" transform="translate(0.112 1.474) rotate(-0.369)" fill="#1d232a"/>
    </g>
    <rect id="Rectangle_1618" data-name="Rectangle 1618" width="0.856" height="2.616" transform="translate(160.992 563.629) rotate(90)" fill="#0f1319"/>
    <rect id="Rectangle_1619" data-name="Rectangle 1619" width="0.856" height="2.618" transform="translate(160.738 565.128) rotate(90)" fill="#0f1319"/>
    <g id="Group_386" data-name="Group 386" transform="translate(142.986 568.249)">
      <path id="Path_2756" data-name="Path 2756" d="M153.883,581.458c-.3,0-.573,0-.831-.013a20.549,20.549,0,0,1-3.287-.335l.056-.26a26.006,26.006,0,0,0,11.027-.565l.067.257A27.277,27.277,0,0,1,153.883,581.458Z" transform="translate(-149.765 -580.284)" fill="#1a1718"/>
    </g>
    <g id="Group_387" data-name="Group 387" transform="translate(153.55 564.685)">
      <path id="Path_2757" data-name="Path 2757" d="M167.831,578.436l-.053-.26c2.576-.515,4.031-3.934,4.044-3.969l.246.1a9.8,9.8,0,0,1-1.084,1.851A5.427,5.427,0,0,1,167.831,578.436Z" transform="translate(-167.778 -574.207)" fill="#1a1718"/>
    </g>
    <g id="Group_388" data-name="Group 388" transform="translate(151.662 563.49)">
      <path id="Path_2758" data-name="Path 2758" d="M164.61,576.4l-.052-.261c2.575-.514,4.03-3.933,4.044-3.969l.245.1a9.706,9.706,0,0,1-1.083,1.852A5.436,5.436,0,0,1,164.61,576.4Z" transform="translate(-164.558 -572.169)" fill="#1a1718"/>
    </g>
    <rect id="Rectangle_1620" data-name="Rectangle 1620" width="7.364" height="0.231" transform="translate(149.906 567.723)" fill="#6b1d1b"/>
    <rect id="Rectangle_1621" data-name="Rectangle 1621" width="16.251" height="0.313" transform="translate(141.414 574.567) rotate(-8.859)" fill="#0f1319"/>
    <g id="Group_395" data-name="Group 395" transform="translate(137.424 567.229)">
      <g id="Group_391" data-name="Group 391" transform="translate(0 0)">
        <rect id="Rectangle_1622" data-name="Rectangle 1622" width="3.34" height="1.513" transform="translate(0.206 2.129) rotate(-32.852)" fill="#836048"/>
        <g id="Group_389" data-name="Group 389" transform="translate(0.809 1.25)">
          <path id="Path_2759" data-name="Path 2759" d="M145.474,581.045l.36.557a.093.093,0,0,0,.129.027l.412-.266a.092.092,0,0,0,.029-.128l-.361-.558Z" transform="translate(-143.237 -580.677)" fill="#836048"/>
          <path id="Path_2760" data-name="Path 2760" d="M144.164,582.681a.091.091,0,0,0,.129.028l.411-.265a.093.093,0,0,0,.028-.129l-.359-.557-.569.367Z" transform="translate(-142.546 -581.124)" fill="#836048"/>
          <path id="Path_2761" data-name="Path 2761" d="M142.02,584.067a.094.094,0,0,0,.13.028l.411-.266a.092.092,0,0,0,.028-.13l-.361-.556-.568.367Z" transform="translate(-141.659 -581.697)" fill="#836048"/>
        </g>
        <g id="Group_390" data-name="Group 390">
          <path id="Rectangle_1623" data-name="Rectangle 1623" d="M.2,0h.969a.2.2,0,0,1,.2.2v.892a.194.194,0,0,1-.194.194H.2a.2.2,0,0,1-.2-.2V.2A.2.2,0,0,1,.2,0Z" transform="translate(1.806 0.738) rotate(-32.826)" fill="#bf8563"/>
          <path id="Rectangle_1624" data-name="Rectangle 1624" d="M.194,0h1.4a.195.195,0,0,1,.195.195V.926a.2.2,0,0,1-.2.2H.194A.194.194,0,0,1,0,.928V.194A.194.194,0,0,1,.194,0Z" transform="translate(0 2.097) rotate(-32.859)" fill="#bf8563"/>
        </g>
      </g>
      <g id="Group_392" data-name="Group 392" transform="translate(3.369 1.617)">
        <path id="Path_2762" data-name="Path 2762" d="M146.386,581.665a.213.213,0,0,1-.3,0,.211.211,0,1,1,.3-.3A.213.213,0,0,1,146.386,581.665Z" transform="translate(-146.024 -581.303)" fill="#9ebdb8"/>
        <path id="Path_2763" data-name="Path 2763" d="M146.386,581.664a.148.148,0,0,1-.209-.209.148.148,0,0,1,.209.209Z" transform="translate(-146.069 -581.348)" fill="#739791"/>
        <path id="Path_2764" data-name="Path 2764" d="M146.309,581.707l-.054-.291a.137.137,0,0,0-.079.04.148.148,0,0,0,0,.209A.151.151,0,0,0,146.309,581.707Z" transform="translate(-146.069 -581.349)" fill="#323232" opacity="0.2"/>
      </g>
      <g id="Group_393" data-name="Group 393" transform="translate(2.358 2.244)">
        <path id="Path_2765" data-name="Path 2765" d="M144.662,582.734a.213.213,0,0,1-.3,0,.213.213,0,0,1,.3-.3A.218.218,0,0,1,144.662,582.734Z" transform="translate(-144.302 -582.372)" fill="#9ebdb8"/>
        <path id="Path_2766" data-name="Path 2766" d="M144.663,582.734a.15.15,0,0,1-.211,0,.153.153,0,0,1,0-.211.151.151,0,0,1,.211,0A.154.154,0,0,1,144.663,582.734Z" transform="translate(-144.346 -582.417)" fill="#739791"/>
        <path id="Path_2767" data-name="Path 2767" d="M144.587,582.776l-.056-.291a.159.159,0,0,0-.077.04.153.153,0,0,0,0,.211A.15.15,0,0,0,144.587,582.776Z" transform="translate(-144.346 -582.419)" fill="#323232" opacity="0.2"/>
      </g>
      <g id="Group_394" data-name="Group 394" transform="translate(1.13 3.017)">
        <path id="Path_2768" data-name="Path 2768" d="M142.569,584.053a.212.212,0,1,1-.3-.3.212.212,0,0,1,.3.3Z" transform="translate(-142.207 -583.69)" fill="#9ebdb8"/>
        <path id="Path_2769" data-name="Path 2769" d="M142.57,584.053a.15.15,0,0,1-.211,0,.145.145,0,0,1,0-.209.148.148,0,0,1,.209.21Z" transform="translate(-142.252 -583.736)" fill="#739791"/>
        <path id="Path_2770" data-name="Path 2770" d="M142.493,584.094l-.055-.289a.155.155,0,0,0-.078.04.147.147,0,0,0,.133.249Z" transform="translate(-142.252 -583.738)" fill="#323232" opacity="0.2"/>
      </g>
    </g>
    <g id="Group_397" data-name="Group 397" transform="translate(133.373 563.761)">
      <g id="Group_396" data-name="Group 396" transform="translate(4.546 4.546)">
        <path id="Path_2771" data-name="Path 2771" d="M144.494,580.384a3.371,3.371,0,1,0,3.372,3.37A3.373,3.373,0,0,0,144.494,580.384Zm1.732,5.2c-.17-.168-.385-.416-.637-.27a.281.281,0,0,0-.108.3,1.77,1.77,0,0,0,.146.392,2.5,2.5,0,0,1-2.432-.093c.126-.2.311-.464.118-.672a.274.274,0,0,0-.317-.04,1.729,1.729,0,0,0-.37.245,2.515,2.515,0,0,1-.653-1.691c0-.087.006-.172.014-.258.223.032.489.054.585-.182a.278.278,0,0,0-.1-.305,1.494,1.494,0,0,0-.317-.2,2.536,2.536,0,0,1,1.783-1.512,2.038,2.038,0,0,0,.147.45.275.275,0,0,0,.272.167c.306-.045.3-.422.333-.66l0-.009a2.523,2.523,0,0,1,2.114,1.52,2,2,0,0,0-.4.247.278.278,0,0,0-.1.305c.111.272.445.2.684.169.009.089.014.179.014.27A2.509,2.509,0,0,1,146.227,585.582Z" transform="translate(-141.124 -580.384)" fill="#739791"/>
        <path id="Path_2772" data-name="Path 2772" d="M144.494,580.384a3.371,3.371,0,1,0,3.372,3.37A3.373,3.373,0,0,0,144.494,580.384Zm0,6.523a3.153,3.153,0,1,1,3.153-3.153A3.157,3.157,0,0,1,144.494,586.907Z" transform="translate(-141.124 -580.384)" fill="#97ada4"/>
      </g>
      <path id="Path_2773" data-name="Path 2773" d="M148.389,581.89h.011a5.117,5.117,0,0,0-.324-1.33.019.019,0,0,1-.009.006,5.251,5.251,0,1,0-2.54,6.576s0,.006.006.009a5.232,5.232,0,0,0,1.1-.74s0-.006-.006-.009a5.264,5.264,0,0,0,1.759-4.512Zm-4.3-3.586a.525.525,0,0,1,.695-.4l.076.028a4.808,4.808,0,0,1,2.563,2.246.523.523,0,0,1-.316.745,12,12,0,0,1-2.592.459,1.745,1.745,0,0,0-.572-.413A11.977,11.977,0,0,1,144.092,578.3Zm-4.926,1.453a4.825,4.825,0,0,1,3.053-2.036.523.523,0,0,1,.625.5,12.03,12.03,0,0,1-.288,2.706,1.793,1.793,0,0,0-.723.521,12.049,12.049,0,0,1-2.471-.938A.525.525,0,0,1,139.166,579.757Zm.208,5.676a4.833,4.833,0,0,1-1.028-3.178.526.526,0,0,1,.661-.488,11.78,11.78,0,0,1,2.412.939,1.782,1.782,0,0,0,.167.653,12.122,12.122,0,0,1-1.395,2.089A.525.525,0,0,1,139.374,585.432Zm5.379,1.578a4.8,4.8,0,0,1-3.278-.039c-.02-.008-.041-.015-.061-.024a.524.524,0,0,1-.256-.768,12.338,12.338,0,0,1,1.478-1.885,1.776,1.776,0,0,0,.891.063,12.467,12.467,0,0,1,1.5,1.875A.525.525,0,0,1,144.753,587.011Zm2.935-2.865a4.778,4.778,0,0,1-.906,1.507.526.526,0,0,1-.815-.032,12.354,12.354,0,0,1-1.237-2.084,1.71,1.71,0,0,0,.152-.307,1.864,1.864,0,0,0,.1-.418,12.148,12.148,0,0,1,2.38-.774.527.527,0,0,1,.632.531A4.854,4.854,0,0,1,147.688,584.145Z" transform="translate(-135.252 -574.521)" fill="#0f1319"/>
      <path id="Path_2774" data-name="Path 2774" d="M142.981,576.725a5.516,5.516,0,1,0,5.515,5.516A5.516,5.516,0,0,0,142.981,576.725Zm0,10.364a4.848,4.848,0,1,1,4.847-4.848A4.847,4.847,0,0,1,142.981,587.089Z" transform="translate(-135.065 -574.325)" fill="#0f1319"/>
      <path id="Path_2775" data-name="Path 2775" d="M141.289,572.632a7.917,7.917,0,1,0,7.916,7.917A7.916,7.916,0,0,0,141.289,572.632Zm0,13.433a5.516,5.516,0,1,1,5.515-5.516A5.516,5.516,0,0,1,141.289,586.065Z" transform="translate(-133.373 -572.632)" fill="#292927"/>
      <path id="Path_2776" data-name="Path 2776" d="M141.289,572.632a7.917,7.917,0,1,0,7.916,7.917A7.916,7.916,0,0,0,141.289,572.632Zm0,15.42a7.5,7.5,0,1,1,7.5-7.5A7.5,7.5,0,0,1,141.289,588.052Z" transform="translate(-133.373 -572.632)" fill="#373839"/>
      <path id="Path_2777" data-name="Path 2777" d="M142.581,575.758a6.084,6.084,0,1,0,6.085,6.083A6.084,6.084,0,0,0,142.581,575.758Zm0,11.6a5.516,5.516,0,1,1,5.515-5.516A5.516,5.516,0,0,1,142.581,587.358Z" transform="translate(-134.665 -573.925)" fill="#373839"/>
      <path id="Path_2778" data-name="Path 2778" d="M145.3,582.322a2.234,2.234,0,1,0,2.233,2.234A2.235,2.235,0,0,0,145.3,582.322Zm.361,1.727a.622.622,0,0,0-.257-.107v-.224a.836.836,0,0,1,.415.171Zm-.484-.1a.638.638,0,0,0-.248.11l-.16-.158a.86.86,0,0,1,.408-.178Zm-.4.276a.615.615,0,0,0-.09.243h-.225a.836.836,0,0,1,.154-.4Zm-.082.469a.593.593,0,0,0,.1.225l-.16.159a.861.861,0,0,1-.167-.384Zm.262.384a.641.641,0,0,0,.223.092v.225a.832.832,0,0,1-.382-.16Zm.45.1a.664.664,0,0,0,.23-.087l.16.16a.832.832,0,0,1-.39.152Zm.4-.243a.6.6,0,0,0,.108-.236h.227a.856.856,0,0,1-.176.394Zm.115-.461a.594.594,0,0,0-.1-.255l.16-.158a.846.846,0,0,1,.164.413Zm.211-.883a1.272,1.272,0,0,0-.723-.3v-.2a1.458,1.458,0,0,1,.865.359Zm-.949-.3a1.273,1.273,0,0,0-.713.308l-.143-.144a1.466,1.466,0,0,1,.856-.364Zm-.872.469a1.271,1.271,0,0,0-.28.713h-.2a1.468,1.468,0,0,1,.34-.854Zm-.277.938a1.284,1.284,0,0,0,.3.691l-.142.143a1.465,1.465,0,0,1-.357-.834Zm.459.851a1.27,1.27,0,0,0,.69.286v.2a1.474,1.474,0,0,1-.833-.345Zm.916.288a1.269,1.269,0,0,0,.7-.281l.143.144a1.49,1.49,0,0,1-.841.339Zm.862-.438a1.279,1.279,0,0,0,.3-.7h.2a1.454,1.454,0,0,1-.364.843Zm.309-.927a1.286,1.286,0,0,0-.289-.721l.143-.142a1.463,1.463,0,0,1,.349.863Z" transform="translate(-137.38 -576.639)" fill="#1b2027"/>
    </g>
    <path id="Path_2779" data-name="Path 2779" d="M164.875,584.787l-20.42,1.034a.215.215,0,0,1-.228-.206l-.056-1.077a.217.217,0,0,1,.208-.229l20.419-1.036Z" transform="translate(-4.465 -13.272)" fill="#0f1319"/>
    <g id="Group_399" data-name="Group 399" transform="translate(140.963 560.301)">
      <rect id="Rectangle_1625" data-name="Rectangle 1625" width="1.198" height="9.636" transform="matrix(0.865, 0.501, -0.501, 0.865, 5.572, 0.993)" fill="#1b2027"/>
      <path id="Path_2780" data-name="Path 2780" d="M153.263,574.93l-1.219-.707a.157.157,0,0,0-.216.056l-.042.073a.158.158,0,0,0,.057.218l1.219.707a.158.158,0,0,0,.216-.056l.042-.073A.158.158,0,0,0,153.263,574.93Z" transform="translate(-148.568 -569.82)" fill="#0f1319"/>
      <path id="Path_2781" data-name="Path 2781" d="M153.911,573.847l-1.218-.708a.161.161,0,0,0-.219.057l-.042.073a.159.159,0,0,0,.057.218l1.218.707a.159.159,0,0,0,.219-.057l.042-.073A.158.158,0,0,0,153.911,573.847Z" transform="translate(-148.836 -569.372)" fill="#0f1319"/>
      <path id="Path_2782" data-name="Path 2782" d="M154.56,572.763l-1.218-.706a.159.159,0,0,0-.218.056l-.042.075a.157.157,0,0,0,.059.216l1.217.707a.158.158,0,0,0,.218-.057l.045-.072A.162.162,0,0,0,154.56,572.763Z" transform="translate(-149.105 -568.924)" fill="#0f1319"/>
      <path id="Rectangle_1626" data-name="Rectangle 1626" d="M.2,0h0A.2.2,0,0,1,.4.2V1.527a.2.2,0,0,1-.2.2h0a.2.2,0,0,1-.2-.2V.2A.2.2,0,0,1,.2,0Z" transform="translate(4.279 2.765) rotate(-59.861)" fill="#0f1319"/>
      <path id="Path_2783" data-name="Path 2783" d="M155.86,570.6l-1.22-.708a.159.159,0,0,0-.217.059l-.042.072a.16.16,0,0,0,.057.219l1.219.706a.159.159,0,0,0,.218-.057l.043-.073A.159.159,0,0,0,155.86,570.6Z" transform="translate(-149.641 -568.029)" fill="#0f1319"/>
      <path id="Path_2784" data-name="Path 2784" d="M152.637,576.006l-1.219-.708a.159.159,0,0,0-.218.06l-.042.071a.158.158,0,0,0,.057.218l1.22.707a.158.158,0,0,0,.216-.057l.042-.073A.156.156,0,0,0,152.637,576.006Z" transform="translate(-148.309 -570.265)" fill="#0f1319"/>
      <path id="Path_2785" data-name="Path 2785" d="M152.013,577.081l-1.22-.706a.158.158,0,0,0-.217.057l-.041.073a.158.158,0,0,0,.057.218l1.219.707a.16.16,0,0,0,.218-.057l.042-.073A.16.16,0,0,0,152.013,577.081Z" transform="translate(-148.051 -570.71)" fill="#0f1319"/>
      <path id="Path_2786" data-name="Path 2786" d="M151.389,578.16l-1.22-.708a.159.159,0,0,0-.218.057l-.042.073a.158.158,0,0,0,.057.218l1.218.708a.161.161,0,0,0,.218-.057l.043-.074A.159.159,0,0,0,151.389,578.16Z" transform="translate(-147.793 -571.156)" fill="#0f1319"/>
      <path id="Path_2787" data-name="Path 2787" d="M150.764,579.235l-1.22-.707a.16.16,0,0,0-.218.059l-.041.071a.159.159,0,0,0,.059.219l1.219.707a.159.159,0,0,0,.218-.058l.042-.073A.16.16,0,0,0,150.764,579.235Z" transform="translate(-147.534 -571.601)" fill="#0f1319"/>
      <path id="Rectangle_1627" data-name="Rectangle 1627" d="M.2,0h0A.2.2,0,0,1,.4.2V1.527a.2.2,0,0,1-.2.2h0a.2.2,0,0,1-.2-.2V.2A.2.2,0,0,1,.2,0Z" transform="matrix(0.502, -0.865, 0.865, 0.502, 1.304, 7.828)" fill="#0f1319"/>
      <path id="Path_2788" data-name="Path 2788" d="M149.516,581.389l-1.218-.707a.16.16,0,0,0-.219.057l-.042.072a.159.159,0,0,0,.057.218l1.218.707a.162.162,0,0,0,.219-.057l.042-.072A.163.163,0,0,0,149.516,581.389Z" transform="translate(-147.018 -572.491)" fill="#0f1319"/>
      <path id="Path_2789" data-name="Path 2789" d="M147,581.713l-.59,1.015a.688.688,0,0,0,.25.94l.4.234a.687.687,0,0,0,.94-.25l.587-1.014Z" transform="translate(-146.315 -572.927)" fill="#303942"/>
      <g id="Group_398" data-name="Group 398" transform="translate(0.399 9.543)">
        <path id="Path_2790" data-name="Path 2790" d="M148.129,583.809a.588.588,0,1,1-.328-.763A.588.588,0,0,1,148.129,583.809Z" transform="translate(-146.995 -583.004)" fill="#9ebdb8"/>
        <path id="Path_2791" data-name="Path 2791" d="M148.088,583.868a.41.41,0,1,1-.228-.534A.41.41,0,0,1,148.088,583.868Z" transform="translate(-147.12 -583.129)" fill="#739791"/>
        <path id="Path_2792" data-name="Path 2792" d="M147.942,584.1l-.463-.678a.418.418,0,0,0-.152.19.41.41,0,0,0,.616.488Z" transform="translate(-147.12 -583.178)" fill="#323232" opacity="0.2"/>
      </g>
      <path id="Path_2793" data-name="Path 2793" d="M156.961,567.086l-.474-.274a.592.592,0,0,0-.81.216l-.413.708,1.5.871.41-.708A.594.594,0,0,0,156.961,567.086Z" transform="translate(-150.015 -566.731)" fill="#242a32"/>
    </g>
    <path id="Path_2794" data-name="Path 2794" d="M145.993,580.485s-1.58.368-1.8,1.688h10.346l3.573,1.667,1.321-3.355Zm1.249,1.319a.49.49,0,1,1,.489-.49A.49.49,0,0,1,147.242,581.8Zm1.448,0a.49.49,0,1,1,.49-.49A.491.491,0,0,1,148.69,581.8Zm1.449,0a.49.49,0,1,1,.491-.49A.49.49,0,0,1,150.139,581.8Zm1.449,0a.49.49,0,1,1,.491-.49A.49.49,0,0,1,151.588,581.8Zm1.451,0a.49.49,0,1,1,.49-.49A.488.488,0,0,1,153.039,581.8Z" transform="translate(-4.476 -12.118)" fill="#161c23"/>
    <g id="Group_400" data-name="Group 400" transform="translate(161.682 560.416)">
      <path id="Path_2795" data-name="Path 2795" d="M181.806,571.006a.139.139,0,0,0,.053-.043l-.215-.155c.029-.041.05-.047.173-.082a8.159,8.159,0,0,0,5.1-3.8l.236.123a8.422,8.422,0,0,1-5.268,3.932C181.852,570.992,181.814,571,181.806,571.006Z" transform="translate(-181.644 -566.927)" fill="#1a1718"/>
    </g>
    <g id="Group_401" data-name="Group 401" transform="translate(162.314 563.228)">
      <rect id="Rectangle_1628" data-name="Rectangle 1628" width="2.587" height="4.37" transform="translate(1.34 0.957) rotate(16.938)" fill="#242a32"/>
      <path id="Path_2796" data-name="Path 2796" d="M185.513,580.385l-2.667-.812a.079.079,0,0,0-.09.066l-.029.093a.084.084,0,0,0,.039.106l2.668.812c.035.011.074-.019.09-.066l.028-.093A.08.08,0,0,0,185.513,580.385Z" transform="translate(-182.721 -574.968)" fill="#303942"/>
      <path id="Path_2797" data-name="Path 2797" d="M185.753,579.594l-2.667-.812a.08.08,0,0,0-.09.066l-.029.092a.081.081,0,0,0,.039.106l2.667.813c.036.011.076-.019.09-.066l.029-.094A.08.08,0,0,0,185.753,579.594Z" transform="translate(-182.821 -574.64)" fill="#303942"/>
      <path id="Path_2798" data-name="Path 2798" d="M185.994,578.8l-2.667-.812c-.035-.011-.076.019-.091.066l-.028.093a.085.085,0,0,0,.037.107l2.669.812c.035.011.076-.019.091-.067l.028-.093A.082.082,0,0,0,185.994,578.8Z" transform="translate(-182.92 -574.314)" fill="#303942"/>
      <path id="Path_2799" data-name="Path 2799" d="M186.235,578.013l-2.668-.811c-.036-.012-.075.016-.089.065l-.03.093a.081.081,0,0,0,.038.106l2.667.813a.08.08,0,0,0,.09-.066l.029-.094A.083.083,0,0,0,186.235,578.013Z" transform="translate(-183.02 -573.987)" fill="#303942"/>
      <path id="Path_2800" data-name="Path 2800" d="M186.476,577.223l-2.668-.813c-.035-.011-.075.019-.089.067l-.03.092a.084.084,0,0,0,.039.107l2.667.812c.036.012.076-.019.091-.066l.029-.093A.081.081,0,0,0,186.476,577.223Z" transform="translate(-183.119 -573.66)" fill="#303942"/>
      <path id="Path_2801" data-name="Path 2801" d="M186.716,576.432l-2.667-.812c-.036-.011-.076.019-.091.067l-.028.094a.078.078,0,0,0,.038.1l2.667.813c.035.012.074-.019.09-.066l.028-.094A.081.081,0,0,0,186.716,576.432Z" transform="translate(-183.219 -573.333)" fill="#303942"/>
      <path id="Path_2802" data-name="Path 2802" d="M186.958,575.64l-2.668-.813a.082.082,0,0,0-.09.069l-.028.091a.079.079,0,0,0,.038.106l2.668.812c.036.012.076-.018.089-.065l.028-.094A.08.08,0,0,0,186.958,575.64Z" transform="translate(-183.319 -573.005)" fill="#303942"/>
      <path id="Path_2803" data-name="Path 2803" d="M187.2,574.851l-2.668-.815a.084.084,0,0,0-.09.069l-.028.091c-.014.048,0,.1.037.107l2.668.812c.036.011.075-.019.09-.067l.029-.092A.081.081,0,0,0,187.2,574.851Z" transform="translate(-183.419 -572.678)" fill="#303942"/>
      <path id="Path_2804" data-name="Path 2804" d="M184.834,572.7l2.609.8a.094.094,0,0,0,.114-.06l.243-.8a.089.089,0,0,0-.061-.111l-2.61-.8a.092.092,0,0,0-.114.06l-.242.8A.088.088,0,0,0,184.834,572.7Z" transform="translate(-183.569 -571.722)" fill="#a59d76"/>
      <path id="Path_2805" data-name="Path 2805" d="M187.512,572.726l1.01.308a.092.092,0,0,0,.114-.059l.151-.5a.092.092,0,0,0-.059-.112l-1.011-.307a.092.092,0,0,0-.114.059l-.151.5A.088.088,0,0,0,187.512,572.726Z" transform="translate(-184.675 -571.858)" fill="#bfb686"/>
    </g>
    <g id="Group_402" data-name="Group 402" transform="translate(159.279 562.315)">
      <rect id="Rectangle_1629" data-name="Rectangle 1629" width="4.37" height="2.588" transform="matrix(0.291, -0.957, 0.957, 0.291, 0.067, 5.139)" fill="#242a32"/>
      <path id="Path_2806" data-name="Path 2806" d="M180.339,578.828l-2.669-.813c-.035-.01-.076.021-.09.068l-.028.093a.081.081,0,0,0,.038.106l2.668.812c.034.01.077-.019.09-.067l.029-.092A.084.084,0,0,0,180.339,578.828Z" transform="translate(-177.547 -573.411)" fill="#303942"/>
      <path id="Path_2807" data-name="Path 2807" d="M180.579,578.039l-2.668-.814c-.035-.011-.073.019-.09.067l-.028.093a.08.08,0,0,0,.038.106l2.667.813a.081.081,0,0,0,.09-.069l.029-.091A.08.08,0,0,0,180.579,578.039Z" transform="translate(-177.647 -573.084)" fill="#303942"/>
      <path id="Path_2808" data-name="Path 2808" d="M180.821,577.248l-2.667-.813c-.035-.011-.076.018-.091.067l-.028.093a.082.082,0,0,0,.038.1l2.667.813a.08.08,0,0,0,.09-.067l.028-.091A.079.079,0,0,0,180.821,577.248Z" transform="translate(-177.747 -572.758)" fill="#303942"/>
      <path id="Path_2809" data-name="Path 2809" d="M181.062,576.457l-2.667-.812c-.035-.012-.076.019-.091.066l-.028.094a.083.083,0,0,0,.039.106l2.667.812c.035.01.076-.018.089-.067l.029-.093A.081.081,0,0,0,181.062,576.457Z" transform="translate(-177.846 -572.431)" fill="#303942"/>
      <path id="Path_2810" data-name="Path 2810" d="M181.3,575.667l-2.666-.813c-.035-.011-.077.02-.092.066l-.028.094a.084.084,0,0,0,.039.106l2.667.811c.035.011.076-.018.091-.066l.028-.092A.082.082,0,0,0,181.3,575.667Z" transform="translate(-177.946 -572.104)" fill="#303942"/>
      <path id="Path_2811" data-name="Path 2811" d="M181.542,574.877l-2.667-.812c-.035-.011-.076.019-.091.066l-.028.093a.082.082,0,0,0,.039.106l2.666.812c.035.012.076-.019.091-.066l.028-.092A.083.083,0,0,0,181.542,574.877Z" transform="translate(-178.045 -571.777)" fill="#303942"/>
      <path id="Path_2812" data-name="Path 2812" d="M181.783,574.086l-2.667-.812a.079.079,0,0,0-.09.066l-.03.094a.082.082,0,0,0,.04.1l2.667.813a.081.081,0,0,0,.091-.067l.028-.093A.083.083,0,0,0,181.783,574.086Z" transform="translate(-178.144 -571.45)" fill="#303942"/>
      <path id="Path_2813" data-name="Path 2813" d="M182.026,573.3l-2.67-.813a.08.08,0,0,0-.089.067l-.03.091c-.014.049,0,.1.039.107l2.669.813c.033.011.073-.019.09-.067l.028-.092A.084.084,0,0,0,182.026,573.3Z" transform="translate(-178.244 -571.123)" fill="#303942"/>
      <path id="Path_2814" data-name="Path 2814" d="M179.661,571.144l2.609.8a.092.092,0,0,0,.113-.061l.244-.8a.089.089,0,0,0-.061-.112l-2.609-.8a.092.092,0,0,0-.113.061l-.242.8A.087.087,0,0,0,179.661,571.144Z" transform="translate(-178.394 -570.166)" fill="#a59d76"/>
      <path id="Rectangle_1630" data-name="Rectangle 1630" d="M.153,0H.548A.154.154,0,0,1,.7.154v.927a.156.156,0,0,1-.156.156H.154A.154.154,0,0,1,0,1.083V.153A.153.153,0,0,1,.153,0Z" transform="translate(2.75 0.842) rotate(-73.059)" fill="#bfb686"/>
    </g>
    <g id="Group_403" data-name="Group 403" transform="translate(163.301 561.352)">
      <path id="Path_2815" data-name="Path 2815" d="M184.559,577.814l-.155-.215a8.3,8.3,0,0,0,3.338-5.727,10.538,10.538,0,0,0-.061-3.29l.257-.058a10.531,10.531,0,0,1,.07,3.374A8.562,8.562,0,0,1,184.559,577.814Z" transform="translate(-184.404 -568.523)" fill="#1a1718"/>
    </g>
    <g id="Group_404" data-name="Group 404" transform="translate(163.493 561.359)">
      <path id="Path_2816" data-name="Path 2816" d="M184.892,578.7l-.16-.213a9.046,9.046,0,0,0,3.43-6.279,12.158,12.158,0,0,0-.095-3.619l.26-.056a12.259,12.259,0,0,1,.1,3.709,10.425,10.425,0,0,1-.95,3.321A8.688,8.688,0,0,1,184.892,578.7Z" transform="translate(-184.732 -568.536)" fill="#1a1718"/>
    </g>
    <path id="Path_2817" data-name="Path 2817" d="M170.687,576.24a1.3,1.3,0,0,0-1.3,1.3v2.906h.931v-2.906a.373.373,0,0,1,.374-.373h1.381v-.928Z" transform="translate(-14.891 -10.363)" fill="#5a625c"/>
    <rect id="Rectangle_1631" data-name="Rectangle 1631" width="0.857" height="5.099" transform="translate(157.053 562.769) rotate(90)" fill="#283232"/>
    <g id="Group_405" data-name="Group 405" transform="translate(150.303 562.087)">
      <rect id="Rectangle_1632" data-name="Rectangle 1632" width="0.388" height="1.259" transform="translate(2.725 1.834)" fill="#303942"/>
      <rect id="Rectangle_1633" data-name="Rectangle 1633" width="0.388" height="1.259" transform="translate(0 1.834)" fill="#303942"/>
      <rect id="Rectangle_1634" data-name="Rectangle 1634" width="0.389" height="1.259" transform="translate(2.096 1.834)" fill="#303942"/>
      <rect id="Rectangle_1635" data-name="Rectangle 1635" width="1.111" height="1.721" transform="translate(0.985 1.373)" fill="#303942"/>
      <rect id="Rectangle_1636" data-name="Rectangle 1636" width="1.58" height="0.691" transform="translate(0.985 0.682)" fill="#242a32"/>
      <rect id="Rectangle_1637" data-name="Rectangle 1637" width="0.549" height="1.057" transform="translate(2.565 0.589)" fill="#303942"/>
      <rect id="Rectangle_1638" data-name="Rectangle 1638" width="0.858" height="0.223" transform="translate(2.41 0.367)" fill="#3e4651"/>
      <rect id="Rectangle_1639" data-name="Rectangle 1639" width="1.663" height="0.22" transform="translate(0.433 0.461)" fill="#303942"/>
      <rect id="Rectangle_1640" data-name="Rectangle 1640" width="0.858" height="0.221" transform="translate(2.41 0)" fill="#3e4651"/>
      <rect id="Rectangle_1641" data-name="Rectangle 1641" width="0.765" height="0.146" transform="translate(2.458 0.221)" fill="#242a32"/>
      <path id="Path_2818" data-name="Path 2818" d="M163.707,571.3a.327.327,0,1,1-.327-.328A.327.327,0,0,1,163.707,571.3Z" transform="translate(-162.576 -570.271)" fill="#3e4651"/>
      <rect id="Rectangle_1642" data-name="Rectangle 1642" width="0.597" height="1.045" transform="translate(0.388 1.961)" fill="#242a32"/>
      <rect id="Rectangle_1643" data-name="Rectangle 1643" width="0.24" height="1.045" transform="translate(2.485 1.961)" fill="#242a32"/>
      <rect id="Rectangle_1644" data-name="Rectangle 1644" width="0.509" height="0.14" transform="translate(0.477 2.129)" fill="#303942"/>
      <rect id="Rectangle_1645" data-name="Rectangle 1645" width="0.51" height="0.141" transform="translate(1.963 0.863) rotate(90)" fill="#3e4651"/>
      <rect id="Rectangle_1646" data-name="Rectangle 1646" width="0.51" height="0.139" transform="translate(1.555 0.863) rotate(90)" fill="#3e4651"/>
      <rect id="Rectangle_1647" data-name="Rectangle 1647" width="0.509" height="0.14" transform="translate(0.477 2.691)" fill="#303942"/>
      <rect id="Rectangle_1648" data-name="Rectangle 1648" width="0.237" height="0.971" transform="translate(2.096 0.863)" fill="#3e4651"/>
      <path id="Rectangle_1649" data-name="Rectangle 1649" d="M.074,0H.21A.073.073,0,0,1,.283.073V1.091a.072.072,0,0,1-.072.072H.074A.074.074,0,0,1,0,1.089V.074A.074.074,0,0,1,.074,0Z" transform="translate(1.225 2.008)" fill="#3e4651"/>
      <path id="Rectangle_1650" data-name="Rectangle 1650" d="M.074,0H.209A.074.074,0,0,1,.284.074V1.091a.072.072,0,0,1-.072.072H.072A.072.072,0,0,1,0,1.091V.074A.074.074,0,0,1,.074,0Z" transform="translate(1.775 2.008)" fill="#3e4651"/>
    </g>
    <path id="Path_2819" data-name="Path 2819" d="M161.567,571.113a1.8,1.8,0,1,0,1.8,1.8A1.8,1.8,0,0,0,161.567,571.113Z" transform="translate(-10.914 -8.242)" fill="#f67d0f"/>
    <path id="Path_2820" data-name="Path 2820" d="M157.319,572.573l1.433-1.895h-2.926Z" transform="translate(-9.285 -8.063)" fill="#0f1319"/>
    <rect id="Rectangle_1651" data-name="Rectangle 1651" width="0.938" height="6.259" transform="translate(156.509 562.316)" fill="#0f1319"/>
    <path id="Rectangle_1652" data-name="Rectangle 1652" d="M.731,0h.338A.731.731,0,0,1,1.8.731V.737a.731.731,0,0,1-.731.731H.737A.737.737,0,0,1,0,.731v0A.731.731,0,0,1,.731,0Z" transform="translate(154.381 567.444)" fill="#242a32"/>
    <rect id="Rectangle_1653" data-name="Rectangle 1653" width="1.8" height="1.468" rx="0.734" transform="translate(156.448 567.444)" fill="#242a32"/>
    <rect id="Rectangle_1654" data-name="Rectangle 1654" width="25.501" height="2.685" transform="translate(144.73 559.93)" fill="#242a32"/>
    <rect id="Rectangle_1655" data-name="Rectangle 1655" width="8.737" height="0.754" transform="matrix(0.608, -0.794, 0.794, 0.608, 150.387, 568.425)" fill="#242a32"/>
    <rect id="Rectangle_1656" data-name="Rectangle 1656" width="2.642" height="3.586" transform="translate(156.979 568.177)" fill="#a0896c"/>
    <path id="Path_2821" data-name="Path 2821" d="M176.111,586.726H171.52a.669.669,0,0,1-.67-.669v-.911h5.261Z" transform="translate(-15.498 -14.046)" fill="#a0896c"/>
    <path id="Path_2822" data-name="Path 2822" d="M169.545,580.161h-2.98a2.266,2.266,0,0,0-.875,1.267v.787l2.528,1.284Z" transform="translate(-13.364 -11.984)" fill="#a0896c"/>
    <path id="Path_2823" data-name="Path 2823" d="M179.667,578.151l-.013,0a3.021,3.021,0,0,0-.379-.08l-3.947-.839a.833.833,0,0,0-.976.377,1.128,1.128,0,0,0-.028.969q.559,1.085,1.121,2.171c.186.368.388.732.561,1.1a5.072,5.072,0,0,0,.5.937l0,0a2.955,2.955,0,1,0,3.162-4.637Z" transform="translate(-16.895 -10.76)" fill="#a59d76"/>
    <rect id="Rectangle_1657" data-name="Rectangle 1657" width="3.453" height="3.946" transform="matrix(0.879, -0.477, 0.477, 0.879, 166.529, 558.332)" fill="#0f1319"/>
    <rect id="Rectangle_1658" data-name="Rectangle 1658" width="3.452" height="1.319" transform="translate(166.172 556.238) rotate(-4.22)" fill="#0f1319"/>
    <path id="Path_2824" data-name="Path 2824" d="M192.711,566.175,185.57,579.41a.94.94,0,0,1-1.275.378h0l7.588-14.06Z" transform="translate(-21.058 -6.016)" fill="#242a32"/>
    <path id="Path_2825" data-name="Path 2825" d="M185.042,560.914a9.569,9.569,0,0,0-1.754-1.988,17.71,17.71,0,0,0-11.068,2.328s-1.4.729-1.4,1.7v1.936s.206.473.619.473l10.615.09,2.216-.4s.337-.091.545-.656l.638-2.269A2.427,2.427,0,0,0,185.042,560.914Z" transform="translate(-15.484 -3.15)" fill="#f67d0f"/>
    <path id="Path_2826" data-name="Path 2826" d="M185.214,560.914a9.569,9.569,0,0,0-1.754-1.988,17.71,17.71,0,0,0-11.068,2.328,3.607,3.607,0,0,0-1.16.989,4.052,4.052,0,0,1,.562-.372,17.708,17.708,0,0,1,11.07-2.328,9.581,9.581,0,0,1,1.754,1.987,2.425,2.425,0,0,1,.408,1.212l-.64,2.27c-.006.018-.013.033-.019.05l.072-.012s.337-.091.545-.656l.638-2.269A2.427,2.427,0,0,0,185.214,560.914Z" transform="translate(-15.655 -3.15)" fill="#f79b47"/>
    <path id="Path_2827" data-name="Path 2827" d="M182.774,562.246a7.474,7.474,0,0,0-1.368-1.551,13.824,13.824,0,0,0-8.638,1.816s-1.093.57-1.093,1.324v1.509s.16.369.485.369l8.279.072,1.728-.313s.264-.071.426-.511l.5-1.771A1.88,1.88,0,0,0,182.774,562.246Z" transform="translate(-15.839 -3.894)" fill="#ffce7b"/>
    <g id="Group_407" data-name="Group 407" transform="translate(170.565 563.761)">
      <path id="Path_2828" data-name="Path 2828" d="M211.8,581.89h.014a5.338,5.338,0,0,0-.325-1.33l-.012.006a5.25,5.25,0,1,0-2.537,6.576l0,.009a5.236,5.236,0,0,0,1.1-.74l-.009-.009a5.259,5.259,0,0,0,1.761-4.512Zm-4.3-3.586a.524.524,0,0,1,.694-.4l.077.028a4.812,4.812,0,0,1,2.562,2.246.523.523,0,0,1-.316.745,12,12,0,0,1-2.592.459,1.778,1.778,0,0,0-.571-.413A11.736,11.736,0,0,1,207.508,578.3Zm-4.926,1.453a4.82,4.82,0,0,1,3.054-2.036.523.523,0,0,1,.623.5,12.1,12.1,0,0,1-.288,2.706,1.8,1.8,0,0,0-.724.521,12.07,12.07,0,0,1-2.47-.938A.525.525,0,0,1,202.581,579.757Zm.208,5.676a4.832,4.832,0,0,1-1.027-3.178.525.525,0,0,1,.66-.488,11.8,11.8,0,0,1,2.412.939,1.783,1.783,0,0,0,.167.653,12.257,12.257,0,0,1-1.4,2.089A.525.525,0,0,1,202.789,585.432Zm5.379,1.578a4.806,4.806,0,0,1-3.279-.039l-.06-.024a.524.524,0,0,1-.254-.768,12.215,12.215,0,0,1,1.475-1.885,1.786,1.786,0,0,0,.893.063,12.328,12.328,0,0,1,1.5,1.875A.524.524,0,0,1,208.168,587.011Zm2.935-2.865a4.839,4.839,0,0,1-.9,1.507.527.527,0,0,1-.816-.032,12.4,12.4,0,0,1-1.237-2.084,1.633,1.633,0,0,0,.151-.307,1.774,1.774,0,0,0,.1-.418,12.167,12.167,0,0,1,2.379-.774.526.526,0,0,1,.632.531A4.7,4.7,0,0,1,211.1,584.145Z" transform="translate(-198.668 -574.521)" fill="#0f1319"/>
      <path id="Path_2829" data-name="Path 2829" d="M206.4,576.725a5.516,5.516,0,1,0,5.515,5.516A5.515,5.515,0,0,0,206.4,576.725Zm0,10.364a4.848,4.848,0,1,1,4.848-4.848A4.849,4.849,0,0,1,206.4,587.089Z" transform="translate(-198.482 -574.325)" fill="#0f1319"/>
      <path id="Path_2830" data-name="Path 2830" d="M204.705,572.632a7.917,7.917,0,1,0,7.916,7.917A7.916,7.916,0,0,0,204.705,572.632Zm0,13.433a5.516,5.516,0,1,1,5.515-5.516A5.516,5.516,0,0,1,204.705,586.065Z" transform="translate(-196.789 -572.632)" fill="#292927"/>
      <path id="Path_2831" data-name="Path 2831" d="M204.705,572.632a7.917,7.917,0,1,0,7.916,7.917A7.916,7.916,0,0,0,204.705,572.632Zm0,15.42a7.5,7.5,0,1,1,7.5-7.5A7.5,7.5,0,0,1,204.705,588.052Z" transform="translate(-196.789 -572.632)" fill="#373839"/>
      <path id="Path_2832" data-name="Path 2832" d="M206,575.758a6.084,6.084,0,1,0,6.083,6.083A6.085,6.085,0,0,0,206,575.758Zm0,11.6a5.516,5.516,0,1,1,5.515-5.516A5.516,5.516,0,0,1,206,587.358Z" transform="translate(-198.079 -573.925)" fill="#373839"/>
      <g id="Group_406" data-name="Group 406" transform="translate(4.545 4.546)">
        <path id="Path_2833" data-name="Path 2833" d="M207.91,580.384a3.371,3.371,0,1,0,3.37,3.37A3.374,3.374,0,0,0,207.91,580.384Zm1.734,5.2c-.171-.168-.388-.416-.637-.27a.273.273,0,0,0-.109.3,1.679,1.679,0,0,0,.144.392,2.5,2.5,0,0,1-2.432-.093c.126-.2.315-.464.118-.672a.274.274,0,0,0-.317-.04,1.81,1.81,0,0,0-.371.245,2.527,2.527,0,0,1-.639-1.949c.226.032.489.054.586-.182a.279.279,0,0,0-.1-.305,1.488,1.488,0,0,0-.318-.2,2.537,2.537,0,0,1,1.784-1.512,2.035,2.035,0,0,0,.146.45.278.278,0,0,0,.273.167c.306-.045.3-.422.333-.66a.025.025,0,0,1,0-.009,2.522,2.522,0,0,1,2.114,1.52,2.023,2.023,0,0,0-.4.247.275.275,0,0,0-.1.305c.111.272.443.2.682.169a2.579,2.579,0,0,1,.015.27A2.516,2.516,0,0,1,209.643,585.582Z" transform="translate(-204.538 -580.384)" fill="#739791"/>
        <path id="Path_2834" data-name="Path 2834" d="M207.91,580.384a3.371,3.371,0,1,0,3.37,3.37A3.374,3.374,0,0,0,207.91,580.384Zm0,6.523a3.153,3.153,0,1,1,3.152-3.153A3.155,3.155,0,0,1,207.91,586.907Z" transform="translate(-204.538 -580.384)" fill="#97ada4"/>
      </g>
      <path id="Path_2835" data-name="Path 2835" d="M208.71,582.322a2.234,2.234,0,1,0,2.234,2.234A2.238,2.238,0,0,0,208.71,582.322Zm.358,1.727a.607.607,0,0,0-.255-.107v-.224a.836.836,0,0,1,.415.171Zm-.481-.1a.649.649,0,0,0-.249.11l-.16-.158a.857.857,0,0,1,.409-.178Zm-.4.276a.6.6,0,0,0-.09.243h-.226a.839.839,0,0,1,.156-.4Zm-.083.469a.623.623,0,0,0,.1.225l-.159.159a.838.838,0,0,1-.169-.384Zm.262.384a.639.639,0,0,0,.224.092v.225a.833.833,0,0,1-.384-.16Zm.45.1a.653.653,0,0,0,.229-.087l.161.16a.846.846,0,0,1-.391.152Zm.395-.243a.6.6,0,0,0,.109-.236h.226a.826.826,0,0,1-.175.394Zm.117-.461a.618.618,0,0,0-.1-.255l.16-.158a.829.829,0,0,1,.164.413Zm.211-.883a1.28,1.28,0,0,0-.722-.3v-.2a1.456,1.456,0,0,1,.864.359Zm-.948-.3a1.273,1.273,0,0,0-.713.308l-.145-.144a1.473,1.473,0,0,1,.858-.364Zm-.872.469a1.272,1.272,0,0,0-.28.713h-.2a1.471,1.471,0,0,1,.339-.854Zm-.277.938a1.266,1.266,0,0,0,.3.691l-.142.143a1.449,1.449,0,0,1-.357-.834Zm.459.851a1.268,1.268,0,0,0,.69.286v.2a1.474,1.474,0,0,1-.833-.345Zm.917.288a1.269,1.269,0,0,0,.7-.281l.144.144a1.5,1.5,0,0,1-.842.339Zm.862-.438a1.269,1.269,0,0,0,.3-.7h.2a1.474,1.474,0,0,1-.365.843Zm.308-.927a1.269,1.269,0,0,0-.289-.721l.143-.142a1.468,1.468,0,0,1,.347.863Z" transform="translate(-200.794 -576.639)" fill="#1b2027"/>
    </g>
    <path id="Path_2836" data-name="Path 2836" d="M208.022,572.392a8.742,8.742,0,0,0-3.565-.75,8.843,8.843,0,0,0-8.834,8.833,8.718,8.718,0,0,0,.09,1.265h0a.132.132,0,0,0,.164.109l1.315-.333a.136.136,0,0,0,.1-.145h0a7.439,7.439,0,0,1-.057-.9,7.225,7.225,0,0,1,9.9-6.706h0a.135.135,0,0,0,.159-.047l.781-1.134a.131.131,0,0,0-.055-.2Z" transform="translate(-25.742 -8.461)" fill="#f67d0f"/>
    <path id="Path_2837" data-name="Path 2837" d="M195.749,581.1a8.84,8.84,0,0,1,12.114-8.2l.213-.309a.131.131,0,0,0-.055-.2,8.742,8.742,0,0,0-3.565-.75,8.843,8.843,0,0,0-8.834,8.833,8.718,8.718,0,0,0,.09,1.265.132.132,0,0,0,.066.1C195.759,581.592,195.749,581.345,195.749,581.1Z" transform="translate(-25.742 -8.461)" fill="#f79b47"/>
    <g id="Group_408" data-name="Group 408" transform="translate(171.001 553.654)">
      <path id="Path_2838" data-name="Path 2838" d="M200.233,555.4v5.453a3,3,0,0,1-2.7-3.12S197.442,555.488,200.233,555.4Z" transform="translate(-197.533 -555.397)" fill="#242a32"/>
      <path id="Path_2839" data-name="Path 2839" d="M202.136,555.4s.607.31.7.739v4.031a1.051,1.051,0,0,1-.7.683Z" transform="translate(-199.437 -555.397)" fill="#303942"/>
      <path id="Path_2840" data-name="Path 2840" d="M200.233,556.653v3.979s-2.7-.169-2.7-2.276C197.534,558.355,197.442,556.72,200.233,556.653Z" transform="translate(-197.533 -555.916)" fill="#161b22"/>
      <path id="Path_2841" data-name="Path 2841" d="M202.136,557.627h.7v-.671l-.7-.338Z" transform="translate(-199.437 -555.902)" fill="#424b54"/>
      <rect id="Rectangle_1659" data-name="Rectangle 1659" width="0.698" height="0.382" transform="translate(2.699 3.238)" fill="#424b54"/>
      <path id="Path_2842" data-name="Path 2842" d="M202.136,562.951l.7-.338v-.672h-.7Z" transform="translate(-199.437 -558.103)" fill="#424b54"/>
      <path id="Path_2843" data-name="Path 2843" d="M200.233,558.611v1.682s-2.7-.071-2.7-.962C197.534,559.331,197.442,558.639,200.233,558.611Z" transform="translate(-197.533 -556.726)" fill="#242a32"/>
    </g>
    <path id="Path_2844" data-name="Path 2844" d="M163.016,580.056a2.329,2.329,0,0,1-1.641-.91l-7.31-10.988-.682.454,7.28,10.942h0a3.1,3.1,0,0,0,2.264,1.32l9.158.033,0-.819Z" transform="translate(-8.275 -7.021)" fill="#242a32"/>
    <path id="Path_2845" data-name="Path 2845" d="M202.169,573.349l-3.294-7.086-.23.107,3.3,7.084a2.475,2.475,0,0,1,.23,1.041v2h.252v-2A2.714,2.714,0,0,0,202.169,573.349Z" transform="translate(-26.992 -6.237)" fill="#6b1d1b"/>
    <g id="Group_411" data-name="Group 411" transform="translate(173.946 568.674)">
      <rect id="Rectangle_1660" data-name="Rectangle 1660" width="3.441" height="1.559" transform="translate(0.151 3.534) rotate(-78.439)" fill="#836048"/>
      <g id="Group_409" data-name="Group 409" transform="translate(1.273 0.392)">
        <path id="Path_2846" data-name="Path 2846" d="M205.666,582.361l.667.137a.1.1,0,0,0,.114-.075l.1-.5a.1.1,0,0,0-.074-.113l-.67-.138Z" transform="translate(-205.113 -581.677)" fill="#836048"/>
        <path id="Path_2847" data-name="Path 2847" d="M205.923,584.5a.1.1,0,0,0,.113-.076l.1-.494a.1.1,0,0,0-.076-.115l-.669-.137-.14.684Z" transform="translate(-204.943 -582.507)" fill="#836048"/>
        <path id="Path_2848" data-name="Path 2848" d="M205.394,587.082a.094.094,0,0,0,.113-.074l.1-.5a.1.1,0,0,0-.076-.113l-.67-.137-.14.683Z" transform="translate(-204.724 -583.573)" fill="#836048"/>
      </g>
      <g id="Group_410" data-name="Group 410">
        <path id="Path_2849" data-name="Path 2849" d="M203.309,581.1l-.232,1.146a.116.116,0,0,0,.089.139l1.066.216a.116.116,0,0,0,.137-.091l.233-1.145a.114.114,0,0,0-.089-.138l-1.066-.218A.118.118,0,0,0,203.309,581.1Z" transform="translate(-202.769 -581.009)" fill="#bf8563"/>
        <path id="Path_2850" data-name="Path 2850" d="M202.881,584.3l-.324,1.577a.117.117,0,0,0,.091.137l.9.185a.12.12,0,0,0,.139-.092l.321-1.575a.12.12,0,0,0-.091-.139l-.9-.185A.116.116,0,0,0,202.881,584.3Z" transform="translate(-202.554 -582.332)" fill="#bf8563"/>
      </g>
    </g>
    <g id="Group_412" data-name="Group 412" transform="translate(143.7 562.305)">
      <path id="Path_2851" data-name="Path 2851" d="M152.9,570.375a5.106,5.106,0,0,0-1.109-.227h-.684a.146.146,0,0,0-.127.159v.753a.145.145,0,0,0,.127.158h.684a5.008,5.008,0,0,0,1.109-.227A.351.351,0,0,0,152.9,570.375Z" transform="translate(-150.982 -570.148)" fill="#1b2027"/>
      <path id="Path_2852" data-name="Path 2852" d="M151.328,570.148h-.219a.146.146,0,0,0-.127.159v.753a.145.145,0,0,0,.127.158h.219Z" transform="translate(-150.982 -570.148)" fill="#6b1d1b"/>
    </g>
    <g id="Group_413" data-name="Group 413" transform="translate(153.09 566.758)">
      <path id="Path_2853" data-name="Path 2853" d="M168.307,580.878l-1.029-.4.5-1.3,1.03.4Z" transform="translate(-167.111 -578.337)" fill="#939c91"/>
      <path id="Path_2854" data-name="Path 2854" d="M169.371,578.792a.773.773,0,1,1-.442-1A.772.772,0,0,1,169.371,578.792Z" transform="translate(-167.359 -577.741)" fill="#aab1aa"/>
      <path id="Path_2855" data-name="Path 2855" d="M168.219,581.724a.634.634,0,1,1-.361-.82A.637.637,0,0,1,168.219,581.724Z" transform="translate(-166.993 -579.031)" fill="#aab1aa"/>
    </g>
    <path id="Path_2856" data-name="Path 2856" d="M182.824,581.96a2.417,2.417,0,1,1-2.417-2.417A2.418,2.418,0,0,1,182.824,581.96Z" transform="translate(-18.45 -11.728)" fill="#bfb686"/>
    <path id="Path_2857" data-name="Path 2857" d="M180.792,580.475a1.871,1.871,0,1,0,1.871,1.87A1.871,1.871,0,0,0,180.792,580.475Zm0,3.529a1.658,1.658,0,1,1,1.657-1.659A1.658,1.658,0,0,1,180.792,584Z" transform="translate(-18.835 -12.114)" fill="#a0896c"/>
    <g id="Group_414" data-name="Group 414" transform="translate(155.131 562.792)">
      <rect id="Rectangle_1661" data-name="Rectangle 1661" width="0.439" height="1.423" transform="translate(3.082 2.074)" fill="#a59d76"/>
      <rect id="Rectangle_1662" data-name="Rectangle 1662" width="0.439" height="1.423" transform="translate(0 2.074)" fill="#a59d76"/>
      <rect id="Rectangle_1663" data-name="Rectangle 1663" width="0.44" height="1.423" transform="translate(2.369 2.074)" fill="#a59d76"/>
      <rect id="Rectangle_1664" data-name="Rectangle 1664" width="1.257" height="1.946" transform="translate(1.112 1.552)" fill="#a59d76"/>
      <rect id="Rectangle_1665" data-name="Rectangle 1665" width="1.788" height="0.779" transform="translate(1.112 0.773)" fill="#a0896c"/>
      <rect id="Rectangle_1666" data-name="Rectangle 1666" width="0.621" height="1.196" transform="translate(2.9 0.666)" fill="#a59d76"/>
      <rect id="Rectangle_1667" data-name="Rectangle 1667" width="0.969" height="0.25" transform="translate(2.725 0.416)" fill="#bfb686"/>
      <rect id="Rectangle_1668" data-name="Rectangle 1668" width="1.881" height="0.25" transform="translate(0.487 0.522)" fill="#a59d76"/>
      <rect id="Rectangle_1669" data-name="Rectangle 1669" width="0.969" height="0.249" transform="translate(2.725 0)" fill="#bfb686"/>
      <rect id="Rectangle_1670" data-name="Rectangle 1670" width="0.866" height="0.167" transform="translate(2.776 0.249)" fill="#a0896c"/>
      <path id="Path_2858" data-name="Path 2858" d="M172.131,572.7a.371.371,0,1,1-.371-.37A.372.372,0,0,1,172.131,572.7Z" transform="translate(-170.852 -571.536)" fill="#bfb686"/>
      <rect id="Rectangle_1671" data-name="Rectangle 1671" width="0.674" height="1.182" transform="translate(0.439 2.218)" fill="#a0896c"/>
      <rect id="Rectangle_1672" data-name="Rectangle 1672" width="0.273" height="1.182" transform="translate(2.809 2.218)" fill="#a0896c"/>
      <rect id="Rectangle_1673" data-name="Rectangle 1673" width="0.575" height="0.159" transform="translate(0.538 2.407)" fill="#a59d76"/>
      <rect id="Rectangle_1674" data-name="Rectangle 1674" width="0.575" height="0.157" transform="translate(2.218 0.976) rotate(90)" fill="#bfb686"/>
      <rect id="Rectangle_1675" data-name="Rectangle 1675" width="0.575" height="0.159" transform="translate(1.758 0.976) rotate(90)" fill="#bfb686"/>
      <rect id="Rectangle_1676" data-name="Rectangle 1676" width="0.575" height="0.159" transform="translate(0.538 3.043)" fill="#a59d76"/>
      <rect id="Rectangle_1677" data-name="Rectangle 1677" width="0.268" height="1.098" transform="translate(2.369 0.976)" fill="#bfb686"/>
      <path id="Rectangle_1678" data-name="Rectangle 1678" d="M.083,0H.238A.082.082,0,0,1,.319.082v1.15a.084.084,0,0,1-.084.084H.08A.08.08,0,0,1,0,1.236V.083A.083.083,0,0,1,.083,0Z" transform="translate(1.385 2.271)" fill="#bfb686"/>
      <path id="Rectangle_1679" data-name="Rectangle 1679" d="M.083,0H.237A.082.082,0,0,1,.319.082v1.15a.084.084,0,0,1-.084.084H.084A.084.084,0,0,1,0,1.232V.083A.083.083,0,0,1,.083,0Z" transform="translate(2.007 2.271)" fill="#bfb686"/>
    </g>
    <g id="Group_415" data-name="Group 415" transform="translate(155.458 571.588)">
      <path id="Path_2859" data-name="Path 2859" d="M171.507,586.216a.239.239,0,1,1-.24-.238A.237.237,0,0,1,171.507,586.216Z" transform="translate(-171.03 -585.978)" fill="#232931"/>
      <path id="Path_2860" data-name="Path 2860" d="M171.485,586.266a.167.167,0,1,1-.168-.168A.168.168,0,0,1,171.485,586.266Z" transform="translate(-171.08 -586.028)" fill="#3b444e"/>
      <path id="Path_2861" data-name="Path 2861" d="M171.456,586.408l-.276-.187a.166.166,0,1,0,.276.187Z" transform="translate(-171.08 -586.079)" fill="#323232" opacity="0.2"/>
    </g>
    <g id="Group_416" data-name="Group 416" transform="translate(140.769 571.273)">
      <path id="Path_2862" data-name="Path 2862" d="M146.969,585.935a.493.493,0,1,1-.493-.494A.492.492,0,0,1,146.969,585.935Z" transform="translate(-145.984 -585.441)" fill="#232931"/>
      <path id="Path_2863" data-name="Path 2863" d="M146.925,586.04a.344.344,0,1,1-.344-.345A.344.344,0,0,1,146.925,586.04Z" transform="translate(-146.089 -585.546)" fill="#3b444e"/>
      <path id="Path_2864" data-name="Path 2864" d="M146.867,586.337l-.57-.385a.333.333,0,0,0-.06.194.344.344,0,0,0,.63.19Z" transform="translate(-146.089 -585.652)" fill="#323232" opacity="0.2"/>
    </g>
    <g id="Group_417" data-name="Group 417" transform="translate(157.138 571.588)">
      <path id="Path_2865" data-name="Path 2865" d="M174.371,586.216a.238.238,0,1,1-.239-.238A.236.236,0,0,1,174.371,586.216Z" transform="translate(-173.895 -585.978)" fill="#232931"/>
      <path id="Path_2866" data-name="Path 2866" d="M174.35,586.266a.167.167,0,1,1-.168-.168A.167.167,0,0,1,174.35,586.266Z" transform="translate(-173.945 -586.028)" fill="#3b444e"/>
      <path id="Path_2867" data-name="Path 2867" d="M174.322,586.408l-.276-.187a.171.171,0,0,0-.029.1.166.166,0,0,0,.3.091Z" transform="translate(-173.945 -586.079)" fill="#323232" opacity="0.2"/>
    </g>
    <g id="Group_418" data-name="Group 418" transform="translate(158.817 571.588)">
      <path id="Path_2868" data-name="Path 2868" d="M177.235,586.216a.238.238,0,0,1-.477,0,.238.238,0,0,1,.477,0Z" transform="translate(-176.758 -585.978)" fill="#232931"/>
      <path id="Path_2869" data-name="Path 2869" d="M177.216,586.266a.166.166,0,1,1-.167-.168A.167.167,0,0,1,177.216,586.266Z" transform="translate(-176.81 -586.028)" fill="#3b444e"/>
      <path id="Path_2870" data-name="Path 2870" d="M177.188,586.408l-.277-.187a.169.169,0,0,0-.028.1.166.166,0,0,0,.3.091Z" transform="translate(-176.81 -586.079)" fill="#323232" opacity="0.2"/>
    </g>
    <g id="Group_419" data-name="Group 419" transform="translate(149.088 563.106)">
      <path id="Path_2871" data-name="Path 2871" d="M161.681,572.641a.4.4,0,0,0-.425.448v.325c0,.264.1.408.311.408a.264.264,0,0,0,.259-.158v.327c0,.171-.056.218-.154.218s-.146-.047-.146-.175v-.064h-.264v.047c0,.284.141.447.418.447s.426-.162.426-.462v-.911A.4.4,0,0,0,161.681,572.641Zm.145.751c0,.126-.056.175-.145.175s-.144-.049-.144-.175v-.321c0-.127.056-.172.144-.172s.145.046.145.172Z" transform="translate(-160.618 -571.981)" fill="#1b2027"/>
      <path id="Path_2872" data-name="Path 2872" d="M163.4,572.641a.4.4,0,0,0-.423.448v.325c0,.264.1.408.308.408a.267.267,0,0,0,.261-.158v.327c0,.171-.057.218-.156.218s-.145-.047-.145-.175v-.064h-.266v.047a.391.391,0,0,0,.419.447c.289,0,.427-.162.427-.462v-.911A.4.4,0,0,0,163.4,572.641Zm.146.751c0,.126-.057.175-.146.175s-.144-.049-.144-.175v-.321c0-.127.055-.172.144-.172s.146.046.146.172Z" transform="translate(-161.33 -571.981)" fill="#1b2027"/>
      <path id="Path_2873" data-name="Path 2873" d="M161.734,571.515a1.563,1.563,0,1,0,1.563,1.565A1.566,1.566,0,0,0,161.734,571.515Zm0,3a1.44,1.44,0,1,1,1.439-1.439A1.443,1.443,0,0,1,161.734,574.519Z" transform="translate(-160.169 -571.515)" fill="#1b2027"/>
    </g>
    <g id="Group_420" data-name="Group 420" transform="translate(162.139 557.277)">
      <path id="Path_2874" data-name="Path 2874" d="M184.373,563.03a.508.508,0,0,0-.548.575v.422c0,.337.134.524.4.524a.345.345,0,0,0,.335-.2v.421c0,.219-.072.28-.2.28s-.188-.061-.188-.226v-.082h-.341v.059a.5.5,0,0,0,.538.577c.374,0,.551-.211.551-.6v-1.175A.508.508,0,0,0,184.373,563.03Zm.187.967c0,.162-.072.226-.187.226s-.187-.063-.187-.226v-.413c0-.164.072-.224.187-.224s.187.061.187.224Z" transform="translate(-183.003 -562.177)" fill="#1b2027"/>
      <path id="Path_2875" data-name="Path 2875" d="M186.587,563.03a.508.508,0,0,0-.546.575v.422c0,.337.134.524.4.524a.344.344,0,0,0,.335-.2v.421c0,.219-.072.28-.2.28s-.188-.061-.188-.226v-.082h-.34v.059a.5.5,0,0,0,.538.577c.373,0,.551-.211.551-.6v-1.175A.508.508,0,0,0,186.587,563.03Zm.188.967c0,.162-.072.226-.188.226s-.186-.063-.186-.226v-.413c0-.164.072-.224.186-.224s.188.061.188.224Z" transform="translate(-183.919 -562.177)" fill="#1b2027"/>
      <path id="Path_2876" data-name="Path 2876" d="M184.44,561.576a2.017,2.017,0,1,0,2.016,2.016A2.019,2.019,0,0,0,184.44,561.576Zm0,3.874a1.858,1.858,0,1,1,1.856-1.857A1.862,1.862,0,0,1,184.44,565.45Z" transform="translate(-182.423 -561.576)" fill="#1b2027"/>
    </g>
    <g id="Group_424" data-name="Group 424" transform="translate(165.357 551.181)">
      <g id="Group_422" data-name="Group 422">
        <rect id="Rectangle_1680" data-name="Rectangle 1680" width="1.419" height="5.674" transform="translate(3.01 3.544) rotate(-25.261)" fill="#242a32"/>
        <path id="Rectangle_1681" data-name="Rectangle 1681" d="M.5,0h1.91a.5.5,0,0,1,.5.5v1a.5.5,0,0,1-.5.5H.5a.5.5,0,0,1-.5-.5V.5A.5.5,0,0,1,.5,0Z" transform="translate(3.08 1.935) rotate(-39.763)" fill="#242a32"/>
        <path id="Path_2877" data-name="Path 2877" d="M195.714,551.535l-2.415,2.012-.294-.354,2.414-2.013Z" transform="translate(-190.017 -551.181)" fill="#303942"/>
        <rect id="Rectangle_1682" data-name="Rectangle 1682" width="1.747" height="1.224" transform="translate(4.724 7.844) rotate(-25.285)" fill="#242a32"/>
        <path id="Path_2878" data-name="Path 2878" d="M200.848,569.227l-.9.426-1.933-4.056.9-.426Z" transform="translate(-192.088 -556.966)" fill="#242a32"/>
        <path id="Path_2879" data-name="Path 2879" d="M203.019,569.468l-.418-.882a.056.056,0,0,0-.074-.026l-1.672.788a.056.056,0,0,0-.026.074l.416.882a.054.054,0,0,0,.073.025l1.672-.788A.058.058,0,0,0,203.019,569.468Z" transform="translate(-193.25 -558.365)" fill="#9ebdb8"/>
        <path id="Path_2880" data-name="Path 2880" d="M208.232,580.981l-3.385-7.172-1.142.538,3.387,7.172a.476.476,0,0,0,.632.227l.283-.133A.474.474,0,0,0,208.232,580.981Z" transform="translate(-194.442 -560.538)" fill="#9ebdb8"/>
        <rect id="Rectangle_1683" data-name="Rectangle 1683" width="1.585" height="2.177" transform="matrix(0.904, -0.427, 0.427, 0.904, 8.188, 11.909)" fill="#0f1319"/>
        <rect id="Rectangle_1684" data-name="Rectangle 1684" width="1.264" height="9.305" transform="matrix(0.904, -0.428, 0.428, 0.904, 3.885, 2.451)" fill="#0f1319"/>
        <path id="Path_2881" data-name="Path 2881" d="M200.062,562.847l-.571.27L195.5,554.71l.573-.27Z" transform="translate(-191.05 -552.529)" fill="#151a20"/>
        <rect id="Rectangle_1685" data-name="Rectangle 1685" width="0.75" height="2.178" transform="matrix(0.905, -0.426, 0.426, 0.905, 8.944, 11.552)" fill="#151a20"/>
        <rect id="Rectangle_1686" data-name="Rectangle 1686" width="1.14" height="5.985" transform="translate(2.506 3.239) rotate(-25.21)" fill="#303942"/>
        <rect id="Rectangle_1687" data-name="Rectangle 1687" width="0.569" height="5.986" transform="translate(2.514 3.235) rotate(-25.036)" fill="#323232" opacity="0.15"/>
        <path id="Path_2882" data-name="Path 2882" d="M210.384,585.751a.463.463,0,1,1-.463-.464A.462.462,0,0,1,210.384,585.751Z" transform="translate(-196.821 -565.285)" fill="#739791"/>
        <path id="Path_2883" data-name="Path 2883" d="M210.348,585.844a.334.334,0,1,1-.335-.334A.335.335,0,0,1,210.348,585.844Z" transform="translate(-196.913 -565.377)" fill="#5e7a75"/>
        <g id="Group_421" data-name="Group 421" transform="translate(0 1.672)">
          <path id="Path_2884" data-name="Path 2884" d="M192.141,554.226a2.117,2.117,0,0,1,1.033-.179.834.834,0,0,1,.643.612,1.242,1.242,0,0,1-.3,1.048l-.015.625a.2.2,0,0,1-.047.121c-.06.067-.177.195-.328.339l-1.461,1.294a.465.465,0,0,0-.154.4,1.43,1.43,0,0,0,.006.194.352.352,0,0,1-.089.182c-.035.036-.086.057-.157-.007a.777.777,0,0,1-.009-.8l1.436-1.272s.422-.512.269-.82Z" transform="translate(-189.25 -554.033)" fill="#1d232a"/>
          <path id="Path_2885" data-name="Path 2885" d="M193.327,555.321a1.094,1.094,0,1,1-1.1-1.089A1.1,1.1,0,0,1,193.327,555.321Z" transform="translate(-189.245 -554.115)" fill="#596572"/>
          <path id="Path_2886" data-name="Path 2886" d="M192.344,554.511a.93.93,0,1,0,.935.926A.93.93,0,0,0,192.344,554.511Zm.006,1.66a.729.729,0,1,1,.727-.734A.728.728,0,0,1,192.351,556.171Z" transform="translate(-189.36 -554.23)" fill="#303942"/>
          <path id="Path_2887" data-name="Path 2887" d="M188.23,557.319l2.527-1.882a.507.507,0,0,1,.606.215.66.66,0,0,1,.043.522l-2.256,2.115Z" transform="translate(-188.042 -554.602)" fill="#1d232a"/>
          <path id="Path_2888" data-name="Path 2888" d="M189.25,558.981a.67.67,0,1,1-.673-.667A.67.67,0,0,1,189.25,558.981Z" transform="translate(-187.91 -555.803)" fill="#596572"/>
          <path id="Path_2889" data-name="Path 2889" d="M188.7,558.6a.5.5,0,1,0,.5.5A.5.5,0,0,0,188.7,558.6Zm0,.847a.346.346,0,1,1,.344-.347A.346.346,0,0,1,188.7,559.446Z" transform="translate(-188.029 -555.921)" fill="#303942"/>
          <path id="Path_2890" data-name="Path 2890" d="M188.932,559.163a.171.171,0,1,0,.171.171A.17.17,0,0,0,188.932,559.163Z" transform="translate(-188.262 -556.154)" fill="#303942"/>
        </g>
        <rect id="Rectangle_1688" data-name="Rectangle 1688" width="0.328" height="0.46" transform="matrix(0.767, -0.641, 0.641, 0.767, 4.797, 0.506)" fill="#424b54"/>
        <rect id="Rectangle_1689" data-name="Rectangle 1689" width="0.246" height="0.46" transform="translate(4.488 0.764) rotate(-39.968)" fill="#424b54"/>
        <path id="Path_2891" data-name="Path 2891" d="M207.881,581.858l-3.589-7.6-.265.125-.322.151,2.59,5.486.8,1.687a.476.476,0,0,0,.632.227Z" transform="translate(-194.442 -560.723)" fill="#323232" opacity="0.15"/>
      </g>
      <g id="Group_423" data-name="Group 423" transform="translate(5.044 7.774)">
        <path id="Path_2892" data-name="Path 2892" d="M196.692,564.76a3.706,3.706,0,0,1,1.1-.324h.678c.069,0,.127.1.127.227v1.071c0,.125-.058.227-.127.227H197.8a3.736,3.736,0,0,1-1.1-.324A.621.621,0,0,1,196.692,564.76Z" transform="translate(-196.511 -564.436)" fill="#1b2027"/>
        <path id="Path_2893" data-name="Path 2893" d="M199.487,564.436h.218c.069,0,.127.1.127.227v1.071c0,.125-.058.227-.127.227h-.218Z" transform="translate(-197.742 -564.436)" fill="#f67d0f"/>
      </g>
    </g>
    <path id="Path_2894" data-name="Path 2894" d="M159.841,567.764H149.773a6.035,6.035,0,0,1-5.5-3.139h5.971s.259,2.388,3.807,2.388h5.787Z" transform="translate(-4.509 -5.559)" fill="#f67d0f"/>
    <path id="Path_2895" data-name="Path 2895" d="M158.262,564.751a2.117,2.117,0,0,1-2.138-1.081.486.486,0,0,0-.458-.4l-1.032.215c-.373.1-.2.578-.2.578s.259,2.388,3.807,2.388h5.787v-1.7Z" transform="translate(-8.692 -5.001)" fill="#bc704c"/>
    <path id="Path_2896" data-name="Path 2896" d="M156.184,563.787a2.455,2.455,0,0,0,2.48,1.256h5.953v-.292h-5.762a2.116,2.116,0,0,1-2.138-1.081.486.486,0,0,0-.458-.4l-.434.09A.516.516,0,0,1,156.184,563.787Z" transform="translate(-9.285 -5.001)" fill="#d9a46e"/>
    <path id="Path_2897" data-name="Path 2897" d="M158.737,566c-3.549,0-3.808-2.388-3.808-2.388a.623.623,0,0,1-.02-.068l-.274.056c-.373.1-.2.578-.2.578s.259,2.388,3.807,2.388h5.787V566Z" transform="translate(-8.692 -5.112)" fill="#a05a3d"/>
    <g id="Group_429" data-name="Group 429" transform="translate(151.631 571.068)">
      <g id="Group_425" data-name="Group 425" transform="translate(0.496 0.102)">
        <path id="Path_2898" data-name="Path 2898" d="M170.094,587.633l-1.562-.662.141-.272-.986-.919-2.27-.516-.065.3.144.3.781.211.386,1.628.05.227,3.209.125S170.413,587.936,170.094,587.633Zm-2.606,0,.109-.557,1.657.624Z" transform="translate(-165.352 -585.264)" fill="#303942"/>
      </g>
      <g id="Group_426" data-name="Group 426" transform="translate(2.425 0.733)">
        <path id="Path_2899" data-name="Path 2899" d="M169.083,586.684a.234.234,0,1,1-.1-.316A.235.235,0,0,1,169.083,586.684Z" transform="translate(-168.641 -586.341)" fill="#739791"/>
        <path id="Path_2900" data-name="Path 2900" d="M169.071,586.7a.169.169,0,0,1-.228.072.169.169,0,1,1,.228-.072Z" transform="translate(-168.687 -586.388)" fill="#5e7a75"/>
      </g>
      <g id="Group_427" data-name="Group 427" transform="translate(1.942 2.168)">
        <path id="Path_2901" data-name="Path 2901" d="M168.258,589.13a.233.233,0,1,1-.1-.316A.233.233,0,0,1,168.258,589.13Z" transform="translate(-167.817 -588.788)" fill="#739791"/>
        <path id="Path_2902" data-name="Path 2902" d="M168.247,589.146a.17.17,0,0,1-.228.072.168.168,0,0,1-.072-.226.169.169,0,1,1,.3.155Z" transform="translate(-167.863 -588.834)" fill="#5e7a75"/>
      </g>
      <g id="Group_428" data-name="Group 428" transform="translate(0 0)">
        <path id="Path_2903" data-name="Path 2903" d="M165.818,586.106a.7.7,0,1,1-.3-.936A.7.7,0,0,1,165.818,586.106Z" transform="translate(-164.506 -585.091)" fill="#444d59"/>
        <path id="Path_2904" data-name="Path 2904" d="M165.779,586.157a.486.486,0,1,1-.206-.655A.486.486,0,0,1,165.779,586.157Z" transform="translate(-164.653 -585.238)" fill="#739791"/>
        <path id="Path_2905" data-name="Path 2905" d="M165.583,586.4l-.462-.853a.485.485,0,1,0,.462.853Z" transform="translate(-164.653 -585.279)" fill="#323232" opacity="0.2"/>
      </g>
    </g>
    <path id="Path_2906" data-name="Path 2906" d="M172.564,580.84l1.463,2.941h-4.118a3,3,0,0,1,0-1.7Z" transform="translate(-15.054 -12.265)" fill="#a59d76"/>
    <path id="Path_2907" data-name="Path 2907" d="M172.657,580.254l-.73-.831-1.793,1.3-.132.772Z" transform="translate(-15.147 -11.679)" fill="#bfb686"/>
    <path id="Rectangle_1690" data-name="Rectangle 1690" d="M.436,0h0A.442.442,0,0,1,.878.442v.03A.436.436,0,0,1,.442.908h0A.442.442,0,0,1,0,.466V.436A.436.436,0,0,1,.436,0Z" transform="translate(156.1 571.987)" fill="#a59d76"/>
    <path id="Rectangle_1691" data-name="Rectangle 1691" d="M.437,0h0a.44.44,0,0,1,.44.44v.03A.437.437,0,0,1,.44.908h0A.437.437,0,0,1,0,.471V.437A.437.437,0,0,1,.437,0Z" transform="translate(157.811 571.987)" fill="#a59d76"/>
    <path id="Path_2908" data-name="Path 2908" d="M168.648,575.738l1.07.2v-1.423l-1.07.17Z" transform="translate(-14.587 -9.649)" fill="#aab1aa"/>
    <g id="Group_430" data-name="Group 430" transform="translate(154.912 570.821)">
      <path id="Path_2909" data-name="Path 2909" d="M170.661,584.95a.281.281,0,1,1-.281-.281A.282.282,0,0,1,170.661,584.95Z" transform="translate(-170.1 -584.669)" fill="#bfb686"/>
      <path id="Path_2910" data-name="Path 2910" d="M170.636,585.009a.2.2,0,1,1-.2-.2A.2.2,0,0,1,170.636,585.009Z" transform="translate(-170.159 -584.728)" fill="#d6ccab"/>
      <path id="Path_2911" data-name="Path 2911" d="M170.6,585.176l-.327-.221a.2.2,0,0,0-.036.113.2.2,0,0,0,.2.2A.2.2,0,0,0,170.6,585.176Z" transform="translate(-170.159 -584.788)" fill="#d6ccab" opacity="0.4"/>
    </g>
    <g id="Group_431" data-name="Group 431" transform="translate(157.933 570.821)">
      <path id="Path_2912" data-name="Path 2912" d="M175.811,584.95a.281.281,0,1,1-.281-.281A.282.282,0,0,1,175.811,584.95Z" transform="translate(-175.25 -584.669)" fill="#bfb686"/>
      <path id="Path_2913" data-name="Path 2913" d="M175.784,585.009a.2.2,0,1,1-.195-.2A.2.2,0,0,1,175.784,585.009Z" transform="translate(-175.309 -584.728)" fill="#d6ccab"/>
      <path id="Path_2914" data-name="Path 2914" d="M175.752,585.176l-.326-.221a.2.2,0,0,0-.034.113.2.2,0,0,0,.36.108Z" transform="translate(-175.309 -584.788)" fill="#d6ccab" opacity="0.4"/>
    </g>
    <g id="Group_432" data-name="Group 432" transform="translate(160.639 567.227)">
      <path id="Path_2915" data-name="Path 2915" d="M180.433,578.827a.285.285,0,1,1-.284-.285A.285.285,0,0,1,180.433,578.827Z" transform="translate(-179.864 -578.542)" fill="#bfb686"/>
      <path id="Path_2916" data-name="Path 2916" d="M180.409,578.888a.2.2,0,1,1-.2-.2A.2.2,0,0,1,180.409,578.888Z" transform="translate(-179.926 -578.603)" fill="#d6ccab"/>
      <path id="Path_2917" data-name="Path 2917" d="M180.377,579.057l-.33-.222a.2.2,0,1,0,.33.222Z" transform="translate(-179.926 -578.663)" fill="#d6ccab" opacity="0.4"/>
    </g>
    <g id="Group_433" data-name="Group 433" transform="translate(157.635 566.707)">
      <path id="Path_2918" data-name="Path 2918" d="M175.783,578.175a.52.52,0,1,1-.52-.521A.519.519,0,0,1,175.783,578.175Z" transform="translate(-174.743 -577.654)" fill="#bfb686"/>
      <path id="Path_2919" data-name="Path 2919" d="M175.737,578.286a.364.364,0,1,1-.364-.364A.364.364,0,0,1,175.737,578.286Z" transform="translate(-174.853 -577.765)" fill="#d6ccab"/>
      <path id="Path_2920" data-name="Path 2920" d="M175.678,578.6l-.606-.408a.368.368,0,0,0-.063.206.364.364,0,0,0,.364.365A.371.371,0,0,0,175.678,578.6Z" transform="translate(-174.853 -577.876)" fill="#d6ccab" opacity="0.4"/>
    </g>
    <g id="Group_434" data-name="Group 434" transform="translate(164.391 563.963)">
      <path id="Path_2921" data-name="Path 2921" d="M187.3,573.5a.521.521,0,1,1-.521-.521A.522.522,0,0,1,187.3,573.5Z" transform="translate(-186.262 -572.976)" fill="#bfb686"/>
      <path id="Path_2922" data-name="Path 2922" d="M187.256,573.607a.364.364,0,1,1-.363-.365A.364.364,0,0,1,187.256,573.607Z" transform="translate(-186.372 -573.086)" fill="#d6ccab"/>
      <path id="Path_2923" data-name="Path 2923" d="M187.2,573.92l-.6-.407a.345.345,0,0,0-.066.206.365.365,0,0,0,.365.364A.359.359,0,0,0,187.2,573.92Z" transform="translate(-186.372 -573.198)" fill="#d6ccab" opacity="0.4"/>
    </g>
    <g id="Group_435" data-name="Group 435" transform="translate(161.338 563.049)">
      <path id="Path_2924" data-name="Path 2924" d="M182.1,571.938a.521.521,0,1,1-.52-.521A.522.522,0,0,1,182.1,571.938Z" transform="translate(-181.057 -571.417)" fill="#bfb686"/>
      <path id="Path_2925" data-name="Path 2925" d="M182.056,572.049a.365.365,0,1,1-.365-.365A.366.366,0,0,1,182.056,572.049Z" transform="translate(-181.168 -571.527)" fill="#d6ccab"/>
      <path id="Path_2926" data-name="Path 2926" d="M181.993,572.362l-.6-.406a.364.364,0,1,0,.6.406Z" transform="translate(-181.168 -571.64)" fill="#d6ccab" opacity="0.4"/>
    </g>
    <g id="Group_436" data-name="Group 436" transform="translate(158.686 569.402)">
      <path id="Path_2927" data-name="Path 2927" d="M177.1,582.534a.285.285,0,1,1-.283-.284A.283.283,0,0,1,177.1,582.534Z" transform="translate(-176.535 -582.25)" fill="#bfb686"/>
      <path id="Path_2928" data-name="Path 2928" d="M177.081,582.595a.2.2,0,1,1-.4,0,.2.2,0,0,1,.4,0Z" transform="translate(-176.596 -582.311)" fill="#d6ccab"/>
      <path id="Path_2929" data-name="Path 2929" d="M177.048,582.764l-.331-.222a.21.21,0,0,0-.034.113.2.2,0,0,0,.365.11Z" transform="translate(-176.596 -582.371)" fill="#d6ccab" opacity="0.4"/>
    </g>
    <g id="Group_437" data-name="Group 437" transform="translate(157.138 568.881)">
      <path id="Path_2930" data-name="Path 2930" d="M174.371,581.6a.238.238,0,1,1-.239-.239A.239.239,0,0,1,174.371,581.6Z" transform="translate(-173.895 -581.362)" fill="#bfb686"/>
      <path id="Path_2931" data-name="Path 2931" d="M174.35,581.651a.167.167,0,0,1-.333,0,.167.167,0,0,1,.333,0Z" transform="translate(-173.945 -581.413)" fill="#d6ccab"/>
      <path id="Path_2932" data-name="Path 2932" d="M174.322,581.793l-.276-.187a.171.171,0,0,0-.029.1.166.166,0,0,0,.3.092Z" transform="translate(-173.945 -581.463)" fill="#d6ccab" opacity="0.4"/>
    </g>
    <path id="Path_2933" data-name="Path 2933" d="M173.329,583.465H169.82a2.325,2.325,0,0,0-.042.559h3.828Z" transform="translate(-15.054 -13.35)" fill="#bfb686"/>
    <g id="Group_439" data-name="Group 439" transform="translate(155.02 565.18)">
      <g id="Group_438" data-name="Group 438" transform="translate(0 0.063)">
        <path id="Path_2934" data-name="Path 2934" d="M170.526,583.124l-.032-.949a1.257,1.257,0,0,1,.07-.457l.276-.8a.725.725,0,0,0,.029-.367l-.574-3.288a.677.677,0,0,1,.209-.619l1.62-1.488.254.277-1.62,1.488a.3.3,0,0,0-.094.277l.575,3.288a1.1,1.1,0,0,1-.043.554l-.278.8a.894.894,0,0,0-.048.321l.031.949Z" transform="translate(-170.284 -575.16)" fill="#1a1f25"/>
      </g>
      <path id="Path_2935" data-name="Path 2935" d="M172.641,575.367l-.267-.3a.065.065,0,0,0-.089,0l-1.469,1.338a.062.062,0,0,0,0,.089l.269.3a.062.062,0,0,0,.089,0l1.467-1.337A.064.064,0,0,0,172.641,575.367Z" transform="translate(-170.496 -575.052)" fill="#96989c"/>
      <path id="Rectangle_1692" data-name="Rectangle 1692" d="M.074,0H.5A.077.077,0,0,1,.581.077V.245A.075.075,0,0,1,.507.319H.078A.078.078,0,0,1,0,.241V.074A.074.074,0,0,1,.074,0Z" transform="translate(0.111 7.066)" fill="#242a32"/>
      <path id="Rectangle_1693" data-name="Rectangle 1693" d="M.078,0H.5A.077.077,0,0,1,.581.077V.244A.076.076,0,0,1,.506.319H.078A.078.078,0,0,1,0,.241V.078A.078.078,0,0,1,.078,0Z" transform="translate(0.111 7.763)" fill="#242a32"/>
    </g>
    <path id="Path_2936" data-name="Path 2936" d="M182.519,583.43c0,.237-.619.432-1.383.432s-1.384-.194-1.384-.432.619-.432,1.384-.432S182.519,583.192,182.519,583.43Z" transform="translate(-19.179 -13.157)" fill="#a0896c"/>
    <path id="Path_2937" data-name="Path 2937" d="M174.947,566.784l1.237.009-2.017-3.654c-.253.13-.5.271-.755.423,0,0-.073.04-.182.109Z" transform="translate(-16.482 -4.945)" fill="#1b2027"/>
    <path id="Path_2938" data-name="Path 2938" d="M170.816,566.254v1.715s.206.473.619.473l10.615.09,2.216-.4s.337-.091.545-.656l.344-1.222Z" transform="translate(-15.484 -6.233)" fill="#323232" opacity="0.15"/>
    <path id="Path_2939" data-name="Path 2939" d="M145.183,565.907h5.672a2.6,2.6,0,0,1-.406-.778h-5.856A7.013,7.013,0,0,0,145.183,565.907Z" transform="translate(-4.64 -5.768)" fill="#ffce7b"/>
    <path id="Path_2940" data-name="Path 2940" d="M151.633,566.867h-5.654a6.071,6.071,0,0,0,.914.775h5.969A3.188,3.188,0,0,1,151.633,566.867Z" transform="translate(-5.213 -6.487)" fill="#ffce7b"/>
    <path id="Path_2941" data-name="Path 2941" d="M148.766,568.918a5.74,5.74,0,0,0,2.864.622H161.7v-.622Z" transform="translate(-6.365 -7.335)" fill="#323232" opacity="0.15"/>
    <path id="Path_2942" data-name="Path 2942" d="M159.765,574.113a1.8,1.8,0,0,0,3.6,0c0-.035,0-.068,0-.1H159.77A.91.91,0,0,0,159.765,574.113Z" transform="translate(-10.914 -9.442)" fill="#323232" opacity="0.15"/>
    <g id="Group_444" data-name="Group 444" transform="translate(158.003 571.807)">
      <g id="Group_440" data-name="Group 440">
        <path id="Path_2943" data-name="Path 2943" d="M175.507,587.118l2.8,1.578.162-.165,1.182-1.184.777.231.282-.185.1-.291-2.2-.752-1.322.264-.022.307-1.678-.258C175.152,586.754,175.507,587.118,175.507,587.118Zm.759.041L178,587.5l-.2.53Z" transform="translate(-175.37 -586.35)" fill="#303942"/>
      </g>
      <g id="Group_441" data-name="Group 441" transform="translate(2.964 0.155)">
        <path id="Path_2944" data-name="Path 2944" d="M180.425,586.831a.234.234,0,1,0,.25-.216A.233.233,0,0,0,180.425,586.831Z" transform="translate(-180.424 -586.614)" fill="#739791"/>
        <path id="Path_2945" data-name="Path 2945" d="M180.537,586.88a.169.169,0,0,0,.154.182.169.169,0,1,0,.026-.338A.168.168,0,0,0,180.537,586.88Z" transform="translate(-180.47 -586.66)" fill="#5e7a75"/>
      </g>
      <g id="Group_442" data-name="Group 442" transform="translate(2.623 1.629)">
        <path id="Path_2946" data-name="Path 2946" d="M179.843,589.345a.234.234,0,1,0,.251-.216A.234.234,0,0,0,179.843,589.345Z" transform="translate(-179.842 -589.128)" fill="#739791"/>
        <path id="Path_2947" data-name="Path 2947" d="M179.953,589.4a.169.169,0,1,0,.181-.157A.169.169,0,0,0,179.953,589.4Z" transform="translate(-179.888 -589.174)" fill="#5e7a75"/>
      </g>
      <g id="Group_443" data-name="Group 443" transform="translate(4.318 0.493)">
        <path id="Path_2948" data-name="Path 2948" d="M182.735,587.836a.695.695,0,1,0,.744-.644A.692.692,0,0,0,182.735,587.836Z" transform="translate(-182.733 -587.19)" fill="#444d59"/>
        <path id="Path_2949" data-name="Path 2949" d="M183.092,588a.485.485,0,1,0,.52-.45A.484.484,0,0,0,183.092,588Z" transform="translate(-182.881 -587.337)" fill="#739791"/>
        <path id="Path_2950" data-name="Path 2950" d="M183.2,588.44l.84-.484a.469.469,0,0,1,.065.28.485.485,0,0,1-.906.2Z" transform="translate(-182.926 -587.507)" fill="#323232" opacity="0.2"/>
      </g>
    </g>
  </g>
</svg>
