<svg xmlns="http://www.w3.org/2000/svg" xmlns:xlink="http://www.w3.org/1999/xlink" width="43.962" height="43.962" viewBox="0 0 43.962 43.962">
  <defs>
    <linearGradient id="linear-gradient" x1="0.213" y1="4.791" x2="0.213" y2="3.602" gradientUnits="objectBoundingBox">
      <stop offset="0" stop-color="#fff"/>
      <stop offset="1" stop-color="#e3ebe9"/>
    </linearGradient>
    <linearGradient id="linear-gradient-2" x1="0.203" y1="3.561" x2="0.203" y2="4.75" xlink:href="#linear-gradient"/>
    <linearGradient id="linear-gradient-3" x1="-0.084" y1="4.388" x2="0.401" y2="4.873" gradientUnits="objectBoundingBox">
      <stop offset="0" stop-color="#3fb3a0"/>
      <stop offset="1" stop-color="#25b0aa"/>
    </linearGradient>
    <linearGradient id="linear-gradient-4" x1="-5.391" y1="11.731" x2="-5.391" y2="13.099" xlink:href="#linear-gradient"/>
    <linearGradient id="linear-gradient-5" x1="-0.738" y1="18.707" x2="-1.438" y2="19.408" xlink:href="#linear-gradient"/>
    <linearGradient id="linear-gradient-6" x1="-0.947" y1="41.839" x2="0.16" y2="40.934" gradientUnits="objectBoundingBox">
      <stop offset="0" stop-color="#c9211b"/>
      <stop offset="0.366" stop-color="#bf1f1b"/>
      <stop offset="0.899" stop-color="#ab181b"/>
      <stop offset="1" stop-color="#a4171a"/>
    </linearGradient>
    <linearGradient id="linear-gradient-7" x1="-3.064" y1="46.314" x2="-3.064" y2="44.835" gradientUnits="objectBoundingBox">
      <stop offset="0" stop-color="#859a99"/>
      <stop offset="1" stop-color="#e3ebe9"/>
    </linearGradient>
    <linearGradient id="linear-gradient-8" x1="-5.393" y1="48.793" x2="-5.393" y2="50.161" xlink:href="#linear-gradient"/>
    <linearGradient id="linear-gradient-9" x1="-5.393" y1="48.188" x2="-5.393" y2="49.556" xlink:href="#linear-gradient"/>
    <linearGradient id="linear-gradient-10" x1="-2.909" y1="88.457" x2="-4.278" y2="64.095" xlink:href="#linear-gradient"/>
    <linearGradient id="linear-gradient-11" x1="-2.295" y1="88.457" x2="-3.663" y2="64.095" xlink:href="#linear-gradient"/>
  </defs>
  <g id="Clocks" transform="translate(-271.855 -537.46)">
    <circle id="Ellipse_23" data-name="Ellipse 23" cx="21.981" cy="21.981" r="21.981" transform="translate(271.855 537.46)" fill="url(#linear-gradient)"/>
    <circle id="Ellipse_24" data-name="Ellipse 24" cx="21.269" cy="21.269" r="21.269" transform="translate(272.568 538.173)" fill="url(#linear-gradient-2)"/>
    <circle id="Ellipse_25" data-name="Ellipse 25" cx="19.181" cy="19.181" r="19.181" transform="translate(274.655 540.26)" fill="url(#linear-gradient-3)"/>
    <circle id="Ellipse_26" data-name="Ellipse 26" cx="19.181" cy="19.181" r="19.181" transform="translate(274.655 540.26)" fill="#6ca3bb"/>
    <path id="Path_2951" data-name="Path 2951" d="M323.718,569.182l-6.412-6.359-1.818.448-9.3-9.217a3.8,3.8,0,0,0-1.3-.992h-.277a.934.934,0,0,0-.934.934v10.882a1.768,1.768,0,0,0-.624,1.923l-6.043,6.043a.935.935,0,0,0,0,1.321l11.035,11.02A19.2,19.2,0,0,0,323.718,569.182Z" transform="translate(-10.918 -6.844)" fill="#6ca3bb"/>
    <path id="Path_2952" data-name="Path 2952" d="M324.095,577.185a19.193,19.193,0,0,1-15.668,16L297.6,582.376a.934.934,0,0,0,1.307-.013l6.305-6.306A1.769,1.769,0,0,0,306.9,574.3l10.969-2.7a.4.4,0,0,0,.292-.294Z" transform="translate(-11.295 -14.847)" fill="#598ea5"/>
    <path id="Path_2953" data-name="Path 2953" d="M310.318,566.286h-.277a.933.933,0,0,1-.933-.933V553.995a.934.934,0,0,1,.933-.934h.277a.934.934,0,0,1,.934.934v11.357A.934.934,0,0,1,310.318,566.286Z" transform="translate(-16.343 -6.844)" fill="url(#linear-gradient-4)"/>
    <path id="Path_2954" data-name="Path 2954" d="M304.893,576.408l.2.2a.933.933,0,0,1,0,1.321l-6.558,6.558a.934.934,0,0,1-1.32,0l-.2-.2a.934.934,0,0,1,0-1.321l6.557-6.558A.935.935,0,0,1,304.893,576.408Z" transform="translate(-10.918 -16.967)" fill="url(#linear-gradient-5)"/>
    <path id="Path_2955" data-name="Path 2955" d="M323.82,570.735h0a.4.4,0,0,1-.291.48L310.986,574.3a.4.4,0,0,1-.48-.291h0a.4.4,0,0,1,.29-.48l12.543-3.089A.4.4,0,0,1,323.82,570.735Z" transform="translate(-16.951 -14.465)" fill="url(#linear-gradient-6)"/>
    <circle id="Ellipse_27" data-name="Ellipse 27" cx="1.772" cy="1.772" r="1.772" transform="translate(292.064 557.669)" fill="url(#linear-gradient-7)"/>
    <path id="Path_2956" data-name="Path 2956" d="M310.248,548.5h-.137a1,1,0,0,1-1-1v-1.248a1,1,0,0,1,1-1h.137a1,1,0,0,1,1,1V547.5A1,1,0,0,1,310.248,548.5Z" transform="translate(-16.343 -3.414)" fill="url(#linear-gradient-8)"/>
    <path id="Path_2957" data-name="Path 2957" d="M310.248,605.456h-.137a1,1,0,0,1-1-1V603.2a1,1,0,0,1,1-1h.137a1,1,0,0,1,1,1v1.249A1,1,0,0,1,310.248,605.456Z" transform="translate(-16.343 -28.402)" fill="url(#linear-gradient-9)"/>
    <path id="Path_2958" data-name="Path 2958" d="M336.6,575.853v-.137a1,1,0,0,1,1-1h1.249a1,1,0,0,1,1,1v.137a1,1,0,0,1-1,1H337.6A1,1,0,0,1,336.6,575.853Z" transform="translate(-28.402 -16.343)" fill="url(#linear-gradient-10)"/>
    <path id="Path_2959" data-name="Path 2959" d="M279.638,575.853v-.137a1,1,0,0,1,1-1h1.249a1,1,0,0,1,1,1v.137a1,1,0,0,1-1,1h-1.249A1,1,0,0,1,279.638,575.853Z" transform="translate(-3.414 -16.343)" fill="url(#linear-gradient-11)"/>
  </g>
</svg>
