<svg xmlns="http://www.w3.org/2000/svg" width="24.196" height="46.351" viewBox="0 0 24.196 46.351">
  <g id="Ammunition" transform="translate(-967.492 -369.876)">
    <path id="Path_2960" data-name="Path 2960" d="M984.494,403.308v22.335H971.465V403.308l2.792-5.584V391.21H981.7v6.514l.821,1.642Zm0,0" transform="translate(-3.972 -9.415)" fill="#898a8a"/>
    <path id="Path_2961" data-name="Path 2961" d="M979.188,369.876a22.164,22.164,0,0,0-3.723,12.294V385.7h7.445V382.17a22.169,22.169,0,0,0-3.722-12.294Zm0,0" transform="translate(-5.181 0)" fill="#b9e1f5"/>
    <path id="Path_2962" data-name="Path 2962" d="M988.521,406.837v22.335H984.8V406.4l1.752-3.5Zm0,0" transform="translate(-8 -12.945)" fill="#545454"/>
    <path id="Path_2963" data-name="Path 2963" d="M1000.494,425.642V403.308l-2.792-5.584V391.21h-7.445v6.514l-2.792,5.584v22.335Zm0,0" transform="translate(-8.805 -9.415)" fill="#676767"/>
    <path id="Path_2964" data-name="Path 2964" d="M995.188,369.876a22.164,22.164,0,0,0-3.723,12.294V385.7h7.445V382.17a22.169,22.169,0,0,0-3.722-12.294Zm0,0" transform="translate(-10.013 0)" fill="#c9e5f3"/>
  </g>
</svg>
