<svg xmlns="http://www.w3.org/2000/svg" width="54.197" height="54.197" viewBox="0 0 54.197 54.197">
  <g id="vegetables_Icon" transform="translate(1457.841 -66.146)">
    <path id="Path_2444" data-name="Path 2444" d="M25.094,25.109a12.9,12.9,0,0,1,7.016-3.963c-.246-6.243-2.47-11.131-5.177-11.131-1.916,0-3.589,2.447-4.491,6.09-3.214-1.938-6.127-2.485-7.482-1.13s-.807,4.268,1.13,7.482c-3.643.9-6.09,2.576-6.09,4.491,0,2.707,4.887,4.931,11.131,5.177A12.9,12.9,0,0,1,25.094,25.109Z" transform="translate(-1467.841 56.131)" fill="#88df8e" fill-rule="evenodd"/>
    <path id="Path_2445" data-name="Path 2445" d="M130.9,114.143c-3.139-3.139-6.453-4.45-9.739-3.941a15.038,15.038,0,0,0-10.979,10.979c-.509,3.286.8,6.6,3.941,9.739,5.336,5.335,31.515,27.639,37.965,21.189S136.24,119.478,130.9,114.143Z" transform="translate(-1556.897 -32.925)" fill="#ff764e" fill-rule="evenodd"/>
    <path id="Path_2447" data-name="Path 2447" d="M233.095,228.778l-2.96,2.96a1.1,1.1,0,1,0,1.558,1.558l2.96-2.96a1.1,1.1,0,0,0-1.558-1.558Z" transform="translate(-1666.478 -141.286)" fill="#fdad95"/>
    <path id="Path_2448" data-name="Path 2448" d="M328.83,292.271l2.87-2.87a1.1,1.1,0,0,0-1.558-1.558l-2.87,2.87a1.1,1.1,0,1,0,1.558,1.558Z" transform="translate(-1758.991 -195.363)" fill="#fdad95"/>
    <path id="Path_9977" data-name="Path 9977" d="M328.83,292.271l2.87-2.87a1.1,1.1,0,0,0-1.558-1.558l-2.87,2.87a1.1,1.1,0,1,0,1.558,1.558Z" transform="translate(-1754.434 -190.807)" fill="#fdad95"/>
    <path id="Path_9978" data-name="Path 9978" d="M328.83,292.271l2.87-2.87a1.1,1.1,0,0,0-1.558-1.558l-2.87,2.87a1.1,1.1,0,1,0,1.558,1.558Z" transform="translate(-1749.878 -186.25)" fill="#fdad95"/>
  </g>
</svg>
