<svg xmlns="http://www.w3.org/2000/svg" width="37.267" height="41.984" viewBox="0 0 37.267 41.984">
  <g id="painting" transform="translate(-28.765 0)">
    <path id="Path_9940" data-name="Path 9940" d="M390.387,399.893l-.084,4.866-.043,2.543a1.189,1.189,0,0,1-2.378,0l-.016-.891-.112-6.518h2.632Z" transform="translate(-329.552 -367.101)" fill="#fb6672"/>
    <path id="Path_9941" data-name="Path 9941" d="M396.352,399.9l-.127,7.408a1.189,1.189,0,0,1-1.973.873,1.183,1.183,0,0,0,.4-.873l.127-7.409h1.567Z" transform="translate(-335.517 -367.104)" fill="#fb4a59"/>
    <path id="Path_9942" data-name="Path 9942" d="M387.756,399.893h2.632l-.084,4.866a20,20,0,0,1-1.822,1.283q-.305.191-.615.369Z" transform="translate(-329.553 -367.101)" fill="#fb4a59"/>
    <path id="Path_9943" data-name="Path 9943" d="M60.59,60.5h9.492a2.217,2.217,0,0,1,1.975,3.224,18.926,18.926,0,1,1-8.8-25.754c5.947,2.8,3.91,11.743-2.663,11.743a5.393,5.393,0,0,0,0,10.787Z" transform="translate(-6.886 -33.212)" fill="#fee7c9"/>
    <path id="Path_9944" data-name="Path 9944" d="M358.159,66.306,358,59.084a1.98,1.98,0,0,1,.191-.9,3.79,3.79,0,0,1-.783-2.309,6.193,6.193,0,0,1,.077-.964c.193.082.385.169.576.258C363.066,57.531,362.414,64.244,358.159,66.306Z" transform="translate(-301.692 -50.412)" fill="#fccd8a"/>
    <path id="Path_9945" data-name="Path 9945" d="M376.722,12.348a2.657,2.657,0,1,1-5.314,0,5.035,5.035,0,0,1,3.508-4.834.382.382,0,0,1,.474.218,17.975,17.975,0,0,1,1.332,4.616Z" transform="translate(-314.546 -6.881)" fill="#fcc16d"/>
    <path id="Path_9946" data-name="Path 9946" d="M399.32,12.345a2.659,2.659,0,0,1-3.295,2.58,2.657,2.657,0,0,0,1.619-2.446,17.15,17.15,0,0,0-1.266-4.45,5.37,5.37,0,0,1,1.137-.517.383.383,0,0,1,.474.218A18,18,0,0,1,399.32,12.345Z" transform="translate(-337.144 -6.878)" fill="#fcb44d"/>
    <path id="Path_9947" data-name="Path 9947" d="M379.916,10.589h-4.671A4.854,4.854,0,0,1,377.3,8.03a5.332,5.332,0,0,1,1.137-.518.383.383,0,0,1,.474.218C379.136,8.287,379.6,9.48,379.916,10.589Z" transform="translate(-318.068 -6.879)" fill="#9790c9"/>
    <path id="Path_9948" data-name="Path 9948" d="M402.939,10.589h-1.715c-.285-.969-.669-1.98-.9-2.559a5.332,5.332,0,0,1,1.137-.518.383.383,0,0,1,.474.218C402.159,8.287,402.623,9.48,402.939,10.589Z" transform="translate(-341.091 -6.879)" fill="#837bbf"/>
    <circle id="Ellipse_28" data-name="Ellipse 28" cx="2.93" cy="2.93" r="2.93" transform="translate(33.523 14.425)" fill="#bcea73"/>
    <path id="Path_9949" data-name="Path 9949" d="M115.224,178.838a2.931,2.931,0,0,1-3.843,2.784,2.93,2.93,0,0,0,0-5.568,2.931,2.931,0,0,1,3.843,2.784Z" transform="translate(-75.841 -161.484)" fill="#a3e440"/>
    <circle id="Ellipse_29" data-name="Ellipse 29" cx="2.93" cy="2.93" r="2.93" transform="translate(33.523 23.51)" fill="#fb6672"/>
    <path id="Path_9950" data-name="Path 9950" d="M115.224,289.636a2.931,2.931,0,0,1-3.843,2.784,2.93,2.93,0,0,0,0-5.568,2.931,2.931,0,0,1,3.843,2.784Z" transform="translate(-75.841 -263.196)" fill="#fb4a59"/>
    <circle id="Ellipse_30" data-name="Ellipse 30" cx="2.93" cy="2.93" r="2.93" transform="translate(39.716 7.847)" fill="#9790c9"/>
    <path id="Path_9951" data-name="Path 9951" d="M190.74,98.627a2.931,2.931,0,0,1-3.843,2.784,2.93,2.93,0,0,0,0-5.568,2.931,2.931,0,0,1,3.843,2.784Z" transform="translate(-145.165 -87.85)" fill="#837bbf"/>
    <circle id="Ellipse_31" data-name="Ellipse 31" cx="2.93" cy="2.93" r="2.93" transform="translate(39.716 30.088)" fill="#fcc16d"/>
    <path id="Path_9952" data-name="Path 9952" d="M190.74,369.848a2.931,2.931,0,0,1-3.843,2.784,2.93,2.93,0,0,0,0-5.568,2.931,2.931,0,0,1,3.843,2.784Z" transform="translate(-145.165 -336.83)" fill="#fcb44d"/>
    <circle id="Ellipse_32" data-name="Ellipse 32" cx="2.93" cy="2.93" r="2.93" transform="translate(48.503 6.72)" fill="#64b9fc"/>
    <path id="Path_9953" data-name="Path 9953" d="M297.9,84.88a2.931,2.931,0,0,1-3.843,2.784,2.93,2.93,0,0,0,0-5.568A2.931,2.931,0,0,1,297.9,84.88Z" transform="translate(-243.537 -75.23)" fill="#31a7fb"/>
    <circle id="Ellipse_33" data-name="Ellipse 33" cx="2.93" cy="2.93" r="2.93" transform="translate(48.503 31.215)" fill="#eaf6ff"/>
    <path id="Path_9954" data-name="Path 9954" d="M297.9,383.594a2.931,2.931,0,0,1-3.843,2.784,2.93,2.93,0,0,0,0-5.568,2.931,2.931,0,0,1,3.843,2.784Z" transform="translate(-243.537 -349.449)" fill="#d9ecfd"/>
    <path id="Path_9955" data-name="Path 9955" d="M382.753,95.852l-.388,17.5-.025,1.148h-3.3l-.025-1.148-.389-17.5a.839.839,0,0,1,.838-.857h2.454A.838.838,0,0,1,382.753,95.852Z" transform="translate(-321.169 -87.206)" fill="#fb6672"/>
    <path id="Path_9956" data-name="Path 9956" d="M386.719,318.8l-.025,1.148h-3.3l-.025-1.148Z" transform="translate(-325.523 -292.662)" fill="#fb4a59"/>
    <path id="Path_9957" data-name="Path 9957" d="M402.064,95.857,401.65,114.5h-1.567l.413-18.644a.837.837,0,0,0-.837-.857h1.567A.838.838,0,0,1,402.064,95.857Z" transform="translate(-340.48 -87.211)" fill="#fb4a59"/>
    <path id="Path_9958" data-name="Path 9958" d="M382.753,95.852l-.138,6.211h-3.854l-.138-6.211a.839.839,0,0,1,.838-.857h2.454A.838.838,0,0,1,382.753,95.852Z" transform="translate(-321.169 -87.206)" fill="#8d9da7"/>
    <path id="Path_9959" data-name="Path 9959" d="M402.06,95.852l-.138,6.211h-1.568l.138-6.211a.836.836,0,0,0-.837-.856h1.568A.838.838,0,0,1,402.06,95.852Z" transform="translate(-340.476 -87.206)" fill="#7a8d98"/>
    <path id="Path_9960" data-name="Path 9960" d="M65.613,28.031A2.814,2.814,0,0,0,63.2,26.675H61.8l.32-14.438a.615.615,0,1,0-1.23-.027l-.045,2.032H58.194l-.124-5.61a.223.223,0,0,1,.223-.228h2.454a.223.223,0,0,1,.223.228l-.018.79a.615.615,0,0,0,.6.629h.014a.615.615,0,0,0,.615-.6L62.2,8.66a1.441,1.441,0,0,0-.313-.934,3.255,3.255,0,0,0,.906-2.259A17.522,17.522,0,0,0,61.414.622,1,1,0,0,0,60.179.049a5.536,5.536,0,0,0-3.766,4.058A19.548,19.548,0,0,0,28.765,21.9a19.611,19.611,0,0,0,4.367,12.339.615.615,0,1,0,.954-.776A18.327,18.327,0,0,1,48.311,3.581,18.155,18.155,0,0,1,56.1,5.318l.144.07c0,.026,0,.053,0,.08a3.255,3.255,0,0,0,.906,2.259,1.441,1.441,0,0,0-.313.934l.138,6.213A5.528,5.528,0,0,1,53.7,15.889a6.008,6.008,0,1,0,0,12.017H54.1a.615.615,0,0,0,0-1.23H53.7a4.778,4.778,0,1,1,0-9.557,6.87,6.87,0,0,0,3.305-.815l.23,10.372h-.356a.615.615,0,0,0,0,1.23H63.2a1.6,1.6,0,0,1,1.428,2.329,18.315,18.315,0,0,1-16.313,9.978H48.3a18.281,18.281,0,0,1-12.361-4.789.615.615,0,1,0-.83.908A19.509,19.509,0,0,0,48.3,41.443h.013a19.508,19.508,0,0,0,9.385-2.4l.02,1.165a1.8,1.8,0,0,0,3.608,0l.065-3.787a19.6,19.6,0,0,0,4.33-5.628A2.808,2.808,0,0,0,65.613,28.031ZM61.561,5.467a2.034,2.034,0,0,1-.924,1.707H58.4a2.034,2.034,0,0,1-.924-1.707,4.774,4.774,0,0,1,.161-1.141h3.738A5.14,5.14,0,0,1,61.561,5.467Zm-1.2-4.178c.229.58.46,1.207.657,1.807H58.148A4.192,4.192,0,0,1,60.356,1.289ZM58.47,26.675l-.249-11.2h2.6l-.249,11.2ZM60.093,40.19a.574.574,0,0,1-1.148,0l-.032-1.87q.631-.408,1.227-.862Z" transform="translate(0 0)"/>
    <path id="Path_9961" data-name="Path 9961" d="M82.837,168.41a3.545,3.545,0,1,0,3.545,3.545A3.549,3.549,0,0,0,82.837,168.41Zm0,5.86a2.315,2.315,0,1,1,2.315-2.315A2.317,2.317,0,0,1,82.837,174.27Z" transform="translate(-46.384 -154.6)"/>
    <path id="Path_9962" data-name="Path 9962" d="M82.837,286.3a3.545,3.545,0,1,0-3.545-3.545A3.549,3.549,0,0,0,82.837,286.3Zm0-5.859a2.315,2.315,0,1,1-2.315,2.315A2.317,2.317,0,0,1,82.837,280.438Z" transform="translate(-46.384 -256.313)"/>
    <path id="Path_9963" data-name="Path 9963" d="M158.353,88.2a3.545,3.545,0,1,0,3.545,3.545A3.549,3.549,0,0,0,158.353,88.2Zm0,5.859a2.315,2.315,0,1,1,2.315-2.315A2.317,2.317,0,0,1,158.353,94.058Z" transform="translate(-115.707 -80.967)"/>
    <path id="Path_9964" data-name="Path 9964" d="M158.353,359.42a3.545,3.545,0,1,0,3.545,3.545A3.549,3.549,0,0,0,158.353,359.42Zm0,5.859a2.315,2.315,0,1,1,2.315-2.315A2.317,2.317,0,0,1,158.353,365.279Z" transform="translate(-115.707 -329.947)"/>
    <path id="Path_9965" data-name="Path 9965" d="M269.057,78a3.545,3.545,0,1,0-3.545,3.545A3.549,3.549,0,0,0,269.057,78ZM263.2,78a2.315,2.315,0,1,1,2.315,2.315A2.317,2.317,0,0,1,263.2,78Z" transform="translate(-214.079 -68.347)"/>
    <path id="Path_9966" data-name="Path 9966" d="M265.513,380.255a3.545,3.545,0,1,0-3.545-3.545A3.549,3.549,0,0,0,265.513,380.255Zm0-5.859a2.315,2.315,0,1,1-2.315,2.315A2.317,2.317,0,0,1,265.513,374.4Z" transform="translate(-214.08 -342.566)"/>
  </g>
</svg>
