<svg xmlns="http://www.w3.org/2000/svg" xmlns:xlink="http://www.w3.org/1999/xlink" width="29.498" height="53.154" viewBox="0 0 29.498 53.154">
  <defs>
    <linearGradient id="linear-gradient" x1="0.504" y1="0.803" x2="0.476" y2="0.172" gradientUnits="objectBoundingBox">
      <stop offset="0" stop-color="#f8ae1d"/>
      <stop offset="1" stop-color="#fdce6f"/>
    </linearGradient>
  </defs>
  <g id="Oil_Icon" transform="translate(-157.018 -368.933)">
    <g id="Group_276" data-name="Group 276" transform="translate(157.018 368.933)">
      <path id="Path_2404" data-name="Path 2404" d="M167.254,379.674s.06,3.519.06,6.8-7.158,21.294-8.978,26.45a25.66,25.66,0,0,0-1.144,4.2,4.106,4.106,0,0,0,1.659,4.034l5.475,3.9a3.905,3.905,0,0,0,2.267.725h10.424a3.906,3.906,0,0,0,2.267-.725l5.475-3.9a4.076,4.076,0,0,0,1.668-3.976,25.521,25.521,0,0,0-1.154-4.259c-1.82-5.157-8.978-23.175-8.978-26.45s.06-6.8.06-6.8Z" transform="translate(-157.057 -372.627)" fill="#ffefcd"/>
      <path id="Path_2405" data-name="Path 2405" d="M180.68,378.31c.47,0,2,.264,1.866-1.714-.1-1.387-1.46-1.114-6.416-1.126-4.845.012-6.318-.291-6.416,1.126-.136,1.975,1.392,1.714,1.866,1.714Z" transform="translate(-161.382 -371.175)" fill="#ffde9c"/>
      <g id="Group_272" data-name="Group 272" transform="translate(9.463)">
        <path id="Path_2406" data-name="Path 2406" d="M172.764,378.95l-1.3-8.558a1.15,1.15,0,0,1,1.008-1.459h8.139a1.2,1.2,0,0,1,1.184,1.367l-.876,6.087a1.2,1.2,0,0,0-.009.26l-.092,2.492a1.2,1.2,0,0,1-.388.975l-.8.993a1.2,1.2,0,0,1-1.126.266l-4.972-1.391c-.294-.083-.453-.342-.609-.6h0A1.187,1.187,0,0,1,172.764,378.95Z" transform="translate(-171.441 -368.933)" fill="#d57e2f"/>
        <path id="Path_2407" data-name="Path 2407" d="M173.289,372.528a1.435,1.435,0,0,1,1.118-1.874l7.2-1.219a1.184,1.184,0,0,0-.955-.5H172.54a1.149,1.149,0,0,0-1.008,1.459l1.3,8.558a1.188,1.188,0,0,0,.155.427c.157.262.316.522.61.6l2.442.684Z" transform="translate(-171.466 -368.933)" fill="#dd9654"/>
        <path id="Path_2408" data-name="Path 2408" d="M175.489,381.916a.617.617,0,1,1-.613-.546A.582.582,0,0,1,175.489,381.916Z" transform="translate(-172.412 -373.21)" fill="#945a23"/>
        <path id="Path_2409" data-name="Path 2409" d="M185.078,370.3a1.194,1.194,0,0,0-1.184-1.367H181.78a1.426,1.426,0,0,1,.281,1.075l-1.052,7.3a1.427,1.427,0,0,0-.011.313l.226,3a1.421,1.421,0,0,1-.073.567l.635.178a1.2,1.2,0,0,0,1.126-.266l.8-.993a1.2,1.2,0,0,0,.388-.975l.092-2.492a1.2,1.2,0,0,1,.009-.26Z" transform="translate(-174.727 -368.933)" fill="#945a23" opacity="0.56"/>
        <path id="Path_2410" data-name="Path 2410" d="M184.478,372.226c0,.268-.34.486-.759.486s-.758-.217-.758-.486.34-.486.758-.486S184.478,371.958,184.478,372.226Z" transform="translate(-175.403 -369.898)" fill="#945a23" opacity="0.56"/>
        <path id="Path_2411" data-name="Path 2411" d="M175.988,375.436a.657.657,0,1,1-.657-.667A.662.662,0,0,1,175.988,375.436Z" transform="translate(-172.553 -370.94)" fill="#945a23" opacity="0.56"/>
        <path id="Path_2412" data-name="Path 2412" d="M179.465,378.812c0,.2-.339.364-.758.364s-.758-.163-.758-.364.34-.364.758-.364S179.465,378.611,179.465,378.812Z" transform="translate(-173.679 -372.206)" fill="#945a23" opacity="0.56"/>
        <path id="Path_2413" data-name="Path 2413" d="M183.284,383.633c.079.184-.168.468-.553.634s-.761.15-.84-.035.168-.468.553-.634S183.2,383.448,183.284,383.633Z" transform="translate(-175.03 -373.937)" fill="#945a23" opacity="0.56"/>
        <path id="Path_2414" data-name="Path 2414" d="M179.34,374.75c0,.245-.285.444-.637.444s-.637-.2-.637-.444.285-.443.637-.443S179.34,374.505,179.34,374.75Z" transform="translate(-173.72 -370.781)" fill="#945a23"/>
        <path id="Path_2415" data-name="Path 2415" d="M174.977,378.771c0,.245-.285.444-.637.444s-.637-.2-.637-.444.285-.443.637-.443S174.977,378.526,174.977,378.771Z" transform="translate(-172.219 -372.164)" fill="#945a23" opacity="0.56"/>
        <path id="Path_2416" data-name="Path 2416" d="M183.448,377.247c0,.245-.285.443-.637.443s-.637-.2-.637-.443.285-.443.637-.443S183.448,377,183.448,377.247Z" transform="translate(-175.133 -371.64)" fill="#945a23"/>
        <path id="Path_2417" data-name="Path 2417" d="M180.735,381.97c0,.245-.285.443-.637.443s-.637-.2-.637-.443.285-.444.637-.444S180.735,381.725,180.735,381.97Z" transform="translate(-174.2 -373.264)" fill="#945a23" opacity="0.56"/>
        <path id="Path_2418" data-name="Path 2418" d="M178.39,383.969c0,.209-.3.379-.681.379s-.681-.17-.681-.379.305-.379.681-.379S178.39,383.76,178.39,383.969Z" transform="translate(-173.363 -373.974)" fill="#945a23"/>
        <path id="Path_2419" data-name="Path 2419" d="M184.987,380.127a.724.724,0,1,1-.714-.607A.667.667,0,0,1,184.987,380.127Z" transform="translate(-175.609 -372.574)" fill="#945a23" opacity="0.56"/>
        <path id="Path_2420" data-name="Path 2420" d="M179.375,371.839c.312.2.505.451.431.57s-.388.057-.7-.138-.505-.451-.431-.57S179.063,371.643,179.375,371.839Z" transform="translate(-173.924 -369.864)" fill="#945a23" opacity="0.56"/>
        <path id="Path_2421" data-name="Path 2421" d="M175.457,371.279a.55.55,0,1,1-.547-.485A.519.519,0,0,1,175.457,371.279Z" transform="translate(-172.447 -369.573)" fill="#945a23" opacity="0.56"/>
      </g>
      <path id="Path_2422" data-name="Path 2422" d="M183.423,376.682a.751.751,0,0,0-.477-.661c.061,1.668-1.351,1.468-1.819,1.511l-7.515.692h8.132C182.166,378.224,183.545,378.462,183.423,376.682Z" transform="translate(-162.725 -371.371)" fill="#fff" opacity="0.81"/>
      <path id="Path_2423" data-name="Path 2423" d="M171.56,377.381c-.037-1.586,1.611-1.219,7-1.733l.4-.037c-.718,0-1.577.014-2.6.012-4.511.011-5.882-.27-5.973,1.048-.094,1.363.683,1.4,1.261,1.422A3.133,3.133,0,0,1,171.56,377.381Z" transform="translate(-161.614 -371.227)" fill="#fff" opacity="0.81"/>
      <path id="Path_2424" data-name="Path 2424" d="M182.546,376.536c-.1-1.387-1.46-1.113-6.416-1.126-4.845.012-6.318-.291-6.416,1.126-.136,1.975,1.392,1.714,1.866,1.714h9.1C181.15,378.25,182.683,378.515,182.546,376.536Zm-1.86,1.653h-9.135c-.313-.01-1.645.24-1.516-1.636.093-1.346,1.492-1.058,6.095-1.07,4.709.012,6-.248,6.095,1.07C182.355,378.43,181.086,378.161,180.686,378.189Z" transform="translate(-161.382 -371.154)" fill="#fdbe48"/>
      <g id="Group_273" data-name="Group 273" transform="translate(0.076 26.045)">
        <path id="Path_2425" data-name="Path 2425" d="M157.191,427.079a4.106,4.106,0,0,0,1.659,4.034l5.475,3.9a3.9,3.9,0,0,0,2.267.725h10.424a3.906,3.906,0,0,0,2.267-.725l5.475-3.9a4.076,4.076,0,0,0,1.668-3.976,25.523,25.523,0,0,0-1.154-4.259c-.892-2.529-3.068-8.148-5.054-13.606h0s-4.532.806-6.807.054-2.639-.8-3.64-.587-2,1.248-3.094,1.17a11.037,11.037,0,0,1-3.094-1.17h0c-2.036,5.622-4.326,11.529-5.247,14.14A25.659,25.659,0,0,0,157.191,427.079Z" transform="translate(-157.133 -408.631)" fill="url(#linear-gradient)"/>
      </g>
      <g id="Group_274" data-name="Group 274" transform="translate(12.319 28.856)">
        <path id="Path_2426" data-name="Path 2426" d="M183.111,440.137a1.581,1.581,0,1,1-1.577-1.479A1.531,1.531,0,0,1,183.111,440.137Z" transform="translate(-177.226 -421.769)" fill="#fdc049"/>
        <path id="Path_2427" data-name="Path 2427" d="M187.815,443.677a.971.971,0,1,1-.97-.971A.97.97,0,0,1,187.815,443.677Z" transform="translate(-179.261 -423.161)" fill="#fdc049"/>
        <path id="Path_2428" data-name="Path 2428" d="M185.256,428.2a1.031,1.031,0,1,1-1.031-1.031A1.031,1.031,0,0,1,185.256,428.2Z" transform="translate(-178.339 -417.819)" fill="#fdc049"/>
        <path id="Path_2429" data-name="Path 2429" d="M189.209,432.861a.789.789,0,1,1-.789-.789A.79.79,0,0,1,189.209,432.861Z" transform="translate(-179.866 -419.504)" fill="#fdc049"/>
        <path id="Path_2430" data-name="Path 2430" d="M177.251,428.824a.728.728,0,1,1-.728-.728A.727.727,0,0,1,177.251,428.824Z" transform="translate(-175.795 -418.137)" fill="#fdc049"/>
        <path id="Path_2431" data-name="Path 2431" d="M180.245,423.155a.607.607,0,1,1-.607-.607A.607.607,0,0,1,180.245,423.155Z" transform="translate(-176.908 -416.229)" fill="#fdc049"/>
        <path id="Path_2432" data-name="Path 2432" d="M183.969,419.283a.435.435,0,1,1-.435-.434A.435.435,0,0,1,183.969,419.283Z" transform="translate(-178.307 -414.957)" fill="#fdc049"/>
        <path id="Path_2433" data-name="Path 2433" d="M180.163,416.587a.435.435,0,1,1-.435-.435A.435.435,0,0,1,180.163,416.587Z" transform="translate(-176.998 -414.029)" fill="#fdc049"/>
        <path id="Path_2434" data-name="Path 2434" d="M177.112,413.351a.434.434,0,1,1-.434-.435A.434.434,0,0,1,177.112,413.351Z" transform="translate(-175.949 -412.916)" fill="#fdc049"/>
        <path id="Path_2435" data-name="Path 2435" d="M181.077,430.922a.607.607,0,1,1-.607-.607A.607.607,0,0,1,181.077,430.922Z" transform="translate(-177.194 -418.9)" fill="#fdc049"/>
        <circle id="Ellipse_17" data-name="Ellipse 17" cx="0.607" cy="0.607" r="0.607" transform="translate(0.694 4.499)" fill="#fdc049"/>
      </g>
      <path id="Path_2436" data-name="Path 2436" d="M186.461,417.171a25.46,25.46,0,0,0-1.16-4.259c-1.829-5.157-9.025-23.175-9.025-26.45s.046-6.807.046-6.807h-9.135s.064,3.532.064,6.809-7.2,21.294-9.025,26.45a25.526,25.526,0,0,0-1.15,4.2,4.1,4.1,0,0,0,1.668,4.034l5.5,3.9a3.936,3.936,0,0,0,2.278.725H177a3.936,3.936,0,0,0,2.278-.725l5.5-3.9A4.067,4.067,0,0,0,186.461,417.171Zm-2.328,3.055-5.227,3.706a3.745,3.745,0,0,1-2.166.69h-9.954a3.747,3.747,0,0,1-2.166-.69l-5.226-3.706a3.891,3.891,0,0,1-1.584-3.832A24.3,24.3,0,0,1,158.9,412.4c1.738-4.9,8.574-22.016,8.574-25.128,0-1.9-.022-3.891-.039-5.149a1.545,1.545,0,0,1,1.27-1.54l1.614-.293a8.084,8.084,0,0,1,2.889,0l2,.363a1.074,1.074,0,0,1,.884,1.073c-.017,1.206-.044,3.429-.044,5.545,0,3.112,6.836,20.229,8.574,25.128a24.154,24.154,0,0,1,1.1,4.045A3.864,3.864,0,0,1,184.134,420.226Z" transform="translate(-157.018 -372.62)" fill="#f8ae1d" opacity="0.5"/>
      <path id="Path_2437" data-name="Path 2437" d="M162.619,427.6c.138-.648-3.641,5.824-.273,8.282l3.367,2.457S161.028,435.041,162.619,427.6Z" transform="translate(-158.368 -389.093)" fill="#fdce6f" opacity="0.5"/>
      <path id="Path_2438" data-name="Path 2438" d="M183.247,381.015a65.2,65.2,0,0,0-.249,6.6,14.97,14.97,0,0,0,.7,4.089c1.271,4.032,3.919,12.6,3.919,12.6l3.549,10.374.009.028a3.015,3.015,0,0,1-1.867,3.769h0a.8.8,0,0,1-1.025-.516c-1.15-3.735-5.988-19.532-6.308-21.937-.364-2.73-.819-13.559-.728-15.015Z" transform="translate(-165.346 -373.088)" fill="#fff" opacity="0.54"/>
      <path id="Path_2439" data-name="Path 2439" d="M162.564,438.718s.088.026.255.066.413.093.724.163.692.137,1.13.209.934.136,1.471.22a60.451,60.451,0,0,0,17.379-.654c.436-.08.82-.143,1.135-.2.631-.106,1-.158,1-.158s-.348.114-.961.3c-.307.092-.68.205-1.11.327a37.627,37.627,0,0,1-17.509.792c-.538-.124-1.031-.232-1.462-.36-.433-.113-.8-.241-1.108-.341C162.9,438.872,162.564,438.718,162.564,438.718Z" transform="translate(-158.925 -392.813)" fill="#fff" opacity="0.54"/>
      <g id="Group_275" data-name="Group 275" transform="translate(8.552 12.809)">
        <path id="Path_2440" data-name="Path 2440" d="M175.564,388.458h.015A.031.031,0,0,0,175.564,388.458Z" transform="translate(-171.948 -388.457)" fill="#fff" opacity="0.54"/>
        <path id="Path_2441" data-name="Path 2441" d="M175.67,388.458h-1.987c.063.016.295.251.223,2.87-.029,1.029-2.549,9.7-3.854,14.118a9.356,9.356,0,0,1,2.639,3h0c1.126-4.007,2.1-7.633,2.239-8.706C175.3,397.01,175.762,389.915,175.67,388.458Z" transform="translate(-170.053 -388.457)" fill="#fff" opacity="0.54"/>
      </g>
      <path id="Path_2442" data-name="Path 2442" d="M183.4,409.278s-4.377.812-6.771.07c-2.289-.71-2.628-.811-3.629-.6s-2,1.248-3.093,1.17a11.527,11.527,0,0,1-3.141-1.17l-.386,1.077a10.183,10.183,0,0,0,2.956,1c1.31.094,2.511-1.155,3.713-1.4s1.621-.181,4.351.721c1.739.575,4.548.38,6.379.171Z" transform="translate(-160.236 -382.592)" fill="#f8ae1d" opacity="0.5"/>
    </g>
    <path id="Path_2443" data-name="Path 2443" d="M190.722,440.587l3.731-.621a18.112,18.112,0,0,1-5.369,4.6C187.218,444.569,190.722,440.587,190.722,440.587Z" transform="translate(-10.84 -24.43)" fill="#fff" opacity="0.54"/>
  </g>
</svg>
