<svg xmlns="http://www.w3.org/2000/svg" width="34.974" height="53.78" viewBox="0 0 34.974 53.78">
  <g id="Baverages_Icon" transform="translate(-554.696 -200.657)">
    <g id="Group_320" data-name="Group 320" transform="translate(554.696 200.657)">
      <g id="Group_280" data-name="Group 280" transform="translate(8.138 13.004)">
        <g id="Group_279" data-name="Group 279">
          <path id="Path_2450" data-name="Path 2450" d="M569.906,220.145h13.873c-.641,3.912.267,6.728,2.847,17.327s-8.816,12.289-8.816,12.289h-1.722s-11.4-1.69-8.817-12.289S570.44,225.658,569.906,220.145Z" transform="translate(-566.891 -220.145)" fill="#ffd500"/>
        </g>
      </g>
      <g id="Group_292" data-name="Group 292">
        <g id="Group_282" data-name="Group 282" transform="translate(6.585 1.415)">
          <g id="Group_281" data-name="Group 281" transform="translate(0 0)">
            <rect id="Rectangle_1594" data-name="Rectangle 1594" width="0.854" height="23.439" transform="translate(0 0.445) rotate(-31.417)" fill="#ffce92"/>
          </g>
        </g>
        <g id="Group_291" data-name="Group 291">
          <g id="Group_284" data-name="Group 284" transform="translate(0 0.619)">
            <g id="Group_283" data-name="Group 283">
              <path id="Path_2451" data-name="Path 2451" d="M560.87,201.584,554.7,212.192a30.63,30.63,0,0,1,4.937-.713Z" transform="translate(-554.696 -201.584)" fill="#4fb9af"/>
            </g>
          </g>
          <g id="Group_286" data-name="Group 286" transform="translate(4.937 0.619)">
            <g id="Group_285" data-name="Group 285">
              <path id="Path_2452" data-name="Path 2452" d="M568.632,208.475s-4.417,0-6.537,3l1.236-9.894Z" transform="translate(-562.095 -201.584)" fill="#56bcb4"/>
            </g>
          </g>
          <g id="Group_288" data-name="Group 288" transform="translate(6.174 0.619)">
            <g id="Group_287" data-name="Group 287">
              <path id="Path_2453" data-name="Path 2453" d="M574.55,204.235l-10.6-2.651,5.3,6.891S569.779,206.531,574.55,204.235Z" transform="translate(-563.948 -201.584)" fill="#5ebfbb"/>
            </g>
          </g>
          <g id="Group_290" data-name="Group 290" transform="translate(6.174)">
            <g id="Group_289" data-name="Group 289">
              <path id="Path_2454" data-name="Path 2454" d="M576.935,200.657l-12.987.619,10.6,2.651A3.19,3.19,0,0,1,576.935,200.657Z" transform="translate(-563.948 -200.657)" fill="#63c1be"/>
            </g>
          </g>
        </g>
      </g>
      <g id="Group_294" data-name="Group 294" transform="translate(6.124 9.387)">
        <g id="Group_293" data-name="Group 293">
          <path id="Path_2455" data-name="Path 2455" d="M575.932,259.116c-1.7-.053-7.244-.379-7.244-2.348,0-1.814,3.93-2.38,5.372-2.527l.427-4.45c-1.437-.287-6.312-1.52-8.943-5.429-1.69-2.513-2.1-5.625-1.217-9.251,3.02-12.4,3.378-17.552,1.372-19.667l-.684-.721h21.862l-.684.721c-2.007,2.115-1.648,7.262,1.373,19.667.882,3.625.473,6.738-1.218,9.251-2.631,3.909-7.507,5.142-8.943,5.429l.427,4.45c1.442.147,5.37.713,5.37,2.527,0,1.969-5.544,2.294-7.243,2.348h-.027Zm-9.062-43.538c1.643,2.669,1.142,8-1.715,19.736-.823,3.38-.455,6.263,1.094,8.568,2.828,4.207,8.7,5.129,8.763,5.137l.4.06-.571,5.953-.357.029c-2.073.165-4.943.851-4.943,1.708,0,.761,3.372,1.4,6.4,1.494,3.031-.1,6.4-.733,6.4-1.494,0-.895-2.949-1.548-4.943-1.708l-.357-.029-.571-5.953.4-.06c.059-.008,5.926-.922,8.76-5.133,1.552-2.3,1.92-5.189,1.1-8.572-2.857-11.735-3.358-17.067-1.715-19.736Z" transform="translate(-563.873 -214.724)" fill="#f67b2b"/>
        </g>
      </g>
      <g id="Group_319" data-name="Group 319" transform="translate(19.794 1.385)">
        <g id="Group_296" data-name="Group 296">
          <g id="Group_295" data-name="Group 295">
            <path id="Path_2456" data-name="Path 2456" d="M584.359,210.322a7.59,7.59,0,1,0,7.59-7.59A7.591,7.591,0,0,0,584.359,210.322Z" transform="translate(-584.359 -202.732)" fill="#f05a13"/>
          </g>
        </g>
        <g id="Group_298" data-name="Group 298" transform="translate(1.124 1.124)">
          <g id="Group_297" data-name="Group 297">
            <path id="Path_2457" data-name="Path 2457" d="M586.044,210.882a6.465,6.465,0,1,0,6.466-6.466A6.466,6.466,0,0,0,586.044,210.882Z" transform="translate(-586.044 -204.416)" fill="#fff"/>
          </g>
        </g>
        <g id="Group_300" data-name="Group 300" transform="translate(5.966 8.548)">
          <g id="Group_299" data-name="Group 299">
            <path id="Path_2458" data-name="Path 2458" d="M596.489,220.079l-1.456-4.368c-.075-.226-.2-.226-.274,0l-1.456,4.368c-.075.226.9.41,1.552.41C595.476,220.489,596.563,220.3,596.489,220.079Z" transform="translate(-593.299 -215.541)" fill="#f67b2b"/>
          </g>
        </g>
        <g id="Group_302" data-name="Group 302" transform="translate(3.011 8.343)">
          <g id="Group_301" data-name="Group 301">
            <path id="Path_2459" data-name="Path 2459" d="M591.483,219.855l1.389-4.391c.072-.226-.028-.3-.222-.159l-3.746,2.678c-.193.138.485.858,1.015,1.245C590.423,219.592,591.41,220.082,591.483,219.855Z" transform="translate(-588.871 -215.234)" fill="#f67b2b"/>
          </g>
        </g>
        <g id="Group_304" data-name="Group 304" transform="translate(1.722 7.759)">
          <g id="Group_303" data-name="Group 303">
            <path id="Path_2460" data-name="Path 2460" d="M588.053,217.389l3.7-2.735c.191-.141.154-.258-.085-.26l-4.6-.035c-.238,0-.113.979.09,1.6C587.349,216.552,587.862,217.53,588.053,217.389Z" transform="translate(-586.939 -214.359)" fill="#f67b2b"/>
          </g>
        </g>
        <g id="Group_306" data-name="Group 306" transform="translate(1.741 4.346)">
          <g id="Group_305" data-name="Group 305">
            <path id="Path_2461" data-name="Path 2461" d="M587.087,212.29l4.6-.035c.238,0,.276-.119.085-.26l-3.7-2.735c-.191-.142-.667.725-.87,1.35C587.01,211.2,586.849,212.291,587.087,212.29Z" transform="translate(-586.968 -209.245)" fill="#f67b2b"/>
          </g>
        </g>
        <g id="Group_308" data-name="Group 308" transform="translate(3.037 2.132)">
          <g id="Group_307" data-name="Group 307">
            <path id="Path_2462" data-name="Path 2462" d="M588.941,207.864l3.746,2.678c.194.139.292.067.221-.161l-1.39-4.39c-.071-.227-.966.195-1.5.581C589.519,206.937,588.747,207.726,588.941,207.864Z" transform="translate(-588.91 -205.927)" fill="#f67b2b"/>
          </g>
        </g>
        <g id="Group_310" data-name="Group 310" transform="translate(5.993 1.68)">
          <g id="Group_309" data-name="Group 309">
            <path id="Path_2463" data-name="Path 2463" d="M593.344,205.661l1.457,4.368c.075.225.2.225.272,0l1.457-4.367c.075-.226-.9-.411-1.553-.411C594.357,205.25,593.269,205.435,593.344,205.661Z" transform="translate(-593.341 -205.25)" fill="#f67b2b"/>
          </g>
        </g>
        <g id="Group_312" data-name="Group 312" transform="translate(8.117 2.155)">
          <g id="Group_311" data-name="Group 311">
            <path id="Path_2464" data-name="Path 2464" d="M597.936,206.019l-1.389,4.39c-.071.227.027.3.221.161l3.746-2.679c.193-.139-.483-.858-1.014-1.245C599,206.282,598.008,205.792,597.936,206.019Z" transform="translate(-596.523 -205.961)" fill="#f67b2b"/>
          </g>
        </g>
        <g id="Group_314" data-name="Group 314" transform="translate(8.49 4.374)">
          <g id="Group_313" data-name="Group 313">
            <path id="Path_2465" data-name="Path 2465" d="M600.908,209.3l-3.7,2.735c-.192.141-.154.258.084.26l4.6.035c.238,0,.113-.979-.089-1.6C601.612,210.136,601.1,209.159,600.908,209.3Z" transform="translate(-597.082 -209.286)" fill="#f67b2b"/>
          </g>
        </g>
        <g id="Group_316" data-name="Group 316" transform="translate(8.481 7.785)">
          <g id="Group_315" data-name="Group 315">
            <path id="Path_2466" data-name="Path 2466" d="M601.88,214.4l-4.6.035c-.238,0-.276.118-.085.26l3.7,2.734c.192.141.667-.725.87-1.35C601.956,215.488,602.118,214.4,601.88,214.4Z" transform="translate(-597.069 -214.398)" fill="#f67b2b"/>
          </g>
        </g>
        <g id="Group_318" data-name="Group 318" transform="translate(8.095 8.359)">
          <g id="Group_317" data-name="Group 317">
            <path id="Path_2467" data-name="Path 2467" d="M600.48,218.006l-3.746-2.678c-.193-.138-.293-.066-.222.161l1.39,4.39c.071.226.966-.195,1.5-.581C599.9,218.934,600.673,218.145,600.48,218.006Z" transform="translate(-596.489 -215.258)" fill="#f67b2b"/>
          </g>
        </g>
      </g>
    </g>
    <g id="Group_322" data-name="Group 322" transform="translate(572.217 223.163)">
      <g id="Group_321" data-name="Group 321">
        <path id="Path_2468" data-name="Path 2468" d="M580.952,235.8a1.419,1.419,0,1,1,1.419,1.418A1.421,1.421,0,0,1,580.952,235.8Zm.427,0a.992.992,0,1,0,.992-.992A.993.993,0,0,0,581.379,235.8Z" transform="translate(-580.952 -234.384)" fill="#25ad97"/>
      </g>
    </g>
    <g id="Group_324" data-name="Group 324" transform="translate(572.755 217.147)">
      <g id="Group_323" data-name="Group 323" transform="translate(0)">
        <path id="Path_2469" data-name="Path 2469" d="M581.759,226.207a.839.839,0,1,1,.839.839A.84.84,0,0,1,581.759,226.207Zm.426,0a.412.412,0,1,0,.412-.412A.413.413,0,0,0,582.185,226.207Z" transform="translate(-581.759 -225.369)" fill="#25ad97"/>
      </g>
    </g>
    <g id="Group_326" data-name="Group 326" transform="translate(573.145 232.453)">
      <g id="Group_325" data-name="Group 325" transform="translate(0)">
        <path id="Path_2470" data-name="Path 2470" d="M582.343,249.872a1.566,1.566,0,1,1,1.566,1.565A1.568,1.568,0,0,1,582.343,249.872Zm.427,0a1.139,1.139,0,1,0,1.139-1.139A1.14,1.14,0,0,0,582.77,249.872Z" transform="translate(-582.343 -248.306)" fill="#25ad97"/>
      </g>
    </g>
    <g id="Group_328" data-name="Group 328" transform="translate(568.459 227.497)">
      <g id="Group_327" data-name="Group 327" transform="translate(0)">
        <path id="Path_2471" data-name="Path 2471" d="M575.32,243.009a2.13,2.13,0,1,1,2.13,2.13A2.133,2.133,0,0,1,575.32,243.009Zm.427,0a1.7,1.7,0,1,0,1.7-1.7A1.706,1.706,0,0,0,575.747,243.009Z" transform="translate(-575.32 -240.879)" fill="#25ad97"/>
      </g>
    </g>
    <g id="Group_330" data-name="Group 330" transform="translate(571.016 238.601)">
      <g id="Group_329" data-name="Group 329">
        <path id="Path_2472" data-name="Path 2472" d="M579.152,258.479a.96.96,0,1,1,.96.96A.962.962,0,0,1,579.152,258.479Zm.426,0a.534.534,0,1,0,.534-.534A.535.535,0,0,0,579.578,258.479Z" transform="translate(-579.152 -257.518)" fill="#25ad97"/>
      </g>
    </g>
    <g id="Group_332" data-name="Group 332" transform="translate(567.966 233.313)">
      <g id="Group_331" data-name="Group 331">
        <path id="Path_2473" data-name="Path 2473" d="M574.582,250.3a.706.706,0,1,1,.706.706A.706.706,0,0,1,574.582,250.3Zm.427,0a.279.279,0,1,0,.28-.28A.28.28,0,0,0,575.009,250.3Z" transform="translate(-574.582 -249.594)" fill="#25ad97"/>
      </g>
    </g>
    <g id="Group_334" data-name="Group 334" transform="translate(568.535 221.214)">
      <g id="Group_333" data-name="Group 333" transform="translate(0)">
        <path id="Path_2474" data-name="Path 2474" d="M575.435,232.17a.706.706,0,1,1,.707.707A.708.708,0,0,1,575.435,232.17Zm.428,0a.279.279,0,1,0,.279-.28A.28.28,0,0,0,575.863,232.17Z" transform="translate(-575.435 -231.463)" fill="#25ad97"/>
      </g>
    </g>
    <g id="Group_336" data-name="Group 336" transform="translate(576.567 227.387)">
      <g id="Group_335" data-name="Group 335" transform="translate(0)">
        <path id="Path_2475" data-name="Path 2475" d="M587.471,241.673a.96.96,0,1,1,.96.96A.961.961,0,0,1,587.471,241.673Zm.426,0a.534.534,0,1,0,.534-.534A.535.535,0,0,0,587.9,241.673Z" transform="translate(-587.471 -240.713)" fill="#25ad97"/>
      </g>
    </g>
  </g>
</svg>
