<svg xmlns="http://www.w3.org/2000/svg" width="44.94" height="44.94" viewBox="0 0 44.94 44.94">
  <g id="Minerals" transform="translate(-685.603 -212.359)">
    <path id="Path_2476" data-name="Path 2476" d="M696.421,241.815l9.116,10.859-9,6.668-9.791-7.833Z" transform="translate(-0.285 -7.377)" fill="#4c61aa"/>
    <path id="Path_2477" data-name="Path 2477" d="M686.11,250.926a1.294,1.294,0,0,1-.507-1.013v-7.9a1.316,1.316,0,0,1,1.317-1.316h7.9a1.3,1.3,0,0,1,1,.48l.321.358v8.378a1.316,1.316,0,0,1-1.316,1.316h-8.363Z" transform="translate(0 -7.097)" fill="#818cc5"/>
    <path id="Path_2478" data-name="Path 2478" d="M728.431,241.815l-9.2,10.859,9.092,6.668,9.791-7.833Z" transform="translate(-8.42 -7.377)" fill="#424d9c"/>
    <path id="Path_2479" data-name="Path 2479" d="M741.532,250.926a1.294,1.294,0,0,0,.506-1.013v-7.9a1.315,1.315,0,0,0-1.316-1.316h-7.9a1.3,1.3,0,0,0-1,.48l-.321.358v8.378a1.316,1.316,0,0,0,1.316,1.316h8.362Z" transform="translate(-11.496 -7.097)" fill="#4c61aa"/>
    <path id="Path_2480" data-name="Path 2480" d="M721.731,224.76l-4.4,24.479h-9.708l-4.4-24.479a1.286,1.286,0,0,1,.027-.633H721.7A1.277,1.277,0,0,1,721.731,224.76Z" transform="translate(-4.407 -2.947)" fill="#818cc5"/>
    <path id="Path_2481" data-name="Path 2481" d="M720.434,249.239H715.58V224.127H724.8a1.277,1.277,0,0,1,.026.633Z" transform="translate(-7.507 -2.947)" fill="#4c61aa"/>
    <path id="Path_2482" data-name="Path 2482" d="M726.931,266.334H692.84a7.916,7.916,0,0,1,7.136-6.293,11.907,11.907,0,0,1,19.819.026,7.9,7.9,0,0,1,7.136,6.267Z" transform="translate(-1.812 -10.616)" fill="#ffaf00"/>
    <path id="Path_2485" data-name="Path 2485" d="M732.626,266.334H715.58V254.748a11.992,11.992,0,0,1,9.91,5.319,7.9,7.9,0,0,1,7.136,6.267Z" transform="translate(-7.507 -10.616)" fill="#f77b0c"/>
    <path id="Path_2486" data-name="Path 2486" d="M721.723,221.18l-8.3,9.217a1.121,1.121,0,0,1-1.843,0l-8.3-9.217a1.227,1.227,0,0,1,.316-.526l7.987-7.9a1.273,1.273,0,0,1,1.843,0l7.987,7.9A1.235,1.235,0,0,1,721.723,221.18Z" transform="translate(-4.425)" fill="#a7a6d3"/>
    <path id="Path_2487" data-name="Path 2487" d="M716.5,230.4a1.332,1.332,0,0,1-.922.483v-18.52a1.236,1.236,0,0,1,.922.4l7.987,7.9a1.234,1.234,0,0,1,.316.526Z" transform="translate(-7.507)" fill="#818cc5"/>
    <path id="Path_2488" data-name="Path 2488" d="M728.789,270.117a1.3,1.3,0,0,1-1.316,1.316h-37.04a1.317,1.317,0,1,1,0-2.633h37.04A1.3,1.3,0,0,1,728.789,270.117Z" transform="translate(-0.88 -14.135)" fill="#ffcf14"/>
    <path id="Path_2489" data-name="Path 2489" d="M735.417,270.117a1.3,1.3,0,0,1-1.316,1.316H715.58V268.8H734.1A1.3,1.3,0,0,1,735.417,270.117Z" transform="translate(-7.507 -14.135)" fill="#ffaf00"/>
  </g>
</svg>
