<svg xmlns="http://www.w3.org/2000/svg" width="31.177" height="45.494" viewBox="0 0 31.177 45.494">
  <g id="Chemicals" transform="translate(-693.644 -375.174)">
    <g id="Group_341" data-name="Group 341" transform="translate(717.331 388.109)">
      <g id="Group_340" data-name="Group 340" transform="translate(0 0)">
        <rect id="Rectangle_1595" data-name="Rectangle 1595" width="7.49" height="2.14" fill="#ae7b5b"/>
      </g>
      <rect id="Rectangle_1596" data-name="Rectangle 1596" width="4.815" height="2.14" transform="translate(0 0)" fill="#c18c64"/>
      <path id="Path_2490" data-name="Path 2490" d="M734.1,396.549h-5.35v19.795a2.675,2.675,0,1,0,5.35,0Zm0,0" transform="translate(-727.678 -394.409)" fill="#acaaab"/>
      <path id="Path_2491" data-name="Path 2491" d="M730.62,418.883a2.666,2.666,0,0,0,1.872-2.539V396.549h-3.745v19.795a2.668,2.668,0,0,0,1.872,2.539Zm0,0" transform="translate(-727.678 -394.409)" fill="#d0cecf"/>
      <path id="Path_2492" data-name="Path 2492" d="M731.423,422.149a2.675,2.675,0,0,0,2.675-2.675V407.169h-5.35v12.305a2.675,2.675,0,0,0,2.675,2.675Zm0,0" transform="translate(-727.678 -397.539)" fill="#c95456"/>
      <path id="Path_2493" data-name="Path 2493" d="M730.62,422.013a2.666,2.666,0,0,0,1.872-2.539V407.169h-3.745v12.305a2.668,2.668,0,0,0,1.872,2.539Zm0,0" transform="translate(-727.678 -397.539)" fill="#e55f61"/>
      <rect id="Rectangle_1597" data-name="Rectangle 1597" width="1.07" height="1.07" transform="translate(2.675 21.399)" fill="#c95456"/>
      <rect id="Rectangle_1598" data-name="Rectangle 1598" width="1.07" height="1.07" transform="translate(3.745 19.259)" fill="#c95456"/>
      <rect id="Rectangle_1599" data-name="Rectangle 1599" width="1.07" height="1.07" transform="translate(2.675 17.119)" fill="#c95456"/>
      <rect id="Rectangle_1600" data-name="Rectangle 1600" width="1.07" height="1.07" transform="translate(3.745 14.98)" fill="#c95456"/>
      <rect id="Rectangle_1601" data-name="Rectangle 1601" width="1.07" height="1.07" transform="translate(2.675 12.84)" fill="#c95456"/>
    </g>
    <path id="Path_2494" data-name="Path 2494" d="M711.256,388.813h-1.528V377.467a2.3,2.3,0,0,1,2.293-2.293h12.588a2.3,2.3,0,0,1,2.293,2.293v11.11h-1.529v-11.11a.765.765,0,0,0-.764-.764H712.021a.766.766,0,0,0-.765.764Zm0,0" transform="translate(-4.741 0)" fill="#e55f61"/>
    <g id="Group_342" data-name="Group 342" transform="translate(693.644 388.566)">
      <path id="Path_2495" data-name="Path 2495" d="M708.807,397.221v-3.057h4.586v3.057" transform="translate(-698.113 -394.163)" fill="#ae7b5b"/>
      <path id="Path_2496" data-name="Path 2496" d="M716.566,427.543a3.057,3.057,0,0,0,3.057-3.057v-.749a3.069,3.069,0,0,0-.372-1.464l-8.8-16.131V398.5h-7.636v7.643l-8.8,16.131a3.072,3.072,0,0,0-.373,1.464v.749a3.057,3.057,0,0,0,3.057,3.057Zm0,0" transform="translate(-693.644 -395.441)" fill="#acaaab"/>
      <path id="Path_2497" data-name="Path 2497" d="M717.331,424.485v-.749a3.062,3.062,0,0,0-.373-1.464l-8.8-16.131V398.5h-5.344v7.643l-8.8,16.131a3.072,3.072,0,0,0-.373,1.464v.749a3.057,3.057,0,0,0,3.057,3.057h17.572a3.057,3.057,0,0,0,3.057-3.057Zm0,0" transform="translate(-693.644 -395.441)" fill="#bfbfbf"/>
      <path id="Path_2498" data-name="Path 2498" d="M719.624,430.236v-.749a3.069,3.069,0,0,0-.372-1.464l-5.464-10.016h-1.173a1.529,1.529,0,0,0-1.081.449l-.633.633a1.53,1.53,0,0,1-1.081.448h-.262a1.531,1.531,0,0,1-1.081-.448l-.633-.633a1.532,1.532,0,0,0-1.082-.449H706.5a1.529,1.529,0,0,0-1.081.449l-.633.633a1.534,1.534,0,0,1-1.082.448h-.262a1.53,1.53,0,0,1-1.081-.448l-.633-.633a1.532,1.532,0,0,0-1.082-.449h-1.167l-5.463,10.016a3.072,3.072,0,0,0-.373,1.464v.749a3.057,3.057,0,0,0,3.057,3.057h19.865a3.057,3.057,0,0,0,3.057-3.057Zm0,0" transform="translate(-693.644 -401.191)" fill="#55d1e4"/>
      <path id="Path_2499" data-name="Path 2499" d="M709.7,430.373a1.529,1.529,0,1,1-1.528-1.529,1.528,1.528,0,0,1,1.528,1.529Zm0,0" transform="translate(-697.474 -404.386)" fill="#fff"/>
      <path id="Path_2500" data-name="Path 2500" d="M717.283,426.038a1.529,1.529,0,1,1-1.529-1.529,1.529,1.529,0,0,1,1.529,1.529Zm0,0" transform="translate(-699.711 -403.108)" fill="#fff"/>
      <path id="Path_2501" data-name="Path 2501" d="M701.026,432.54a1.529,1.529,0,1,1-1.529-1.528,1.529,1.529,0,0,1,1.529,1.528Zm0,0" transform="translate(-694.919 -405.025)" fill="#fff"/>
      <rect id="Rectangle_1602" data-name="Rectangle 1602" width="12.229" height="1.529" transform="translate(6.872 5.35)" fill="#ae7b5b"/>
      <rect id="Rectangle_1603" data-name="Rectangle 1603" width="7.643" height="1.529" transform="translate(6.872 5.35)" fill="#c18c64"/>
      <rect id="Rectangle_1604" data-name="Rectangle 1604" width="1.529" height="1.529" transform="translate(16.808 28.28)" fill="#fff"/>
      <rect id="Rectangle_1605" data-name="Rectangle 1605" width="1.529" height="1.529" transform="translate(15.279 26.752)" fill="#fff"/>
      <rect id="Rectangle_1606" data-name="Rectangle 1606" width="1.529" height="1.529" transform="translate(13.751 28.28)" fill="#fff"/>
      <rect id="Rectangle_1607" data-name="Rectangle 1607" width="1.529" height="1.529" transform="translate(7.636 21.401)" fill="#fff"/>
      <path id="Path_2502" data-name="Path 2502" d="M708.27,397.221v-3.057h3.057v3.057" transform="translate(-697.955 -394.163)" fill="#c18c64"/>
    </g>
  </g>
</svg>
