<svg id="Leather" xmlns="http://www.w3.org/2000/svg" width="45.034" height="44.275" viewBox="0 0 45.034 44.275">
  <path id="Path_2503" data-name="Path 2503" d="M316.211,415.905c-2.806-18-6.775-20.254-6.775-20.254-1.917-.889-5.817,4.517-5.817,4.517-.836,1.189-3.363.929-4.587.874-2.467-.109-4.741-.685-7.219-.282a20.147,20.147,0,0,1-5.64.228,2.906,2.906,0,0,1-1.987-.82s-3.9-5.406-5.817-4.517c0,0-3.969,2.259-6.775,20.254,0,0-2.257,9.1,8.075,9.375h28.467C318.469,425.006,316.211,415.905,316.211,415.905Z" transform="translate(-271.386 -381.006)" fill="#8a6b47"/>
  <g id="Group_344" data-name="Group 344" transform="translate(6.936)">
    <path id="Path_2504" data-name="Path 2504" d="M284.155,381.258c-.1.542-.23,2.643.556,2.776.64.108,1.771-1.083,2.079-1.578a25.47,25.47,0,0,0,1.437-3.563c1.2-2.839,4.47-6.922,7.6-7.768a11.412,11.412,0,0,1,3.832-.41V369c0-.325-4.022.578-4.279.668-4.209,1.484-7.2,5.2-9.677,8.751A8.159,8.159,0,0,0,284.155,381.258Z" transform="translate(-284.078 -368.934)" fill="#c38847"/>
    <path id="Path_2505" data-name="Path 2505" d="M328.095,381.258c.1.542.228,2.643-.557,2.776-.639.108-1.771-1.083-2.079-1.578a25.485,25.485,0,0,1-1.437-3.563c-1.2-2.839-4.47-6.922-7.6-7.768a11.414,11.414,0,0,0-3.832-.41V369c0-.325,4.022.578,4.279.668,4.208,1.484,7.2,5.2,9.678,8.751A8.194,8.194,0,0,1,328.095,381.258Z" transform="translate(-297.009 -368.934)" fill="#c38847"/>
  </g>
  <path id="Path_2506" data-name="Path 2506" d="M296.737,404.991a12.945,12.945,0,0,0,5.244.137s4.1-.757,6.738-.05c0,0,4.4.513,5.328-.023,0,0-2.465,10.883-7.119,12.16h-3.763S297.95,414.207,296.737,404.991Z" transform="translate(-282.883 -385.189)" fill="#583011"/>
  <path id="Path_2507" data-name="Path 2507" d="M305.205,422.292a12.984,12.984,0,0,0-4.312-3.526s-4.714,4.042,0,10.4a12.765,12.765,0,0,0,4.67-3.614Z" transform="translate(-283.818 -391.534)" fill="#cdaa78"/>
  <path id="Path_2508" data-name="Path 2508" d="M314.331,422.292a12.993,12.993,0,0,1,4.312-3.526s4.715,4.042,0,10.4a12.765,12.765,0,0,1-4.67-3.614Z" transform="translate(-290.7 -391.534)" fill="#cdaa78"/>
  <path id="Path_2509" data-name="Path 2509" d="M314.628,422.815a10.262,10.262,0,0,1,6.736-2.537,15.25,15.25,0,0,1,.876,5.187l-.493,3.547s-6.333-1.3-7.119-2.717Z" transform="translate(-290.997 -392.214)" fill="#fff8f2"/>
  <path id="Path_2510" data-name="Path 2510" d="M321.289,424.707s-3.714-.065-5.51,1.44c0,0-.338.268,0,.83,0,0,.394.561.471-.326,0,0,.121-1.044,2.267-1.358C318.517,425.293,323.2,424.577,321.289,424.707Z" transform="translate(-291.451 -394.221)" fill="#583011"/>
  <path id="Path_2511" data-name="Path 2511" d="M310.335,424.867a4.985,4.985,0,0,1,2.369,0v3.4a3.22,3.22,0,0,1-2.369,0Z" transform="translate(-289.05 -394.235)" fill="#cdaa78"/>
  <path id="Path_2512" data-name="Path 2512" d="M304.181,422.815a10.262,10.262,0,0,0-6.737-2.537,15.263,15.263,0,0,0-.876,5.187l.494,3.547s6.331-1.3,7.118-2.717Z" transform="translate(-282.793 -392.214)" fill="#fff8f2"/>
  <path id="Path_2513" data-name="Path 2513" d="M298.785,424.707s3.713-.065,5.509,1.44c0,0,.337.268,0,.83,0,0-.395.561-.471-.326,0,0-.12-1.044-2.267-1.358C301.557,425.293,296.873,424.577,298.785,424.707Z" transform="translate(-283.604 -394.221)" fill="#583011"/>
</svg>
