<svg xmlns="http://www.w3.org/2000/svg" width="52.22" height="28.765" viewBox="0 0 52.22 28.765">
  <g id="Wood_Icon" data-name="Wood Icon" transform="translate(0)">
    <path id="Path_2539" data-name="Path 2539" d="M984.376,250.405c0,4.2-2.944,7.6-6.576,7.6H955.609V242.81H977.8c3.632,0,6.576,3.4,6.576,7.6Zm0,0" transform="translate(-949.032 -229.237)" fill="#7a3716"/>
    <path id="Path_2540" data-name="Path 2540" d="M958.51,250.405c0,4.2-2.944,7.6-6.577,7.6s-6.577-3.4-6.577-7.6,2.944-7.6,6.577-7.6,6.577,3.4,6.577,7.6Zm0,0" transform="translate(-945.356 -229.237)" fill="#ffe2c4"/>
    <path id="Path_2541" data-name="Path 2541" d="M997.43,229.245c0,4.2-2.944,7.6-6.576,7.6h-22.19V221.65h22.19c3.633,0,6.576,3.4,6.576,7.6Zm0,0" transform="translate(-953.713 -221.65)" fill="#924119"/>
    <path id="Path_2542" data-name="Path 2542" d="M1010.685,250.405c0,4.2-2.944,7.6-6.577,7.6h-22.19V242.81h22.19c3.633,0,6.577,3.4,6.577,7.6Zm0,0" transform="translate(-958.465 -229.237)" fill="#b3521b"/>
    <path id="Path_2543" data-name="Path 2543" d="M987.718,230.1a.765.765,0,0,0-.765-.765h-8.787a.765.765,0,1,0,0,1.53h8.787a.766.766,0,0,0,.765-.765Zm0,0" transform="translate(-956.845 -224.407)" fill="#7a3716"/>
    <path id="Path_2544" data-name="Path 2544" d="M1005.211,236.814a8.135,8.135,0,0,1-.55,1.529h-12.8a.765.765,0,0,1,0-1.529Zm0,0" transform="translate(-961.757 -227.087)" fill="#7a3716"/>
    <path id="Path_2545" data-name="Path 2545" d="M999.263,230.869h2.983a.765.765,0,1,0,0-1.53h-2.983a.765.765,0,0,0,0,1.53Zm0,0" transform="translate(-964.41 -224.407)" fill="#7a3716"/>
    <path id="Path_2546" data-name="Path 2546" d="M1007.178,250.091a.765.765,0,0,0-.765-.765H991.1a.765.765,0,0,0,0,1.529h15.312a.765.765,0,0,0,.765-.765Zm0,0" transform="translate(-961.484 -231.573)" fill="#924119"/>
    <path id="Path_2547" data-name="Path 2547" d="M1019.936,258.437a8.134,8.134,0,0,1-.62,1.53h-9.874a.765.765,0,0,1,0-1.53Zm0,0" transform="translate(-968.06 -234.84)" fill="#924119"/>
    <path id="Path_2548" data-name="Path 2548" d="M999.543,258.437h-2.462a.765.765,0,0,0,0,1.529h2.462a.765.765,0,0,0,0-1.529Zm0,0" transform="translate(-963.628 -234.84)" fill="#924119"/>
    <path id="Path_2549" data-name="Path 2549" d="M971.564,229.246c0,4.2-2.944,7.595-6.576,7.595s-6.577-3.4-6.577-7.595,2.944-7.6,6.577-7.6,6.576,3.4,6.576,7.6Zm0,0" transform="translate(-950.037 -221.65)" fill="#ffe2c4"/>
    <path id="Path_2550" data-name="Path 2550" d="M984.818,250.405c0,4.2-2.944,7.6-6.577,7.6s-6.576-3.4-6.576-7.6,2.944-7.6,6.576-7.6,6.577,3.4,6.577,7.6Zm0,0" transform="translate(-954.789 -229.237)" fill="#ffe2c4"/>
    <path id="Path_2551" data-name="Path 2551" d="M953.143,246.894a4.725,4.725,0,0,0-4.411,4.976.765.765,0,0,0,1.53,0,2.928,2.928,0,1,1,2.881,3.447.765.765,0,1,0,0,1.529,5.012,5.012,0,0,0,0-9.951Zm0,0" transform="translate(-946.566 -230.701)" fill="#f0c19d"/>
    <path id="Path_2552" data-name="Path 2552" d="M970.618,230.7a4.466,4.466,0,1,0-4.433,5,.765.765,0,0,0,0-1.529,3.528,3.528,0,1,1,2.9-3.472.765.765,0,0,0,1.53,0Zm0,0" transform="translate(-951.234 -223.1)" fill="#f0c19d"/>
    <path id="Path_2553" data-name="Path 2553" d="M979.348,246.56a.765.765,0,0,0,0,1.53c1.692,0,3.067,1.642,3.067,3.66s-1.375,3.66-3.067,3.66-3.066-1.642-3.066-3.66a.765.765,0,0,0-1.53,0c0,2.862,2.062,5.189,4.6,5.189s4.6-2.328,4.6-5.189-2.062-5.19-4.6-5.19Zm0,0" transform="translate(-955.896 -230.581)" fill="#f0c19d"/>
  </g>
</svg>
