<svg xmlns="http://www.w3.org/2000/svg" width="24.77" height="20.975" viewBox="0 0 24.77 20.975">
  <g id="Notification" transform="translate(-330 -47.954)">
    <g id="Group_17753" data-name="Group 17753" transform="translate(336.47 47.954)">
      <path id="Path_10003" data-name="Path 10003" d="M611.9,134.466c2.829.939,4.65,2.78,5.069,5.686a31.811,31.811,0,0,1,.071,4.949c-.012.841.145,1.358,1.145,1.482a1.337,1.337,0,0,1,1.141,1.614,1.374,1.374,0,0,1-1.443,1.358q-7.72.029-15.441,0a1.508,1.508,0,0,1-.212-2.978c.953-.115,1.1-.62,1.1-1.422a36.974,36.974,0,0,1,.182-5.41,6.312,6.312,0,0,1,4.32-5.018c.447-.173.647-.347.653-.86a1.655,1.655,0,0,1,1.719-1.836c1.018.012,1.651.715,1.691,1.882C611.908,134.064,611.9,134.222,611.9,134.466Z" transform="translate(-601.041 -132.025)" fill="#fff"/>
      <path id="Path_10004" data-name="Path 10004" d="M635.265,228.251h5.212a2.511,2.511,0,0,1-2.526,2.618A2.56,2.56,0,0,1,635.265,228.251Z" transform="translate(-628.736 -209.895)" fill="#fff"/>
    </g>
    <circle id="Ellipse_365" data-name="Ellipse 365" cx="8" cy="8" r="8" transform="translate(330 51)" fill="#332725"/>
  </g>
</svg>
