<svg xmlns="http://www.w3.org/2000/svg" width="27.054" height="27.565" viewBox="0 0 27.054 27.565">
  <g id="Calendar_Icon" data-name="Calendar Icon" transform="translate(-289.872 -464.413)">
    <path id="Path_10019" data-name="Path 10019" d="M295.9,480.958a29.664,29.664,0,0,0-3.487.088,1.463,1.463,0,0,0-1.423,1.433,26.118,26.118,0,0,0-.015,4.827c.027.323-.077.655-.077.983q-.009,6.526,0,13.052a2.417,2.417,0,0,0,.44,1.7,2.444,2.444,0,0,0,2.056.624q6.7.006,13.409,0,3.352,0,6.7,0a3.131,3.131,0,0,0,1.6-.285,1.96,1.96,0,0,0,.807-1.861c.013-4.47.007-8.939.007-13.409,0-1.579,0-3.159,0-4.738-.007-1.838-.574-2.405-2.412-2.413-1.43-.005-2.861,0-4.291,0" transform="translate(0 -12.687)" fill="none" stroke="#009814" stroke-linecap="round" stroke-linejoin="round" stroke-width="2"/>
    <path id="Path_10020" data-name="Path 10020" d="M292.5,517.5h24.494" transform="translate(-1.337 -42.703)" fill="none" stroke="#009814" stroke-linecap="round" stroke-linejoin="round" stroke-width="2"/>
    <path id="Path_10021" data-name="Path 10021" d="M339.939,481H331" transform="translate(-32.954 -12.729)" fill="none" stroke="#009814" stroke-linecap="round" stroke-linejoin="round" stroke-width="2"/>
    <path id="Path_10022" data-name="Path 10022" d="M329.5,465.5v4.827" transform="translate(-31.722)" fill="none" stroke="#009814" stroke-linecap="round" stroke-linejoin="round" stroke-width="2"/>
    <path id="Path_10023" data-name="Path 10023" d="M392.076,465.5c-.152,1.666-.064,3.337-.089,5.006" transform="translate(-83.034)" fill="none" stroke="#009814" stroke-linecap="round" stroke-linejoin="round" stroke-width="2"/>
  </g>
</svg>
