<svg xmlns="http://www.w3.org/2000/svg" width="40" height="40.5" viewBox="0 0 40 40.5">
  <g id="Group_17836" data-name="Group 17836" transform="translate(117 -759.5)">
    <text id="Income" transform="translate(-97 797)" fill="#fff" font-size="12" font-family="SegoeUI, Segoe UI"><tspan x="-19.585" y="0">Income</tspan></text>
    <g id="Group_17813" data-name="Group 17813" transform="translate(-1432.781 36.58)">
      <g id="Group_17805" data-name="Group 17805" transform="translate(1336.366 726.745)">
        <path id="Path_10036" data-name="Path 10036" d="M1403.814,748.6h-6.591v-4.46c-.819.74-6.06,5.263-6.86,6.024" transform="translate(-1390.362 -744.136)" fill="none" stroke="#fff" stroke-linecap="round" stroke-linejoin="round" stroke-width="1"/>
        <path id="Path_10037" data-name="Path 10037" d="M1403.814,770.786h-6.591v4.46c-.819-.74-6.06-5.263-6.86-6.024" transform="translate(-1390.362 -763.199)" fill="none" stroke="#fff" stroke-linecap="round" stroke-linejoin="round" stroke-width="1"/>
      </g>
      <path id="Path_10038" data-name="Path 10038" d="M1340.837,736.14a9.907,9.907,0,0,1-9.17,5.791c-5.46,0-9.886-4.144-9.886-9.256s4.426-9.255,9.886-9.255a9.89,9.89,0,0,1,9.244,5.968" fill="none" stroke="#fff" stroke-linecap="round" stroke-linejoin="round" stroke-width="1"/>
      <g id="Group_17806" data-name="Group 17806" transform="translate(1329.347 725.941)">
        <path id="Path_10039" data-name="Path 10039" d="M1361.02,749.852c-.5-1.353-1.407-2.088-2.566-1.937a2.36,2.36,0,0,0-.929,4.509,23.6,23.6,0,0,1,2.586,1.208,2.242,2.242,0,0,1,1.1,2.175,2.211,2.211,0,0,1-1.832,1.967,2.788,2.788,0,0,1-3.479-1.562" transform="translate(-1355.901 -746.198)" fill="none" stroke="#fff" stroke-linecap="round" stroke-linejoin="round" stroke-width="1"/>
        <line id="Line_138" data-name="Line 138" y2="13.637" transform="translate(2.666 0)" fill="none" stroke="#fff" stroke-linecap="round" stroke-linejoin="round" stroke-width="1"/>
      </g>
    </g>
  </g>
</svg>
