<svg xmlns="http://www.w3.org/2000/svg" width="155" height="45" viewBox="0 0 155 45">
  <g id="Group_17854" data-name="Group 17854" transform="translate(-23 -203)">
    <text id="Full_Name" data-name="Full Name" transform="translate(74 231)" fill="#009814" font-size="16" font-family="SegoeUI-Semibold, Segoe UI" font-weight="600"><tspan x="0" y="0">mm/dd/yyyy</tspan></text>
    <g id="Group_17817" data-name="Group 17817" transform="translate(-1095.065 -438.197)">
      <path id="Path_10040" data-name="Path 10040" d="M1140.969,682.408c-.008,1.739.636,2.361,1.62,2.692a3.866,3.866,0,0,0,1.2.124c4.26.008,8.521,0,12.781.009,1.739,0,2.361-.636,2.692-1.621a3.886,3.886,0,0,0,.124-1.2c.009-2.936.079-10.877-.025-11.921a2.3,2.3,0,0,0-2.1-2.016q-7.082.012-14.163,0a2.2,2.2,0,0,0-2.079,2.019C1141.024,670.969,1140.982,679.472,1140.969,682.408Z" transform="translate(0 -12.806)" fill="none" stroke="#009814" stroke-linecap="round" stroke-linejoin="round" stroke-width="1.5"/>
      <path id="Path_10041" data-name="Path 10041" d="M1159.934,706h-18.168" transform="translate(-0.706 -46.012)" fill="none" stroke="#009814" stroke-linecap="round" stroke-linejoin="round" stroke-width="1.5"/>
      <path id="Path_10042" data-name="Path 10042" d="M1179,654v2.764" transform="translate(-33.652)" fill="none" stroke="#009814" stroke-linecap="round" stroke-linejoin="round" stroke-width="1.5"/>
      <path id="Path_10043" data-name="Path 10043" d="M1263,654v2.764" transform="translate(-107.98)" fill="none" stroke="#009814" stroke-linecap="round" stroke-linejoin="round" stroke-width="1.5"/>
    </g>
    <g id="Rectangle_1806" data-name="Rectangle 1806" transform="translate(23 203)" fill="none" stroke="#009814" stroke-width="2">
      <rect width="155" height="45" rx="22" stroke="none"/>
      <rect x="1" y="1" width="153" height="43" rx="21" fill="none"/>
    </g>
  </g>
</svg>
