<svg xmlns="http://www.w3.org/2000/svg" width="220.756" height="204.545" viewBox="0 0 220.756 204.545">
  <g id="OTP_Icon" data-name="OTP Icon" transform="translate(-43.463 -88.882)">
    <g id="Group_225" data-name="Group 225" transform="translate(43.463 88.882)">
      <path id="Path_57" data-name="Path 57" d="M424.75,486.841l5.1-2.319a1.349,1.349,0,0,1,1.855,0h0A16.441,16.441,0,0,1,424.75,486.841Z" transform="translate(-232.709 -317.634)" fill="#fdfbfa"/>
      <path id="Path_58" data-name="Path 58" d="M416.391,489.25h2.319a6.988,6.988,0,0,1-3.711.927A1.4,1.4,0,0,1,416.391,489.25Z" transform="translate(-228.989 -319.58)" fill="#fdfbfa"/>
      <path id="Path_62" data-name="Path 62" d="M169.46,473.5c1.322.54.2,1.568.464,2.319l-.934-1.386A.964.964,0,0,0,169.46,473.5Z" transform="translate(-135.117 -313.57)" fill="#f9efec"/>
      <path id="Path_65" data-name="Path 65" d="M187.744,506.5c1.087.461.925,1.424.931,2.32A4.663,4.663,0,0,1,187.744,506.5Z" transform="translate(-142.273 -326.163)" fill="#f8f0ed"/>
      <path id="Path_121" data-name="Path 121" d="M229.145,494.06a.6.6,0,0,1-.633.538c-.2.012-.522-.079-.584-.216-.163-.362.117-.54.441-.583C228.656,493.761,228.97,493.727,229.145,494.06Z" transform="translate(-157.588 -321.306)" fill="#f8f0ed"/>
      <path id="Path_126" data-name="Path 126" d="M434.855,483.947H433c.074-.764.367-1.4,1.246-1.288C434.983,482.749,434.8,483.441,434.855,483.947Z" transform="translate(-235.857 -317.06)" fill="#fcf8f7"/>
      <path id="Path_12" data-name="Path 12" d="M364.44,396.882c-2.847.311-5.621-.537-8.466-.5a48.26,48.26,0,0,0-12.008,1.5,3.027,3.027,0,0,1-2.218-.069c-.9-.863-.7-2-.652-3.039a8.953,8.953,0,0,0-1.409-5.688c-.146-.581-.043-1.105.6-1.246.978-.214,1.419.536,1.843,1.223-.267-.729-.912-1.109-1.455-1.587a.908.908,0,0,1,.1-.618c2.655-2.737,4.411-5.831,3.955-9.826a2.282,2.282,0,0,1,.746-1.639,4.428,4.428,0,0,0,.967-2.783,3.315,3.315,0,0,1,.635-2.408c2.488-2.349,1.267-5.811,2.664-8.5.524-1.008-.519-1.348-1.375-1.657-1.258-.456-2.461-1.067-1.917-2.81,3.032-5.09,6.369-9.985,8.944-15.36a131.956,131.956,0,0,0,9.382-27.741c.46-2,.135-3.287-1.971-3.85a1.919,1.919,0,0,1-1.239-.977c1.725-2.211,3.479-2.178,5.125.1.178.253.239-.3.062-.044-.035.051-.088.006-.179-.122a2.652,2.652,0,0,1-.769-2.312,10.166,10.166,0,0,0,.38-5.579c-.333-1.287,1.269-3.042,1.728-4.7.056-.2.294-.35.43-.539l2.753-10.25c.5-2.382,1.1-4.723,2.874-6.539.211-.216.631-.4.526-.685-.887-2.4.754-4.474.892-6.773.181-3.022,1-6.356,2.775-8.582,1.361-1.709,1.381-3.091,1.479-4.805a3.722,3.722,0,0,1,.534-1.988c2.218-3.2,1.246-6.524.363-9.827-.187-.7-.464-1.314.137-1.916,3.508,4.139,4.619,9.25,6.211,14.268,1.855,5.842,1.282,11.793,1.441,17.622.148,5.411-.257,10.923-.171,16.38.094,5.954.478,11.926,2.62,17.61a6.17,6.17,0,0,1,.1,1.839,1.427,1.427,0,0,1,.085,1.732,6.347,6.347,0,0,0-.747,4.472,2.227,2.227,0,0,1-.592,1.922,1.65,1.65,0,0,0-.519,1.453c.471,2.876.2,3.235-2.751,3.915,1.865,1.308,1.1,3.351,1.447,5.076.1.5-.451.81-.9.92-1.683.413-2.469,1.148-1.34,2.9a1.557,1.557,0,0,1-.182,1.962c-1.706,1.4-1.923,3.29-2.142,5.271a6.994,6.994,0,0,1-1.814,3.883c-1.839,2.1-.977,4.816-1.28,7.221-.237,1.888-1.735,3.732-.559,5.776a.69.69,0,0,1-.284.827c-2.89,1.492-1.676,4.915-3.3,7.047-.483.632.343,1.734.476,2.653.3,2.116-1.623,3.7-1.22,5.829.091.483-.689.839-1.244.821-1.534-.051-1.928.886-1.71,2.1a7.758,7.758,0,0,1-1.308,5.941,2.3,2.3,0,0,0-.471,1.052c-.2,3.281-1.779,6.195-2.437,9.347C367.559,397.081,367.276,397.307,364.44,396.882Z" transform="translate(-200.229 -226.283)" fill="#fbf7f4"/>
      <path id="Path_13" data-name="Path 13" d="M307.263,339.979a3.952,3.952,0,0,0,.579.383c3.821,1.685,3.811,1.681,2.9,5.681-3.474,15.274-9.2,29.575-18.338,42.4a13.183,13.183,0,0,1-1.658,2.9,6.788,6.788,0,0,1-.619.771,68.169,68.169,0,0,1-20.8,17.116,49.289,49.289,0,0,1-13.665,4.992c-2.52.5-4.854-.62-7.225-1.268a61.384,61.384,0,0,1-15.044-7.553c-2.861-2.336-5.982-4.357-8.573-7.025-4.529-4.1-7.919-9.179-11.811-13.826a5.435,5.435,0,0,1-.872-1.617,41.649,41.649,0,0,0-3.659-6.462,12.291,12.291,0,0,1-1.591-3.347c-1.582-3.7-3.227-7.37-4.647-11.137-.767-2.853-1.869-5.6-2.627-8.457-1.032-3.6-1.86-7.252-2.631-10.916a1.406,1.406,0,0,1,.4-1.286,12.44,12.44,0,0,1,2.381-1.007c.183-.088.374-.162.562-.236a9.351,9.351,0,0,0,1.881-.826,7.327,7.327,0,0,1,1.77-1.087,12.378,12.378,0,0,0,2.053-1.27,29.18,29.18,0,0,0,8.254-9.242c.405-.729.665-1.592,1.6-1.873l-.012.008c.188-.072.385-.135.512.084.049.086-.018.216-.112.338l-.228,15.112c.016.735.048,1.469.007,2.205a1.479,1.479,0,0,1-.26.6c-3.373,2.451-3.314,2.437-2.351,6.694.73,3.227,2.046,6.295,2.526,9.584.249.753-.059,1.562.228,2.312l1.581,3.829c1.829.97,2.028,3.032,3.053,4.542a66.67,66.67,0,0,0,9.125,13.185,33.931,33.931,0,0,1,2.86,3.322,9.778,9.778,0,0,0,2.425,1.9,54.779,54.779,0,0,0,12.53,7.676,14.742,14.742,0,0,0,13.971.445,56.046,56.046,0,0,0,14.421-9.106c1.134-1.014,1.3-2.632,2.4-3.649a64.544,64.544,0,0,0,10.567-15.678,78.038,78.038,0,0,0,4.15-10.3c1.161-3.323,2.053-6.72,2.925-10.128.457-1.782.388-3.158-1.68-3.772a1.415,1.415,0,0,1-1.009-1.156,1.991,1.991,0,0,1,.421-1.289c2.2-2.84,2.905-6.179,3.258-9.639a.722.722,0,0,1,1.184-.082C300.989,335.652,304.371,337.511,307.263,339.979Z" transform="translate(-145.792 -257.181)" fill="#07c1ee"/>
      <path id="Path_14" data-name="Path 14" d="M379.749,438.665c1.828.037,3.54.059,2.912-2.7-.164-.72.53-1.609.883-2.279,1.649-3.131.871-7.02,3.285-9.905a3.391,3.391,0,0,0,.155-3.348c-.432-1.076.231-1.74.408-2.59.359-1.72,1.191-.38,1.85-.353A1.313,1.313,0,0,0,390.2,417c.344-.48.059-.85-.452-1.055-.618-.247-1.01-.842-.354-1.169,2.827-1.415,1.764-3.573,1.164-5.612-.111-.379-.4-.738-.016-.959,1.492-.854,1.064-2.542,1.6-3.788.512-1.2-.244-2.937,2.03-3.084.615-.04.3-.871,0-1.345-.651-1.01.059-1.936.1-2.809.1-1.941,1.985-3.883.3-5.871-.215-.254-.443-.642-.16-.788,1.729-.9,1.224-3.121,2.719-4.325a4.1,4.1,0,0,0,1.094-3.719c-.745-1.7.129-2.222,1.065-3.017,1.271-1.079,1.909-2.152.447-3.672-1.037-1.078-.262-1.628.85-2.174.7-.343,2.494.1,1.979-1.127-.658-1.565,1.245-4.736-2.828-4.419,1.258-1.342,2.946-.49,4-1.623.657-.707,1.4-1.092.291-1.91-.7-.518-.9-1.488-.345-1.761,1.988-.986,1.249-2.616,1.065-3.99-.241-1.81,1.559-2.844,1.439-4.533,1.815,2.043,2.724,4.649,4.341,6.855a28.251,28.251,0,0,0,7.137,7.09,1.166,1.166,0,0,1,.581.9c1.477,1.01,2.72,2.111,1.771,4.164a1.02,1.02,0,0,0-.029.907c1.735,2.585-.281,4.189-1.714,5.677a3.959,3.959,0,0,0-.91,4.634c.44,1.1.788,2-.362,2.839-.314.228-.644.652-.363.983,1.26,1.484.262,2.08-.8,3.079-1.144,1.071-1.546,2.827-2.095,4.286a32.754,32.754,0,0,0-2.33,7.972c-.033.307.018.68-.156.9-1.4,1.806-1.746,3.378.481,4.929.712.5.062,1.572-.543,1.988-4.867,3.351-4.533,9.013-6.112,13.788-.764,2.311-.835,4.846-2.408,6.887a2.807,2.807,0,0,0-.2,2.234c.137,1.074.809,2.017.727,3.137-.247.815-1.171.672-1.647,1.164a81.2,81.2,0,0,1-16.245.923A16.9,16.9,0,0,1,379.749,438.665Z" transform="translate(-215.538 -268.066)" fill="#fcf8f7"/>
      <path id="Path_15" data-name="Path 15" d="M366.044,301.644c-3.888-1.647-6.948-4.4-9.866-7.352a1.208,1.208,0,0,1-.775-.779,13.523,13.523,0,0,0-3.927-6.273,1.56,1.56,0,0,1-.46-1.016.857.857,0,0,1,.354-.531,2.142,2.142,0,0,1,2.6.291c-1.492-.984-1.795-1.981-1.151-3.857,1.584-4.613,3.663-9.134,3.825-14.146.02-.622.036-1.43.561-1.7,1.723-.892,1.571-2.552,1.9-4.043a13.238,13.238,0,0,1,1.547-4.017c.77-1.3.484-3.165.847-4.771.589-2.6,1.754-5.036,2.1-7.727.135-1.058,1.33-1.416,2.442-1.187a6.506,6.506,0,0,0,1.9.459c.387.054-.019-.41.061-.111.022.083-.041.1-.194.083a1.892,1.892,0,0,1-.685-.081c-1.006-.547-2.635-.3-2.732-2.02-.053-.934.988-1.611,2.981-2.07-2.121-1.326-.415-10.8,2.8-15.538,5.833,2.462,10.365,6.623,14.579,11.192.184.2.181.571.265.863a2.333,2.333,0,0,0,.72,2.064c.74.638,1.093,8.283.357,8.811-2.273,1.628-1.774,3.8-1.163,5.82.37,1.223-.391,1.237-.927,1.307-1.122.148-1.793.442-1.345,1.739a.87.87,0,0,1-.05.677c-2.066,3-2.1,6.542-2.748,9.925-.14.728-.634,1.382-.825,2.108-.24.912.845,1.178,1.108,1.872-2.239,1-4.01,4.451-4.06,7.035-.03,1.589-.12,3.229-1.56,4.607-1.139,1.09-.093,3.055-.775,4.6-.244.555,0,1.222-.866,1.487-.721.22-.86.8-.547,1.493.092.2.2.59.116.654-2.639,2.033.274,5.122-1.395,7.3-.973,1.273-.492,2.234.477,3.209a1.2,1.2,0,0,1,.151,1.813c-.157-.063-.377-.085-.406-.173C370.22,300.569,370.223,300.568,366.044,301.644Z" transform="translate(-204.574 -218.845)" fill="#fbf5f3"/>
      <path id="Path_16" data-name="Path 16" d="M140.8,332.242c5.136-3.275,10.9-4.929,16.7-6.492.834.521.534.978-.1,1.375-.723.453-1.578.624-2.317,1.049-.858.494-1.6,1.053-1,2.2.364.7.127,1.131-.5,1.521a4.041,4.041,0,0,0-2.038,5.025,10.407,10.407,0,0,1,.508,2.717c-.03,1.582-.234,1.905-2.067,3.192,3.539-.029,3.681-.173,3.532-3.594-.093-2.125.618-2.943,2.577-2.924.774.007,1.615.007,2.051.791s.041,1.427-.431,2.112c-1.18,1.714-.952,2.328,1.012,2.973.871.287,1.954.328,2.194,1.424.246,1.129-.677,1.612-1.49,2.082-.9.52-.827,1.4-.849,2.248a26.474,26.474,0,0,1-.117,3.7c-.09.542-.273,1.132-.937,1.15s-.856-.565-.977-1.1c-.248-1.1.024-2.267-.451-3.353a7.923,7.923,0,0,0,.079,4.453c.4,1.265.314,2.381-1.2,2.725-1.1.25-2.532-1.2-2.476-2.519a35.451,35.451,0,0,1,.591-4.589c.27-1.53-.124-2.489-1.916-2.694-2.291-.263-3.351.062-3.607,1.774a36.516,36.516,0,0,1-1.036,4.5c-.084.3-.277.669-.161.9.79,1.548.142,2.905-.22,4.423-.281,1.187-1.173,2.569.262,4.044.735.755-.685,1.8-1.654,2.328-.761.413-1.947.231-2.07,1.519,1.789-1.772,1.583.515,2.354,1.214,1.1-1.5,1.917-1.156,2.54.453.33.851,1.176.929,1.954.978a2.072,2.072,0,0,1,2.1,2.033c.213,1.443,1,2.771.873,4.288-.079.951-.153,2-1.32,2.15-1.307.17-1.075-1.022-1.25-1.772-.16-.682-.18-1.463-1.074-1.571s-1.278.529-1.354,1.264c-.2,1.929-1.483,2.344-3.177,2.38,1.607.727,3.265.4,4.871.493,1.806.1,2.588.861,1.93,2.693a1.775,1.775,0,0,1-2.4,1.152c-2.2-.566-4.454-.258-6.685-.3-.579-.011-1.5-.144-1.543.6-.051.931.933.859,1.589.9a9.643,9.643,0,0,0,4.115-.4,2.58,2.58,0,0,1,3.272.941,2.407,2.407,0,0,1-.271,3.353,4.155,4.155,0,0,0-.9,2.563c-.167,1.7-.924,2.767-2.605,2.533,1.284.072,1.792.785,1.119,2.21a5.012,5.012,0,0,0-.372,1.091c-.68,3.134-.683,3.134-3.327,2.918.885-.152,1.839.4,1.926,2,.082,1.511-.3,2.768-1.912,3.294a10.226,10.226,0,0,1-1.375.177c-.573.105-1.042.374-1.083,1.015-.038.59.481.694.89.906,2.317,1.2,2.376,1.308.7,3.446-.383.487.8,2.035-1,1.506a55.118,55.118,0,0,1-10.629-9.7,28,28,0,0,1-5.147-7.46,3.469,3.469,0,0,0,.811-3.813c-.522-1.362-.119-2.751.127-4.11.261-1.439.937-2.478,2.641-2.227,1.554.229,1.733-.789,1.922-1.95.207-1.274-.014-1.96-1.486-2.242-1.868-.358-2.072-1.2-.66-2.371a3.239,3.239,0,0,0,1.255-2.352,24.515,24.515,0,0,1,1.414-7.218c1.227-2.932,2.536-5.772,2.893-8.962a.9.9,0,0,1,.236-.394c.833-1.036,2.581-1.763.753-3.533-.5-.485-.218-1.9.537-2.54a4.434,4.434,0,0,0,1.547-3.436c.1-1.871,1.323-2.649,3.1-2.758s3.536.153,5.294-.351c-1.566-.442-3.193-.179-4.782-.33-1.883-.179-2.224-.641-1.4-2.305,1.186-2.4,1.31-5,1.815-7.544C141.675,333.272,141.1,332.838,140.8,332.242Z" transform="translate(-118.52 -257.192)" fill="#f6ede8"/>
      <path id="Path_17" data-name="Path 17" d="M362.1,221.3a20.786,20.786,0,0,1-2.322,6.065c-.125.185-.4.451-.346.549,1.341,2.584-.678,4.678-1,7.012-.2,1.427.851,1.6,1.882,1.827-.157.126-.246.244-.361.283-1.255.427-3.249.52-3.108,2.067.134,1.476,2.082,1.489,3.45,1.673.288.039.577.072,1.253.157a6.665,6.665,0,0,1-3.236.091c-1.287-.118-2.882-.332-2.18,2.041.312,1.053-.772,2.035-1.143,3.037-.662,1.788-.38,3.826-1.548,5.425-.09.124-.289.314-.261.357,1.96,2.97-2.649,4.4-1.7,6.97.866,2.346-1.115,2.763-2.12,3.908-.255.291-.205.873-.242,1.326a25.308,25.308,0,0,1-2.239,9.221c-.939,1.94-.725,4.368-2.194,6.237-.413.526.451,1.054.753,1.558.429.715,1.469.884,1.766,2.117-1.485-.273-2.492-2.067-4.088-1.185a5.213,5.213,0,0,1-1.174-4.881c.745-.665.323-1.493.387-1.8-.122-.772-.455-.314-.186-.466.127-.072.2-.036.2.109-.014.667.242,1.37-.257,1.977-1.063-.164-.893-1.093-1.075-1.777a21.751,21.751,0,0,1-.408-6.159,3.574,3.574,0,0,0-1.935-3.352c-2.187-1.391-4.86-1.873-6.8-3.7a1.669,1.669,0,0,1,1.056-1.6c-2.5.17-3.826-1.454-2.624-3.665,2.368-4.356,2.571-9.279,4.051-13.842.727-2.24.967-4.627,2.078-6.764.631-1.215,1.14-2.544-.1-3.845-.975-1.023-.6-1.936.707-2.178,1.746-.323,2.023-1.429,2.29-2.951.608-3.463,1.066-6.957,1.833-10.388.3-1.326-1.106-.818-1.328-1.5,3.57-.981,6.892.153,10.232,1.179A57.514,57.514,0,0,1,362.1,221.3Z" transform="translate(-196.501 -214.89)" fill="#faf4f2"/>
      <path id="Path_18" data-name="Path 18" d="M304.874,398.035c-4.212,7.609-11.7,10.673-19.143,13.8-4.364,1.835-8.4.785-12.313-1.385-2.133-2.179-3.306-4.955-4.724-7.582-.436-.942-.925-1.857-1.437-2.763-2.68-4.622-2.563-9.511-1.393-14.5.758-3.16,1.187-6.425,2.933-9.275a1.569,1.569,0,0,1,.576-.451c1.381-.432,2.148.362,2.755,1.416a24.965,24.965,0,0,1,1.293,2.911,30.64,30.64,0,0,1,1.868,7.141c.354,3.9,6.291,7.4,10.29,6.73,1.694-.286,2.279-2.02,3.7-2.617a8.911,8.911,0,0,0,2.253-3.646c1.174-2.869,2.267-5.707.563-8.809-.5-.907-.3-2.1-.553-3.142l-.028-16.362c1.226-.189,1.746.785,2.323,1.523.8,1.023,1.678,1.964,2.571,2.9,2.254,2.912,4.6,5.753,6.7,8.78a70.438,70.438,0,0,1,4.341,7.725C310.222,386.829,307.907,392.484,304.874,398.035Z" transform="translate(-171.781 -270.061)" fill="#fecba6"/>
      <path id="Path_19" data-name="Path 19" d="M149.867,409.229c.4-.051.826-.112.458-.665s-1.27-1-.716-1.735c.6-.8,1.082.711,1.8.3.353-1.414-.122-2.22-1.662-2.372-.815-.08-1.722-.146-1.3-1.481.323-1.023.535-1.859,1.952-1.7,2.164.249,2.921-.595,2.71-2.743-.133-1.354-.133-1.354-3.237-2.135.832,0,1.665.036,2.495-.007,1.5-.08,2.273-.831,2.042-2.4-.022-.15-.141-.29-.145-.437a3.2,3.2,0,0,0-2.109-3.227c-.082-.354.212-.374.406-.386,3.361-.22,3.405-.212,3.775-3.451a2.386,2.386,0,0,1,1.1-1.638,1.622,1.622,0,0,0,.4-2.433c-.668-.868-1.384-1.7-2.7-.947-1.72.992-3.623.511-5.448.488a1.481,1.481,0,0,1-1.662-1.539c0-1.326.957-1.228,1.787-1.163,2.742.215,5.542-.569,8.238.548.878.364,1-.387,1.091-1.026.323-.213.722-.4.823-.784,1.3-4.893,2.182-9.9,3.727-14.719,1.138-3.549,1.28-7.424,3.49-10.641.76-1.107,1.487-2.136,2.992-2.359-1.455-2.31-2.445-4.408-.566-6.737.458-.568-.045-1.336-.038-2.02.025-2.306,1.1-4.248,1.9-6.29.468-1.2,1.623-1.547,2.681-2.02-2.053-1.5-1.355-3.441-.908-5.293.4-1.674,1.866-1.51,3.155-1.752,2.284-.428,4.6.007,6.9-.451,1-.2.2-.412.2-.629.33-1.3,1.3-.811,2.032-.642.666.155.9.769.787,1.459a95.567,95.567,0,0,1-2.555,11.926c-.423.852-1.667.9-1.9,1.936l-.158.1-.186,0c-1.14.468-2.6-.643-3.665.792-.163.091.4.145.182-.079-.1-.1-.054-.136.046-.212.549-.414.964-.523,1.01.379l-.4.758c.325,3.007-2.07,1.573-2.989,2.03,3.608.022,4.192.821,3.14,4.733a14.914,14.914,0,0,0-.035,3.208,13.085,13.085,0,0,1-1.918,9.655,2.612,2.612,0,0,0-.349,1.095c-.952,6.011-3.251,11.652-4.775,17.5-.754,2.895-1.833,5.717-2.166,8.728-.325,2.944-1.628,5.646-2.722,8.305-1.792,4.357-2.187,8.968-3.321,13.434-.208.819-.176,1.733-.893,2.318-1.281,1.045-1.3,2.358-.913,3.786-.028.5.032,1.066-.75.991C157.548,414.446,153.559,412.035,149.867,409.229Z" transform="translate(-127.117 -256.721)" fill="#f8efea"/>
      <path id="Path_21" data-name="Path 21" d="M209.987,417.966a114.621,114.621,0,0,0,10.8,13.438c.589.6,1.126,1.246,1.686,1.871,0,.509.4,1.127-.221,1.477a.806.806,0,0,1-1.14-.489c-.557-1.442-2.851-.6-3.1-2.469.618,2.143-.2,4.07-.788,5.963a13.772,13.772,0,0,0-.895,4.477c.059,2.387-1.653,4.214-2.242,6.451-1.344,5.1-3.2,10.083-4.476,15.182-.652,2.606-1.829,5.252-1.57,8.091a1.871,1.871,0,0,1-.688,1.644c-.348.3-.881.59-.842,1.053.21,2.456-1.137,3.422-3.318,3.879-1.211.254-1.56,1.121-.381,1.922a2.917,2.917,0,0,1,1.249,3.236,52.023,52.023,0,0,0-1.173,5.159,1.571,1.571,0,0,1-1.843,1.388c-.9-.074-1.864.194-2.7-.372a31.615,31.615,0,0,1-8.355-14.377c1.326.071,1.38-.929,1.545-1.835.344-1.9.19-3.861.865-5.715a14.332,14.332,0,0,1,1.717-3.781,3.494,3.494,0,0,0,.944-2.085c-.228-3.171,1.187-6,1.926-8.926a52.756,52.756,0,0,1,4.02-10.808,3.487,3.487,0,0,0,1.317-2.319,89.077,89.077,0,0,1,1.859-10.545c.082-1.332-.286-2.757.79-3.884,1.4-.615,1.057-1.967,1.293-3.074a3.173,3.173,0,0,1,.222-.607,3.926,3.926,0,0,0,.588-1.685C207.252,418.46,208.288,417.78,209.987,417.966Z" transform="translate(-143.131 -292.368)" fill="#f8f0ed"/>
      <path id="Path_22" data-name="Path 22" d="M203.5,497.327c3.011-.757,2.927-.793,4.353-4.143a5.638,5.638,0,0,0,.892-2.751c-.085-.73.112-1.781-1.159-1.95a1.405,1.405,0,0,1-1.194-1.7c.117-.941.838-1.381,1.782-1.511,1.771-.244,3.91-.236,2.456-3.085a.658.658,0,0,1,.156-.62c3.223-1.633,1.845-5.065,2.752-7.562,1.2-3.309,2.038-6.824,2.975-10.234.9-3.274,2.512-6.458,2.563-10.041.015-1.068,1.878-1.8,1.738-3.44-.291-3.406,1.66-6.337,2.193-9.577.156-.953-.651-1.819-.2-3.226.6,1.743,1.312,2.947,3.173,2.841.811-.046.236,1.307,1.088,1.592.6-.148-.163-1.071.56-1.185l8.445,6.907c.647.7,1.258,1.435.46,2.385a13.582,13.582,0,0,0-2.275,5.259,2.71,2.71,0,0,1-3.242,2.205c-2.143-.194-4.31-.031-6.466-.058,1.876.021,3.753,0,5.629.014.9,0,1.832.166,2.2,1,.717,1.643,2.041,1.612,3.465,1.6,3.314-.023,6.627-.032,9.941.007.972.012,2.04-.184,2.772.764-.111.968-1.061.291-1.44.735q-7.519.038-15.04.077c-3.323.017-4.829,1.477-4.84,4.767-.017,5.17,0,10.339,0,15.509-2.211,5.075-2.459,10.694-4.388,15.853a32.153,32.153,0,0,1-2.65,6.063A22.646,22.646,0,0,1,203.5,497.327Z" transform="translate(-148.286 -299.828)" fill="#f9f2ee"/>
      <path id="Path_23" data-name="Path 23" d="M416.4,446.895c-.409-1.3-.811-2.594-1.232-3.886a1.945,1.945,0,0,1,.153-1.777c2.919-4.269,2.85-9.45,4.369-14.142.683-2.111,1.028-4.424,3.333-5.779.7-.409,3.182-1.356,1.225-2.843-1.994-1.514-2.475-2.455-.387-4.218,1.1-.932.248-2.612.8-3.95,1.288-3.129,2.284-6.379,3.372-9.589.159-.47.349-.923.836-1,1.974-.328,2.232-.792.317-1.857-.537-.3-.352-1.2.328-1.518,1.257-.586,1.567-.943.722-2.482-.826-1.5-1.228-3.8.971-5.055,1.233-.7.8-2.759,2.56-2.941.029,0,.081-.182.062-.2-2.652-1.915,1.089-5.66-2.121-7.409a1.644,1.644,0,0,1,1.231.548c3.1,3.5,6.576,6.642,9.459,10.345.744.956-.23,2.92,1.834,3.023.12,2.864.77,5.77-1.59,8.236a5.779,5.779,0,0,0-1.4,3.834c.084,2.869-1.213,5.4-1.45,8.158-.153,1.788-1.5,3.147-1.864,5.028-.636,3.278-1.052,6.733-2.906,9.686-.581.925-.1,1.6.471,2.278.59.706,1.035,1.544.129,2.218-2.754,2.052-3.215,5.257-4.258,8.169a22.318,22.318,0,0,1-1.511,4.338H428c-.085-.048-.171-.1-.257-.14-.9-.889-1.023.242-1.455.57a39.856,39.856,0,0,1-5.245,1.889l-2.319.464A2.652,2.652,0,0,1,416.4,446.895Z" transform="translate(-229 -277.224)" fill="#fcfaf8"/>
      <path id="Path_24" data-name="Path 24" d="M330.54,215.5c.617,0,1.234-.01,1.848.02.536.025,1.092.511.656.823-1.858,1.33-.608,3.382-1.312,5.043a22,22,0,0,0-1.147,6.74c-.132,1.631-.55,2.687-2.375,2.689-.443,0-1-.1-1.2.445-.292.781.493.737.85,1.064,1.587,1.453.4,3.067-.177,4.334a7.43,7.43,0,0,0-.873,3.2c0,1.757-1.344,3.066-1.511,4.9-.3,3.278-1.993,6.323-2.153,9.672a2.408,2.408,0,0,1-1.115,1.863c-1.244,1.039-.876,2.445-.415,3.607.129.326,1.554.142,2.385.183a4.177,4.177,0,0,1,.967.1c-1.032.307-1.509,1.323-2.437,1.753a1.758,1.758,0,0,1-1.762.182,86.673,86.673,0,0,0-12.856-2.948,2.209,2.209,0,0,1-1.019-.525c-1.117-.867.36-1.428.289-2.283-.159-1.9-1.161-3.429-1.692-5.15-.041-1.651.124-3.2,1.545-4.366a3.291,3.291,0,0,0,.763-1.66c1.465-4.662,2.863-9.354,4.367-13.989.94-2.9.382-6.26,2.6-8.744a23.779,23.779,0,0,1,12.058-6.493c1.179-.617,2.536.179,3.711-.464Z" transform="translate(-187.201 -215.122)" fill="#fbf3ef"/>
      <path id="Path_25" data-name="Path 25" d="M136.5,336.247c1.653.074,2.424.617,1.262,2.275a2.639,2.639,0,0,0-.53,1.254,18.482,18.482,0,0,1-1.951,7.606c2.054,0,3.946-.022,5.836.01.818.014,2-.061,1.988.991-.007.787-1.134.84-1.906.847-1.62.015-3.241.046-4.858,0-1.864-.058-2.69.795-2.63,2.648.041,1.273.217,2.419-1.513,3.156-1.594.68-.634,3.043,1.865,4.044-1.346.733-2.882.964-3.468,2.443-.284.717-.838,1.429-.464,2.179a2.784,2.784,0,0,1-.378,3.054c-3,3.5-2.658,7.9-3.433,11.985-.164.868-.419,1.453-1.351,1.576-.478.063-.97.2-.836.827.124.586.678.481,1.12.57.821.166,2.334-.49,2.279.763-.064,1.455.114,3.121-.8,4.423-.44.63-1.265.377-1.931.1-1.184-.491-1.764.1-1.954,1.178-.3,1.709-.776,3.386-.054,5.164.613,1.509.548,2.946-1.6,3.21h0c-.343-.442-.457-1.034-.923-1.394l-.469-.924c-.387-.743-.5-1.6-.934-2.321-2.625-3.939-3.419-8.469-4.14-13.006-1.7-10.7.926-20.421,6.783-29.373a29.452,29.452,0,0,1,6.174-6.789c1.059-.619,1.753-1.675,2.784-2.327A38,38,0,0,1,136.5,336.247Z" transform="translate(-114.217 -261.197)" fill="#f7ece7"/>
      <path id="Path_26" data-name="Path 26" d="M185.4,325.49c.077.01.174-.007.226.034a2.137,2.137,0,0,1,.258.288c-1.238.346-2.587,1.176-3.688.923-1.613-.369-3.054.319-4.537.118-3.053-.414-2.263,2.21-2.654,3.557a1.905,1.905,0,0,0,2.119,2.537c.192-.011.4.171.6.265-.152.863-.822.524-1.284.628-1.488.331-3.218.414-2.772,2.718.014.074.026.194-.014.226-2.306,1.857-1.079,4.694-1.952,6.842a8.109,8.109,0,0,0-.7,3.809,2.288,2.288,0,0,0,1.252,2.053c.375.2,1.032.163.854.828-.131.49-.638.572-1.109.685-1.655.4-4.014,3.348-4.234,5.043-.552,4.234-2.068,8.233-3.3,12.284-.4,1.329-.049,2.654-.67,3.991-.536,1.151-.083,2.741-1.571,3.55-.289.157-.218.513-.046.819.865,1.54-.286,1.819-1.358,2.142.635-1.163.577-1.908-1.033-1.864-1.544.043-3.091-.011-4.636.012-.98.014-1.864-.373-1.79-1.349s1.138-.5,1.708-.473c1.421.063,2.158-.287,2.094-1.91-.049-1.262.7-1.937,2.087-1.847s1.539.946,1.6,2.059c.033.581-.5,1.659.5,1.678,1.047.02.774-1.087.868-1.822.227-1.764-1.158-3.166-1.048-4.928.043-.686-.74-.752-1.259-.667-2.012.33-2.982-.591-3.01-2.629-1.11.384-.453,2.21-1.767,1.91-1.416-.323-.351-1.978-1.241-2.814-.99.7-.051,2.08-.918,2.85-1.034-2.8-.677-3.715,1.665-4.486,1.538-.507,1.729-1.327.557-2.429a1.178,1.178,0,0,1-.115-1.665c.492-.746,1.672-1.288.025-2.254-.583-.341.454-.832.989-1.075.889-.405,1.459-.862.066-1.407a.713.713,0,0,1-.5-1.051,22.1,22.1,0,0,0,1.531-6.419c.043-1.533,1.45-2.115,2.848-2.14.981-.017,1.963.318,2.952.4s1.123.707,1.056,1.45a47.232,47.232,0,0,1-.649,5.707c-.241,1.118-.127,1.774.9,2.246.449.206.766.809,1.406.3.967-.773.307-1.494.022-2.26-.555-1.5-.2-3.06-.248-4.592-.022-.64.182-1.322,1.009-1.244.644.06.8.665.806,1.229a23.174,23.174,0,0,0,.289,4.273c1.028-1.594.479-3.336.654-5,.109-1.041-.466-2.469,1.566-2.316a1.133,1.133,0,0,0,1.02-1.322c-.107-.639-.706-.68-1.252-.8-3.751-.832-3.923-1.308-1.628-4.4a.939.939,0,0,0,.057-1.268c-.774-.668-1.773-.374-2.669-.3a1.175,1.175,0,0,0-1.067,1.5,15.1,15.1,0,0,1,.268,2.981c.064,1.365-.524,2.023-1.916,1.953a3.5,3.5,0,0,0-1.375.1c-.946.36-2.13.533-2.371-.462-.173-.715,1-1.093,1.93-1.4,1.857-.615,1.18-2.595.7-3.484-1.11-2.048-.012-3.935-.165-5.874-.083-1.052.719-.8,1.479-.705.725.093,2.074.225.675-1.2-.738-.751-.293-1.471.52-2.1a9.705,9.705,0,0,1,3.127-1.447c.609-.2,1.015-.346.639-1.061a15.647,15.647,0,0,1,6.026-.929A21.149,21.149,0,0,1,185.4,325.49Z" transform="translate(-128.798 -256.468)" fill="#f7eee9"/>
      <path id="Path_27" data-name="Path 27" d="M202.973,417.911c-1.857.85-.532,2.5-.928,3.711a2.9,2.9,0,0,0-1.263,2.113c-.283,3.284-2.057,6.271-1.894,9.642a1.713,1.713,0,0,1-.553,1.232,6.493,6.493,0,0,1-.483,2.2c-1.213,3.481-2.261,7.088-3.515,10.474-1.238,3.342-.3,7.221-3.064,10.223-1.448,1.571-1.777,4.2-1.724,6.547a16.44,16.44,0,0,1-.51,3.176c-.087.518-.153,1.2-.716,1.32-.635.135-.594-.825-1.126-1.006l-.46-.463c-.318-.771-.253-1.694-.931-2.32a36.431,36.431,0,0,1-2.78-6.492,3.105,3.105,0,0,1,.4-3.46,4.066,4.066,0,0,0,.891-2.813c-.336-3.081,1.143-5.671,2.108-8.4a31.721,31.721,0,0,0,1.652-5.764c.5-3.281,1.859-6.321,3.041-9.4a11.063,11.063,0,0,0,.57-1.506c.8-3.5,1.059-7.062,2.427-10.516.967-2.441.344-5.574,1.874-7.963,1.281-2,1.3-4.449,2.669-6.362.255-.355-.061-.73-.162-1.083a5.646,5.646,0,0,1-.2-2.516c.106-.628.314-1.324,1.025-1.375.877-.062.756.771.874,1.332.048.225.03.463.075.69.19.933.317,1.968,1.7,1.16l1.6,3.2c-.187,2.408-.738,4.8.525,7.158a3.594,3.594,0,0,1-.193,3.55C203.383,415.385,203.772,416.8,202.973,417.911Z" transform="translate(-140.337 -284.418)" fill="#f9efec"/>
      <path id="Path_28" data-name="Path 28" d="M439,452.7c-.043-2.484.876-4.745,1.675-7.023.5-1.435,1.606-2.63,1.617-4.276.006-.834.643-1.092,1.4-1.246,1.2-.243,1.737-.787.519-1.79-1.314-1.08-1.92-2.16-.207-3.477.985-.758.857-2.156,1.1-3.158a69.922,69.922,0,0,0,1.711-6.858c.148-1.1-.328-2.3,1.287-2.641a.673.673,0,0,0,.313-.577c-.649-2.216,1.369-4.041,1.1-5.95-.325-2.349.964-4.172,1.1-6.294.01-.15.022-.379.114-.434,3.306-1.967,1.561-5.548,2.637-8.222,3.275,6.427,5.448,13.193,5.522,20.441a34.165,34.165,0,0,1-4.963,18.921,31.878,31.878,0,0,1-8.617,8.965c-1.393,1.012-3.022,1.7-4.226,2.937A2.5,2.5,0,0,1,439,452.7Z" transform="translate(-238.146 -285.81)" fill="#fdfbfa"/>
      <path id="Path_29" data-name="Path 29" d="M199.041,395.39c-.755.122-.913.477-.443,1.1.275.365.662.842-.014,1.09-.55.2-.638-.379-.893-.773a6.635,6.635,0,0,1-1.145-4.26c-1.317,1.886-.357,3.607.354,5.309-.16,1.2-1.762-1.241-1.447.524.529,2.959-2.2,4.621-2.556,7.188-.071.508-.673.99-.641,1.457.357,5.138-2.818,9.6-2.8,14.621.007,2-1.071,3.761-1.78,5.187-1.657,3.334-1.454,7.036-2.955,10.279-.924,2-1.007,4.322-2.48,6.1-.425.513-.248,1.171-.231,1.788.053,1.93.466,3.884-1.237,5.516a3.525,3.525,0,0,0-.677,2.856,63.76,63.76,0,0,1-5.109-8.81c1.38-4.391,2.562-8.839,3.829-13.263a7.5,7.5,0,0,0,.8-1.539,101.562,101.562,0,0,1,4.216-14.576c.717-.751,1.305-1.534.585-2.617.815-2.7,1.216-5.463,2.33-8.142,1.15-2.767,2.454-5.652,2.513-8.837.062-3.281,1.913-6.151,2.362-9.377.2-1.416,1.515-1.782,2.792-1.941Z" transform="translate(-137.405 -279.521)" fill="#f8f0ec"/>
      <path id="Path_30" data-name="Path 30" d="M191.892,377.713c-2.278,1.078-2.778,2.987-2.8,5.335-.012,1.047-1.1,2.057-1.207,3.132a37.227,37.227,0,0,1-2.591,10.844c-1.309,3.09-2,6.309-3.077,9.434a1.86,1.86,0,0,1-.464,1.855c-1.12,3.92-2.177,7.859-3.4,11.747-.37,1.18-.019,2.488-.776,3.559-.269.349-.8.44-.928.928-1.056,4.591-1.456,9.385-4.182,13.456a10.222,10.222,0,0,1-2.775-2.788c-.63-.678.189-1.646-.464-2.319-1.369-1.466-.952-2.827.336-4.03.364-.34.978-.361,1.047-1.055.408-4.12,1.549-8.1,2.338-12.151a21,21,0,0,1,1.706-4.736c2.116-4.515,2.289-9.488,3.953-14.031a77.775,77.775,0,0,0,2.509-8.645c.78-3.248,2.878-6.16,2.5-9.7-.038-.365-.011-.973.2-1.092,2.349-1.331,1.323-4.034,2.4-5.922.488-.858-.158-2.361-.29-3.571.232-.106.562.125.6.089,1.545-1.379,1.546-1.385,2.375.7a1.462,1.462,0,0,0,.28.6Z" transform="translate(-134.884 -272.966)" fill="#f8eeeb"/>
      <path id="Path_31" data-name="Path 31" d="M307.764,285.271c4.488.061,8.738,1.331,13,2.551.878.252,1.759.494,2.638.74,2.409,1.152,4.8,2.346,7.234,3.442a3.306,3.306,0,0,1,2.231,3.72,20.042,20.042,0,0,0,.82,8.147l-.006,0c-.119,1.767.954,3.295,1.01,5.027l-.1.115c-.208.1-.455.236-.656.141a20.019,20.019,0,0,0-9.8-1.826c-1.383-2.558-3.783-3.626-6.413-4.354-2.964-1.459-6.192-2.071-9.342-2.937a1.589,1.589,0,0,1-.518-.482Q307.809,292.412,307.764,285.271Z" transform="translate(-188.07 -241.746)" fill="#07c1ee"/>
      <path id="Path_32" data-name="Path 32" d="M233.29,369.717l-2.669-4.651.393-1.383c1.939-2.2,4.688-3.1,7.174-4.4a141.144,141.144,0,0,0,14.451-8.082c1.585-.441,3.265.061,4.837-.5a32.341,32.341,0,0,1,4.124-.226c2.278-.169,2.959-.877,3.063-3.142.064-1.377-.074-2.759.121-4.129a2.061,2.061,0,0,1,.249-.649c.87-.727,1.142-.017,1.5.6.273-.717-.136-1.749.852-2.2.66.177.654.759.8,1.251.163.54.093,1.505.912,1.242.544-.174,1.7.216,1.668-1.148-.022-.833,1.155-.561,1.556-1.127.445-5.164.065-10.329.2-15.487.032-1.22-.189-2.482.5-3.617a.6.6,0,0,1,.748-.147c.881,1.247.516,2.68.606,4.043-.106,5.2.108,10.394-.093,15.592a9.744,9.744,0,0,1-.074-2.505c.066-.38.181-.821.642-.822s.542.436.631.81c.292,1.241-.508,2.62.482,3.771q0,3.25,0,6.5a13.249,13.249,0,0,1-4.638,2.909,36.247,36.247,0,0,0-5.361,3.059c-1.815,1.113-3.38,2.6-5.6,2.978-1.483.249-.964,1.968-1.75,2.626-.655.549-2.127-.492-2.516,1.041l.04-.021c-.573.142-.735,1.224-1.484.8a1.1,1.1,0,0,1-.362-1.728c-6.025,3.856-12.872,6.595-18.579,11.2C234.2,372.061,234.208,370.428,233.29,369.717Z" transform="translate(-158.634 -255.702)" fill="#4f7af7"/>
      <path id="Path_33" data-name="Path 33" d="M230.5,531.229c.015-2.623,1.6-4.75,2.376-7.125,1.284-3.915,1.623-8.027,2.93-11.919a5.843,5.843,0,0,1,1.732-2.871l-.024.05c.2,1.094.284,2.28,1.8,2.384a9.945,9.945,0,0,0,3.86.493q25.317-.02,50.634-.018c.846,0,1.692.051,2.537.079-.733.637-1.62.36-2.436.362q-12.915.035-25.831.023a6.843,6.843,0,0,1-3.6.65c-3.4,0-6.8-.034-10.2.013-2.493.035-2.929.445-2.769,2.835.157,2.342-.026,4.488-2.095,6.03a1.414,1.414,0,0,0-.593,1.433c.427,1.924-.462,3.087-2.093,3.872-2.628,2.318-5.975,2.986-9.21,3.615C235.268,531.574,232.848,532.287,230.5,531.229Z" transform="translate(-158.588 -327.235)" fill="#fbf3ef"/>
      <path id="Path_34" data-name="Path 34" d="M275.058,276.771a3.381,3.381,0,0,1,1.437,3.127q-.051,2.842-.093,5.685a46.977,46.977,0,0,1-9.422,5.67c-3.44,1.632-6.847,3.419-10.389,4.872a3.606,3.606,0,0,0-2.334,2.047c-.5,1.32-1.751.318-2.489.634.506.2,1.322-.275,2.163.547-2.26,1.429-4.788.235-6.932,1.074-1.317.3-2.7-.021-4,.453-1.8.407-3.665-.108-5.454.4a4.91,4.91,0,0,0-2.923,2.75c-.47,2.052-.08,4.132-.234,6.189-.065.876.178,1.905-.957,2.358-1.2-.994-.639-2.369-.756-3.589a18.46,18.46,0,0,0-.164-2.916,2.9,2.9,0,0,0-.411-.547,2.165,2.165,0,0,1-.344-.574,10.74,10.74,0,0,0,.081-2.727,2.75,2.75,0,0,1,1.738-2.723c7.38-3.894,14.778-7.739,21.994-11.952,4.751-2.774,9.756-5.158,14.751-7.5,1.542-.722,2.084-1.93,2.717-3.237A1.484,1.484,0,0,1,275.058,276.771Z" transform="translate(-159.068 -238.36)" fill="#4062f1"/>
      <path id="Path_35" data-name="Path 35" d="M294.15,398.7c-1.929,3.336-3.595,4.086-7.174,3.014-3.986-1.195-7.017-3.28-7.56-7.911a46.224,46.224,0,0,0-1.583-6.213c.312-1.692.36-1.859,3.339-3.412,3.724-1.94,7.584-3.612,11.319-5.534a1.2,1.2,0,0,1,1.494.147Z" transform="translate(-176.649 -277.302)" fill="#5381f9"/>
      <path id="Path_36" data-name="Path 36" d="M307.755,226.749c-.088.6.015,1.344-.3,1.772-.63.846-1.284,1.5-.279,2.528.194.2.035.925-.164,1.3-1.966,3.68-1.926,8.053-3.646,11.653-1.375,2.878-.845,6.715-4.062,8.727-.524.328-.306.965-.088,1.489.3.729.1,1.2-.736,1.291-2.685-2.183-5.887-1.833-9.02-1.866-.749-.008-1.75.363-2.193-.262-.594-.839.587-1.236.927-1.856a121.963,121.963,0,0,1,13.075-18.744,5.378,5.378,0,0,0,1.852-1.855l1.855-1.855a7.642,7.642,0,0,0,2.32-2.315Z" transform="translate(-180.184 -219.415)" fill="#f9f2ee"/>
      <path id="Path_37" data-name="Path 37" d="M231.269,297.963q0-3.247,0-6.493a10.445,10.445,0,0,1,3.95-2.7c4.451-1.876,8.537-4.515,13.04-6.3,1.233-.488,2.049-1.6,3.05-2.432,4.219-.655,8.459-.239,12.689-.226a1.15,1.15,0,0,1,1.25.834c.143.661-.356,1.013-.844,1.226-3.6,1.577-6.784,3.9-10.346,5.571-5.072,2.387-10.262,4.573-14.974,7.7A15.608,15.608,0,0,1,231.269,297.963Z" transform="translate(-158.881 -239.608)" fill="#3e5df0"/>
      <path id="Path_38" data-name="Path 38" d="M231.268,296.535c5.023-1.838,9.508-4.715,14.2-7.2a79.761,79.761,0,0,1,9.1-4.211c2.8-1.057,4.9-3.379,7.812-4.262a5.342,5.342,0,0,0,2.471-1.928H251.191c-1.943.833-3.869,1.392-5.647-.358.786-1.034,1.945-.8,2.988-.808,4.4-.043,8.805.015,13.206-.04,1.027-.013,2.2.275,2.968-.789a1.023,1.023,0,0,1,1.857-.022c.911,1.273,1.66.8,2.615.075,1.237-.938,2.582-1.859,3.82.062.021,1.578-.813,2.433-2.177,3.2-4.113,2.3-8.518,3.979-12.553,6.532-2.11,1.335-4.616,2.512-6.968,3.7-5.11,2.588-10.216,5.2-15.173,8.058a6.341,6.341,0,0,1-1.75.863c-2.364.514-2.247,2.447-2.348,4.181a4.629,4.629,0,0,1-.31,1.3c.125.426-.04.566-.454.461Q231.267,300.941,231.268,296.535Z" transform="translate(-158.88 -238.181)" fill="#405ff1"/>
      <path id="Path_39" data-name="Path 39" d="M256.751,305.613c1.9-1.045,4.025-.085,6-.838l-2.228-.156c.329-.716.9-.37,1.313-.372.839,0,1.074-.109,1.45-1.12.707-1.9,3.028-2.336,4.712-2.926,2.876-1.007,5.39-2.736,8.255-3.808a22.545,22.545,0,0,0,7.014-4.127,3.2,3.2,0,0,1,2.67-1.032q0,4.177,0,8.355a4.077,4.077,0,0,1-2.491,1.932c-1.632.622-3.345.965-4.594,2.49-.871,1.063-2.456.166-3.617.5a14.954,14.954,0,0,1,2.486-.029c.947.039,1.294.455.67,1.331a4.153,4.153,0,0,1-2.458.45q-8.295.026-16.59,0C258.441,306.253,257.478,306.38,256.751,305.613Z" transform="translate(-168.605 -244.012)" fill="#4367f2"/>
      <path id="Path_40" data-name="Path 40" d="M245.547,277.83c1.789.937,3.718.2,5.563.466-.265,1.756-1.851,2.2-3.072,2.842-2.082,1.094-4.557,1.576-6.411,2.937-2.975,2.184-6.868,2.563-9.545,5.206-.172.17-.592.088-.9.123a105.044,105.044,0,0,1,.033-11.12c.9-.089.917.926,1.521,1.221.724.355,1.67.739,2-.163.551-1.5,1.659-1.633,2.913-1.714,1.07-.069,1.539-1.287,2.606-1.359.35-.012.48.479.869.378a2.4,2.4,0,0,0-.478-.482c-.416-.279-1.21-.3-1.11-.933.121-.759.888-.615,1.469-.62.786-.006,1.665.825,2.334-.264q7.972-.027,15.934,0c.656,0,1.622-.359,1.907.313.374.881-.629,1.21-1.223,1.636-3.592.743-7.229.184-10.842.361C247.821,276.723,246.456,276.574,245.547,277.83Z" transform="translate(-158.8 -237.543)" fill="#3b59ef"/>
      <path id="Path_41" data-name="Path 41" d="M252.589,365.361a5.456,5.456,0,0,1-2.366,2.123c-4.469,2.362-8.822,4.979-13.428,7.03-1.933.861-3.387,2.547-5.537,2.9q0-4.637,0-9.275c1.873-1.39,4.138-2.151,5.839-3.872a2.089,2.089,0,0,1,2.691-.187c1.212-1.865-.192-4.315,1.315-6.242.961.288.884,1.131.96,1.86.43,4.108.423,4.108,4.664,4.761a13.388,13.388,0,0,0,3.563.265C251.1,364.762,251.959,364.66,252.589,365.361Z" transform="translate(-158.877 -269.437)" fill="#4d76f5"/>
      <path id="Path_42" data-name="Path 42" d="M231.268,354.475l0-12.058c.453-.647,1.656-.65,1.529-1.795a2.339,2.339,0,0,1,.071-.675,1.323,1.323,0,0,1,1.8-.781,9.128,9.128,0,0,0,7.333,2.6c3.064-.112,6.136-.044,9.2-.014.981.009,2.015-.12,2.84.633-.929.982-.929.982-3.563.931,1.712.506,3.918-.772,5.78.853a71.9,71.9,0,0,1-8.557.334c2.195.007,4.393-.03,6.59.028.7.019,1.555-.4,2.1.456-.5,1.032-1.617.735-2.414,1.127-2.224.4-4.484,0-6.709.295-1.037.777-2.425.174-3.482.885a8.284,8.284,0,0,1-1.328.764c-1.775,3.287-5.738,2.853-8.332,4.832C233.35,353.482,232.555,354.593,231.268,354.475Z" transform="translate(-158.88 -262.265)" fill="#486ef4"/>
      <path id="Path_43" data-name="Path 43" d="M291.633,374.134c-2.244,1.454-4.986,1.8-7.2,3.422-1.434,1.049-3.336,1.434-4.949,2.268-1.507.779-3.144,1.461-4,3.109-.452-.964-.868-1.949-1.368-2.887-.487-.915-1.1-1.715-2.343-1.184-.243-1.787-.243-1.787,2.477-1.367-.951-2.048.665-2.78,1.946-2.947,2.954-.387,4.646-2.772,7.049-4.009,2.79-1.437,5.477-3.082,8.392-4.288Q291.634,370.191,291.633,374.134Z" transform="translate(-174.298 -272.645)" fill="#527ef8"/>
      <path id="Path_44" data-name="Path 44" d="M256.752,529.6c.755-1.212,2.446-2.1,1.177-4-.171-.256-.047-1.589.626-1.828,3.019-1.075,2.447-3.54,2.265-5.753-.215-2.6.2-3.249,2.681-3.254,4.865-.01,9.729,0,14.594.006-3.023,2.314-5.985,4.712-9.085,6.918-3.353,2.386-6.509,5.066-10.174,7.009A5.425,5.425,0,0,1,256.752,529.6Z" transform="translate(-168.605 -329.31)" fill="#faf4f1"/>
      <path id="Path_45" data-name="Path 45" d="M307.88,308.364a3,3,0,0,1,.367.087,3.938,3.938,0,0,1,.711,2.845c0,2.7.078,5.4-.054,8.088-.085,3.513-.057,7.029-.038,10.792,1.892-.613,2.657-2.678,4.59-2.651a6.914,6.914,0,0,0,.123-1.318c.082-1.046.407-1.822,1.69-1.581a1.527,1.527,0,0,1,.3,1.3c-.725,4.449.808,8.08,4,11.119a1.978,1.978,0,0,1,.476.769,1.6,1.6,0,0,1-1.521,1.73c-2.4.448-3.591,2.208-4.81,4.007-.345.508-.361,1.469-1.4,1.135L307.83,340Q307.856,324.181,307.88,308.364Z" transform="translate(-188.095 -250.558)" fill="#4162f1"/>
      <path id="Path_46" data-name="Path 46" d="M198.593,325.26c-3.91-.105-7.6-2.064-11.6-1.393,2.45-.974,5.026-.54,7.5-.394,5.868.346,11.7,1.25,17.591,1.365-2.28,4.686-5.255,8.787-9.769,11.589-1.182-.413-1.244.835-1.865,1.257-.845-.077-1.056,1.016-1.862,1.009-.408-.175-.716-.4-.458-.91-.069-3.663,2.667-6.853,1.791-10.651-.09-.39-.156-.726.317-.952.964-.461.769-1.14.077-1.578C199.6,324.153,198.8,324.1,198.593,325.26Z" transform="translate(-141.987 -256.238)" fill="#f7eeeb"/>
      <path id="Path_47" data-name="Path 47" d="M272.252,310.321c-1.246-1.044-2.828-.046-4.239-.675,4.54-.22,7.579-3.748,11.63-4.887v12.526c-.442,1.656-.1,3.344-.208,5.014-.034.533.035,1.153-.75,1.14-.557-.009-.711-.465-.827-.938a19.863,19.863,0,0,0-.493-2.911q0-2.085-.009-4.169c-.135-1.469-1.346-1.8-2.424-2.281a11.285,11.285,0,0,0-4.779-.7c-8.8,0-17.594.014-26.39-.013-1.2,0-2.5.247-3.515-.732,1.947-1.007,4.043-.169,6.045-.485,3.745-.415,7.5-.124,11.253-.174,4.3-.056,8.6.015,12.9-.045C271.048,310.981,272.064,311.619,272.252,310.321Z" transform="translate(-162.308 -249.182)" fill="#466bf3"/>
      <path id="Path_48" data-name="Path 48" d="M231.267,359.72c2.5-2.191,5.124-4.16,8.591-4.409.839-.06,1.083-.424,1.133-1.107a1.32,1.32,0,0,1,1.465-1.413c-.117,1.185-.252,2.362-1.377,3.1-.028,1-.129,2-.071,2.994.126,2.139-.072,3.912-2.944,3.674a1.717,1.717,0,0,0-1.4.632c-1.1,2.325-3.429,2.33-5.4,3.025Q231.266,362.968,231.267,359.72Z" transform="translate(-158.88 -267.51)" fill="#4b70f4"/>
      <path id="Path_49" data-name="Path 49" d="M261.985,275.783l1.126-1.32H244.823c-2.022.2-4.015.677-6.056.7a2.843,2.843,0,0,1-2.328-.722c.728-.625,1.615-.429,2.443-.43q16.794-.015,33.587,0c1.7,0,3.417.027,4.374,1.832-.646.066-1.377-.216-1.871.463-1.466-1.185-2.708-.48-3.78.572-1.271,1.246-2.287,1.9-2.968-.462-.13-.455-.682-.549-1.156-.565A4.415,4.415,0,0,1,261.985,275.783Z" transform="translate(-160.854 -237.439)" fill="#3e5df0"/>
      <path id="Path_50" data-name="Path 50" d="M234.487,274.726l8.383.02c-.215.254.526,1.163-.636.813a2.937,2.937,0,0,0-2.219-.2l1.011.8c.07.389-.064.56-.469.438-1.22.957-2.211,2.394-4.124,1.89a1.008,1.008,0,0,0-.717.364c.267,1.416-.286,2.021-1.715,1.905a2.864,2.864,0,0,1-2.68-2.294A3.967,3.967,0,0,1,234.487,274.726Z" transform="translate(-158.901 -237.722)" fill="#3a56ee"/>
      <path id="Path_51" data-name="Path 51" d="M300.251,327.319l1.369,3.777c1.063-2.134-.179-4.3.91-6.083q0,9.5,0,19c-1.731-1-.337-2.881-1.16-4.2-.547,1.313.233,2.782-.81,4.449C300.007,338.309,300.327,332.808,300.251,327.319Z" transform="translate(-185.194 -256.911)" fill="#4d76f6"/>
      <path id="Path_52" data-name="Path 52" d="M234.044,332.945c-.283.485-1,.678-.933,1.4-.25.182.059-.035-.115.191-.283.367-.6.287-.939.234a.542.542,0,0,0,.785-.073,3.047,3.047,0,0,0,.27-.351c.886,2.113-.872,1.593-1.846,1.853V323.212l.454-.462h.464c.519,2.407.032,4.848.239,6.9.155-2.053-.277-4.489.225-6.9.98,2.422.215,4.953.463,7.42,1.156.367.243,1.675,1.013,2.22A.506.506,0,0,1,234.044,332.945Z" transform="translate(-158.88 -256.047)" fill="#4565f5"/>
      <path id="Path_53" data-name="Path 53" d="M307.87,385.973a51.238,51.238,0,0,1,2.126,5.97c.532,2.32-.82,4.2-2.136,5.98Q307.865,391.949,307.87,385.973Z" transform="translate(-188.107 -280.172)" fill="#496cf0"/>
      <path id="Path_54" data-name="Path 54" d="M227.642,308.154l-.4-.422-.49-1.905c.539-3.195.1-6.414.238-9.618.132-2.976-.273-5.966.224-8.933V278.4l.464.022c0,8.741.037,17.483-.045,26.223C227.622,305.814,228.337,306.991,227.642,308.154Z" transform="translate(-157.157 -239.124)" fill="#f9f7fa"/>
      <path id="Path_55" data-name="Path 55" d="M226.957,354.629l.139-.467q.166-.328.327,0-.026,9.672-.051,19.343c-.613-.669-.216-1.518-.4-2.263-1.088-4.855-.612-9.78-.647-14.683A2.98,2.98,0,0,1,226.957,354.629Z" transform="translate(-156.965 -267.971)" fill="#737484"/>
      <path id="Path_56" data-name="Path 56" d="M227.185,292.751c0,5.386.013,10.772-.013,16.158,0,.808.307,1.712-.45,2.394,0-5.386-.013-10.772.014-16.158C226.74,294.337,226.428,293.432,227.185,292.751Z" transform="translate(-157.129 -244.6)" fill="#fcfef6"/>
      <path id="Path_57-2" data-name="Path 57" d="M424.75,486.841l5.1-2.319a1.349,1.349,0,0,1,1.855,0h0A16.441,16.441,0,0,1,424.75,486.841Z" transform="translate(-232.709 -317.634)" fill="#fdfbfa"/>
      <path id="Path_58-2" data-name="Path 58" d="M416.391,489.25h2.319a6.988,6.988,0,0,1-3.711.927A1.4,1.4,0,0,1,416.391,489.25Z" transform="translate(-228.989 -319.58)" fill="#fdfbfa"/>
      <path id="Path_59" data-name="Path 59" d="M138.778,342.986c-.74,1-1.391,2.108-2.784,2.327C136.744,344.323,137.4,343.225,138.778,342.986Z" transform="translate(-122.527 -263.769)" fill="#f6ede8"/>
      <path id="Path_60" data-name="Path 60" d="M318.319,226.757a2.729,2.729,0,0,1-2.32,2.315A7.11,7.11,0,0,1,318.319,226.757Z" transform="translate(-191.212 -219.418)" fill="#fbf3ef"/>
      <path id="Path_61" data-name="Path 61" d="M343.709,215.471c-1.14.93-2.48.262-3.711.464C341.139,215.011,342.478,215.674,343.709,215.471Z" transform="translate(-200.37 -215.096)" fill="#faf4f2"/>
      <path id="Path_62-2" data-name="Path 62" d="M169.46,473.5c1.322.54.2,1.568.464,2.319l-.934-1.386A.964.964,0,0,0,169.46,473.5Z" transform="translate(-135.117 -313.57)" fill="#f9efec"/>
      <path id="Path_63" data-name="Path 63" d="M311.857,233.5a1.932,1.932,0,0,1-1.852,1.855A4.749,4.749,0,0,1,311.857,233.5Z" transform="translate(-188.925 -221.991)" fill="#fbf3ef"/>
      <path id="Path_64" data-name="Path 64" d="M121.736,426.253a2.64,2.64,0,0,1,.934,2.321A2.744,2.744,0,0,1,121.736,426.253Z" transform="translate(-117.086 -295.541)" fill="#f6ede8"/>
      <path id="Path_65-2" data-name="Path 65" d="M187.744,506.5c1.087.461.925,1.424.931,2.32A4.663,4.663,0,0,1,187.744,506.5Z" transform="translate(-142.273 -326.163)" fill="#f8f0ed"/>
      <path id="Path_66" data-name="Path 66" d="M227.9,353l-.164,0-.163,0a3.781,3.781,0,0,1,.126-2.053A3.1,3.1,0,0,1,227.9,353Z" transform="translate(-157.44 -266.805)" fill="#6e8890"/>
      <path id="Path_67" data-name="Path 67" d="M124.005,431.5c.94.046.931.72.923,1.394A1.408,1.408,0,0,1,124.005,431.5Z" transform="translate(-117.952 -297.544)" fill="#f6ede8"/>
      <path id="Path_68" data-name="Path 68" d="M274.026,457.6c.354-.49.882-.386,1.375-.4,1.267-1.164,2.61-.194,3.926-.166-.337-.234-1.128.065-1.086-.389.113-1.213,1.337-.189,1.733-.593-.948-.193-1.952.314-2.99.218-.811-.076-1.754-.495-.6-1.372,1.326-1.012.333-2.712,1.345-3.746,7.362,2.982,13.735-.293,20.009-3.391A64.452,64.452,0,0,0,317.629,432.1c.555-.634,1.159-1.226,1.74-1.837.731-.4,1.265.045,1.835.406-.219-.717-1.108-.368-1.44-.891a9.541,9.541,0,0,1,2.045-2.639c-.247,1.518.761,1.811,1.917,1.975,1.7.242,2.091,1.179,1.471,2.808-.656,1.72-1.659,3.484-.56,5.406.388.678-.155.691-.534.926a3.77,3.77,0,0,0-2.007,3.993,1.743,1.743,0,0,1-.273,1.095c-1.7,2.622-1.108,5.83-2.164,8.534-.728,1.864-1.707,3.971-3.947,4.776a12.168,12.168,0,0,1-3.206-.8,10.956,10.956,0,0,0,3.206.8c1.017.939,2.106,1.732,1.8,3.311-1.051-.425-.466-3.2-2.692-1.817a12.291,12.291,0,0,0-3.629-.477Q292.608,457.668,274.026,457.6Z" transform="translate(-175.196 -295.88)" fill="#fbf5f2"/>
      <path id="Path_69" data-name="Path 69" d="M411,294.552c-3.5-.009-6.995-.2-10.5-.409C404.03,293,407.509,293.956,411,294.552Z" transform="translate(-223.457 -244.927)" fill="#fbf5f3"/>
      <path id="Path_70" data-name="Path 70" d="M396.924,306.15a2.1,2.1,0,0,1-.644.259c-.34-.006-.532-.239-.356-.553a.635.635,0,0,1,.554-.159C396.627,305.727,396.736,305.947,396.924,306.15Z" transform="translate(-221.685 -249.536)" fill="#fbf5f3"/>
      <path id="Path_71" data-name="Path 71" d="M324.1,342.63c-4.114-3.612-5.869-8.041-4.67-13.492.082-4.153,4.54-8.6,8.861-8.836A14.4,14.4,0,0,1,338.9,322.27a15.037,15.037,0,0,1,5.087,8.183,13.807,13.807,0,0,1-3.765,11.093c-.246,1.208-1.367,1.544-2.179,2.189a12.542,12.542,0,0,1-10.4,1.17C326.388,344.264,324.908,343.969,324.1,342.63Z" transform="translate(-192.381 -255.006)" fill="#f25a58"/>
      <path id="Path_72" data-name="Path 72" d="M262.136,461.366c-.212,1.534,1.309,3.586-1.33,4.625h4.852c-.973.8-1.814.252-2.536.632.15.725,1.177-.071,1.31.791h-4.619c-.683-.756-1.587-.443-2.4-.449-4.083-.031-8.166,0-12.249-.025-.876,0-1.855.233-1.72-1.38.116-1.383-1.229-1.358-2.2-1.375-2.67-.047-5.342-.016-8.076-.016.207-1.268.989-.9,1.5-.909,2.7-.041,5.394-.072,8.088,0,1.332.036,1.867-.535,2.241-1.762.582-1.91.466-4.176,2.463-5.459,1.151-.741-.769-1.4-.061-2.134A132.285,132.285,0,0,0,260.73,461C261.223,461.232,261.831,460.708,262.136,461.366Z" transform="translate(-159.607 -306.093)" fill="#faf3ef"/>
      <path id="Path_73" data-name="Path 73" d="M257.575,398.955a27.713,27.713,0,0,1-.408,3.159c-1.022,4.194.369,7.967,1.93,11.722-3.11,1.29-6.3.683-9.469.372l-2.69-3.109c-1.222-1.859-2.666-3.563-3.853-5.441-.468-.74-1.282-1.4-1.017-2.467.546-1.071,1.776-1.666,2.406-.857,1.164,1.5,1.76.379,2.584-.115,2.036-1.219,4.1-2.391,6.208-3.476,1.03-.531,1.61-1.047,1.318-2.281-.146-.617-.373-1.625.6-1.609.886.014,1.381.839,1.362,1.827-.007.386-.975,1.111.4,1.117C257.338,397.8,257.43,398.521,257.575,398.955Z" transform="translate(-162.983 -283.56)" fill="#5381f9"/>
      <path id="Path_74" data-name="Path 74" d="M329.43,404.909c.872-2.686,1.72-5.379,2.622-8.054,1.116-3.31.5-6.485-.659-9.631,2.014-.973,3.3-2.75,4.853-4.253.945-.914,2.234-1.78,3.776-1.21-.969-.956-3.829-.589-2.453-3.335.189-.252.61-.6.714-.479,1.537,1.721,2.978.484,4.339-.187,1.393-.688,1.566.058,1.651,1.113a71.274,71.274,0,0,1-13.15,24.48A14.613,14.613,0,0,1,329.43,404.909Z" transform="translate(-196.337 -276.936)" fill="#496ff5"/>
      <path id="Path_75" data-name="Path 75" d="M348.754,370.224c-.461-.121-.259-1.537-1.338-.584a5.538,5.538,0,0,1-2.281.965c-.929.237-2.308,1.152-2.181-1.007l-.651.179c-.683.122-.761-.39-.892-.847a11.26,11.26,0,0,0-.236-4.65,30.754,30.754,0,0,1,1.756-2.944c.7-1.282,1.946-1.909,3.973-1.631-1.884-1.224-.952-2.244-.393-3.276l2.148-1.6a2.851,2.851,0,0,0,.5.467c3.3,1.834,3.33,1.838,2.422,5.515A57.154,57.154,0,0,1,348.754,370.224Z" transform="translate(-200.819 -268.287)" fill="#466cf4"/>
      <path id="Path_76" data-name="Path 76" d="M224.885,355.018q.006,8.309.011,16.616c-1.876-4.41-2.756-9.109-4-13.7-.253-.933.095-1.405,1.018-1.691C222.933,355.926,223.9,355.434,224.885,355.018Z" transform="translate(-154.893 -268.36)" fill="#3754ee"/>
      <path id="Path_77" data-name="Path 77" d="M266.565,428.765l4.287,7.775a46.332,46.332,0,0,1-12.5-7.688A9.245,9.245,0,0,1,266.565,428.765Z" transform="translate(-169.216 -296.149)" fill="#466bf3"/>
      <path id="Path_78" data-name="Path 78" d="M216.1,418.143c-.079-1.545.346-3.12-1.139-4.435-.8-.712.072-5.73.807-6.273a41.662,41.662,0,0,1,3.625,6.524c-1.426.61-2.844,1.19-2.456,3.229C217.016,417.6,216.523,417.943,216.1,418.143Z" transform="translate(-152.536 -288.361)" fill="#f8f0ec"/>
      <path id="Path_79" data-name="Path 79" d="M196.757,363.769l-1.6-2.4c-.628.587.189,1.789-.915,2-.178.035-.494-.643-.746-.991.25-1.532-.714-3.155.756-4.65.688-.7-.96-2.751-2.116-2.767a15.587,15.587,0,0,1-3.91-.354c1.2-.792,2.481-.544,3.715-.558,1.145-.014,1.976-.28,2.076-1.588Z" transform="translate(-142.459 -267.385)" fill="#f7eee9"/>
      <path id="Path_80" data-name="Path 80" d="M265.029,427.876l-8.215.087a8.613,8.613,0,0,1-2.489-2.054c3.13-.783,6.317-.106,9.468-.373Z" transform="translate(-167.679 -295.26)" fill="#f5f7fb"/>
      <path id="Path_81" data-name="Path 81" d="M239.6,404.823c.788,2.076,2.333,3.685,3.427,5.569.445.766,1.256,1.366,1.21,2.386a49.555,49.555,0,0,1-9.3-13.524c1.21.343,1.292,1.828,2.351,2.324A7.623,7.623,0,0,1,239.6,404.823Z" transform="translate(-160.281 -285.239)" fill="#4167ef"/>
      <path id="Path_82" data-name="Path 82" d="M197.465,350.381c-1.335-.985-.559,1-1.268.9.059-2.351.962-2.786,3.7-1.78A4.3,4.3,0,0,1,197.465,350.381Z" transform="translate(-145.499 -266.061)" fill="#f7eee9"/>
      <path id="Path_83" data-name="Path 83" d="M347.742,431.388c2.239-.1,2.239-.1,1.878,2.1-.731-.693-1.21-1.64-2.273-1.612Z" transform="translate(-203.174 -297.489)" fill="#fbf7f4"/>
      <path id="Path_84" data-name="Path 84" d="M203.89,346.75l.458.91a3.452,3.452,0,0,1-1.863.892C201.172,346.563,203.54,347.443,203.89,346.75Z" transform="translate(-147.748 -265.205)" fill="#f7eee9"/>
      <path id="Path_85" data-name="Path 85" d="M208.751,345.046a9.048,9.048,0,0,0,.675-1.662c.1-.516.205-.978.795-.8.558.168.325.777.395,1.207A4.15,4.15,0,0,1,208.751,345.046Z" transform="translate(-150.289 -263.6)" fill="#f7eee9"/>
      <path id="Path_86" data-name="Path 86" d="M374.892,267.168a.613.613,0,0,1-.726.659.828.828,0,0,1-.824-.663c-.077-.5.317-.611.733-.607A.725.725,0,0,1,374.892,267.168Z" transform="translate(-213.089 -234.605)" fill="#faf4f2"/>
      <path id="Path_87" data-name="Path 87" d="M349.2,302.929a4.335,4.335,0,0,1,.524-3.6C350.2,300.574,349.815,301.6,349.2,302.929Z" transform="translate(-203.814 -247.112)" fill="#fbf5f3"/>
      <path id="Path_88" data-name="Path 88" d="M349.431,307.367c.432-.015.479.318.489.611.007.206-.058.556-.177.6-.346.123-.534-.172-.613-.461A.575.575,0,0,1,349.431,307.367Z" transform="translate(-203.841 -250.177)" fill="#fbf5f3"/>
      <path id="Path_89" data-name="Path 89" d="M349.677,313.867l.124-2.4c.4.839.65,1.668-.129,2.4Z" transform="translate(-204.061 -251.743)" fill="#fbf5f3"/>
      <path id="Path_90" data-name="Path 90" d="M337.986,289.689c-.169.126-.3.283-.365.26a1.614,1.614,0,0,1-.773-.382c-.2-.268.067-.412.312-.33A5.312,5.312,0,0,1,337.986,289.689Z" transform="translate(-199.141 -243.251)" fill="#fbf3ef"/>
      <path id="Path_91" data-name="Path 91" d="M241.051,398.771a5.665,5.665,0,0,1-2.311-3.246c2.183-2.162,4.1-4.716,7.484-5.122a3.061,3.061,0,0,0,2.04-.97c1.913-2.294,4.743-3.025,7.222-4.354a1.744,1.744,0,0,1,.873-.261c1.121.085.146-1.727,1.139-1.381,1.142.4-.275,1.27.1,1.975.626,1.181,1.1-.6,1.649-.03-1.49,2.9-2.023,6.109-2.92,9.2-2.286-.261-.781-3.116-2.555-3.754.4,2.988-.315,4.084-3.829,5.513a16.462,16.462,0,0,0-5.438,3.38c-.306.3-.6.849-1.117.521-.529-.338-.275-.754.094-1.126.265-.267.177-.536-.143-.732A1.851,1.851,0,0,0,241.051,398.771Z" transform="translate(-161.732 -279.187)" fill="#527ef8"/>
      <path id="Path_92" data-name="Path 92" d="M322.581,356.58l3.288,1.738c.049.057.124.108.142.173.275,1.033,2.071.466,1.976,1.882a10.128,10.128,0,0,1-2.267.075,7.094,7.094,0,0,0,2.359-.146c.594-.7,1.286-1.164,2.2-.646.467.265.528,1.1.291,1.2-1.391.583-.774,2.582-2.239,3.04-2.646.91-3,3.038-2.879,5.418a4.708,4.708,0,0,1-3.712,2.511l-6.664-8.741c.983-.156.926-1.166,1.264-1.751,1.056-1.828,2.108-3.456,4.473-3.725C321.434,357.533,321.994,356.936,322.581,356.58Z" transform="translate(-190.861 -268.956)" fill="#4367f2"/>
      <path id="Path_93" data-name="Path 93" d="M325.853,379.684c.941-1.029,2.5-1.241,3.276-2.493a1.948,1.948,0,0,1,1.241.484,3.285,3.285,0,0,0,4.368,0,1.154,1.154,0,0,1,1.245-.312,1.006,1.006,0,0,0,.474.948c-.007.957-.632,2.088,1.256,2.194a1.967,1.967,0,0,1,1.494,2.289c-1.118-1.139-3.657-.736-4.741,1.155a5.587,5.587,0,0,1-4.437,3.16Z" transform="translate(-194.972 -276.82)" fill="#476cf3"/>
      <path id="Path_94" data-name="Path 94" d="M328.9,393.716c.523.58.239,1.06.378,1.985A2.09,2.09,0,0,1,328.9,393.716Z" transform="translate(-196.098 -283.126)" fill="#f6cb99"/>
      <path id="Path_95" data-name="Path 95" d="M197.993,344.381c-1.885.5-3.575-.331-5.355-.582C194.422,344.06,196.307,343.357,197.993,344.381Z" transform="translate(-144.141 -264.079)" fill="#f7eee9"/>
      <path id="Path_96" data-name="Path 96" d="M191.05,350.79a.584.584,0,0,1-.763.33c-.465-.15-.867-.429-.644-.973.061-.151.55-.243.792-.177A.746.746,0,0,1,191.05,350.79Z" transform="translate(-142.974 -266.425)" fill="#f7eee9"/>
      <path id="Path_97" data-name="Path 97" d="M197.778,347.012a1.446,1.446,0,0,1-1.51.863C196.491,347.189,196.973,347.048,197.778,347.012Z" transform="translate(-145.526 -265.305)" fill="#f7eee9"/>
      <path id="Path_98" data-name="Path 98" d="M191.126,362.3c-.122-.24-.286-.413-.257-.542.038-.164.232-.293.359-.437.117.138.341.291.325.409C191.529,361.9,191.329,362.044,191.126,362.3Z" transform="translate(-143.465 -270.764)" fill="#f7eee9"/>
      <path id="Path_110" data-name="Path 110" d="M243.5,511.778c-2.908.949-1.869-1.084-1.8-2.384Z" transform="translate(-162.77 -327.266)" fill="#f9f2ee"/>
      <path id="Path_119" data-name="Path 119" d="M207.934,449.717c-.506-3.465.914-6.583,1.749-9.81a3.867,3.867,0,0,0,.094-1.372c-.164-1.445.494-1.981,1.868-1.806a75,75,0,0,0-1.93,11.451A1.76,1.76,0,0,1,207.934,449.717Z" transform="translate(-149.937 -299.527)" fill="#f8f0ec"/>
      <path id="Path_120" data-name="Path 120" d="M215.5,428.461a6.993,6.993,0,0,1,.928-3.711C216.188,426,217.079,427.542,215.5,428.461Z" transform="translate(-152.863 -294.968)" fill="#f8f0ec"/>
      <path id="Path_121-2" data-name="Path 121" d="M229.145,494.06a.6.6,0,0,1-.633.538c-.2.012-.522-.079-.584-.216-.163-.362.117-.54.441-.583C228.656,493.761,228.97,493.727,229.145,494.06Z" transform="translate(-157.588 -321.306)" fill="#f8f0ed"/>
      <path id="Path_122" data-name="Path 122" d="M445.58,432.077c.581,3.085,1.875,5.574.845,8.35-.273.735-.484,1.487-1.478,1.485-.683,0-1.439.139-1.892-.539a1.7,1.7,0,0,1,.26-2.1C444.71,437.285,444.367,434.755,445.58,432.077Z" transform="translate(-239.593 -297.764)" fill="#fcf8f7"/>
      <path id="Path_123" data-name="Path 123" d="M440.92,455.377c.448-1.191,1.13-1.51,2.079-1.2a.506.506,0,0,1,.283.758C442.647,455.827,441.814,455.266,440.92,455.377Z" transform="translate(-238.879 -306.154)" fill="#fcf8f7"/>
      <path id="Path_124" data-name="Path 124" d="M439,461.171c.869-1,1.584-1.262,2.521-.28C440.806,461.744,440.039,461.567,439,461.171Z" transform="translate(-238.147 -308.523)" fill="#fcf8f7"/>
      <path id="Path_125" data-name="Path 125" d="M434.767,470.934c.346-.014.657.158.607.478-.078.5-.216,1.087-.795,1.252-.469.134-.652-.283-.718-.654C433.739,471.322,434.269,471.131,434.767,470.934Z" transform="translate(-236.179 -312.59)" fill="#fcf8f7"/>
      <path id="Path_126-2" data-name="Path 126" d="M434.855,483.947H433c.074-.764.367-1.4,1.246-1.288C434.983,482.749,434.8,483.441,434.855,483.947Z" transform="translate(-235.857 -317.06)" fill="#fcf8f7"/>
      <path id="Path_127" data-name="Path 127" d="M437.835,467.162c.629-.63,1.185-.317,1.953-.377C439.128,467.885,438.585,467.7,437.835,467.162Z" transform="translate(-237.702 -310.998)" fill="#fcf8f7"/>
      <path id="Path_128" data-name="Path 128" d="M161.767,381.655c1.231-.6,2.493-.806,3.467-.087,1.05.775.427,2.147.515,3.259.031.389-.1.8-.567.86-.635.08-.842-.418-.761-.873C164.79,382.761,163.621,382,161.767,381.655Z" transform="translate(-132.361 -278.317)" fill="#f6ede8"/>
      <path id="Path_129" data-name="Path 129" d="M190,432.605c.066-.641-.215-1.368.464-1.855.492.064.933.215.85.829C191.211,432.321,190.664,432.555,190,432.605Z" transform="translate(-143.132 -297.257)" fill="#f8efea"/>
      <path id="Path_130" data-name="Path 130" d="M181.627,459.428c-.651-1.27.466-.771.928-.928A.847.847,0,0,1,181.627,459.428Z" transform="translate(-139.863 -307.846)" fill="#f9efec"/>
      <path id="Path_131" data-name="Path 131" d="M324.258,317.648a13.593,13.593,0,0,0-8.861,8.836c-.265.156-.774.346-.758.464.5,3.654-3.656,3.448-4.767,5.759a1.1,1.1,0,0,1-.941.466c-.562-.138-.426-.735-.427-1.173-.009-3.389,0-6.777,0-10.166.946-2.51,3.747-2.836,5.386-4.566,1.379-1.456,2.217-3.5,4.334-4.2,2.008.193,3.49,1.551,5.221,2.357C324.441,315.886,324.209,316.824,324.258,317.648Z" transform="translate(-188.347 -252.352)" fill="#3f5ef0"/>
      <path id="Path_132" data-name="Path 132" d="M318.228,311.325c-1.772,1.6-2.989,3.671-4.8,5.3-1.54,1.387-3.669,1.795-4.924,3.47q0-5.794,0-11.588A28.318,28.318,0,0,1,318.228,311.325Z" transform="translate(-188.353 -250.611)" fill="#3c5bf0"/>
      <path id="Path_133" data-name="Path 133" d="M235.578,330.3l-.082-.453a56.936,56.936,0,0,1,.171-11.571,6.822,6.822,0,0,1,2.689-2.362q15.917-.038,31.833-.089a5.613,5.613,0,0,1,3.99,1.493c.544.68,1.239,1.3.915,2.323-.021,6.209-.024,12.418-.119,18.626,0,.283.96,1.891-.818,1.175-1.388-.6-1.876-2-2.641-3.121-1.051-1.532-2.284-2.479-4.235-2.122-2.912-.032-5.817.106-8.723.068-1.054-.014-2.171.113-3.015-.769-4.594-.037-9.189-.143-13.781-.085C239.1,333.451,236.962,332.687,235.578,330.3Z" transform="translate(-160.414 -253.406)" fill="#fdfdfe"/>
      <path id="Path_134" data-name="Path 134" d="M247.134,355.178a6.019,6.019,0,0,1,1.378-3.1l1.317-.533a45.473,45.473,0,0,1,10.015-.614c2.431.066,4.868-.1,7.295.1.456.1,1.056.252,1.135.672.308,1.615,1.483,1.845,2.791,1.942a.931.931,0,0,1,.55.262,20.2,20.2,0,0,1,.189,5.073c0,2.073-1.231,3.087-3.206,3.206-1.616.1-3.239.077-4.86.109a69.945,69.945,0,0,1-11.111.008c-.686-.033-1.374-.041-2.058-.1-2.063-.186-3.187-1.24-3.232-3.4C247.312,357.6,247.6,356.362,247.134,355.178Z" transform="translate(-164.935 -266.798)" fill="#fdcb15"/>
      <path id="Path_135" data-name="Path 135" d="M275.783,349.1l-7.9-.155a.657.657,0,0,1,.148-1.036,24.272,24.272,0,0,1,6.657-.415,2.15,2.15,0,0,0,1.974-.317c.2-.247.529-.263.788-.411a.928.928,0,0,0-.744.385,1.7,1.7,0,0,1-1.166.369,2.669,2.669,0,0,1-.62-.179c-.574-.344-1.507-.544-1.414-1.312.109-.9,1.132-.886,1.84-1.051a12.511,12.511,0,0,1,3.212-.1c.683.02,1.4.213,1.839-.557a2.461,2.461,0,0,1,3.072,1.333c.926,1.591,2.028,3.079,3.054,4.612-.691.471-1.709.858-.33,1.726-.678.5-1.145-.154-1.664,0-2.593.754-2.593.756-2.849-2.066-.64.73-.137,1.8-.966,2.382-.532-.313-.431-1.229-1.151-1.434a3.8,3.8,0,0,1-1.4-.511A11.442,11.442,0,0,1,275.783,349.1Z" transform="translate(-172.781 -264.233)" fill="#4c75f6"/>
      <path id="Path_136" data-name="Path 136" d="M256.018,369.324l11.111-.008c-1.634.909-3.4.2-5.093.423C260.037,369.5,257.971,370.235,256.018,369.324Z" transform="translate(-168.325 -273.816)" fill="#4c77fd"/>
      <path id="Path_137" data-name="Path 137" d="M299.09,320.566l-.915-2.323c1.195.351,1.859.994,1.284,2.323h-.369Z" transform="translate(-184.411 -254.327)" fill="#4f75f4"/>
      <path id="Path_138" data-name="Path 138" d="M284.836,353.565c.652-.066.687.581,1.02.884l-.1.468c-.149,0-.3,0-.446,0-.464.3-.881.273-1.071-.288C284.06,354.105,284.377,353.774,284.836,353.565Z" transform="translate(-179.074 -267.804)" fill="#f2c522"/>
      <path id="Path_139" data-name="Path 139" d="M275.982,313.752c.5,1.578-.826.877-1.265.882-4.769.061-9.539.042-14.309.037-3.461,0-6.923-.02-10.385-.031,1.313-.862,2.779-.231,4.16-.426,6.467,0,12.935.011,19.4-.014C274.4,314.2,275.3,314.508,275.982,313.752Z" transform="translate(-166.038 -252.614)" fill="#4266f7"/>
      <path id="Path_140" data-name="Path 140" d="M235.169,319.792q-.085,5.786-.171,11.571c-2.174-.081-.061-1.733-.85-2.321.968-2.184.195-4.487.462-6.718C234.712,321.466,234.221,320.466,235.169,319.792Z" transform="translate(-159.916 -254.918)" fill="#486ef4"/>
      <path id="Path_141" data-name="Path 141" d="M233.215,322.751V329.6l-.464.009v-6.863Z" transform="translate(-159.447 -256.047)" fill="#3e66ed"/>
      <path id="Path_142" data-name="Path 142" d="M254.707,312.4h2.615A2.752,2.752,0,0,1,254.707,312.4Z" transform="translate(-167.825 -252.099)" fill="#4367f2"/>
      <path id="Path_143" data-name="Path 143" d="M314.235,236.62a1.844,1.844,0,0,1-.644.366c-.4.053-.461-.3-.437-.6.029-.364.305-.49.625-.49C314.158,235.893,314.271,236.141,314.235,236.62Z" transform="translate(-190.125 -222.904)" fill="#fbf3ef"/>
      <path id="Path_144" data-name="Path 144" d="M268.788,276.893l5.084.074c.945,1.785-.15,1.917-1.512,1.912q-8.978-.039-17.955-.043c-.419-1.425.137-1.894,1.581-1.881C260.254,276.993,264.521,276.921,268.788,276.893Z" transform="translate(-167.658 -238.549)" fill="#fafbfc"/>
      <path id="Path_145" data-name="Path 145" d="M239.034,309.984c.325.082.764-.074.669.425-.03.155-.307.336-.495.369a.477.477,0,0,1-.613-.482C238.6,310.18,238.9,310.072,239.034,309.984Z" transform="translate(-161.676 -251.176)" fill="#4062f1"/>
      <path id="Path_146" data-name="Path 146" d="M246.25,277.482l.469-.438c.794-.022,1.395.227,1.35,1.147a.748.748,0,0,1-.782.7C246.295,278.917,246.21,278.236,246.25,277.482Z" transform="translate(-164.595 -238.606)" fill="#e6edfa"/>
      <path id="Path_147" data-name="Path 147" d="M276.233,344.406c.694,1.093.045,1.229-.836,1.137a10.418,10.418,0,0,0-5.646.517c.106.7,1.132.538,1.389,1.187a6.235,6.235,0,0,1-5.1,0c-1.892-.99-3.921-.236-5.874-.458-1.12-.127-2.275.2-3.381-.443h8.7c-2.259-.837-4.688-.08-7.458-.94,2.177-1.015,4.155.208,5.719-1Z" transform="translate(-168.617 -264.31)" fill="#4971f6"/>
      <path id="Path_148" data-name="Path 148" d="M261.616,350.331v.851l-10.208.032c-.319-.727-.072-1.089.657-.745a2.091,2.091,0,0,0,2.134-.14A25.107,25.107,0,0,1,261.616,350.331Z" transform="translate(-166.513 -266.466)" fill="#4c6ff8"/>
      <path id="Path_149" data-name="Path 149" d="M263.423,350.055l-7.419,0c2.421-.979,4.952-.213,7.419-.463,2.38-.487,4.783-.129,7.176-.192a.413.413,0,0,1,.245.654Z" transform="translate(-168.32 -266.189)" fill="#4a70ef"/>
      <path id="Path_150" data-name="Path 150" d="M275.421,349.454H268c.649-.773,1.537-.351,2.319-.464h5.1c.117.1.156.207.117.31S275.46,349.454,275.421,349.454Z" transform="translate(-172.897 -266.054)" fill="#4c75f6"/>
      <path id="Path_151" data-name="Path 151" d="M233.361,341.289c-.07.469-.226.991-.794.807s-1.017-.614-.2-1.15c.14.671.554.544.994.343Z" transform="translate(-159.129 -262.99)" fill="#486ef4"/>
      <path id="Path_152" data-name="Path 152" d="M338.807,474.276c-1.527.543-2.892-.633-4.414-.158C335.965,473.114,337.363,473.94,338.807,474.276Z" transform="translate(-198.231 -313.622)" fill="#fbf7f4"/>
      <path id="Path_153" data-name="Path 153" d="M284.541,470.72a1.565,1.565,0,0,1-1.659.012C283.359,470.385,283.832,470.445,284.541,470.72Z" transform="translate(-178.576 -312.422)" fill="#f1f7e8"/>
      <path id="Path_154" data-name="Path 154" d="M334.829,360.561c-.834-.562-2.254-.422-2.3-1.923a14.036,14.036,0,0,0,10.684-1.22c.3.52,1.315.186,1.291,1.149-.468.875-1.255-.85-1.613.089-.4,1.041.508,1.254,1.215,1.555a.588.588,0,0,1,.34.754.549.549,0,0,1-.7.43c-2.382-.833-3.4.487-4.2,2.448-.229.565-.988.917-1.5,1.366a3.682,3.682,0,0,1-3.21-1.329c1.176-.542.487-2.466,2.027-2.772.035-.007.072-.733-.08-.83C336.09,359.839,335.515,360.65,334.829,360.561Z" transform="translate(-197.519 -269.276)" fill="#4669f1"/>
      <path id="Path_155" data-name="Path 155" d="M322.609,347.786c.7.507,1.414.762,1.239,1.229-.255.68-.685.143-.938-.179A4.255,4.255,0,0,1,322.609,347.786Z" transform="translate(-193.735 -265.6)" fill="#f8564f"/>
      <path id="Path_156" data-name="Path 156" d="M334.2,367.868a7.444,7.444,0,0,1,3.21,1.329,4.556,4.556,0,0,1,.489,4.607c-2.657,2.5-4.264,2.464-6.854-.169C330.505,370.161,331.153,368.977,334.2,367.868Z" transform="translate(-196.888 -273.263)" fill="#fbca16"/>
      <path id="Path_157" data-name="Path 157" d="M334.314,362.718a4.588,4.588,0,0,1-3.229,0Z" transform="translate(-196.969 -271.298)" fill="#4669f1"/>
      <path id="Path_158" data-name="Path 158" d="M332.958,366.467c.069.223.041.5-.212.438-.224-.053-.412-.322-.572-.529-.033-.043.1-.3.2-.344C332.791,365.848,332.818,366.246,332.958,366.467Z" transform="translate(-197.382 -272.544)" fill="#4669f1"/>
      <path id="Path_166" data-name="Path 166" d="M276.855,328.172c-.595-.019-.553.494-.776.76a.732.732,0,0,1-1.03.1c-.409-.226-.437-.555-.215-.96.2-.36.8-.761.268-1.149-.459-.333-1.623.07-1.2-1.1.384-1.053,1.18-.084,1.764-.208.725-.154.329-.717.3-1.1-.045-.524-.012-.92.647-.945.688-.027,1.033.234.84.96-.255.963,0,1.325,1.017.941.261-.1.739-.142.852,0a2.9,2.9,0,0,1,.316,1.035c-2.335-.986.247,3.526-2.411,2.153C277.052,328.56,276.959,328.311,276.855,328.172Z" transform="translate(-175.115 -256.357)" fill="#0f2298"/>
      <path id="Path_167" data-name="Path 167" d="M262,326.382c1.006-1.007,1.006-1.007,2.719-.8,0-.464-.008-.92,0-1.375.011-.479.292-.641.743-.635s.779.211.7.669c-.24,1.375.339,1.547,1.488,1.158.428-.145.677.22.748.653.08.485-.158.745-.61.736-1.484-.032-.985.623-.495,1.325.115.164.228.466.155.6-.236.434-.906.744-1.095.423-.714-1.209-1.09-.3-1.883-.131-1.843.382-.788-.9-.473-1.632a1.97,1.97,0,0,0,.064-.477L262,326.7Z" transform="translate(-170.608 -256.361)" fill="#0c2095"/>
      <path id="Path_168" data-name="Path 168" d="M258.158,326.359c0,.107,0,.214,0,.32l-1.87.192c-.255.508.162.8.361,1.154s.313.729-.127.984c-.344.2-.82.32-1.023-.081-.5-.989-.9-1.171-1.353,0a.358.358,0,0,1-.164.16c-.507.263-.851-.027-1.181-.357,2.247-1.392-2.413-2.6-.314-3.2,1.316-.375,1.588-.477,1.652-1.681.027-.5.784-.252,1.21-.342.9.316-.584,1.883.972,1.858C257.282,325.054,257.68,325.782,258.158,326.359Z" transform="translate(-166.766 -256.338)" fill="#0d2197"/>
      <path id="Path_169" data-name="Path 169" d="M288.446,325.646c.689.09,1.382-.681,1.96-.065.336.358.5,1.148-.351,1.181-1.307.049-1.022.437-.6,1.325.476,1-.29,1.388-1.248.673-.254-.189-.091-1.007-.88-.46-1.592,1.1-2.007.923-1.408-.317.45-.929.442-1.2-.612-1.2a.549.549,0,0,1-.6-.74c.116-.559.455-.738,1.008-.642.5.087,1.253.678,1.219-.537-.016-.56-.314-1.356.746-1.286s.534.891.638,1.413Z" transform="translate(-179.262 -256.362)" fill="#0d2097"/>
      <path id="Path_170" data-name="Path 170" d="M244.277,326.533c.441.366.87.062,1.312-.006a1.373,1.373,0,0,1,.868.049.916.916,0,0,1,.266,1.033c-.16.641-2.3-.423-1.168,1.528.57.983-.095,1.913-1.212.634-.547-.625-.756-.643-1.092.075-.266.569-.724.514-1.15.236-.557-.364-.207-.769-.012-1.185.144-.31.843-.764-.073-.962-.6-.13-1.409-.045-1.065-.994.372-1.027,1.123-.295,1.72-.2a2.993,2.993,0,0,1,.441.14C243.5,326.747,243.731,326.113,244.277,326.533Z" transform="translate(-162.545 -257.436)" fill="#102498"/>
      <path id="Path_171" data-name="Path 171" d="M245.661,325.649l-1.165.345q.058-.907.116-1.816c1.669-.45,1.132.662,1.035,1.461Z" transform="translate(-163.929 -256.552)" fill="#001796"/>
      <path id="Path_172" data-name="Path 172" d="M258.433,325.37c-.4.283-.825.6-.891-.259-.041-.532-.055-1.067-.082-1.6C258.7,323.655,257.638,325,258.433,325.37Z" transform="translate(-168.876 -256.338)" fill="#f1f4f6"/>
      <path id="Path_173" data-name="Path 173" d="M245.72,325.4c-.129-.64-.041-1.434-1.035-1.461a.672.672,0,0,1,1.068-.343C246.349,324.13,246.008,324.8,245.72,325.4Z" transform="translate(-164.001 -256.315)" fill="#102498"/>
      <path id="Path_174" data-name="Path 174" d="M283.533,353.019c-.288.605-.694,1.252.472,1.349-1.847.416-3-.383-3.232-2.239A4.075,4.075,0,0,1,283.533,353.019Z" transform="translate(-177.771 -267.257)" fill="#face0d"/>
      <path id="Path_175" data-name="Path 175" d="M282.248,348.241c.252-2.854,1.266.206,1.474-.067l-1.472.07Z" transform="translate(-178.334 -265.306)" fill="#4971f6"/>
      <path id="Path_176" data-name="Path 176" d="M280,349.463V349h1.39l0,0a1.4,1.4,0,0,1-1.393.925Z" transform="translate(-177.476 -266.063)" fill="#4971f6"/>
    </g>
    <g id="Group_226" data-name="Group 226" transform="translate(121.697 249.035)">
      <rect id="Rectangle_1553" data-name="Rectangle 1553" width="65" height="25" rx="6" transform="translate(-0.478 -0.336)" fill="#fdcb14"/>
      <text id="OTP" transform="translate(14.522 18.664)" fill="#0749a7" font-size="19" font-family="SegoeUI-Bold, Segoe UI" font-weight="700"><tspan x="0" y="0">OTP</tspan></text>
    </g>
  </g>
</svg>
