<svg xmlns="http://www.w3.org/2000/svg" width="190.588" height="160.779" viewBox="0 0 190.588 160.779">
  <g id="Group_114" data-name="Group 114" transform="translate(-264.54 -82.067)">
    <g id="Group_114-2" data-name="Group 114" transform="translate(421.213 224.921)">
      <rect id="Rectangle_99" data-name="Rectangle 99" width="1.24" height="3.601" transform="matrix(0.248, 0.969, -0.969, 0.248, 8.825, 0)" fill="#5793ce"/>
      <rect id="Rectangle_100" data-name="Rectangle 100" width="1.24" height="3.601" transform="translate(7.046 1.736) rotate(75.627)" fill="#5793ce"/>
      <rect id="Rectangle_101" data-name="Rectangle 101" width="1.24" height="3.6" transform="translate(5.267 3.471) rotate(75.627)" fill="#5793ce"/>
      <rect id="Rectangle_102" data-name="Rectangle 102" width="1.24" height="3.601" transform="translate(3.488 5.207) rotate(75.624)" fill="#5793ce"/>
    </g>
    <g id="Group_142" data-name="Group 142" transform="translate(278.261 83.465)">
      <path id="Path_1775" data-name="Path 1775" d="M365.962,137.13l-32.734,19.206c-8.3-2.547-18.873-1.76-25.851,2.335-8.49,4.981-8.434,12.961.125,17.822a26.116,26.116,0,0,0,6.44,2.525,34.35,34.35,0,0,0,5.118.883c6.808.663,14.074-.551,19.312-3.625,6.344-3.723,7.914-9.118,4.731-13.637l4.517-2.65-.128-2.868,4.753-.033-.12-2.685,4.754-.033-.12-2.686,4.754-.033-.12-2.685,4.753-.033-.12-2.686,5.075-.036,1.549-.908,1.709-7.051ZM319.9,173.879a8.884,8.884,0,0,1-8.036.057c-2.228-1.266-2.243-3.343-.032-4.64a8.883,8.883,0,0,1,8.036-.057C322.093,170.5,322.107,172.582,319.9,173.879Z" transform="translate(-291.054 -102.761)" fill="#c4d9e8"/>
      <path id="Path_1776" data-name="Path 1776" d="M403.653,292.629l-44.148-25.383c-2.972-1.716-2.6-4.714.833-6.695l42.848-24.738c3.432-1.982,8.624-2.2,11.6-.481l44.148,25.383c2.972,1.716,2.6,4.713-.832,6.695L415.25,292.148C411.817,294.13,406.625,294.345,403.653,292.629Z" transform="translate(-310.838 -136.77)" fill="#c4d9e8"/>
      <g id="Group_117" data-name="Group 117" transform="translate(34.4 51.47)">
        <g id="Group_115" data-name="Group 115" transform="translate(61.338)">
          <path id="Path_1777" data-name="Path 1777" d="M481.889,210.3l-7.633-4.407L502.4,189.643c1.329-.768,1.329-2.016,0-2.783l-28.749-16.6a5.333,5.333,0,0,0-4.821,0l-28.141,16.247-7.632-4.407L461.2,165.855c5.538-3.2,14.548-3.2,20.086,0l28.749,16.6c5.537,3.2,5.537,8.4,0,11.6Z" transform="translate(-433.054 -163.458)" fill="#5793ce"/>
        </g>
        <g id="Group_116" data-name="Group 116" transform="translate(0 8.093)">
          <path id="Path_1778" data-name="Path 1778" d="M461.916,216.6c0-4.08-2.481-8.82-5.541-10.588l-50.986-29.437a3.558,3.558,0,0,0-3.59-.307l0,0-60.878,35.376,58.87,44.361,59.976-34.81a2.776,2.776,0,0,0,.53-.307h0C461.3,220.13,461.916,218.642,461.916,216.6Z" transform="translate(-339.427 -175.917)" fill="#d4ecff"/>
          <path id="Path_1779" data-name="Path 1779" d="M427.378,274.777l59.976-34.81a2.778,2.778,0,0,0,.53-.307h0c1-.759,1.621-2.247,1.621-4.285a13.593,13.593,0,0,0-1.493-5.9l-68.368,39.472Z" transform="translate(-367.016 -194.687)" fill="#173d7a"/>
          <path id="Path_1780" data-name="Path 1780" d="M395.15,274.762l-50.987-29.437c-3.06-1.767-5.541-6.507-5.541-10.587h0c0-4.081,2.481-5.956,5.541-4.189l50.987,29.437c3.06,1.767,5.541,6.507,5.541,10.587h0C400.691,274.654,398.211,276.529,395.15,274.762Z" transform="translate(-338.623 -194.83)" fill="#5793ce"/>
        </g>
        <path id="Path_1781" data-name="Path 1781" d="M409.988,280.123l-6.13-3.536a2.645,2.645,0,0,1-1.1-2.11h0c0-.813.495-1.187,1.1-.835l6.13,3.536a2.645,2.645,0,0,1,1.1,2.11h0C411.092,280.1,410.6,280.475,409.988,280.123Z" transform="translate(-361.097 -202.025)" fill="#fff"/>
      </g>
      <g id="Group_141" data-name="Group 141" transform="translate(0)">
        <g id="Group_140" data-name="Group 140">
          <path id="Path_1782" data-name="Path 1782" d="M343.029,110.732l10.475,5.951,10.689-6.271-.028-2.728-.091.053-.008-.193,4.754-.033-.028-2.686,4.662-.033-.028-2.686,4.662-.033-.028-2.686,4.662-.032-.028-2.686,4.983-.035,1.548-.908,1.709-7.051-.028-2.728-.825,2.614-7.544-1.008Z" transform="translate(-305.767 -84.824)" fill="#396caa"/>
          <g id="Group_139" data-name="Group 139">
            <g id="Group_138" data-name="Group 138">
              <g id="Group_133" data-name="Group 133" transform="translate(11.825)">
                <g id="Group_119" data-name="Group 119" transform="translate(25.409)">
                  <g id="Group_118" data-name="Group 118">
                    <path id="Path_1783" data-name="Path 1783" d="M353.461,113.349l10.689-6.271-.128-2.867,4.754-.033-.12-2.685,4.754-.033-.12-2.685,4.754-.033-.12-2.685,4.754-.033-.12-2.685,5.076-.036,1.548-.908,1.709-7.051-8.4-1.122L342.985,107.4Z" transform="translate(-342.985 -84.219)" fill="#d4ecff"/>
                  </g>
                </g>
                <g id="Group_121" data-name="Group 121" transform="translate(25.409 18.65)">
                  <g id="Group_120" data-name="Group 120">
                    <path id="Path_1784" data-name="Path 1784" d="M360.579,119.235a14.728,14.728,0,0,0-4.855-4.186,25.06,25.06,0,0,0-5.018-2.118l-7.721,4.529,10.475,5.951Z" transform="translate(-342.985 -112.931)" fill="#396caa"/>
                  </g>
                </g>
                <g id="Group_123" data-name="Group 123" transform="translate(38.524 0.933)">
                  <g id="Group_122" data-name="Group 122">
                    <path id="Path_1785" data-name="Path 1785" d="M397.678,87.027l.287-1.183-1.409-.188-33.38,19.585,1.758,1Z" transform="translate(-363.176 -85.656)" fill="#5793ce"/>
                  </g>
                </g>
                <g id="Group_125" data-name="Group 125" transform="translate(0.003 30.636)">
                  <g id="Group_124" data-name="Group 124">
                    <path id="Path_1786" data-name="Path 1786" d="M303.987,135.261l-.115-3.878L305.113,134Z" transform="translate(-303.872 -131.383)" fill="#d3d0cf"/>
                  </g>
                </g>
                <path id="Path_1787" data-name="Path 1787" d="M310.5,139.12c8.559,4.862,22.379,4.766,30.869-.216,4.257-2.5,6.364-5.749,6.329-8.982v0l-.119-4.109-.7.778a13.359,13.359,0,0,0-5.639-5.51c-8.559-4.862-22.379-4.765-30.869.216S301.943,134.259,310.5,139.12Zm12.363-7.254c2.228,1.266,2.243,3.343.032,4.64a8.883,8.883,0,0,1-8.036.057c-2.228-1.266-2.243-3.343-.033-4.64A8.88,8.88,0,0,1,322.865,131.866Z" transform="translate(-303.93 -95.882)" fill="#396caa"/>
                <g id="Group_127" data-name="Group 127" transform="translate(0 17.74)">
                  <g id="Group_126" data-name="Group 126">
                    <path id="Path_1788" data-name="Path 1788" d="M310.323,133.153c8.559,4.862,22.38,4.765,30.869-.216s8.433-12.961-.125-17.822-22.379-4.765-30.869.216S301.765,128.291,310.323,133.153Zm12.364-7.254c2.228,1.265,2.243,3.343.032,4.64a8.882,8.882,0,0,1-8.036.056c-2.228-1.265-2.243-3.343-.032-4.64A8.882,8.882,0,0,1,322.687,125.9Z" transform="translate(-303.867 -111.531)" fill="#f2f2f2"/>
                  </g>
                </g>
                <path id="Path_1789" data-name="Path 1789" d="M320.311,141.71a8.765,8.765,0,0,1-5.448-.8c-1.6-.908-2.051-2.232-1.368-3.387l-3.877-3.074s-2.027-2.286-4.033-4.553c-3.122,4.563-1.478,9.938,4.919,13.572a26.977,26.977,0,0,0,9.571,3.042Z" transform="translate(-303.931 -100.224)" fill="#5793ce"/>
                <g id="Group_129" data-name="Group 129" transform="translate(0 17.74)">
                  <g id="Group_128" data-name="Group 128">
                    <path id="Path_1790" data-name="Path 1790" d="M310.323,133.153a26.066,26.066,0,0,0,6.44,2.525,34.266,34.266,0,0,0,5.118.883c6.808.663,14.074-.551,19.312-3.625,8.49-4.981,8.433-12.961-.125-17.822s-22.379-4.765-30.869.216S301.765,128.291,310.323,133.153Zm12.364-7.254c2.228,1.265,2.243,3.343.032,4.64a8.882,8.882,0,0,1-8.036.056c-2.228-1.265-2.243-3.343-.032-4.64A8.882,8.882,0,0,1,322.687,125.9Z" transform="translate(-303.867 -111.531)" fill="#d4ecff"/>
                  </g>
                </g>
                <g id="Group_132" data-name="Group 132" transform="translate(2.411 19.13)">
                  <g id="Group_131" data-name="Group 131">
                    <g id="Group_130" data-name="Group 130">
                      <path id="Path_1791" data-name="Path 1791" d="M307.581,125.072c.416-2.484,2.258-4.911,5.537-6.835,7.554-4.432,19.85-4.518,27.464-.192,3.784,2.15,5.7,4.985,5.74,7.836.542-3.238-1.339-6.574-5.648-9.022-7.615-4.326-19.911-4.24-27.465.192C309.408,119.28,307.537,122.185,307.581,125.072Z" transform="translate(-307.58 -113.67)" fill="#396caa"/>
                    </g>
                  </g>
                </g>
              </g>
              <g id="Group_137" data-name="Group 137" transform="translate(0 29.859)">
                <g id="Group_136" data-name="Group 136">
                  <g id="Group_135" data-name="Group 135">
                    <g id="Group_134" data-name="Group 134">
                      <path id="Path_1792" data-name="Path 1792" d="M294.751,166.135a8.563,8.563,0,0,1-4.283-1.1c-3.067-1.74-4.774-5.238-4.8-9.849-.06-8.41,5.793-18.715,13.048-22.972,3.975-2.333,7.852-2.659,10.92-.916a8.576,8.576,0,0,1,3.175,3.175,13.219,13.219,0,0,1,1.63,6.675c.06,8.41-5.795,18.716-13.05,22.972A13.264,13.264,0,0,1,294.751,166.135Zm10.591-32.856a10.219,10.219,0,0,0-5.068,1.592c-6.407,3.759-11.578,12.861-11.524,20.289.023,3.461,1.175,6.014,3.243,7.187s4.848.857,7.834-.894c6.408-3.759,11.578-12.861,11.526-20.289a10.352,10.352,0,0,0-1.206-5.133h0a5.362,5.362,0,0,0-4.8-2.751Z" transform="translate(-285.663 -130.188)" fill="#396caa"/>
                    </g>
                  </g>
                </g>
              </g>
            </g>
          </g>
        </g>
        <path id="Path_1793" data-name="Path 1793" d="M321.586,143.822l6.093,1.493.875-4.522a8.882,8.882,0,0,1-8.036.056Z" transform="translate(-297.878 -104.045)" fill="#d4ecff"/>
        <path id="Path_1794" data-name="Path 1794" d="M313.806,144.4a26.067,26.067,0,0,0,6.44,2.525,34.266,34.266,0,0,0,5.118.883c6.808.663,14.074-.551,19.312-3.624l-24.815-.557Z" transform="translate(-295.526 -105.039)" fill="#d4ecff"/>
        <path id="Path_1795" data-name="Path 1795" d="M325.014,148.892a36.031,36.031,0,0,1-5.389-1.389v3.808a29.557,29.557,0,0,0,5.324,1.365C330.63,153.426,325.014,148.892,325.014,148.892Z" transform="translate(-297.565 -106.397)" fill="#396caa"/>
      </g>
      <path id="Path_1796" data-name="Path 1796" d="M319.247,147.368a25.274,25.274,0,0,1-3.51-1.3c-3.319-1.554.88,4.2.88,4.2s1.131.451,2.631.911Z" transform="translate(-295.755 -105.802)" fill="#5793ce"/>
    </g>
    <path id="Path_1797" data-name="Path 1797" d="M408.961,251.138l-10.857,7-5.285-.858,12.91-6.241Z" transform="translate(-44.955 -59.216)" fill="#5793ce"/>
    <g id="Group_147" data-name="Group 147" transform="translate(326.908 97.159)">
      <g id="Group_144" data-name="Group 144" transform="translate(2.355)">
        <path id="Path_1798" data-name="Path 1798" d="M392.173,305.338s-3.127-1.577-5.048.771-4.666,7.893-4.751,11.639,2.965,3.493,4.777,2.606,7.108-8.568,7.429-10.073a5.224,5.224,0,0,0-.888-3.939C393.183,305.944,392.173,305.338,392.173,305.338Z" transform="translate(-370.557 -175.222)" fill="#173d7a"/>
        <path id="Path_1799" data-name="Path 1799" d="M395.317,304.054l.145,3.24a1.838,1.838,0,0,1-.916,1.686,3.6,3.6,0,0,1-2.413.375c-2.356-.379-2.566-1.052-2.735-4.291S395.317,304.054,395.317,304.054Z" transform="translate(-373.018 -174.691)" fill="#5793ce"/>
        <g id="Group_143" data-name="Group 143" transform="translate(0 57.484)">
          <path id="Path_1800" data-name="Path 1800" d="M374.549,295.747s-3.127-1.577-5.048.771-4.666,7.892-4.751,11.638,2.965,3.493,4.777,2.607,7.108-8.568,7.429-10.073a5.223,5.223,0,0,0-.888-3.938C375.559,296.353,374.549,295.747,374.549,295.747Z" transform="translate(-364.381 -229.345)" fill="#173d7a"/>
          <path id="Path_1801" data-name="Path 1801" d="M377.693,294.463l.145,3.24a1.838,1.838,0,0,1-.916,1.686,3.607,3.607,0,0,1-2.412.375c-2.356-.379-2.566-1.052-2.735-4.291S377.693,294.463,377.693,294.463Z" transform="translate(-366.842 -228.814)" fill="#5793ce"/>
          <path id="Path_1802" data-name="Path 1802" d="M402.939,199.963c-.926-15.061-16.31,2.216-16.31,2.216L376.1,212.5l-9.482,10.416a9.346,9.346,0,0,0-2.355,7.508L368.1,259.63a2.87,2.87,0,0,0,2.879,2.494A9.688,9.688,0,0,0,372.4,262a3.568,3.568,0,0,0,3.169-3.786l-.7-27.317,19.913-12S403.865,215.023,402.939,199.963Z" transform="translate(-364.183 -193.799)" fill="#d4ecff"/>
        </g>
        <path id="Path_1803" data-name="Path 1803" d="M388.238,242.4l-2.833-1.041c-.066,0-4.817,4.595-4.776,6.2l2.132.684,5.352-5.2Z" transform="translate(-369.946 -152.983)" fill="#5793ce"/>
        <path id="Path_1804" data-name="Path 1804" d="M415.206,243.888s11.834-6.757,13.25-9.589c.555-1.109,1.417-2.269-2.036-3.945L410.638,241.6l.684,3.873Z" transform="translate(-380.463 -149.125)" fill="#5793ce"/>
        <path id="Path_1805" data-name="Path 1805" d="M420.563,208.911c-.987-15.057-16.31,2.216-16.31,2.216l-10.529,10.321-9.482,10.416a9.347,9.347,0,0,0-2.355,7.508l3.836,29.207a2.87,2.87,0,0,0,2.878,2.494,9.773,9.773,0,0,0,1.421-.124,3.568,3.568,0,0,0,3.169-3.787l-.7-27.316,19.913-12S421.465,222.677,420.563,208.911Z" transform="translate(-370.359 -139.451)" fill="#d4ecff"/>
        <path id="Path_1806" data-name="Path 1806" d="M415.321,136.79c11.664,4.835,11.43,11.73,11.43,11.73s-2.285,25.277-1.505,42.157c.326,7.057-37.494,7.6-31.854-11.231,6.65-22.2,4.157-40.17,7.27-42.88S412.3,135.539,415.321,136.79Z" transform="translate(-374.218 -115.749)" fill="#5793ce"/>
        <path id="Path_1807" data-name="Path 1807" d="M426.9,143.844c-.61,2.368-3.713,3.617-6.93,2.788s-5.331-3.421-4.721-5.789,3.713-3.616,6.93-2.787S427.505,141.476,426.9,143.844Z" transform="translate(-382.04 -116.69)" fill="#ffc2b0"/>
        <path id="Path_1808" data-name="Path 1808" d="M421.633,147.143a8.463,8.463,0,0,1-2.108-.271,7.763,7.763,0,0,1-4.09-2.5A4.455,4.455,0,0,1,414.4,140.4c.685-2.663,4.1-4.094,7.609-3.189a7.765,7.765,0,0,1,4.089,2.505,4.455,4.455,0,0,1,1.033,3.962C426.588,145.8,424.311,147.143,421.633,147.143Zm-1.756-9.087c-2.166,0-3.978,1.008-4.395,2.627a3.376,3.376,0,0,0,.818,2.98,6.642,6.642,0,0,0,3.5,2.129c2.915.748,5.719-.32,6.251-2.386a3.376,3.376,0,0,0-.818-2.98,6.637,6.637,0,0,0-3.5-2.13A7.48,7.48,0,0,0,419.877,138.055Z" transform="translate(-381.739 -116.39)" fill="#fff"/>
        <path id="Path_1809" data-name="Path 1809" d="M420.206,135.63a28.612,28.612,0,0,1-.1,4.164c-.064,1.162,4.005,2.247,5.057,1.2s.631-2.145.883-6.1S420.206,135.63,420.206,135.63Z" transform="translate(-383.78 -115.115)" fill="#ffc2b0"/>
        <path id="Path_1810" data-name="Path 1810" d="M426.046,135.744s-1,3.667-5.941,5.073l.075-3.333Z" transform="translate(-383.78 -115.97)" fill="#ea9c92"/>
        <path id="Path_1811" data-name="Path 1811" d="M424.533,117.769a8.978,8.978,0,1,1-10.94-6.445A8.978,8.978,0,0,1,424.533,117.769Z" transform="translate(-379.139 -107.311)" fill="#ffc2b0"/>
        <path id="Path_1812" data-name="Path 1812" d="M417.869,124.2s-4.943,2.118-8.366,2.142-2.668-2.842-2.668-2.842L417,122.03Z" transform="translate(-379.105 -111.164)" fill="#ea9c92"/>
        <path id="Path_1813" data-name="Path 1813" d="M406.377,118.894s4.306-1.828,8.084-1.066a3.957,3.957,0,0,1,2.283,1.357,1.347,1.347,0,0,0,.691.5c.67.152,1.766-2.627,3.068-2.69s2.171.858,1.1,2.568-.707,3.622-.215,3.9,5.7-3.716,1.106-12.82-16.27-4.2-18.086-2.355c0,0-1.913,1.666-3.468.183C400.942,108.466,399.2,121.528,406.377,118.894Z" transform="translate(-377 -105.302)" fill="#ff2c9c"/>
        <path id="Path_1814" data-name="Path 1814" d="M426.925,182.085v6.83a2.784,2.784,0,0,1-.908,2.056l-14.031,12.792,1.594,2.438,18.529-13.439a3.766,3.766,0,0,0,1.535-2.655L434.9,178.2Z" transform="translate(-380.935 -130.847)" fill="#ffc2b0"/>
        <path id="Path_1815" data-name="Path 1815" d="M439.988,150.495s4.257,6.4,5.842,23.252c0,0-7.271,2.351-11.4,1.017S439.988,150.495,439.988,150.495Z" transform="translate(-388.443 -121.139)" fill="#5793ce"/>
        <path id="Path_1816" data-name="Path 1816" d="M432.838,162.956a118.6,118.6,0,0,0-1.761,13.11,2.675,2.675,0,0,0,1.761,2.584h0Z" transform="translate(-387.625 -125.506)" fill="#396caa"/>
      </g>
      <g id="Group_145" data-name="Group 145" transform="translate(2.243 67.816)">
        <path id="Path_1817" data-name="Path 1817" d="M405.7,224.639l-3.1-.409-20.019-11.558a2.784,2.784,0,0,0-2.5.1l-14.185,8.187-1.875-.247v1.867h0a.731.731,0,0,0,.431.657l22.687,13.1a2.782,2.782,0,0,0,2.5-.1l15.448-8.916a1.011,1.011,0,0,0,.613-.842h0Z" transform="translate(-364.011 -210.658)" fill="#173d7a"/>
        <path id="Path_1818" data-name="Path 1818" d="M390.654,219.544l-1.422-.821H373.6l-7.709,4.448-1.875-.247v1.867h0a.731.731,0,0,0,.431.657l22.687,13.1a2.343,2.343,0,0,0,1.292.242Z" transform="translate(-364.011 -212.866)" fill="#396caa"/>
        <path id="Path_1819" data-name="Path 1819" d="M364.844,225.3l-.832-.11v1.867h0a.731.731,0,0,0,.431.657l.4.231Z" transform="translate(-364.011 -215.132)" fill="#5793ce"/>
        <path id="Path_1820" data-name="Path 1820" d="M399.955,247.618a2.908,2.908,0,0,0,2.128-.132V244.31h-2.128Z" transform="translate(-376.607 -221.833)" fill="#274f89"/>
        <path id="Path_1821" data-name="Path 1821" d="M387.13,233.52l-22.687-13.1c-.642-.371-.561-1.018.18-1.446l15.448-8.916a2.783,2.783,0,0,1,2.5-.1l22.687,13.1c.642.371.561,1.018-.18,1.446l-15.448,8.916A2.782,2.782,0,0,1,387.13,233.52Z" transform="translate(-364.01 -209.706)" fill="#fff"/>
        <path id="Path_1822" data-name="Path 1822" d="M388.641,234.116l-18.864-10.891c-.534-.308-.467-.846.149-1.2l8.278-4.655a2.314,2.314,0,0,1,2.082-.086l18.864,10.89c.533.309.466.846-.15,1.2l-8.278,4.655A2.312,2.312,0,0,1,388.641,234.116Z" transform="translate(-365.905 -212.288)" fill="#d4ecff"/>
      </g>
      <path id="Path_1823" data-name="Path 1823" d="M389.891,209.164l-.235,1.565a11.573,11.573,0,0,0,.1,4.014l.279,1.38a1.94,1.94,0,0,0,1.554,1.524h0a1.07,1.07,0,0,0,1.255-.934l.374-3.347s.856,1.122,1.27,1.122-.462-3.352-1.4-5.248S389.891,209.164,389.891,209.164Z" transform="translate(-370.71 -141.424)" fill="#ffc2b0"/>
      <path id="Path_1824" data-name="Path 1824" d="M396.982,168.74l-2.435,4.818a9.441,9.441,0,0,0-1,3.657l-1.057,16.479-3.2-.076-1.454-18.506a6.8,6.8,0,0,1,.082-1.711l1.661-9.385Z" transform="translate(-370.11 -125.878)" fill="#ffc2b0"/>
      <g id="Group_146" data-name="Group 146" transform="translate(0 58.003)">
        <path id="Path_1825" data-name="Path 1825" d="M385.365,229.483l-1.9-2.483-20-11.582A2.783,2.783,0,0,1,362.3,213.2l.017-16.377-1.15-1.5,1.08-.626v0a.729.729,0,0,1,.785.045L385.7,207.864a2.782,2.782,0,0,1,1.159,2.221l-.019,17.836a1.011,1.011,0,0,1-.424.951h0Z" transform="translate(-360.771 -194.599)" fill="#173d7a"/>
        <path id="Path_1826" data-name="Path 1826" d="M371.531,220.092l-1.421-.823-7.8-13.55.008-8.9-1.15-1.5,1.08-.626v0a.729.729,0,0,1,.785.045L385.7,207.864a2.348,2.348,0,0,1,.854,1Z" transform="translate(-360.771 -194.599)" fill="#396caa"/>
        <path id="Path_1827" data-name="Path 1827" d="M361.677,195.984l-.51-.666,1.08-.626v0a.729.729,0,0,1,.785.045l.4.231Z" transform="translate(-360.771 -194.599)" fill="#5793ce"/>
        <path id="Path_1828" data-name="Path 1828" d="M398,215.244a2.906,2.906,0,0,1,.947,1.91l-2.216,1.279-1.061-1.843Z" transform="translate(-372.863 -201.834)" fill="#274f89"/>
        <path id="Path_1829" data-name="Path 1829" d="M384.41,208.826,361.74,195.7c-.642-.372-1.163.021-1.163.877l-.019,17.836a2.785,2.785,0,0,0,1.159,2.222l22.671,13.126c.641.372,1.162-.021,1.163-.877l.019-17.836A2.782,2.782,0,0,0,384.41,208.826Z" transform="translate(-360.557 -194.936)" fill="#5793ce"/>
      </g>
      <path id="Path_1830" data-name="Path 1830" d="M410.407,220l-.363.752a5.038,5.038,0,0,1-1.895,2.1l-2.252,1.388a2.242,2.242,0,0,1-2.3.053l-.077-.046a1.356,1.356,0,0,1-.192-2.082l2.353-2.419s-1.322,1.013-1.693.6c-.272-.3,1.282-1.758,2.475-1.805a4.71,4.71,0,0,0,2.347-.985Z" transform="translate(-375.407 -144.641)" fill="#ffc2b0"/>
      <path id="Path_1831" data-name="Path 1831" d="M398.722,137.295s-8.627,9.387-12.106,18a17.608,17.608,0,0,0,10.171,7.4C404.008,164.778,398.722,137.295,398.722,137.295Z" transform="translate(-369.689 -116.514)" fill="#5793ce"/>
      <path id="Path_1832" data-name="Path 1832" d="M398.75,168.251l1.4-13.507L396.854,167.4A18.735,18.735,0,0,0,398.75,168.251Z" transform="translate(-373.277 -122.628)" fill="#396caa"/>
      <path id="Path_1833" data-name="Path 1833" d="M413.951,134.036l-2.318-.637a5.594,5.594,0,0,0,2.722,2.184c1.615.444,1.867-.924,1.867-.924Z" transform="translate(-378.456 -115.148)" fill="#fff"/>
    </g>
    <path id="Path_1834" data-name="Path 1834" d="M343.965,95.428a6.493,6.493,0,1,1,6.493-6.493A6.5,6.5,0,0,1,343.965,95.428Zm0-11.569a5.076,5.076,0,1,0,5.076,5.076A5.081,5.081,0,0,0,343.965,83.858Z" transform="translate(-25.559 -0.131)" fill="#d4ecff"/>
    <path id="Path_1835" data-name="Path 1835" d="M547.07,169.5a4.6,4.6,0,1,1,4.6-4.6A4.61,4.61,0,0,1,547.07,169.5Zm0-7.791a3.187,3.187,0,1,0,3.187,3.187A3.191,3.191,0,0,0,547.07,161.706Z" transform="translate(-97.398 -27.413)" fill="#5793ce"/>
    <path id="Path_1836" data-name="Path 1836" d="M315.453,297.412l-3.126-6.356,6.356-3.125,3.126,6.356Zm-1.229-5.71,1.875,3.814,3.814-1.875-1.875-3.814Z" transform="translate(-16.747 -72.144)" fill="#5793ce"/>
    <path id="Path_1837" data-name="Path 1837" d="M457.479,145.737l-3.125-6.357,6.356-3.125,3.125,6.357Zm-1.229-5.711,1.875,3.814,3.814-1.875-1.874-3.814Z" transform="translate(-66.519 -18.99)" fill="#5793ce"/>
    <rect id="Rectangle_103" data-name="Rectangle 103" width="3.256" height="3.256" transform="translate(287.248 187.942) rotate(-26.18)" fill="#5793ce"/>
    <g id="Group_150" data-name="Group 150" transform="translate(384.215 82.067)">
      <g id="Group_148" data-name="Group 148" transform="translate(0)">
        <path id="Path_1838" data-name="Path 1838" d="M469.549,92.256,452.181,82.229a.888.888,0,0,0-.9-.072v-.011l-1.685.973,1.184.433V96.2a3.347,3.347,0,0,0,1.4,2.67l16.6,9.584v1.484l1.7-.98-.009,0a1.238,1.238,0,0,0,.472-1.114V94.927A3.346,3.346,0,0,0,469.549,92.256Z" transform="translate(-449.068 -82.067)" fill="#d3008d"/>
        <path id="Path_1839" data-name="Path 1839" d="M467.547,110.417,450.179,100.39a3.347,3.347,0,0,1-1.4-2.67V84.805c0-1.029.626-1.5,1.4-1.057l17.368,10.028a3.347,3.347,0,0,1,1.4,2.67V109.36C468.944,110.39,468.318,110.863,467.547,110.417Z" transform="translate(-448.781 -82.597)" fill="#ff2c9c"/>
      </g>
      <g id="Group_149" data-name="Group 149" transform="translate(4.894 11.152)">
        <path id="Path_1840" data-name="Path 1840" d="M458.66,101.426c0,.747-.525,1.05-1.172.676a2.59,2.59,0,0,1-1.172-2.029c0-.748.525-1.05,1.172-.677A2.589,2.589,0,0,1,458.66,101.426Z" transform="translate(-456.316 -99.236)" fill="#fff"/>
        <path id="Path_1841" data-name="Path 1841" d="M464.126,104.581c0,.748-.525,1.05-1.172.677a2.59,2.59,0,0,1-1.172-2.03c0-.747.524-1.05,1.172-.677A2.592,2.592,0,0,1,464.126,104.581Z" transform="translate(-458.232 -100.341)" fill="#fff"/>
        <path id="Path_1842" data-name="Path 1842" d="M469.591,107.737c0,.747-.524,1.05-1.172.676a2.59,2.59,0,0,1-1.172-2.03c0-.747.525-1.05,1.172-.676A2.588,2.588,0,0,1,469.591,107.737Z" transform="translate(-460.147 -101.447)" fill="#fff"/>
      </g>
    </g>
    <g id="Group_153" data-name="Group 153" transform="translate(264.54 192.135)">
      <g id="Group_151" data-name="Group 151" transform="translate(0 0)">
        <path id="Path_1843" data-name="Path 1843" d="M284.914,261.515l-17.038-9.837a.871.871,0,0,0-.881-.071V251.6l-1.653.955,1.161.424v12.408A3.282,3.282,0,0,0,267.876,268l16.286,9.4v1.456l1.67-.961-.009,0a1.215,1.215,0,0,0,.463-1.093v-12.67A3.283,3.283,0,0,0,284.914,261.515Z" transform="translate(-264.821 -251.518)" fill="#5793ce"/>
        <path id="Path_1844" data-name="Path 1844" d="M282.95,279.331l-17.038-9.837a3.282,3.282,0,0,1-1.371-2.62V254.2c0-1.01.614-1.474,1.371-1.037l17.038,9.837a3.282,3.282,0,0,1,1.371,2.619v12.67C284.321,279.3,283.707,279.768,282.95,279.331Z" transform="translate(-264.54 -252.039)" fill="#d4ecff"/>
      </g>
      <g id="Group_152" data-name="Group 152" transform="translate(4.802 10.941)">
        <path id="Path_1845" data-name="Path 1845" d="M274.231,270.51c0,.733-.514,1.03-1.15.663a2.542,2.542,0,0,1-1.15-1.991c0-.733.515-1.03,1.15-.664A2.54,2.54,0,0,1,274.231,270.51Z" transform="translate(-271.932 -268.361)" fill="#fff"/>
        <path id="Path_1846" data-name="Path 1846" d="M279.593,273.605c0,.733-.515,1.03-1.15.664a2.54,2.54,0,0,1-1.15-1.992c0-.733.514-1.03,1.15-.663A2.542,2.542,0,0,1,279.593,273.605Z" transform="translate(-273.811 -269.446)" fill="#fff"/>
        <path id="Path_1847" data-name="Path 1847" d="M284.955,276.7c0,.733-.515,1.03-1.15.663a2.539,2.539,0,0,1-1.15-1.991c0-.733.514-1.03,1.15-.664A2.543,2.543,0,0,1,284.955,276.7Z" transform="translate(-275.69 -270.531)" fill="#fff"/>
      </g>
    </g>
  </g>
</svg>
