<svg xmlns="http://www.w3.org/2000/svg" xmlns:xlink="http://www.w3.org/1999/xlink" width="186.999" height="173.483" viewBox="0 0 186.999 173.483">
  <defs>
    <linearGradient id="linear-gradient" x1="1.228" y1="-0.051" x2="0.009" y2="1.066" gradientUnits="objectBoundingBox">
      <stop offset="0.008" stop-color="#d5d5dc"/>
      <stop offset="0.131" stop-color="#dbdbe1"/>
      <stop offset="0.674" stop-color="#f5f5f7"/>
      <stop offset="1" stop-color="#fff"/>
    </linearGradient>
    <linearGradient id="linear-gradient-2" x1="0.071" y1="0.984" x2="0.734" y2="0.191" gradientUnits="objectBoundingBox">
      <stop offset="0.038" stop-color="#fff"/>
      <stop offset="0.046" stop-color="#fafafa"/>
      <stop offset="0.079" stop-color="#e9e9ed"/>
      <stop offset="0.121" stop-color="#dddde3"/>
      <stop offset="0.179" stop-color="#d6d6dd"/>
      <stop offset="0.341" stop-color="#d5d5dc"/>
      <stop offset="0.577" stop-color="#ebebee"/>
      <stop offset="0.807" stop-color="#fafafa"/>
      <stop offset="1" stop-color="#fff"/>
    </linearGradient>
    <linearGradient id="linear-gradient-3" x1="0.505" y1="-0.413" x2="0.547" y2="-7.614" xlink:href="#linear-gradient"/>
    <linearGradient id="linear-gradient-4" y1="0.5" x2="1" y2="0.5" gradientUnits="objectBoundingBox">
      <stop offset="0.001" stop-color="#2b3b6f"/>
      <stop offset="0.214" stop-color="#2e3e72"/>
      <stop offset="0.421" stop-color="#37487e"/>
      <stop offset="0.625" stop-color="#475a92"/>
      <stop offset="0.826" stop-color="#5d73ad"/>
      <stop offset="1" stop-color="#768ecb"/>
    </linearGradient>
    <linearGradient id="linear-gradient-6" x1="-0.111" y1="0.5" x2="0.889" y2="0.5" gradientUnits="objectBoundingBox">
      <stop offset="0.001" stop-color="#d5654e"/>
      <stop offset="0.285" stop-color="#d6684e"/>
      <stop offset="0.56" stop-color="#d9744f"/>
      <stop offset="0.83" stop-color="#df8751"/>
      <stop offset="0.998" stop-color="#e49853"/>
    </linearGradient>
    <linearGradient id="linear-gradient-7" x1="0" y1="0.5" x2="1" y2="0.5" xlink:href="#linear-gradient-6"/>
    <radialGradient id="radial-gradient" cx="433.094" cy="350.152" r="6.53" gradientTransform="translate(-0.506 -0.414) scale(1.01 1.01)" gradientUnits="userSpaceOnUse">
      <stop offset="0" stop-color="#ebc2a0"/>
      <stop offset="0.293" stop-color="#eabf9e"/>
      <stop offset="0.423" stop-color="#e9b898"/>
      <stop offset="0.521" stop-color="#e8ab8e"/>
      <stop offset="0.603" stop-color="#e59980"/>
      <stop offset="0.674" stop-color="#e2826e"/>
      <stop offset="0.691" stop-color="#e27c69"/>
    </radialGradient>
    <radialGradient id="radial-gradient-2" cx="2136.449" cy="1598.259" r="9.156" gradientTransform="translate(-571.237 -428.888) scale(1.328 1.328)" gradientUnits="userSpaceOnUse">
      <stop offset="0" stop-color="#ebc2a0"/>
      <stop offset="0.168" stop-color="#eabe9c"/>
      <stop offset="0.331" stop-color="#e9b293"/>
      <stop offset="0.492" stop-color="#e69f84"/>
      <stop offset="0.65" stop-color="#e3836f"/>
      <stop offset="0.689" stop-color="#e27c69"/>
    </radialGradient>
    <linearGradient id="linear-gradient-9" y1="0.5" x2="1" y2="0.5" gradientUnits="objectBoundingBox">
      <stop offset="0.002" stop-color="#e49853"/>
      <stop offset="0.17" stop-color="#df8751"/>
      <stop offset="0.44" stop-color="#d9744f"/>
      <stop offset="0.715" stop-color="#d6684e"/>
      <stop offset="0.999" stop-color="#d5654e"/>
    </linearGradient>
    <radialGradient id="radial-gradient-3" cx="76.143" cy="23.585" r="5.616" gradientTransform="translate(-8.686 -2.309) scale(0.948 0.948)" gradientUnits="userSpaceOnUse">
      <stop offset="0" stop-color="#ebc2a0"/>
      <stop offset="0.281" stop-color="#eac09e"/>
      <stop offset="0.382" stop-color="#e9b999"/>
      <stop offset="0.454" stop-color="#e8ad8f"/>
      <stop offset="0.512" stop-color="#e69c82"/>
      <stop offset="0.561" stop-color="#e38671"/>
      <stop offset="0.581" stop-color="#e27c69"/>
    </radialGradient>
    <radialGradient id="radial-gradient-4" cx="246.747" cy="127.509" r="8.906" gradientTransform="translate(0 -9.026) scale(1 1.115)" xlink:href="#radial-gradient-3"/>
    <radialGradient id="radial-gradient-5" cx="-115.244" cy="-491.78" r="11.396" gradientTransform="translate(-36.779 -152.437) scale(0.812 0.812)" xlink:href="#radial-gradient-3"/>
    <radialGradient id="radial-gradient-6" cx="174.796" cy="630.139" r="8.148" gradientTransform="translate(-7.204 -25.409) scale(1.078 1.078)" xlink:href="#radial-gradient-3"/>
    <linearGradient id="linear-gradient-18" x1="-0.359" y1="0.756" x2="1.236" y2="0.255" xlink:href="#linear-gradient-6"/>
    <linearGradient id="linear-gradient-20" x1="0.157" y1="0.5" x2="1.157" y2="0.5" gradientUnits="objectBoundingBox">
      <stop offset="0" stop-color="#efc8a0"/>
      <stop offset="0.102" stop-color="#eab793" stop-opacity="0.8"/>
      <stop offset="0.226" stop-color="#e5a685" stop-opacity="0.592"/>
      <stop offset="0.352" stop-color="#e2967a" stop-opacity="0.408"/>
      <stop offset="0.479" stop-color="#de8a70" stop-opacity="0.263"/>
      <stop offset="0.607" stop-color="#dc8169" stop-opacity="0.145"/>
      <stop offset="0.735" stop-color="#da7a64" stop-opacity="0.067"/>
      <stop offset="0.866" stop-color="#d97661" stop-opacity="0.016"/>
      <stop offset="1" stop-color="#d97560" stop-opacity="0"/>
    </linearGradient>
    <linearGradient id="linear-gradient-21" x1="0.184" y1="0.5" x2="1.184" y2="0.5" xlink:href="#linear-gradient-20"/>
    <linearGradient id="linear-gradient-22" x1="0.123" y1="0.5" x2="1.123" y2="0.5" xlink:href="#linear-gradient-20"/>
    <linearGradient id="linear-gradient-23" x1="0.133" y1="0.5" x2="1.133" y2="0.5" xlink:href="#linear-gradient-20"/>
    <linearGradient id="linear-gradient-24" x1="0" y1="0.5" x2="1.561" y2="0.5" xlink:href="#linear-gradient-20"/>
    <linearGradient id="linear-gradient-25" x1="0" y1="0.5" x2="1" y2="0.5" xlink:href="#linear-gradient"/>
    <linearGradient id="linear-gradient-28" x1="-0.016" y1="0.451" x2="0.991" y2="0.451" xlink:href="#linear-gradient"/>
  </defs>
  <g id="Group_108" data-name="Group 108" transform="translate(-24.779 -41.013)">
    <g id="Group_41" data-name="Group 41" transform="translate(36.801 88.834)">
      <g id="Group_37" data-name="Group 37" transform="translate(0 0)">
        <g id="Group_35" data-name="Group 35" transform="translate(0.004)">
          <path id="Path_1660" data-name="Path 1660" d="M83.554,182.91l-2.037-.343-.974-.165-3.258-.551A9.566,9.566,0,0,0,75,179.777c-.3-.2-.617-.383-.939-.551a32.519,32.519,0,0,0-7.175-2.3c-.653-.168-1.3-.343-1.926-.54l-.031-.009c-3.853-1.211-8.188-3.013-10.112-6.83a9.589,9.589,0,0,1-.979-4.053c0-.088,0-.175,0-.262q0-.25.005-.5c.074-2.579.814-5.142,2.655-6.683a5.349,5.349,0,0,1,.749-.531,6.267,6.267,0,0,1,2.036-.766,10.43,10.43,0,0,1,2.9-.14c.3.024.608.06.911.107a25.768,25.768,0,0,1,7.6,2.8,19.8,19.8,0,0,1,1.745,1.016c.269.171.534.353.794.54a22.524,22.524,0,0,1,2.683,2.26c.206.2.409.411.607.622a24.975,24.975,0,0,1,2.592,3.259q.351.525.676,1.068A26.024,26.024,0,0,1,83.554,182.91Z" transform="translate(-53.839 -156.57)" fill="#d97560"/>
          <path id="Path_1661" data-name="Path 1661" d="M81.517,182.626l-.974-.165c-.516-.824-1.051-1.637-1.58-2.454a.354.354,0,0,1-.223.033,12.422,12.422,0,0,0-3.737-.2c-.3-.2-.617-.383-.939-.551a9.9,9.9,0,0,1,4.4-.048c-.654-1.021-1.292-2.053-1.874-3.122a14.687,14.687,0,0,0-1.352-2.033c-.982,1.373-2.937,1.877-4.483,2.247a33.74,33.74,0,0,1-3.867.657c-.653-.168-1.3-.343-1.926-.54a.369.369,0,0,1,.067-.012,47.467,47.467,0,0,0,4.942-.7c1.56-.326,3.751-.759,4.718-2.171a.33.33,0,0,1,.064-.073A60.254,60.254,0,0,0,70,168.87c-.943-.883-1.866-1.79-2.792-2.692-1.891,1.466-4.968,1.034-7.136.711-2.105-.314-4.155-.871-6.227-1.334q0-.132,0-.262c0-.167,0-.334.005-.5,1.883.42,3.746.926,5.651,1.246,2.09.353,5.254.964,7.163-.39-.489-.473-.978-.944-1.475-1.407a41.334,41.334,0,0,0-5.883-4.76,10.924,10.924,0,0,0-2.8-1.371,5.349,5.349,0,0,1,.749-.531,13.478,13.478,0,0,1,2.344,1.2,36.849,36.849,0,0,1,5.688,4.515,21.074,21.074,0,0,0-1.549-3.65c-.49-1.005-1-2-1.546-2.975.3.024.608.06.911.107q.7,1.276,1.329,2.581a16.31,16.31,0,0,1,1.781,4.72.475.475,0,0,1,0,.094q.605.583,1.2,1.171a.367.367,0,0,1,.078.076c1.11,1.086,2.216,2.174,3.357,3.214.036.032.07.064.1.1a12.168,12.168,0,0,0,1.364-4.477,13.916,13.916,0,0,0,.131-3.659c.269.171.534.353.794.54a15.914,15.914,0,0,1-.182,3.222,12.881,12.881,0,0,1-1.547,4.889c.774.708,1.529,1.412,2.248,2.14.727-2.662,1.454-5.323,2.163-7.991.206.2.409.411.607.622q-1.07,4-2.168,7.993a21.054,21.054,0,0,1,2.951,3.89c.356-1.326.785-2.633,1.122-3.966a23.309,23.309,0,0,0,.687-4.658q.351.525.676,1.068a22.757,22.757,0,0,1-.555,3.435c-.393,1.617-.935,3.194-1.338,4.81a.394.394,0,0,1-.1.176C78.955,178.771,80.294,180.664,81.517,182.626Z" transform="translate(-53.839 -156.629)" fill="#fff"/>
        </g>
        <g id="Group_36" data-name="Group 36" transform="translate(0 12.298)">
          <path id="Path_1662" data-name="Path 1662" d="M89.114,190.556l-1.339,1.573-.64.752L84.992,195.4a9.577,9.577,0,0,0-2.95.9c-.326.159-.645.334-.954.524a32.528,32.528,0,0,0-5.65,4.984c-.478.474-.959.939-1.451,1.378l-.024.022c-3.014,2.688-6.782,5.487-11.046,5.183a9.584,9.584,0,0,1-3.982-1.236c-.077-.043-.153-.086-.228-.131-.143-.085-.287-.172-.428-.262-2.177-1.385-4-3.335-4.378-5.7a5.3,5.3,0,0,1-.073-.915,6.275,6.275,0,0,1,.386-2.141,10.425,10.425,0,0,1,1.366-2.562c.176-.249.364-.492.559-.728a25.764,25.764,0,0,1,6.3-5.095,19.842,19.842,0,0,1,1.766-.978c.285-.143.576-.278.87-.406a22.551,22.551,0,0,1,3.316-1.145c.28-.072.562-.14.844-.2a24.94,24.94,0,0,1,4.128-.556q.63-.032,1.263-.033A26.022,26.022,0,0,1,89.114,190.556Z" transform="translate(-53.829 -186.288)" fill="#eab07b"/>
          <path id="Path_1663" data-name="Path 1663" d="M87.775,192.13l-.64.752c-.972.021-1.944.064-2.917.1a.356.356,0,0,1-.086.209,12.422,12.422,0,0,0-2.09,3.1c-.326.159-.645.334-.954.523a9.906,9.906,0,0,1,2.215-3.8c-1.212.038-2.425.057-3.641.009a14.64,14.64,0,0,0-2.439.12c.675,1.547.107,3.484-.368,5a33.8,33.8,0,0,1-1.418,3.658c-.478.474-.959.939-1.451,1.378a.417.417,0,0,1,.024-.064,47.352,47.352,0,0,0,1.934-4.6c.52-1.507,1.27-3.609.554-5.164a.317.317,0,0,1-.031-.092,60.252,60.252,0,0,0-6.408,1.716c-1.241.358-2.493.685-3.743,1.018.29,2.375-1.657,4.8-3.046,6.492-1.349,1.647-2.878,3.122-4.336,4.663-.077-.043-.153-.086-.228-.131-.143-.085-.287-.172-.428-.262,1.325-1.4,2.714-2.743,3.965-4.214,1.374-1.614,3.521-4.018,3.336-6.351-.656.178-1.311.357-1.964.546a41.3,41.3,0,0,0-7.1,2.612,10.909,10.909,0,0,0-2.613,1.7,5.3,5.3,0,0,1-.073-.915,13.478,13.478,0,0,1,2.235-1.4,36.858,36.858,0,0,1,6.792-2.571,21.053,21.053,0,0,0-3.928-.54c-1.114-.095-2.23-.166-3.347-.2.176-.249.364-.492.559-.728q1.452.056,2.9.182a16.305,16.305,0,0,1,4.966.89.454.454,0,0,1,.081.048q.811-.221,1.623-.434a.356.356,0,0,1,.106-.029c1.5-.4,3-.789,4.48-1.235l.135-.041a12.163,12.163,0,0,0-3.145-3.465,13.926,13.926,0,0,0-3.076-1.988c.285-.143.576-.278.87-.406a15.933,15.933,0,0,1,2.675,1.807,12.89,12.89,0,0,1,3.4,3.834c1-.3,2-.589,2.989-.834q-2.869-2.983-5.753-5.953c.28-.072.562-.14.844-.2q2.887,2.968,5.753,5.957a21.029,21.029,0,0,1,4.853-.54c-.957-.986-1.859-2.024-2.831-3a23.314,23.314,0,0,0-3.647-2.977q.63-.032,1.263-.033a22.729,22.729,0,0,1,2.665,2.237c1.187,1.166,2.263,2.44,3.445,3.614a.4.4,0,0,1,.1.173C83.152,192.354,85.464,192.174,87.775,192.13Z" transform="translate(-53.829 -186.288)" fill="#fff"/>
        </g>
      </g>
      <g id="Group_40" data-name="Group 40" transform="translate(125.718 59.258)">
        <g id="Group_38" data-name="Group 38" transform="translate(6.655)">
          <path id="Path_1664" data-name="Path 1664" d="M374.556,330.468l1.919-.767.917-.367,3.068-1.228a9.582,9.582,0,0,1,1.79-2.509q.382-.387.8-.738a32.536,32.536,0,0,1,6.527-3.765c.6-.3,1.2-.61,1.768-.936l.028-.015c3.51-2,7.364-4.678,8.436-8.815a9.58,9.58,0,0,0,.1-4.169c-.016-.086-.033-.172-.052-.257-.035-.163-.072-.327-.112-.489-.618-2.5-1.885-4.854-4.009-5.969a5.331,5.331,0,0,0-.845-.361,6.276,6.276,0,0,0-2.152-.317,10.444,10.444,0,0,0-2.865.477c-.292.088-.581.188-.867.3a25.746,25.746,0,0,0-6.839,4.345,19.928,19.928,0,0,0-1.49,1.362c-.226.225-.447.458-.662.7a22.5,22.5,0,0,0-2.144,2.778c-.158.242-.312.488-.461.735a24.96,24.96,0,0,0-1.844,3.734q-.231.587-.434,1.186A26.025,26.025,0,0,0,374.556,330.468Z" transform="translate(-373.702 -299.764)" fill="#eab07b"/>
          <path id="Path_1665" data-name="Path 1665" d="M378.5,330.152l.917-.367c.33-.915.68-1.822,1.024-2.733a.353.353,0,0,0,.225-.015,12.422,12.422,0,0,1,3.609-.99q.382-.387.8-.738a9.906,9.906,0,0,0-4.312.886c.422-1.136.828-2.28,1.171-3.447a14.625,14.625,0,0,1,.891-2.273c1.251,1.133,3.268,1.213,4.858,1.247a33.8,33.8,0,0,0,3.919-.176c.6-.3,1.2-.61,1.768-.936a.381.381,0,0,0-.068,0,47.364,47.364,0,0,1-4.977.365c-1.594.012-3.826.052-5.071-1.123a.329.329,0,0,0-.078-.058,60.287,60.287,0,0,1,3.671-5.526c.735-1.063,1.445-2.144,2.159-3.222,2.158,1.032,5.074-.041,7.125-.816,1.991-.753,3.877-1.731,5.8-2.622-.016-.086-.033-.172-.052-.257-.035-.163-.072-.327-.112-.489-1.751.809-3.465,1.7-5.259,2.414-1.968.787-4.931,2.055-7.084,1.136.378-.565.757-1.129,1.145-1.687a41.268,41.268,0,0,1,4.742-5.9,10.918,10.918,0,0,1,2.447-1.933,5.341,5.341,0,0,0-.845-.361,13.49,13.49,0,0,0-2.036,1.673,36.878,36.878,0,0,0-4.6,5.617,21.108,21.108,0,0,1,.741-3.895c.266-1.086.555-2.166.882-3.236-.292.088-.581.188-.867.3q-.41,1.394-.752,2.8a16.313,16.313,0,0,0-.741,4.99.449.449,0,0,0,.019.092q-.468.7-.929,1.4a.357.357,0,0,0-.06.091c-.855,1.3-1.706,2.594-2.6,3.851l-.082.115a12.168,12.168,0,0,1-2.281-4.087,13.932,13.932,0,0,1-.9-3.549c-.226.225-.447.458-.662.7a15.915,15.915,0,0,0,.859,3.111,12.885,12.885,0,0,0,2.547,4.45c-.607.856-1.2,1.7-1.744,2.567q-1.911-3.671-3.806-7.351-.237.363-.461.735,1.892,3.683,3.811,7.353a21.028,21.028,0,0,0-2.06,4.427c-.629-1.221-1.325-2.408-1.937-3.639a23.349,23.349,0,0,1-1.657-4.407q-.231.587-.434,1.186a22.7,22.7,0,0,0,1.269,3.239c.727,1.5,1.59,2.924,2.326,4.418a.391.391,0,0,0,.132.152C380.19,325.842,379.282,327.976,378.5,330.152Z" transform="translate(-375.73 -300.215)" fill="#fff"/>
        </g>
        <g id="Group_39" data-name="Group 39" transform="translate(0 14.526)">
          <path id="Path_1666" data-name="Path 1666" d="M357.621,342.67l1.642,1.255.785.6,2.627,2.005a9.572,9.572,0,0,1,3.072.251c.352.086.7.19,1.044.31a32.505,32.505,0,0,1,6.577,3.675c.568.362,1.136.715,1.71,1.039l.028.016c3.515,1.989,7.79,3.927,11.893,2.727a9.584,9.584,0,0,0,3.63-2.051q.1-.087.195-.176c.122-.113.244-.229.363-.346,1.834-1.814,3.2-4.106,3.071-6.5a5.368,5.368,0,0,0-.123-.91,6.28,6.28,0,0,0-.83-2.01,10.456,10.456,0,0,0-1.878-2.216c-.225-.206-.459-.4-.7-.592a25.743,25.743,0,0,0-7.236-3.646,19.852,19.852,0,0,0-1.933-.582c-.309-.08-.622-.15-.937-.212a22.567,22.567,0,0,0-3.484-.418c-.289-.011-.579-.018-.868-.019a24.965,24.965,0,0,0-4.151.33c-.415.068-.828.146-1.242.235A26.023,26.023,0,0,0,357.621,342.67Z" transform="translate(-357.621 -334.866)" fill="#d97560"/>
          <path id="Path_1667" data-name="Path 1667" d="M361.588,343.925l.785.6c.954-.185,1.914-.35,2.872-.521a.357.357,0,0,0,.128.185,12.428,12.428,0,0,1,2.7,2.592c.352.086.7.19,1.044.31a9.9,9.9,0,0,0-2.97-3.249c1.193-.219,2.383-.457,3.561-.761a14.639,14.639,0,0,1,2.408-.4c-.332,1.655.633,3.428,1.419,4.81a33.734,33.734,0,0,0,2.16,3.275c.568.362,1.136.715,1.709,1.039a.39.39,0,0,0-.037-.058,47.45,47.45,0,0,1-2.864-4.087c-.827-1.362-2.005-3.259-1.634-4.93a.336.336,0,0,0,.01-.1,60.279,60.279,0,0,1,6.626.321c1.289.086,2.582.142,3.873.2.22,2.382,2.636,4.336,4.351,5.7,1.667,1.324,3.473,2.442,5.225,3.64q.1-.087.195-.176c.122-.113.244-.229.363-.346-1.592-1.089-3.234-2.106-4.768-3.279-1.684-1.287-4.291-3.182-4.605-5.5.679.035,1.357.071,2.035.118a41.33,41.33,0,0,1,7.495,1.049,10.924,10.924,0,0,1,2.914,1.111,5.35,5.35,0,0,0-.123-.91,13.466,13.466,0,0,0-2.48-.891A36.847,36.847,0,0,0,386.8,342.6a21.052,21.052,0,0,1,3.724-1.359c1.069-.329,2.144-.634,3.23-.9-.225-.206-.459-.4-.7-.592-.938.241-1.87.507-2.793.791a16.305,16.305,0,0,0-4.665,1.921.43.43,0,0,0-.069.064c-.559-.03-1.119-.055-1.678-.081a.359.359,0,0,0-.11-.005c-1.551-.07-3.1-.136-4.639-.259l-.141-.012a12.162,12.162,0,0,1,2.34-4.053,13.92,13.92,0,0,1,2.585-2.593c-.309-.079-.622-.15-.936-.212a15.906,15.906,0,0,0-2.231,2.332A12.887,12.887,0,0,0,378.2,342.1c-1.046-.082-2.076-.153-3.1-.182q2.173-3.522,4.362-7.036c-.289-.011-.579-.018-.868-.019q-2.193,3.512-4.361,7.04a21.049,21.049,0,0,0-4.857.5c.726-1.166,1.388-2.372,2.132-3.527a23.3,23.3,0,0,1,2.935-3.682c-.415.068-.828.146-1.242.235a22.686,22.686,0,0,0-2.131,2.75c-.914,1.391-1.7,2.863-2.6,4.261a.4.4,0,0,0-.063.191C366.154,343.166,363.856,343.48,361.588,343.925Z" transform="translate(-359.946 -334.867)" fill="#fff"/>
        </g>
      </g>
    </g>
    <g id="Group_49" data-name="Group 49" transform="translate(50.345 76.654)">
      <g id="Group_42" data-name="Group 42" transform="translate(0 0)">
        <path id="Path_1668" data-name="Path 1668" d="M100.014,146.341h-.979a12.476,12.476,0,0,1-12.476-12.476h0a6.747,6.747,0,0,1,6.728-6.728h0a6.748,6.748,0,0,1,6.728,6.728Z" transform="translate(-86.559 -127.137)" fill="url(#linear-gradient)"/>
        <path id="Path_1669" data-name="Path 1669" d="M223.154,229.466h-101.6s.6,5.985-6.509,6.483a7.857,7.857,0,0,1-7.855-7.855V133.951a6.756,6.756,0,0,0-6.733-6.733H210a13.147,13.147,0,0,1,13.149,13.149Z" transform="translate(-94.706 -127.184)" fill="url(#linear-gradient-2)"/>
        <path id="Path_1670" data-name="Path 1670" d="M250.42,374.217a5.683,5.683,0,0,1-2.841,4.6,11.055,11.055,0,0,1-6.262,1.879H135.33c7.111-.5,6.509-6.483,6.509-6.483Z" transform="translate(-115.147 -271.968)" fill="url(#linear-gradient-3)"/>
      </g>
      <g id="Group_44" data-name="Group 44" transform="translate(23.873 42.957)">
        <path id="Path_1671" data-name="Path 1671" d="M206.512,238.407h64.34a1.251,1.251,0,0,0,1.247-1.247h0a1.251,1.251,0,0,0-1.247-1.247h-64.34a1.251,1.251,0,0,0-1.247,1.247h0A1.251,1.251,0,0,0,206.512,238.407Z" transform="translate(-180.014 -233.855)" fill="#cdcdcd"/>
        <path id="Path_1672" data-name="Path 1672" d="M206.512,270.953h64.34a1.251,1.251,0,0,0,1.247-1.247h0a1.251,1.251,0,0,0-1.247-1.247h-64.34a1.251,1.251,0,0,0-1.247,1.247h0A1.251,1.251,0,0,0,206.512,270.953Z" transform="translate(-180.014 -252.933)" fill="#cdcdcd"/>
        <path id="Path_1673" data-name="Path 1673" d="M206.512,254.68h64.34a1.251,1.251,0,0,0,1.247-1.247h0a1.251,1.251,0,0,0-1.247-1.247h-64.34a1.251,1.251,0,0,0-1.247,1.247h0A1.251,1.251,0,0,0,206.512,254.68Z" transform="translate(-180.014 -243.394)" fill="#cdcdcd"/>
        <g id="Group_43" data-name="Group 43">
          <path id="Path_1674" data-name="Path 1674" d="M162.827,249.522h-18.58V230.941h18.58ZM145.369,248.4h16.336V232.063H145.369Z" transform="translate(-144.247 -230.941)" fill="#d97560"/>
        </g>
      </g>
      <g id="Group_46" data-name="Group 46" transform="translate(24.434 73.382)">
        <path id="Path_1675" data-name="Path 1675" d="M211.189,311.926h-64.34a1.251,1.251,0,0,1-1.247-1.247h0a1.251,1.251,0,0,1,1.247-1.247h64.34a1.251,1.251,0,0,1,1.247,1.247h0A1.251,1.251,0,0,1,211.189,311.926Z" transform="translate(-145.602 -307.375)" fill="#cdcdcd"/>
        <path id="Path_1676" data-name="Path 1676" d="M211.189,344.472h-64.34a1.25,1.25,0,0,1-1.247-1.247h0a1.251,1.251,0,0,1,1.247-1.247h64.34a1.251,1.251,0,0,1,1.247,1.247h0A1.25,1.25,0,0,1,211.189,344.472Z" transform="translate(-145.602 -326.453)" fill="#cdcdcd"/>
        <path id="Path_1677" data-name="Path 1677" d="M211.189,328.2h-64.34a1.25,1.25,0,0,1-1.247-1.247h0a1.251,1.251,0,0,1,1.247-1.247h64.34a1.251,1.251,0,0,1,1.247,1.247h0A1.25,1.25,0,0,1,211.189,328.2Z" transform="translate(-145.602 -316.914)" fill="#cdcdcd"/>
        <g id="Group_45" data-name="Group 45" transform="translate(73.505)">
          <path id="Path_1678" data-name="Path 1678" d="M341.8,323.042H323.224v-18.58H341.8Zm-17.459-1.122h16.337V305.584H324.346Z" transform="translate(-323.224 -304.462)" fill="#d97560"/>
        </g>
      </g>
      <g id="Group_48" data-name="Group 48" transform="translate(24.434 17.04)">
        <path id="Path_1679" data-name="Path 1679" d="M211.189,175.779h-64.34a1.251,1.251,0,0,1-1.247-1.247h0a1.251,1.251,0,0,1,1.247-1.247h64.34a1.251,1.251,0,0,1,1.247,1.247h0A1.251,1.251,0,0,1,211.189,175.779Z" transform="translate(-145.602 -171.228)" fill="#cdcdcd"/>
        <path id="Path_1680" data-name="Path 1680" d="M211.189,208.325h-64.34a1.251,1.251,0,0,1-1.247-1.247h0a1.251,1.251,0,0,1,1.247-1.247h64.34a1.251,1.251,0,0,1,1.247,1.247h0A1.251,1.251,0,0,1,211.189,208.325Z" transform="translate(-145.602 -190.305)" fill="#cdcdcd"/>
        <path id="Path_1681" data-name="Path 1681" d="M211.189,192.052h-64.34A1.25,1.25,0,0,1,145.6,190.8h0a1.251,1.251,0,0,1,1.247-1.247h64.34a1.251,1.251,0,0,1,1.247,1.247h0A1.25,1.25,0,0,1,211.189,192.052Z" transform="translate(-145.602 -180.767)" fill="#cdcdcd"/>
        <g id="Group_47" data-name="Group 47" transform="translate(73.505)">
          <path id="Path_1682" data-name="Path 1682" d="M341.8,186.895H323.224V168.314H341.8Zm-17.459-1.122h16.337V169.436H324.346Z" transform="translate(-323.224 -168.314)" fill="#d97560"/>
        </g>
      </g>
      <path id="Path_1683" data-name="Path 1683" d="M147.9,235.4h0a1.893,1.893,0,0,0-.053,2.669l5.439,5.69a1.7,1.7,0,0,0,2.523-.079l11.719-13.9a1.6,1.6,0,0,0-.358-2.377h0a1.6,1.6,0,0,0-2.067.289l-10.511,11.959-4.008-4.194A1.893,1.893,0,0,0,147.9,235.4Z" transform="translate(-122.178 -185.757)" fill="#d97560"/>
      <path id="Path_1684" data-name="Path 1684" d="M327.251,173.836h0a1.893,1.893,0,0,0-.053,2.669l5.439,5.69a1.7,1.7,0,0,0,2.523-.079l11.719-13.9a1.6,1.6,0,0,0-.358-2.377h0a1.6,1.6,0,0,0-2.067.29l-10.511,11.958-4.008-4.194A1.893,1.893,0,0,0,327.251,173.836Z" transform="translate(-227.307 -149.672)" fill="#d97560"/>
      <path id="Path_1685" data-name="Path 1685" d="M337.836,317.025l4.549-4.549a1.312,1.312,0,0,0,0-1.849l-.2-.2a1.312,1.312,0,0,0-1.849,0l-4.549,4.549-4.549-4.549a1.311,1.311,0,0,0-1.849,0l-.2.2a1.312,1.312,0,0,0,0,1.849l4.549,4.549-4.549,4.549a1.312,1.312,0,0,0,0,1.849l.2.2a1.311,1.311,0,0,0,1.849,0l4.549-4.549,4.549,4.549a1.312,1.312,0,0,0,1.849,0l.2-.2a1.311,1.311,0,0,0,0-1.849Z" transform="translate(-228.559 -234.353)" fill="#d97560"/>
    </g>
    <g id="Group_88" data-name="Group 88" transform="translate(32.948 42.691)">
      <g id="Group_59" data-name="Group 59" transform="translate(131.471 101.509)">
        <path id="Path_1686" data-name="Path 1686" d="M373.716,354.726c.468,1.126,1.676,1.668,3.505,1.709a9.015,9.015,0,0,0,1.419-.079,9.929,9.929,0,0,0,3.617-1.246l7.494-4.3.807-.464a4.208,4.208,0,0,1,6.212,4.507l-.509,2.45.008.05,5.09,6.481.054.066c-.281,2.429,1.659,1.974,5.984.869.6-.157.861-.9-.24-.956l-4.432-.381-.012-.029-6.3-15.726a6.254,6.254,0,0,0-7.747-3.708l-4.436,1.676,0,0-6.555,2.26a6.107,6.107,0,0,0-4.134,4.966A3.639,3.639,0,0,0,373.716,354.726Z" transform="translate(-368.824 -321.596)" fill="url(#linear-gradient-4)"/>
        <path id="Path_1687" data-name="Path 1687" d="M398.643,382.7l0,.05c-1.577,1.87.294,2.562,4.5,4.031.592.2,1.217-.265.331-.927L400,383.081l.008-.037L403.539,366l.509-2.45a4.206,4.206,0,0,0-6.212-4.507l-.807.463-11.111,5.545-.008,0,11.749-.223Z" transform="translate(-376.103 -330.293)" fill="url(#linear-gradient-4)"/>
        <path id="Path_1688" data-name="Path 1688" d="M368.2,336.562h0a3.631,3.631,0,0,1-.183-1.851,6.114,6.114,0,0,1,4.133-4.968l3.1-1.069c-3-3.748-4.193-7.454-2.367-14.606l-2.483-1.41C361.937,323.171,362.8,330.611,368.2,336.562Z" transform="translate(-363.313 -303.43)" fill="url(#linear-gradient-6)"/>
        <path id="Path_1689" data-name="Path 1689" d="M380.4,325.924c-.047-.1-.467-1.607-.467-1.607l-13.05,1.917,3.1-5.929a7.747,7.747,0,0,0,.977-3.516c.008-1.591-.871-2.839-2.654-2.215a6.384,6.384,0,0,0-3.655,3.43c-3.712,8.21-3.434,12.986,2.524,13.091a9.92,9.92,0,0,0,4.879-1.242Z" transform="translate(-362.211 -304.457)" fill="url(#linear-gradient-7)"/>
        <path id="Path_1690" data-name="Path 1690" d="M405.031,336.773l.467,1.607,3.842-1.575C408.738,335.282,407.184,335.287,405.031,336.773Z" transform="translate(-387.311 -316.913)" fill="#efc8a0"/>
        <path id="Path_1691" data-name="Path 1691" d="M400.886,326.544l.51,1.3,9.117-3.536s1.425-10.371,1.319-10.371h-1.346l-1.451,9.262Z" transform="translate(-384.881 -304.182)" fill="#768ecb"/>
        <path id="Path_1692" data-name="Path 1692" d="M379.341,309.349l1.466-2.336,2.245.966a4.62,4.62,0,0,0-1.227,2.78Z" transform="translate(-372.252 -300.121)" fill="url(#radial-gradient)"/>
        <g id="Group_57" data-name="Group 57" transform="translate(7.165)">
          <g id="Group_56" data-name="Group 56" transform="translate(0.803 0.724)">
            <path id="Path_1693" data-name="Path 1693" d="M381.642,297.494c.331,1.473,1.4,3.047,2.614,3.115a3.384,3.384,0,0,0,3.036-1.948.067.067,0,0,0,.035.014c.154.012.364.012.414-.125s-.086-.285-.225-.413a3.6,3.6,0,0,0,.138-.531c.717-4.152-.47-5.251-2.084-5.484-1.233-.178-2.888,1.376-3.636,2.944C381.8,294.932,381.161,297.226,381.642,297.494Z" transform="translate(-381.465 -292.107)" fill="url(#radial-gradient-2)"/>
            <g id="Group_51" data-name="Group 51" transform="translate(4.273 5.371)">
              <g id="Group_50" data-name="Group 50">
                <path id="Path_1694" data-name="Path 1694" d="M392.078,306.306a1.177,1.177,0,0,1-.227-1.161.082.082,0,0,1,.157.047,1.131,1.131,0,0,0,.648,1.36.082.082,0,0,1-.066.149A1.6,1.6,0,0,1,392.078,306.306Z" transform="translate(-391.789 -305.087)" fill="#2b3b6f"/>
              </g>
            </g>
            <g id="Group_53" data-name="Group 53" transform="translate(5.239 4.632)">
              <g id="Group_52" data-name="Group 52">
                <path id="Path_1695" data-name="Path 1695" d="M394.163,303.709c-.076.26-.035.5.092.538s.291-.144.368-.4.035-.5-.092-.538S394.239,303.449,394.163,303.709Z" transform="translate(-394.125 -303.3)" fill="#2b3b6f"/>
              </g>
            </g>
            <g id="Group_55" data-name="Group 55" transform="translate(5.001 3.742)">
              <g id="Group_54" data-name="Group 54">
                <path id="Path_1696" data-name="Path 1696" d="M393.581,301.509l-.007-.006a.082.082,0,0,1,0-.116.674.674,0,0,1,.954-.076.081.081,0,0,1,.009.115.079.079,0,0,1-.115.009.518.518,0,0,0-.729.065A.082.082,0,0,1,393.581,301.509Z" transform="translate(-393.549 -301.149)" fill="#2b3b6f"/>
              </g>
            </g>
          </g>
          <path id="Path_1697" data-name="Path 1697" d="M379.527,295.167a4.486,4.486,0,0,0,.931,2.483,1.261,1.261,0,0,0,1.064.4,1.612,1.612,0,0,0,.782-.708,6.2,6.2,0,0,0,.488-.857.68.68,0,0,1-.087-.008c-.468-.074-1.192-.641-1.1-1.192a.939.939,0,0,1,1-.861.842.842,0,0,1,.65.6,12.383,12.383,0,0,0,3.638-.72,1.786,1.786,0,0,1,.066.9,1.325,1.325,0,0,0,.617-1.258,1.085,1.085,0,0,0-.132-.414,1.563,1.563,0,0,1,.372.24c.741.666-.025,1.668-.091,1.755a1.931,1.931,0,0,0,.832-2.756c-.155-.243-.5-.621-1.821-.944-1.341-.323-.906-1.622-3.658-1.448C381.638,290.47,379.448,291.939,379.527,295.167Z" transform="translate(-379.525 -290.358)" fill="#d97560"/>
        </g>
        <g id="Group_58" data-name="Group 58" transform="translate(21.99 41.809)">
          <path id="Path_1698" data-name="Path 1698" d="M420.406,421.067c.592.2,1.217-.265.331-.927l-3.484-2.768.008-.037c-.5-.128-.96-.244-1.362-.348l0,.05C414.327,418.907,416.2,419.6,420.406,421.067Z" transform="translate(-415.349 -406.393)" fill="#d97560"/>
          <path id="Path_1699" data-name="Path 1699" d="M440.884,391.884c-.281,2.429,1.659,1.974,5.984.869.6-.157.861-.9-.24-.956l-4.432-.381-.012-.029c-.567.178-1.043.331-1.353.43Z" transform="translate(-430.285 -391.387)" fill="#d97560"/>
        </g>
      </g>
      <g id="Group_74" data-name="Group 74" transform="translate(72.651 0)">
        <path id="Path_1700" data-name="Path 1700" d="M250.626,51.327a9.491,9.491,0,0,1-.75,4.991,6.16,6.16,0,0,0-.767,2.661,5.292,5.292,0,0,1-.1,2.064c-.47,1.392-1.584,2.272-2.314,3.5-.855,1.442-.293,2.691-.136,4.2-.727-.889-1.955-1.961-2.328-3.049-.272-.792-.517-1.71-.713-2.52-.419.447.038,1.75.216,2.224-.766-.749-1.393-1.6-2.119-2.381a5.554,5.554,0,0,1-1.263-3.948c.038-1.832.749-3.72.457-5.522a11.736,11.736,0,0,1,.345-5.434,3.994,3.994,0,0,1,3.258-2.994C250.255,44.443,250.558,50.3,250.626,51.327Z" transform="translate(-231.961 -45.067)" fill="#2b3b6f"/>
        <g id="Group_72" data-name="Group 72" transform="translate(0 0.23)">
          <path id="Path_1701" data-name="Path 1701" d="M259.782,74.138s2.44-.807,4.5,2.432a41.008,41.008,0,0,0,3.172,4.414l1.505,1.792a1.588,1.588,0,0,1-.857,2.569h0l-7.315-5.768Z" transform="translate(-243.35 -62.285)" fill="url(#linear-gradient-7)"/>
          <path id="Path_1702" data-name="Path 1702" d="M232.537,74.431s-2.44-.807-4.5,2.432a41,41,0,0,1-3.172,4.414l-1.505,1.792a1.589,1.589,0,0,0,.857,2.569h0l7.315-5.769Z" transform="translate(-221.783 -62.457)" fill="url(#linear-gradient-9)"/>
          <path id="Path_1703" data-name="Path 1703" d="M231.547,115.535h-3.895l6.248,5.451,6.019.435L248,115.334l-4.621-.144Z" transform="translate(-224.517 -86.4)" fill="#2b3b6f"/>
          <path id="Path_1704" data-name="Path 1704" d="M251.232,73.783c-.083.215-.406.406-.877.559-1.933.65-6.34.757-6.741-.1l1.109-3.319a.451.451,0,0,1,.021-.07l.186-.55.414-.05a1.469,1.469,0,0,0,.463-.17.944.944,0,0,0,.43-.679v0a2.812,2.812,0,0,0,.029-.306,1.7,1.7,0,0,0-.166-.9l2.326-.559.087.948c.017.174.029.352.037.53.012.161.021.327.025.492a.484.484,0,0,0,.435.48l.509.066,1.184,2.508Z" transform="translate(-233.872 -58.527)" fill="url(#radial-gradient-3)"/>
          <path id="Path_1705" data-name="Path 1705" d="M246.517,85.757a1.618,1.618,0,0,1-.24-.72c-.012-.145-.012-.29-.012-.435a2.456,2.456,0,0,1,.116-.828l.608-1.192.737-1.436c.708-1.386,1.171-3.162.5-4.511-.654-1.324-.377-3.3-.873-4.1a4.5,4.5,0,0,0-1.527-.145h-.012l-.641-.058-.043-.42a.439.439,0,0,0-.516-.391,5.908,5.908,0,0,1-2.133-.038.441.441,0,0,0-.538.341c-.06.307-.182.639-.437.675l-.414.05q-.354.006-.683.025a5.29,5.29,0,0,0-1.229.19l.108,1.084-.356.406.4,1.25a5.683,5.683,0,0,1-.286,1.308,4.9,4.9,0,0,0,.1,3.464l.77,1.842.116.277A3.567,3.567,0,0,1,240,85.17l-2.93,4.742c4.507,3.141,8.5,3.306,11.823-.348Z" transform="translate(-230.039 -60.776)" fill="url(#linear-gradient-7)"/>
          <g id="Group_60" data-name="Group 60" transform="translate(4.446 28.931)">
            <path id="Path_1706" data-name="Path 1706" d="M252.51,118.9a2.76,2.76,0,0,1-2.12,2.089,2.718,2.718,0,0,1-.273.043,74.134,74.134,0,0,1-11.56,2.108q-1.746.189-3.563.325l-2.046,1.9c-.018.016-.037.034-.058.049a1.294,1.294,0,0,1-2.049-1.265l.12-.685s0-.009,0-.012a2.011,2.011,0,0,1,1.542-1.272l2.123-.387c.792-.252,1.573-.5,2.338-.756,4.537-1.493,8.586-3.069,11.673-5.244a2.759,2.759,0,0,1,3.871,3.106Z" transform="translate(-230.82 -115.532)" fill="url(#linear-gradient-4)"/>
            <path id="Path_1707" data-name="Path 1707" d="M234.994,132.31l-2.046,1.9c-.018.016-.037.034-.058.049A1.294,1.294,0,0,1,230.841,133l.12-.685s0-.009,0-.012a2.011,2.011,0,0,1,1.542-1.272l2.123-.387C235.421,130.388,236.2,132.219,234.994,132.31Z" transform="translate(-230.82 -124.374)" fill="#d97560"/>
          </g>
          <g id="Group_61" data-name="Group 61" transform="translate(0 28.751)">
            <path id="Path_1708" data-name="Path 1708" d="M239.613,124.994c-.021-.016-.04-.034-.058-.049l-2.079-1.932c-1.229-.129-2.442-.261-3.625-.4A72.773,72.773,0,0,1,222.54,120.6a2.714,2.714,0,0,1-.274-.046,2.759,2.759,0,1,1,1.751-5.191A48.647,48.647,0,0,0,234.95,120.4q1.58.534,3.234,1.013l0,.012,1.813.332a2.007,2.007,0,0,1,1.542,1.272s0,.009.006.012l.12.685A1.3,1.3,0,0,1,239.613,124.994Z" transform="translate(-220.075 -115.099)" fill="url(#linear-gradient-4)"/>
            <path id="Path_1709" data-name="Path 1709" d="M264.038,133.94c-.022-.016-.04-.034-.058-.049l-2.079-1.932s-.653-1.318.709-1.6l0,.012,1.813.332a2.007,2.007,0,0,1,1.542,1.272s0,.009.006.012l.12.685A1.3,1.3,0,0,1,264.038,133.94Z" transform="translate(-244.5 -124.045)" fill="#d97560"/>
          </g>
          <g id="Group_69" data-name="Group 69" transform="translate(9.07)">
            <path id="Path_1710" data-name="Path 1710" d="M250.509,51.908a.889.889,0,0,0-.512.149,6.922,6.922,0,0,0-1.474-2.958,2.344,2.344,0,0,0-.98-.786,1.69,1.69,0,0,0-.59-.176,5.414,5.414,0,0,0-.8,0,1.69,1.69,0,0,0-.59.176,2.346,2.346,0,0,0-.979.785,6.917,6.917,0,0,0-1.474,2.958.89.89,0,0,0-.512-.149c-.527.046-.7.881-.554,1.513a1.637,1.637,0,0,0,1.351,1.213,5.864,5.864,0,0,0,1.042,1.486,3.169,3.169,0,0,0,1.654,1.059l.057.014c.038.008.074.02.113.026s.052,0,.077.008l.065.006c.05,0,.1.007.151.007s.1,0,.151-.007l.065-.006c.026,0,.052,0,.078-.008s.074-.018.113-.026l.057-.014a3.17,3.17,0,0,0,1.654-1.059,5.856,5.856,0,0,0,1.041-1.485,1.637,1.637,0,0,0,1.351-1.213C251.208,52.788,251.036,51.953,250.509,51.908Z" transform="translate(-241.993 -47.087)" fill="url(#radial-gradient-4)"/>
            <path id="Path_1711" data-name="Path 1711" d="M248.056,46.523a2.234,2.234,0,0,1-.745,2.585,21.236,21.236,0,0,0-2.163,1.439,5.047,5.047,0,0,0-1.009,2.139l-.358-1.853a5.458,5.458,0,0,1-.148-1.675,4.336,4.336,0,0,1,1.435-2.451,4.083,4.083,0,0,1,.922-.728,3.806,3.806,0,0,1,4.428.883c.931,1.239,1.126,2.478.243,6.306.124-3.169-1.883-2.69-2.466-5.941" transform="translate(-242.943 -45.622)" fill="#2b3b6f"/>
            <g id="Group_68" data-name="Group 68" transform="translate(2.758 4.62)">
              <g id="Group_62" data-name="Group 62" transform="translate(0.823 2.154)">
                <path id="Path_1712" data-name="Path 1712" d="M251.1,62.755a.083.083,0,0,0,0-.16c-.268-.076-.28-.141-.281-.142,0-.069.278-.211.578-.3a.082.082,0,0,0,.058-.1.084.084,0,0,0-.1-.058c-.209.059-.7.223-.7.458,0,.169.23.254.4.3A.085.085,0,0,0,251.1,62.755Z" transform="translate(-250.646 -61.992)" fill="#2b3b6f"/>
              </g>
              <g id="Group_63" data-name="Group 63" transform="translate(1.225 2.661)">
                <path id="Path_1713" data-name="Path 1713" d="M252.449,64.339a1.367,1.367,0,0,0,.944-1,.095.095,0,0,0-.183-.051,1.316,1.316,0,0,1-1.482.934.095.095,0,1,0-.028.187A1.87,1.87,0,0,0,252.449,64.339Z" transform="translate(-251.619 -63.218)" fill="#2b3b6f"/>
              </g>
              <g id="Group_64" data-name="Group 64" transform="translate(2.722 0.919)">
                <path id="Path_1714" data-name="Path 1714" d="M255.794,59.6c-.022.315-.163.561-.317.55s-.26-.274-.239-.588.163-.561.316-.55S255.816,59.281,255.794,59.6Z" transform="translate(-255.236 -59.007)" fill="#2b3b6f"/>
              </g>
              <g id="Group_65" data-name="Group 65" transform="translate(0.104 0.872)">
                <path id="Path_1715" data-name="Path 1715" d="M249.469,59.484c-.021.315-.163.561-.316.55s-.26-.274-.239-.588.163-.561.316-.55S249.49,59.169,249.469,59.484Z" transform="translate(-248.911 -58.895)" fill="#2b3b6f"/>
              </g>
              <g id="Group_66" data-name="Group 66" transform="translate(2.661 0.044)">
                <path id="Path_1716" data-name="Path 1716" d="M256.1,57.535l.009,0a.1.1,0,0,0,.049-.125.784.784,0,0,0-1.01-.465.1.1,0,0,0-.055.122.092.092,0,0,0,.122.056.6.6,0,0,1,.769.363A.1.1,0,0,0,256.1,57.535Z" transform="translate(-255.088 -56.895)" fill="#2b3b6f"/>
              </g>
              <g id="Group_67" data-name="Group 67">
                <path id="Path_1717" data-name="Path 1717" d="M248.782,57.266a.1.1,0,0,0,.061-.058h0a.354.354,0,0,1,.463-.208.1.1,0,0,0,.055-.182.541.541,0,0,0-.7.325.1.1,0,0,0,.118.123Z" transform="translate(-248.658 -56.787)" fill="#2b3b6f"/>
              </g>
            </g>
          </g>
          <g id="Group_70" data-name="Group 70" transform="translate(13.908 19.977)">
            <path id="Path_1718" data-name="Path 1718" d="M271.839,97.091l-4.156,2.734-1.118.737-.64.423-.408-1.077a.514.514,0,0,0,.168-.131l.053-.06.737-.845s3.539-5.858,5.48-4.863A1.894,1.894,0,0,1,271.839,97.091Z" transform="translate(-260.62 -93.895)" fill="url(#linear-gradient-7)"/>
            <path id="Path_1719" data-name="Path 1719" d="M258.988,108.751l-.094.064a1.041,1.041,0,0,1-.5.157l-1.837.048c.288.647-2.334,2-2.873,1.133,0,0,1.294-2.211,1.534-2.442l.277-.262a1.134,1.134,0,0,1,1.148-.243l1.463.505a.584.584,0,0,0,.475-.038Z" transform="translate(-253.684 -101.661)" fill="#eab07b"/>
          </g>
          <g id="Group_71" data-name="Group 71" transform="translate(1.206 19.977)">
            <path id="Path_1720" data-name="Path 1720" d="M223.843,97.091,228,99.826l1.119.737.64.423.408-1.077a.516.516,0,0,1-.168-.131l-.052-.06-.737-.845s-3.539-5.858-5.48-4.863A1.894,1.894,0,0,0,223.843,97.091Z" transform="translate(-222.989 -93.895)" fill="url(#linear-gradient-9)"/>
            <path id="Path_1721" data-name="Path 1721" d="M239.343,108.751l.094.064a1.038,1.038,0,0,0,.5.157l1.837.048c-.288.647,2.334,2,2.873,1.133,0,0-1.294-2.211-1.534-2.442l-.277-.262a1.134,1.134,0,0,0-1.148-.243l-1.462.505a.584.584,0,0,1-.475-.038Z" transform="translate(-232.575 -101.661)" fill="#eab07b"/>
          </g>
          <path id="Path_1722" data-name="Path 1722" d="M255.482,70.94a2.028,2.028,0,0,0-1.225,2.115c.12.525.612.771.944,1.145a2.36,2.36,0,0,1,.637,1.6,4.664,4.664,0,0,1,.713-3.113c.831-1.054,1.046-2.274-.713-2.255" transform="translate(-240.093 -60.164)" fill="#2b3b6f"/>
        </g>
        <g id="Group_73" data-name="Group 73" transform="translate(6.09 23.009)">
          <path id="Path_1723" data-name="Path 1723" d="M248.616,100.668H235.484a.692.692,0,0,0-.684.794l1.012,6.807a.574.574,0,0,0-.438.555h0a.575.575,0,0,0,.574.574h12.125a.575.575,0,0,0,.574-.574h0a.574.574,0,0,0-.55-.571l1.2-6.772A.692.692,0,0,0,248.616,100.668Z" transform="translate(-234.792 -100.668)" fill="#768ecb"/>
          <path id="Path_1724" data-name="Path 1724" d="M252.328,109.331a.827.827,0,1,1-1.17,0A.828.828,0,0,1,252.328,109.331Z" transform="translate(-244.243 -105.604)" fill="#fff"/>
        </g>
      </g>
      <g id="Group_87" data-name="Group 87" transform="translate(0 86.924)">
        <path id="Path_1725" data-name="Path 1725" d="M72.931,454.515c0,.823-6.361,1.49-14.207,1.49s-14.206-.667-14.206-1.49,6.361-1.49,14.206-1.49S72.931,453.692,72.931,454.515Z" transform="translate(-44.518 -371.124)" fill="#f2f2f2"/>
        <g id="Group_86" data-name="Group 86" transform="translate(3.407 0)">
          <g id="Group_85" data-name="Group 85">
            <path id="Path_1726" data-name="Path 1726" d="M91.143,375.635c3.238,9.972,1.578,20.887-3.7,30.8H85.185c4.192-11.31,5.462-21.268,1.474-27.227Z" transform="translate(-71.763 -325.76)" fill="url(#linear-gradient-4)"/>
            <path id="Path_1727" data-name="Path 1727" d="M84.235,449.864l-.6,1a.947.947,0,0,0,.792,1.435l6.827.082a.321.321,0,0,0,.325-.354c-.071-.612-.473-.957-1.41-1.263l-3.692-.9Z" transform="translate(-70.774 -369.271)" fill="#d97560"/>
            <g id="Group_75" data-name="Group 75" transform="translate(13.547 8.842)">
              <path id="Path_1728" data-name="Path 1728" d="M94.97,288.674l1.426.038c1.614,8.011-1.285,14.175-7.718,18.893a2,2,0,0,1-1.359.38h0a2,2,0,0,1-1.746-2.569l.032-.108a1.99,1.99,0,0,1,.76-1.059C92.205,300.156,96.05,295.189,94.97,288.674Z" transform="translate(-85.487 -283.629)" fill="url(#linear-gradient-7)"/>
              <path id="Path_1729" data-name="Path 1729" d="M107.681,281.845h1.261a19.546,19.546,0,0,0,.968-3.343c-.118-.7-.541-.122-1.114,1.077v-2.321a.769.769,0,0,0-1.3-.556C106.487,277.709,107.067,280.619,107.681,281.845Z" transform="translate(-98.067 -276.482)" fill="#efc8a0"/>
            </g>
            <g id="Group_77" data-name="Group 77" transform="translate(5.246)">
              <path id="Path_1730" data-name="Path 1730" d="M153.429,255.721l-1.186,2.052-1.185,2.049-2.328-4.707,2.345.3Z" transform="translate(-114.258 -255.115)" fill="#efc8a0"/>
              <path id="Path_1731" data-name="Path 1731" d="M156.75,256.151l-1.186,2.052c-.362-.726-.821-1.654-1.167-2.355Z" transform="translate(-117.579 -255.545)" fill="#2b3b6f"/>
              <g id="Group_76" data-name="Group 76">
                <rect id="Rectangle_82" data-name="Rectangle 82" width="33.505" height="5.251" transform="matrix(0.896, -0.443, 0.443, 0.896, 4.438, 14.85)" fill="#d97560"/>
                <rect id="Rectangle_83" data-name="Rectangle 83" width="1.252" height="5.251" transform="translate(3.316 15.405) rotate(-26.31)" fill="#768ecb"/>
                <path id="Path_1732" data-name="Path 1732" d="M68.744,292.341l2.327,4.707-.055.028-1.84.9a2.6,2.6,0,0,1-3.452-1.133h0a2.6,2.6,0,0,1,1.076-3.494c.692-.37,1.4-.743,1.889-.985Z" transform="translate(-65.429 -276.936)" fill="#2b3b6f"/>
              </g>
            </g>
            <path id="Path_1733" data-name="Path 1733" d="M74.657,362.734c-.068.2-.139.4-.209.61a110.483,110.483,0,0,1-17.673,34.4H54.534c5.971-10.37,10.274-20.418,12.235-28.4-3.332-3.877-1.681-5.821-.088-9.229.243-.472.461-.907.656-1.308A13.723,13.723,0,0,0,74.657,362.734Z" transform="translate(-53.796 -315.896)" fill="url(#linear-gradient-4)"/>
            <path id="Path_1734" data-name="Path 1734" d="M86.7,319.314s-.97,1.9-.622,2.718h2.8a5.167,5.167,0,0,1,.471-2.6Z" transform="translate(-72.244 -292.746)" fill="url(#radial-gradient-5)"/>
            <g id="Group_83" data-name="Group 83" transform="translate(9.478 19.231)">
              <g id="Group_82" data-name="Group 82" transform="translate(2.523 1.545)">
                <path id="Path_1735" data-name="Path 1735" d="M83.276,311.1a4.675,4.675,0,0,1-1.512-3.047,2.4,2.4,0,0,1,.454-1.835c.9-.924,2.412-1.767,4.533.874,0,0,1.563-.076.668.777a3.061,3.061,0,0,1,.122,3.655,2.458,2.458,0,0,1-2.173.6,3.51,3.51,0,0,1-2-.941Z" transform="translate(-81.751 -305.32)" fill="url(#radial-gradient-6)"/>
                <path id="Path_1736" data-name="Path 1736" d="M91.023,309.649c.181.19.387.287.461.216s-.013-.281-.194-.471-.387-.286-.461-.216S90.842,309.46,91.023,309.649Z" transform="translate(-87.057 -307.569)" fill="#152f3d"/>
                <g id="Group_79" data-name="Group 79" transform="translate(2.753 0.819)">
                  <g id="Group_78" data-name="Group 78">
                    <path id="Path_1737" data-name="Path 1737" d="M88.609,308.409a.1.1,0,0,0,.031-.1.629.629,0,0,1,.378-.813.1.1,0,1,0-.066-.189.825.825,0,0,0-.5,1.057.1.1,0,0,0,.124.068A.089.089,0,0,0,88.609,308.409Z" transform="translate(-88.403 -307.298)" fill="#152f3d"/>
                  </g>
                </g>
                <g id="Group_81" data-name="Group 81" transform="translate(4.492 3.207)">
                  <g id="Group_80" data-name="Group 80">
                    <path id="Path_1738" data-name="Path 1738" d="M93.779,313.079a.1.1,0,0,0-.107.017.629.629,0,0,1-.9.009.1.1,0,1,0-.142.141.824.824,0,0,0,1.172,0,.1.1,0,0,0,.008-.141A.1.1,0,0,0,93.779,313.079Z" transform="translate(-92.605 -313.071)" fill="#152f3d"/>
                  </g>
                </g>
              </g>
              <path id="Path_1739" data-name="Path 1739" d="M81.761,308.567v.012a2.359,2.359,0,0,1-2.09,2.288,4.155,4.155,0,0,1-2.392-.588,3.62,3.62,0,0,1-.124-5.943,3,3,0,0,1,3.927-2.644.57.57,0,0,1,.435.3c.124.306.406,1.68-1.635,3.41-.331.281.7.484,1.064.728a1.522,1.522,0,0,1,.459.5.914.914,0,0,0-1.15-.232c-.348.269-.314.89.07,1.386.265.343.923.31,1.424.165C81.761,308.157,81.761,308.364,81.761,308.567Z" transform="translate(-75.655 -301.586)" fill="#2b3b6f"/>
            </g>
            <path id="Path_1740" data-name="Path 1740" d="M53.488,452.905l-.6,1a.947.947,0,0,0,.792,1.435l6.827.082a.322.322,0,0,0,.326-.354c-.072-.613-.473-.957-1.41-1.263l-3.692-.9Z" transform="translate(-52.751 -371.054)" fill="#d97560"/>
            <path id="Path_1741" data-name="Path 1741" d="M92.566,342.037a13.723,13.723,0,0,1-7.32-3.928c2.215-4.575,2.446-3.911.432-8.542a5.722,5.722,0,0,1-.421-1.357c-.325-2.029-.344-4.219,1.4-4.654,1.219-.3,2.525.625,4.241,1.112,2.894.823,4.5,2.76,3.875,4.858-.108.363-.884,1.833-.884,1.833s-.651,4.666-.948,6.748A38.209,38.209,0,0,0,92.566,342.037Z" transform="translate(-71.705 -295.199)" fill="url(#linear-gradient-18)"/>
            <g id="Group_84" data-name="Group 84" transform="translate(14.46 7.809)">
              <path id="Path_1742" data-name="Path 1742" d="M117.109,279.019c1.3-1.411,1.954-2.845,1.562-4.315a.92.92,0,0,0-.8-.718c-1.238-.049-1.4,1.644-1.665,3.346l-.851-.011c-.074.819.182.965.506,1.564Z" transform="translate(-103.898 -273.985)" fill="#efc8a0"/>
              <path id="Path_1743" data-name="Path 1743" d="M99.49,285.56l1.574.15c1.183,8.983-2.487,15.584-9.958,20.319a2.227,2.227,0,0,1-1.532.319h0a2.221,2.221,0,0,1-1.739-2.973l.044-.117a2.2,2.2,0,0,1,.92-1.115C95.568,298.054,100.194,292.848,99.49,285.56Z" transform="translate(-87.692 -280.77)" fill="url(#linear-gradient-7)"/>
            </g>
            <path id="Path_1744" data-name="Path 1744" d="M71.1,311.431a10.362,10.362,0,0,0-2.161-.414,3.235,3.235,0,0,0-2.029,1.087,3.923,3.923,0,0,0,.437,5.742c.829.615,1.529,1.01,1.761,2.1a2.671,2.671,0,0,1-.314,2.2c-.907,1.2-3.336,3.19-1.858,4.889.636.732,1.994,1.033,2.142,2.121.079.573-.323.879-.8,1.135a1.44,1.44,0,0,1-1.9-.213c-.174.443,1.009,1.555,1.369,1.793a4,4,0,0,0,2.775.243c2.508-.313,3.566-2.7,3.974-4.909.328-1.77-.784-3.253-1.4-4.816a8.358,8.358,0,0,1-.439-4.809c.462-2.39.963-6.064-2.238-6.4" transform="translate(-60.439 -287.881)" fill="#2b3b6f"/>
          </g>
        </g>
      </g>
    </g>
    <g id="Group_89" data-name="Group 89" transform="translate(24.779 41.013)">
      <path id="Path_1745" data-name="Path 1745" d="M171.251,59.415a5.7,5.7,0,0,0-4.623,2.36,5.747,5.747,0,0,0-1.155-1.185,5.71,5.71,0,1,0-11.353-.95,5.711,5.711,0,1,0-.766,11.138h7.83a5.676,5.676,0,0,0,1.641,0h7.605a5.711,5.711,0,1,0,.821-11.363Z" transform="translate(-96.317 -48.63)" fill="url(#linear-gradient-20)"/>
      <path id="Path_1746" data-name="Path 1746" d="M54.953,111.81h-.029a4.118,4.118,0,0,0-6.721-3.645,4.115,4.115,0,0,0-6.721,3.645h-.029a4.118,4.118,0,0,0,0,8.237,4.162,4.162,0,0,0,.592-.043h5.647a4.089,4.089,0,0,0,1.184,0h5.484a4.162,4.162,0,0,0,.592.043,4.118,4.118,0,0,0,0-8.237Z" transform="translate(-32.14 -79.819)" fill="url(#linear-gradient-21)"/>
      <path id="Path_1747" data-name="Path 1747" d="M362.636,45.363a4.588,4.588,0,0,0-3.719,1.9,4.632,4.632,0,0,0-.929-.953,4.594,4.594,0,1,0-9.134-.764,4.595,4.595,0,1,0-.616,8.96h6.3a4.562,4.562,0,0,0,1.32,0h6.118a4.594,4.594,0,1,0,.66-9.141Z" transform="translate(-211.301 -41.013)" fill="url(#linear-gradient-22)"/>
      <path id="Path_1748" data-name="Path 1748" d="M44.467,339.879a4.6,4.6,0,0,0-3.726,1.9,4.632,4.632,0,0,0-.931-.956,4.6,4.6,0,1,0-9.149-.765,4.6,4.6,0,1,0-.617,8.976h6.311a4.579,4.579,0,0,0,1.322,0h6.13a4.6,4.6,0,1,0,.661-9.158Z" transform="translate(-24.779 -213.645)" fill="url(#linear-gradient-23)"/>
      <path id="Path_1749" data-name="Path 1749" d="M450.92,107.906a2.853,2.853,0,0,0-1.338.331,3.5,3.5,0,1,0-7-.128,2.867,2.867,0,1,0-.648,5.5h3.931a2.86,2.86,0,0,0,.824,0h3.818a2.867,2.867,0,1,0,.412-5.7Z" transform="translate(-267.382 -78.26)" fill="url(#linear-gradient-24)"/>
    </g>
    <g id="Group_107" data-name="Group 107" transform="translate(60.719 46.372)">
      <g id="Group_94" data-name="Group 94" transform="translate(121.409 73.847)">
        <path id="Path_1750" data-name="Path 1750" d="M434.657,233.779s-6.7,1.131-18.781,13.912L405.007,236.3s2.855-2.584,10.357-3.541a59.451,59.451,0,0,1,16.844.595C433,233.481,433.818,233.623,434.657,233.779Z" transform="translate(-405.007 -232.41)" fill="url(#linear-gradient-25)"/>
        <path id="Path_1751" data-name="Path 1751" d="M446.879,233.355c-6.181,1.318-8.855,3.857-8.855,3.857a18.981,18.981,0,0,0-7.989-4.452A59.451,59.451,0,0,1,446.879,233.355Z" transform="translate(-419.678 -232.41)" fill="url(#linear-gradient-25)"/>
        <g id="Group_93" data-name="Group 93" transform="translate(6.043 0.848)">
          <g id="Group_90" data-name="Group 90" transform="translate(0 0.913)">
            <path id="Path_1752" data-name="Path 1752" d="M427.7,244.533a.175.175,0,0,1-.157-.1c-1.27-2.668-7.792-7.407-7.857-7.455a.174.174,0,0,1,.2-.282c.271.2,6.659,4.84,7.968,7.587a.174.174,0,0,1-.082.232A.17.17,0,0,1,427.7,244.533Z" transform="translate(-419.609 -236.665)" fill="#cdcdcd"/>
          </g>
          <g id="Group_91" data-name="Group 91" transform="translate(2.174 0.391)">
            <path id="Path_1753" data-name="Path 1753" d="M431.992,241.98a.173.173,0,0,1-.158-.1c-.84-1.838-6.838-6.115-6.9-6.158a.174.174,0,1,1,.2-.283c.25.178,6.134,4.375,7.013,6.3a.174.174,0,0,1-.086.231A.179.179,0,0,1,431.992,241.98Z" transform="translate(-424.862 -235.404)" fill="#cdcdcd"/>
          </g>
          <g id="Group_92" data-name="Group 92" transform="translate(4.141)">
            <path id="Path_1754" data-name="Path 1754" d="M436.3,240.024a.174.174,0,0,1-.16-.106c-.709-1.668-6.383-5.1-6.44-5.136a.174.174,0,1,1,.179-.3c.238.143,5.828,3.527,6.581,5.3a.174.174,0,0,1-.092.228A.171.171,0,0,1,436.3,240.024Z" transform="translate(-429.615 -234.459)" fill="#cdcdcd"/>
          </g>
        </g>
      </g>
      <g id="Group_104" data-name="Group 104" transform="translate(0 0)">
        <g id="Group_95" data-name="Group 95">
          <path id="Path_1755" data-name="Path 1755" d="M111.627,61.51s12.385,16.053,16.532,18.179c0,0,5.156-5.1,11.588-6.857,0,0-7.016-14.618-11.747-18.87C128,53.962,121.354,60.978,111.627,61.51Z" transform="translate(-111.627 -53.962)" fill="url(#linear-gradient-25)"/>
        </g>
        <g id="Group_96" data-name="Group 96" transform="translate(11.741 2.566)">
          <path id="Path_1756" data-name="Path 1756" d="M140.159,63.245a.16.16,0,0,1-.093-.29l3.88-2.764a.159.159,0,0,1,.185.259l-3.88,2.764A.158.158,0,0,1,140.159,63.245Z" transform="translate(-139.999 -60.162)" fill="#cdcdcd"/>
        </g>
        <g id="Group_97" data-name="Group 97" transform="translate(12.863 3.948)">
          <path id="Path_1757" data-name="Path 1757" d="M142.869,66.585a.159.159,0,0,1-.093-.289l3.88-2.764a.159.159,0,1,1,.185.259l-3.88,2.764A.159.159,0,0,1,142.869,66.585Z" transform="translate(-142.709 -63.502)" fill="#cdcdcd"/>
        </g>
        <g id="Group_98" data-name="Group 98" transform="translate(8.704 7.282)">
          <path id="Path_1758" data-name="Path 1758" d="M132.82,79.293a.159.159,0,0,1-.084-.3c.072-.044,7.2-4.45,10.218-7.394a.159.159,0,0,1,.223.228c-3.047,2.968-10.2,7.393-10.273,7.437A.158.158,0,0,1,132.82,79.293Z" transform="translate(-132.661 -71.559)" fill="#cdcdcd"/>
        </g>
        <g id="Group_99" data-name="Group 99" transform="translate(9.819 8.664)">
          <path id="Path_1759" data-name="Path 1759" d="M135.513,82.773a.159.159,0,0,1-.094-.288c.065-.048,6.527-4.8,10.138-7.553a.159.159,0,1,1,.194.253c-3.613,2.76-10.078,7.509-10.143,7.557A.156.156,0,0,1,135.513,82.773Z" transform="translate(-135.354 -74.899)" fill="#cdcdcd"/>
        </g>
        <g id="Group_100" data-name="Group 100" transform="translate(11.376 10.232)">
          <path id="Path_1760" data-name="Path 1760" d="M139.275,86.289a.158.158,0,0,1-.114-.048.159.159,0,0,1,0-.226c.056-.054,5.625-5.437,9.907-7.314a.16.16,0,0,1,.128.292c-4.229,1.854-9.758,7.2-9.813,7.251A.16.16,0,0,1,139.275,86.289Z" transform="translate(-139.116 -78.688)" fill="#cdcdcd"/>
        </g>
        <g id="Group_101" data-name="Group 101" transform="translate(12.545 11.694)">
          <path id="Path_1761" data-name="Path 1761" d="M142.1,89.476a.159.159,0,0,1-.106-.279c.29-.257,7.126-6.3,9.578-6.971a.16.16,0,0,1,.084.308c-2.382.647-9.381,6.84-9.451,6.9A.16.16,0,0,1,142.1,89.476Z" transform="translate(-141.941 -82.22)" fill="#cdcdcd"/>
        </g>
        <g id="Group_102" data-name="Group 102" transform="translate(13.827 13.05)">
          <path id="Path_1762" data-name="Path 1762" d="M145.2,92.433a.159.159,0,0,1-.107-.278c.25-.225,6.162-5.534,9.08-6.648a.159.159,0,1,1,.113.3c-2.862,1.093-8.919,6.533-8.98,6.587A.16.16,0,0,1,145.2,92.433Z" transform="translate(-145.04 -85.496)" fill="#cdcdcd"/>
        </g>
        <g id="Group_103" data-name="Group 103" transform="translate(14.803 14.591)">
          <path id="Path_1763" data-name="Path 1763" d="M147.557,95.705a.159.159,0,0,1-.105-.279c.263-.23,6.465-5.641,8.948-6.2a.159.159,0,0,1,.07.311c-2.4.543-8.745,6.075-8.808,6.13A.158.158,0,0,1,147.557,95.705Z" transform="translate(-147.397 -89.22)" fill="#cdcdcd"/>
        </g>
      </g>
      <g id="Group_106" data-name="Group 106" transform="translate(4.848 140.891)">
        <path id="Path_1764" data-name="Path 1764" d="M143.744,401.492,137.989,413.1c-6.152-.155-8.494-7.995-14.646-8.15l5.218-10.523C134.892,394.219,137.412,401.7,143.744,401.492Z" transform="translate(-123.343 -394.42)" fill="url(#linear-gradient-28)"/>
        <g id="Group_105" data-name="Group 105" transform="translate(5.047 1.318)">
          <path id="Path_1765" data-name="Path 1765" d="M139.8,400.445c-.1-.062-.2-.123-.3-.183l-3.966,8q.147.1.292.2Z" transform="translate(-135.539 -399.162)" fill="#cdcdcd"/>
          <path id="Path_1766" data-name="Path 1766" d="M138.273,410.2l4-8.073c-.095-.071-.191-.141-.287-.21l-4,8.057Q138.135,410.087,138.273,410.2Z" transform="translate(-136.979 -400.133)" fill="#cdcdcd"/>
          <path id="Path_1767" data-name="Path 1767" d="M140.625,412.127l4.033-8.133-.279-.226-4.025,8.116Z" transform="translate(-138.361 -401.218)" fill="#cdcdcd"/>
          <path id="Path_1768" data-name="Path 1768" d="M142.93,414.146l4.063-8.192-.276-.231-4.054,8.176Z" transform="translate(-139.714 -402.363)" fill="#cdcdcd"/>
          <path id="Path_1769" data-name="Path 1769" d="M145.235,416.167l4.092-8.252c-.094-.074-.186-.15-.279-.226l-4.083,8.235Z" transform="translate(-141.064 -403.516)" fill="#cdcdcd"/>
          <path id="Path_1770" data-name="Path 1770" d="M147.583,418.1l4.121-8.311q-.144-.1-.287-.21l-4.113,8.294Q147.442,417.988,147.583,418.1Z" transform="translate(-142.435 -404.623)" fill="#cdcdcd"/>
          <path id="Path_1771" data-name="Path 1771" d="M149.728,419.654q.145.1.292.2l4.151-8.37q-.151-.089-.3-.183Z" transform="translate(-143.856 -405.632)" fill="#cdcdcd"/>
          <path id="Path_1772" data-name="Path 1772" d="M137.364,397.685c-.127-.031-.256-.058-.386-.081l-.923,1.86q.194.039.384.086Z" transform="translate(-135.841 -397.604)" fill="#cdcdcd"/>
          <path id="Path_1773" data-name="Path 1773" d="M138.11,399.981q.184.059.364.127l.929-1.875c-.12-.043-.243-.084-.366-.122Z" transform="translate(-137.046 -397.901)" fill="#cdcdcd"/>
        </g>
      </g>
    </g>
  </g>
</svg>
